M48
METRIC,TZ
T1C0.300
T2C0.762
T3C1.000
T4C3.200
%
G90
G05
T1
X-469.9Y-83.82
X-468.63Y-83.82
X-467.36Y-83.82
X-466.09Y-76.2
X-466.09Y-83.82
X-465.963Y-63.5
X-464.82Y-83.82
X-463.55Y-77.47
X-463.55Y-83.82
X-462.28Y-77.47
X-462.28Y-82.55
X-461.01Y-77.47
X-461.01Y-82.55
X-459.74Y-72.39
X-459.74Y-82.55
X-458.47Y-82.55
X-457.2Y-72.39
X-454.66Y-72.39
X-452.628Y-63.5
X-447.04Y-77.47
X-444.5Y-83.82
X-443.23Y-83.82
X-441.96Y-83.82
X-440.69Y-76.2
X-440.69Y-83.82
X-439.42Y-83.82
X-438.658Y-63.5
X-438.15Y-77.47
X-438.15Y-83.82
X-436.88Y-77.47
X-436.88Y-82.55
X-435.61Y-77.47
X-435.61Y-82.55
X-434.34Y-72.39
X-434.34Y-82.55
X-433.07Y-82.55
X-431.8Y-72.39
X-429.26Y-72.39
X-427.228Y-63.5
X-421.64Y-77.47
X-419.1Y-83.82
X-417.83Y-83.82
X-416.56Y-83.82
X-415.29Y-76.2
X-415.29Y-83.82
X-414.528Y-63.5
X-414.02Y-83.82
X-412.75Y-77.47
X-412.75Y-83.82
X-411.48Y-77.47
X-411.48Y-82.55
X-410.21Y-77.47
X-410.21Y-82.55
X-408.94Y-72.39
X-408.94Y-82.55
X-407.67Y-82.55
X-406.4Y-72.39
X-403.86Y-72.39
X-403.733Y-63.5
X-396.24Y-77.47
X-393.7Y-83.82
X-392.43Y-83.82
X-391.16Y-83.82
X-390.398Y-63.5
X-389.89Y-76.2
X-389.89Y-83.82
X-388.62Y-83.82
X-387.35Y-77.47
X-387.35Y-83.82
X-386.08Y-77.47
X-386.08Y-82.55
X-384.81Y-77.47
X-384.81Y-82.55
X-383.54Y-72.39
X-383.54Y-82.55
X-382.27Y-82.55
X-381.Y-72.39
X-378.46Y-72.39
X-377.063Y-63.5
X-366.776Y-63.5
X-355.346Y-63.5
X-344.17Y-63.5
X-340.36Y-63.5
X-331.47Y-63.5
X-321.31Y-63.5
X-309.88Y-63.5
X-307.34Y-77.47
X-304.8Y-83.82
X-303.53Y-83.82
X-302.26Y-83.82
X-300.99Y-76.2
X-300.99Y-83.82
X-299.72Y-83.82
X-298.45Y-77.47
X-298.45Y-83.82
X-297.18Y-63.5
X-297.18Y-77.47
X-297.18Y-82.55
X-295.91Y-77.47
X-295.91Y-82.55
X-294.64Y-72.39
X-294.64Y-82.55
X-293.37Y-82.55
X-292.1Y-72.39
X-289.56Y-72.39
X-284.48Y-63.5
X-271.78Y-63.5
X-269.24Y-77.47
X-266.7Y-83.82
X-265.43Y-83.82
X-264.16Y-83.82
X-262.89Y-76.2
X-262.89Y-83.82
X-261.62Y-83.82
X-260.35Y-77.47
X-260.35Y-83.82
X-259.08Y-77.47
X-259.08Y-82.55
X-257.81Y-77.47
X-257.81Y-82.55
X-256.54Y-63.5
X-256.54Y-72.39
X-256.54Y-82.55
X-255.27Y-82.55
X-254.Y-72.39
X-251.46Y-72.39
X-241.3Y-63.5
X-231.14Y-77.47
X-228.6Y-83.82
X-227.33Y-83.82
X-226.06Y-83.82
X-224.79Y-63.5
X-224.79Y-76.2
X-224.79Y-83.82
X-223.52Y-83.82
X-222.25Y-77.47
X-222.25Y-83.82
X-220.98Y-77.47
X-220.98Y-82.55
X-219.71Y-77.47
X-219.71Y-82.55
X-218.44Y-72.39
X-218.44Y-82.55
X-217.17Y-82.55
X-215.9Y-72.39
X-213.36Y-72.39
X-212.09Y-63.5
X-196.85Y-63.5
X-193.04Y-77.47
X-190.5Y-83.82
X-189.23Y-83.82
X-187.96Y-83.82
X-186.69Y-76.2
X-186.69Y-83.82
X-185.42Y-83.82
X-184.15Y-77.47
X-184.15Y-83.82
X-182.88Y-63.5
X-182.88Y-77.47
X-182.88Y-82.55
X-181.61Y-77.47
X-181.61Y-82.55
X-180.34Y-72.39
X-180.34Y-82.55
X-179.07Y-82.55
X-177.8Y-72.39
X-175.26Y-72.39
X-167.64Y-63.5
X-154.94Y-63.5
X-154.94Y-77.47
X-152.4Y-83.82
X-151.13Y-83.82
X-149.86Y-83.82
X-148.59Y-76.2
X-148.59Y-83.82
X-147.32Y-83.82
X-146.05Y-77.47
X-146.05Y-83.82
X-144.78Y-77.47
X-144.78Y-82.55
X-143.51Y-77.47
X-143.51Y-82.55
X-142.24Y-72.39
X-142.24Y-82.55
X-140.97Y-63.5
X-140.97Y-82.55
X-139.7Y-72.39
X-137.16Y-72.39
X-127.Y-63.5
X-116.84Y-77.47
X-114.3Y-83.82
X-113.03Y-63.5
X-113.03Y-83.82
X-111.76Y-83.82
X-110.49Y-76.2
X-110.49Y-83.82
X-109.22Y-83.82
X-107.95Y-77.47
X-107.95Y-83.82
X-106.68Y-77.47
X-106.68Y-82.55
X-105.41Y-77.47
X-105.41Y-82.55
X-104.14Y-72.39
X-104.14Y-82.55
X-102.87Y-82.55
X-101.6Y-72.39
X-100.33Y-63.5
X-99.06Y-72.39
X-87.63Y-63.5
X-78.74Y-77.47
X-76.2Y-63.5
X-76.2Y-83.82
X-74.93Y-83.82
X-73.66Y-83.82
X-72.39Y-76.2
X-72.39Y-83.82
X-71.12Y-83.82
X-69.85Y-77.47
X-69.85Y-83.82
X-68.58Y-77.47
X-68.58Y-82.55
X-67.31Y-77.47
X-67.31Y-82.55
X-66.04Y-72.39
X-66.04Y-82.55
X-64.77Y-82.55
X-63.5Y-72.39
X-62.23Y-63.5
X-60.96Y-72.39
X-48.26Y-63.5
X-40.64Y-77.47
X-38.1Y-83.82
X-36.83Y-83.82
X-35.56Y-83.82
X-34.29Y-63.5
X-34.29Y-76.2
X-34.29Y-83.82
X-33.02Y-83.82
X-31.75Y-77.47
X-31.75Y-83.82
X-30.48Y-77.47
X-30.48Y-82.55
X-29.21Y-77.47
X-29.21Y-82.55
X-27.94Y-72.39
X-27.94Y-82.55
X-26.67Y-82.55
X-25.4Y-72.39
X-22.86Y-72.39
X-20.32Y-63.5
X-6.35Y-63.5
X7.62Y-64.77
T2
X5.08Y-76.2
X7.62Y-76.2
X10.16Y-76.2
X12.7Y-76.2
X5.08Y-78.74
X7.62Y-78.74
X10.16Y-78.74
X12.7Y-78.74
T3
X-40.64Y-80.01
X-38.1Y-80.01
X-35.56Y-80.01
X-33.02Y-80.01
X-30.48Y-80.01
X-27.94Y-80.01
X-25.4Y-80.01
X-22.86Y-80.01
X-20.32Y-80.01
X5.08Y-73.66
X7.62Y-73.66
X10.16Y-73.66
X12.7Y-73.66
X-447.04Y-80.01
X-444.5Y-80.01
X-441.96Y-80.01
X-439.42Y-80.01
X-436.88Y-80.01
X-434.34Y-80.01
X-431.8Y-80.01
X-429.26Y-80.01
X-426.72Y-80.01
X-116.84Y-74.93
X-114.3Y-74.93
X-111.76Y-74.93
X-109.22Y-74.93
X-106.68Y-74.93
X-104.14Y-74.93
X-101.6Y-74.93
X-99.06Y-74.93
X-96.52Y-74.93
X5.08Y-81.28
X7.62Y-81.28
X10.16Y-81.28
X12.7Y-81.28
X-78.74Y-80.01
X-76.2Y-80.01
X-73.66Y-80.01
X-71.12Y-80.01
X-68.58Y-80.01
X-66.04Y-80.01
X-63.5Y-80.01
X-60.96Y-80.01
X-58.42Y-80.01
X-307.34Y-80.01
X-304.8Y-80.01
X-302.26Y-80.01
X-299.72Y-80.01
X-297.18Y-80.01
X-294.64Y-80.01
X-292.1Y-80.01
X-289.56Y-80.01
X-287.02Y-80.01
X-472.44Y-80.01
X-469.9Y-80.01
X-467.36Y-80.01
X-464.82Y-80.01
X-462.28Y-80.01
X-459.74Y-80.01
X-457.2Y-80.01
X-454.66Y-80.01
X-452.12Y-80.01
X-472.44Y-74.93
X-469.9Y-74.93
X-467.36Y-74.93
X-464.82Y-74.93
X-462.28Y-74.93
X-459.74Y-74.93
X-457.2Y-74.93
X-454.66Y-74.93
X-452.12Y-74.93
X-421.64Y-74.93
X-419.1Y-74.93
X-416.56Y-74.93
X-414.02Y-74.93
X-411.48Y-74.93
X-408.94Y-74.93
X-406.4Y-74.93
X-403.86Y-74.93
X-401.32Y-74.93
X-447.04Y-74.93
X-444.5Y-74.93
X-441.96Y-74.93
X-439.42Y-74.93
X-436.88Y-74.93
X-434.34Y-74.93
X-431.8Y-74.93
X-429.26Y-74.93
X-426.72Y-74.93
X-231.14Y-74.93
X-228.6Y-74.93
X-226.06Y-74.93
X-223.52Y-74.93
X-220.98Y-74.93
X-218.44Y-74.93
X-215.9Y-74.93
X-213.36Y-74.93
X-210.82Y-74.93
X-396.24Y-80.01
X-393.7Y-80.01
X-391.16Y-80.01
X-388.62Y-80.01
X-386.08Y-80.01
X-383.54Y-80.01
X-381.Y-80.01
X-378.46Y-80.01
X-375.92Y-80.01
X-40.64Y-74.93
X-38.1Y-74.93
X-35.56Y-74.93
X-33.02Y-74.93
X-30.48Y-74.93
X-27.94Y-74.93
X-25.4Y-74.93
X-22.86Y-74.93
X-20.32Y-74.93
X-269.24Y-74.93
X-266.7Y-74.93
X-264.16Y-74.93
X-261.62Y-74.93
X-259.08Y-74.93
X-256.54Y-74.93
X-254.Y-74.93
X-251.46Y-74.93
X-248.92Y-74.93
X-116.84Y-80.01
X-114.3Y-80.01
X-111.76Y-80.01
X-109.22Y-80.01
X-106.68Y-80.01
X-104.14Y-80.01
X-101.6Y-80.01
X-99.06Y-80.01
X-96.52Y-80.01
X-473.71Y-72.39
X-473.71Y-77.47
X-421.64Y-80.01
X-419.1Y-80.01
X-416.56Y-80.01
X-414.02Y-80.01
X-411.48Y-80.01
X-408.94Y-80.01
X-406.4Y-80.01
X-403.86Y-80.01
X-401.32Y-80.01
X-78.74Y-74.93
X-76.2Y-74.93
X-73.66Y-74.93
X-71.12Y-74.93
X-68.58Y-74.93
X-66.04Y-74.93
X-63.5Y-74.93
X-60.96Y-74.93
X-58.42Y-74.93
X-307.34Y-74.93
X-304.8Y-74.93
X-302.26Y-74.93
X-299.72Y-74.93
X-297.18Y-74.93
X-294.64Y-74.93
X-292.1Y-74.93
X-289.56Y-74.93
X-287.02Y-74.93
X-269.24Y-80.01
X-266.7Y-80.01
X-264.16Y-80.01
X-261.62Y-80.01
X-259.08Y-80.01
X-256.54Y-80.01
X-254.Y-80.01
X-251.46Y-80.01
X-248.92Y-80.01
X-193.04Y-80.01
X-190.5Y-80.01
X-187.96Y-80.01
X-185.42Y-80.01
X-182.88Y-80.01
X-180.34Y-80.01
X-177.8Y-80.01
X-175.26Y-80.01
X-172.72Y-80.01
X-396.24Y-74.93
X-393.7Y-74.93
X-391.16Y-74.93
X-388.62Y-74.93
X-386.08Y-74.93
X-383.54Y-74.93
X-381.Y-74.93
X-378.46Y-74.93
X-375.92Y-74.93
X-154.94Y-74.93
X-152.4Y-74.93
X-149.86Y-74.93
X-147.32Y-74.93
X-144.78Y-74.93
X-142.24Y-74.93
X-139.7Y-74.93
X-137.16Y-74.93
X-134.62Y-74.93
X-154.94Y-80.01
X-152.4Y-80.01
X-149.86Y-80.01
X-147.32Y-80.01
X-144.78Y-80.01
X-142.24Y-80.01
X-139.7Y-80.01
X-137.16Y-80.01
X-134.62Y-80.01
X-231.14Y-80.01
X-228.6Y-80.01
X-226.06Y-80.01
X-223.52Y-80.01
X-220.98Y-80.01
X-218.44Y-80.01
X-215.9Y-80.01
X-213.36Y-80.01
X-210.82Y-80.01
X-193.04Y-74.93
X-190.5Y-74.93
X-187.96Y-74.93
X-185.42Y-74.93
X-182.88Y-74.93
X-180.34Y-74.93
X-177.8Y-74.93
X-175.26Y-74.93
X-172.72Y-74.93
T4
X-316.23Y-77.47
X-240.03Y-77.47
X-367.03Y-77.47
X-87.63Y-77.47
X-163.83Y-77.47
X-11.43Y-77.47
T0
M30
