G04 #@! TF.GenerationSoftware,KiCad,Pcbnew,5.0.2+dfsg1-1*
G04 #@! TF.CreationDate,2019-08-29T01:20:59+02:00*
G04 #@! TF.ProjectId,hexdump,68657864-756d-4702-9e6b-696361645f70,rev?*
G04 #@! TF.SameCoordinates,Original*
G04 #@! TF.FileFunction,Profile,NP*
%FSLAX46Y46*%
G04 Gerber Fmt 4.6, Leading zero omitted, Abs format (unit mm)*
G04 Created by KiCad (PCBNEW 5.0.2+dfsg1-1) date Thu 29 Aug 2019 01:20:59 AM CEST*
%MOMM*%
%LPD*%
G01*
G04 APERTURE LIST*
%ADD10C,0.070186*%
G04 APERTURE END LIST*
D10*
X-451159749Y-62469882D02*
X-472440103Y-62469882D01*
X-451147037Y-62542519D02*
X-451159749Y-62469882D01*
X-451131166Y-62613895D02*
X-451147037Y-62542519D01*
X-451112216Y-62683942D02*
X-451131166Y-62613895D01*
X-451090266Y-62752592D02*
X-451112216Y-62683942D01*
X-451065396Y-62819776D02*
X-451090266Y-62752592D01*
X-451037685Y-62885426D02*
X-451065396Y-62819776D01*
X-451007212Y-62949474D02*
X-451037685Y-62885426D01*
X-450974056Y-63011851D02*
X-451007212Y-62949474D01*
X-450938298Y-63072490D02*
X-450974056Y-63011851D01*
X-450900016Y-63131321D02*
X-450938298Y-63072490D01*
X-450859290Y-63188276D02*
X-450900016Y-63131321D01*
X-450816199Y-63243287D02*
X-450859290Y-63188276D01*
X-450770823Y-63296286D02*
X-450816199Y-63243287D01*
X-450723240Y-63347204D02*
X-450770823Y-63296286D01*
X-450673531Y-63395972D02*
X-450723240Y-63347204D01*
X-450621774Y-63442524D02*
X-450673531Y-63395972D01*
X-450568050Y-63486790D02*
X-450621774Y-63442524D01*
X-450512437Y-63528701D02*
X-450568050Y-63486790D01*
X-450455014Y-63568190D02*
X-450512437Y-63528701D01*
X-450395862Y-63605188D02*
X-450455014Y-63568190D01*
X-450335060Y-63639628D02*
X-450395862Y-63605188D01*
X-450272686Y-63671439D02*
X-450335060Y-63639628D01*
X-450208820Y-63700555D02*
X-450272686Y-63671439D01*
X-450143543Y-63726906D02*
X-450208820Y-63700555D01*
X-450076932Y-63750425D02*
X-450143543Y-63726906D01*
X-450009067Y-63771043D02*
X-450076932Y-63750425D01*
X-449940029Y-63788692D02*
X-450009067Y-63771043D01*
X-449869895Y-63803304D02*
X-449940029Y-63788692D01*
X-449798746Y-63814809D02*
X-449869895Y-63803304D01*
X-449726661Y-63823140D02*
X-449798746Y-63814809D01*
X-449653719Y-63828228D02*
X-449726661Y-63823140D01*
X-449580000Y-63830006D02*
X-449653719Y-63828228D01*
X-449506262Y-63828250D02*
X-449580000Y-63830006D01*
X-449433302Y-63823182D02*
X-449506262Y-63828250D01*
X-449361197Y-63814870D02*
X-449433302Y-63823182D01*
X-449290028Y-63803381D02*
X-449361197Y-63814870D01*
X-449219874Y-63788785D02*
X-449290028Y-63803381D01*
X-449150815Y-63771150D02*
X-449219874Y-63788785D01*
X-449082930Y-63750545D02*
X-449150815Y-63771150D01*
X-449016299Y-63727036D02*
X-449082930Y-63750545D01*
X-448951000Y-63700694D02*
X-449016299Y-63727036D01*
X-448887114Y-63671586D02*
X-448951000Y-63700694D01*
X-448824719Y-63639781D02*
X-448887114Y-63671586D01*
X-448763896Y-63605346D02*
X-448824719Y-63639781D01*
X-448704724Y-63568352D02*
X-448763896Y-63605346D01*
X-448647282Y-63528865D02*
X-448704724Y-63568352D01*
X-448591649Y-63486954D02*
X-448647282Y-63528865D01*
X-448537905Y-63442688D02*
X-448591649Y-63486954D01*
X-448486130Y-63396135D02*
X-448537905Y-63442688D01*
X-448436403Y-63347363D02*
X-448486130Y-63396135D01*
X-448388803Y-63296440D02*
X-448436403Y-63347363D01*
X-448343409Y-63243436D02*
X-448388803Y-63296440D01*
X-448300302Y-63188418D02*
X-448343409Y-63243436D01*
X-448259561Y-63131455D02*
X-448300302Y-63188418D01*
X-448221264Y-63072616D02*
X-448259561Y-63131455D01*
X-448185493Y-63011967D02*
X-448221264Y-63072616D01*
X-448152325Y-62949579D02*
X-448185493Y-63011967D01*
X-448121840Y-62885519D02*
X-448152325Y-62949579D01*
X-448094119Y-62819856D02*
X-448121840Y-62885519D01*
X-448069240Y-62752658D02*
X-448094119Y-62819856D01*
X-448047282Y-62683993D02*
X-448069240Y-62752658D01*
X-448028326Y-62613930D02*
X-448047282Y-62683993D01*
X-448012450Y-62542537D02*
X-448028326Y-62613930D01*
X-447999734Y-62469882D02*
X-448012450Y-62542537D01*
X-400359749Y-62469882D02*
X-447999734Y-62469882D01*
X-400347037Y-62542519D02*
X-400359749Y-62469882D01*
X-400331166Y-62613895D02*
X-400347037Y-62542519D01*
X-400312216Y-62683942D02*
X-400331166Y-62613895D01*
X-400290266Y-62752592D02*
X-400312216Y-62683942D01*
X-400265396Y-62819776D02*
X-400290266Y-62752592D01*
X-400237685Y-62885426D02*
X-400265396Y-62819776D01*
X-400207212Y-62949474D02*
X-400237685Y-62885426D01*
X-400174057Y-63011851D02*
X-400207212Y-62949474D01*
X-400138299Y-63072490D02*
X-400174057Y-63011851D01*
X-400100017Y-63131320D02*
X-400138299Y-63072490D01*
X-400059291Y-63188276D02*
X-400100017Y-63131320D01*
X-400016200Y-63243287D02*
X-400059291Y-63188276D01*
X-399970823Y-63296285D02*
X-400016200Y-63243287D01*
X-399923241Y-63347203D02*
X-399970823Y-63296285D01*
X-399873532Y-63395972D02*
X-399923241Y-63347203D01*
X-399821775Y-63442524D02*
X-399873532Y-63395972D01*
X-399768051Y-63486789D02*
X-399821775Y-63442524D01*
X-399712438Y-63528701D02*
X-399768051Y-63486789D01*
X-399655015Y-63568190D02*
X-399712438Y-63528701D01*
X-399595863Y-63605188D02*
X-399655015Y-63568190D01*
X-399535061Y-63639627D02*
X-399595863Y-63605188D01*
X-399472687Y-63671439D02*
X-399535061Y-63639627D01*
X-399408821Y-63700555D02*
X-399472687Y-63671439D01*
X-399343544Y-63726906D02*
X-399408821Y-63700555D01*
X-399276933Y-63750425D02*
X-399343544Y-63726906D01*
X-399209068Y-63771043D02*
X-399276933Y-63750425D01*
X-399140030Y-63788692D02*
X-399209068Y-63771043D01*
X-399069896Y-63803304D02*
X-399140030Y-63788692D01*
X-398998747Y-63814809D02*
X-399069896Y-63803304D01*
X-398926662Y-63823140D02*
X-398998747Y-63814809D01*
X-398853720Y-63828228D02*
X-398926662Y-63823140D01*
X-398780001Y-63830006D02*
X-398853720Y-63828228D01*
X-398706263Y-63828250D02*
X-398780001Y-63830006D01*
X-398633302Y-63823182D02*
X-398706263Y-63828250D01*
X-398561198Y-63814870D02*
X-398633302Y-63823182D01*
X-398490029Y-63803381D02*
X-398561198Y-63814870D01*
X-398419875Y-63788785D02*
X-398490029Y-63803381D01*
X-398350816Y-63771150D02*
X-398419875Y-63788785D01*
X-398282931Y-63750545D02*
X-398350816Y-63771150D01*
X-398216299Y-63727036D02*
X-398282931Y-63750545D01*
X-398151001Y-63700694D02*
X-398216299Y-63727036D01*
X-398087114Y-63671586D02*
X-398151001Y-63700694D01*
X-398024720Y-63639781D02*
X-398087114Y-63671586D01*
X-397963897Y-63605346D02*
X-398024720Y-63639781D01*
X-397904724Y-63568352D02*
X-397963897Y-63605346D01*
X-397847282Y-63528865D02*
X-397904724Y-63568352D01*
X-397791649Y-63486954D02*
X-397847282Y-63528865D01*
X-397737906Y-63442688D02*
X-397791649Y-63486954D01*
X-397686131Y-63396135D02*
X-397737906Y-63442688D01*
X-397636403Y-63347363D02*
X-397686131Y-63396135D01*
X-397588803Y-63296440D02*
X-397636403Y-63347363D01*
X-397543410Y-63243436D02*
X-397588803Y-63296440D01*
X-397500303Y-63188418D02*
X-397543410Y-63243436D01*
X-397459561Y-63131455D02*
X-397500303Y-63188418D01*
X-397421265Y-63072616D02*
X-397459561Y-63131455D01*
X-397385493Y-63011967D02*
X-397421265Y-63072616D01*
X-397352326Y-62949579D02*
X-397385493Y-63011967D01*
X-397321841Y-62885519D02*
X-397352326Y-62949579D01*
X-397294120Y-62819856D02*
X-397321841Y-62885519D01*
X-397269240Y-62752658D02*
X-397294120Y-62819856D01*
X-397247283Y-62683993D02*
X-397269240Y-62752658D01*
X-397228326Y-62613930D02*
X-397247283Y-62683993D01*
X-397212450Y-62542537D02*
X-397228326Y-62613930D01*
X-397199735Y-62469882D02*
X-397212450Y-62542537D01*
X-375919898Y-62469882D02*
X-397199735Y-62469882D01*
X-375788807Y-62473175D02*
X-375919898Y-62469882D01*
X-375659481Y-62482947D02*
X-375788807Y-62473175D01*
X-375532077Y-62499042D02*
X-375659481Y-62482947D01*
X-375406753Y-62521303D02*
X-375532077Y-62499042D01*
X-375283665Y-62549572D02*
X-375406753Y-62521303D01*
X-375162971Y-62583693D02*
X-375283665Y-62549572D01*
X-375044828Y-62623508D02*
X-375162971Y-62583693D01*
X-374929394Y-62668859D02*
X-375044828Y-62623508D01*
X-374816824Y-62719591D02*
X-374929394Y-62668859D01*
X-374707277Y-62775545D02*
X-374816824Y-62719591D01*
X-374600909Y-62836565D02*
X-374707277Y-62775545D01*
X-374497878Y-62902493D02*
X-374600909Y-62836565D01*
X-374398341Y-62973172D02*
X-374497878Y-62902493D01*
X-374302455Y-63048446D02*
X-374398341Y-62973172D01*
X-374210377Y-63128156D02*
X-374302455Y-63048446D01*
X-374122265Y-63212146D02*
X-374210377Y-63128156D01*
X-374038275Y-63300258D02*
X-374122265Y-63212146D01*
X-373958565Y-63392336D02*
X-374038275Y-63300258D01*
X-373883291Y-63488222D02*
X-373958565Y-63392336D01*
X-373812612Y-63587759D02*
X-373883291Y-63488222D01*
X-373746684Y-63690790D02*
X-373812612Y-63587759D01*
X-373685664Y-63797157D02*
X-373746684Y-63690790D01*
X-373629710Y-63906705D02*
X-373685664Y-63797157D01*
X-373578978Y-64019274D02*
X-373629710Y-63906705D01*
X-373533627Y-64134709D02*
X-373578978Y-64019274D01*
X-373493812Y-64252852D02*
X-373533627Y-64134709D01*
X-373459691Y-64373546D02*
X-373493812Y-64252852D01*
X-373431422Y-64496634D02*
X-373459691Y-64373546D01*
X-373409161Y-64621958D02*
X-373431422Y-64496634D01*
X-373393066Y-64749362D02*
X-373409161Y-64621958D01*
X-373383294Y-64878688D02*
X-373393066Y-64749362D01*
X-373380001Y-65009779D02*
X-373383294Y-64878688D01*
X-373380001Y-89930221D02*
X-373380001Y-65009779D01*
X-373383294Y-90061312D02*
X-373380001Y-89930221D01*
X-373393066Y-90190638D02*
X-373383294Y-90061312D01*
X-373409161Y-90318042D02*
X-373393066Y-90190638D01*
X-373431422Y-90443366D02*
X-373409161Y-90318042D01*
X-373459691Y-90566454D02*
X-373431422Y-90443366D01*
X-373493812Y-90687148D02*
X-373459691Y-90566454D01*
X-373533627Y-90805291D02*
X-373493812Y-90687148D01*
X-373578978Y-90920726D02*
X-373533627Y-90805291D01*
X-373629710Y-91033295D02*
X-373578978Y-90920726D01*
X-373685664Y-91142843D02*
X-373629710Y-91033295D01*
X-373746684Y-91249210D02*
X-373685664Y-91142843D01*
X-373812612Y-91352241D02*
X-373746684Y-91249210D01*
X-373883291Y-91451778D02*
X-373812612Y-91352241D01*
X-373958565Y-91547664D02*
X-373883291Y-91451778D01*
X-374038275Y-91639742D02*
X-373958565Y-91547664D01*
X-374122265Y-91727854D02*
X-374038275Y-91639742D01*
X-374210377Y-91811844D02*
X-374122265Y-91727854D01*
X-374302455Y-91891554D02*
X-374210377Y-91811844D01*
X-374398341Y-91966828D02*
X-374302455Y-91891554D01*
X-374497878Y-92037507D02*
X-374398341Y-91966828D01*
X-374600909Y-92103435D02*
X-374497878Y-92037507D01*
X-374707277Y-92164455D02*
X-374600909Y-92103435D01*
X-374816824Y-92220409D02*
X-374707277Y-92164455D01*
X-374929394Y-92271141D02*
X-374816824Y-92220409D01*
X-375044828Y-92316492D02*
X-374929394Y-92271141D01*
X-375162971Y-92356307D02*
X-375044828Y-92316492D01*
X-375283665Y-92390428D02*
X-375162971Y-92356307D01*
X-375406753Y-92418697D02*
X-375283665Y-92390428D01*
X-375532077Y-92440958D02*
X-375406753Y-92418697D01*
X-375659481Y-92457053D02*
X-375532077Y-92440958D01*
X-375788807Y-92466825D02*
X-375659481Y-92457053D01*
X-375919898Y-92470118D02*
X-375788807Y-92466825D01*
X-397200253Y-92470118D02*
X-375919898Y-92470118D01*
X-397212965Y-92397481D02*
X-397200253Y-92470118D01*
X-397228836Y-92326105D02*
X-397212965Y-92397481D01*
X-397247786Y-92256058D02*
X-397228836Y-92326105D01*
X-397269735Y-92187408D02*
X-397247786Y-92256058D01*
X-397294606Y-92120224D02*
X-397269735Y-92187408D01*
X-397322317Y-92054574D02*
X-397294606Y-92120224D01*
X-397352790Y-91990526D02*
X-397322317Y-92054574D01*
X-397385945Y-91928149D02*
X-397352790Y-91990526D01*
X-397421703Y-91867510D02*
X-397385945Y-91928149D01*
X-397459985Y-91808680D02*
X-397421703Y-91867510D01*
X-397500711Y-91751724D02*
X-397459985Y-91808680D01*
X-397543802Y-91696713D02*
X-397500711Y-91751724D01*
X-397589178Y-91643715D02*
X-397543802Y-91696713D01*
X-397636761Y-91592797D02*
X-397589178Y-91643715D01*
X-397686470Y-91544028D02*
X-397636761Y-91592797D01*
X-397738227Y-91497476D02*
X-397686470Y-91544028D01*
X-397791951Y-91453211D02*
X-397738227Y-91497476D01*
X-397847564Y-91411299D02*
X-397791951Y-91453211D01*
X-397904987Y-91371810D02*
X-397847564Y-91411299D01*
X-397964139Y-91334812D02*
X-397904987Y-91371810D01*
X-398024941Y-91300373D02*
X-397964139Y-91334812D01*
X-398087315Y-91268561D02*
X-398024941Y-91300373D01*
X-398151181Y-91239445D02*
X-398087315Y-91268561D01*
X-398216458Y-91213094D02*
X-398151181Y-91239445D01*
X-398283069Y-91189575D02*
X-398216458Y-91213094D01*
X-398350934Y-91168957D02*
X-398283069Y-91189575D01*
X-398419972Y-91151308D02*
X-398350934Y-91168957D01*
X-398490106Y-91136696D02*
X-398419972Y-91151308D01*
X-398561255Y-91125191D02*
X-398490106Y-91136696D01*
X-398633340Y-91116860D02*
X-398561255Y-91125191D01*
X-398706282Y-91111772D02*
X-398633340Y-91116860D01*
X-398780001Y-91109994D02*
X-398706282Y-91111772D01*
X-398853739Y-91111750D02*
X-398780001Y-91109994D01*
X-398926700Y-91116818D02*
X-398853739Y-91111750D01*
X-398998804Y-91125130D02*
X-398926700Y-91116818D01*
X-399069973Y-91136619D02*
X-398998804Y-91125130D01*
X-399140127Y-91151215D02*
X-399069973Y-91136619D01*
X-399209186Y-91168850D02*
X-399140127Y-91151215D01*
X-399277071Y-91189455D02*
X-399209186Y-91168850D01*
X-399343703Y-91212964D02*
X-399277071Y-91189455D01*
X-399409001Y-91239306D02*
X-399343703Y-91212964D01*
X-399472887Y-91268414D02*
X-399409001Y-91239306D01*
X-399535282Y-91300219D02*
X-399472887Y-91268414D01*
X-399596105Y-91334654D02*
X-399535282Y-91300219D01*
X-399655277Y-91371648D02*
X-399596105Y-91334654D01*
X-399712720Y-91411135D02*
X-399655277Y-91371648D01*
X-399768352Y-91453046D02*
X-399712720Y-91411135D01*
X-399822096Y-91497312D02*
X-399768352Y-91453046D01*
X-399873871Y-91543865D02*
X-399822096Y-91497312D01*
X-399923599Y-91592637D02*
X-399873871Y-91543865D01*
X-399971199Y-91643560D02*
X-399923599Y-91592637D01*
X-400016592Y-91696564D02*
X-399971199Y-91643560D01*
X-400059699Y-91751582D02*
X-400016592Y-91696564D01*
X-400100440Y-91808545D02*
X-400059699Y-91751582D01*
X-400138737Y-91867384D02*
X-400100440Y-91808545D01*
X-400174509Y-91928033D02*
X-400138737Y-91867384D01*
X-400207676Y-91990421D02*
X-400174509Y-91928033D01*
X-400238161Y-92054481D02*
X-400207676Y-91990421D01*
X-400265882Y-92120144D02*
X-400238161Y-92054481D01*
X-400290762Y-92187342D02*
X-400265882Y-92120144D01*
X-400312719Y-92256007D02*
X-400290762Y-92187342D01*
X-400331676Y-92326070D02*
X-400312719Y-92256007D01*
X-400347551Y-92397463D02*
X-400331676Y-92326070D01*
X-400360267Y-92470118D02*
X-400347551Y-92397463D01*
X-448000253Y-92470118D02*
X-400360267Y-92470118D01*
X-448012965Y-92397481D02*
X-448000253Y-92470118D01*
X-448028835Y-92326105D02*
X-448012965Y-92397481D01*
X-448047785Y-92256058D02*
X-448028835Y-92326105D01*
X-448069735Y-92187408D02*
X-448047785Y-92256058D01*
X-448094605Y-92120224D02*
X-448069735Y-92187408D01*
X-448122316Y-92054574D02*
X-448094605Y-92120224D01*
X-448152789Y-91990526D02*
X-448122316Y-92054574D01*
X-448185945Y-91928149D02*
X-448152789Y-91990526D01*
X-448221703Y-91867510D02*
X-448185945Y-91928149D01*
X-448259985Y-91808680D02*
X-448221703Y-91867510D01*
X-448300711Y-91751724D02*
X-448259985Y-91808680D01*
X-448343802Y-91696713D02*
X-448300711Y-91751724D01*
X-448389178Y-91643715D02*
X-448343802Y-91696713D01*
X-448436761Y-91592797D02*
X-448389178Y-91643715D01*
X-448486470Y-91544028D02*
X-448436761Y-91592797D01*
X-448538226Y-91497476D02*
X-448486470Y-91544028D01*
X-448591951Y-91453211D02*
X-448538226Y-91497476D01*
X-448647564Y-91411299D02*
X-448591951Y-91453211D01*
X-448704986Y-91371810D02*
X-448647564Y-91411299D01*
X-448764139Y-91334812D02*
X-448704986Y-91371810D01*
X-448824941Y-91300373D02*
X-448764139Y-91334812D01*
X-448887315Y-91268561D02*
X-448824941Y-91300373D01*
X-448951180Y-91239445D02*
X-448887315Y-91268561D01*
X-449016458Y-91213094D02*
X-448951180Y-91239445D01*
X-449083069Y-91189575D02*
X-449016458Y-91213094D01*
X-449150933Y-91168957D02*
X-449083069Y-91189575D01*
X-449219972Y-91151308D02*
X-449150933Y-91168957D01*
X-449290105Y-91136696D02*
X-449219972Y-91151308D01*
X-449361254Y-91125191D02*
X-449290105Y-91136696D01*
X-449433339Y-91116860D02*
X-449361254Y-91125191D01*
X-449506281Y-91111772D02*
X-449433339Y-91116860D01*
X-449580000Y-91109994D02*
X-449506281Y-91111772D01*
X-449653738Y-91111750D02*
X-449580000Y-91109994D01*
X-449726699Y-91116818D02*
X-449653738Y-91111750D01*
X-449798804Y-91125130D02*
X-449726699Y-91116818D01*
X-449869973Y-91136619D02*
X-449798804Y-91125130D01*
X-449940126Y-91151215D02*
X-449869973Y-91136619D01*
X-450009185Y-91168850D02*
X-449940126Y-91151215D01*
X-450077070Y-91189456D02*
X-450009185Y-91168850D01*
X-450143702Y-91212964D02*
X-450077070Y-91189456D01*
X-450209000Y-91239306D02*
X-450143702Y-91212964D01*
X-450272887Y-91268414D02*
X-450209000Y-91239306D01*
X-450335281Y-91300220D02*
X-450272887Y-91268414D01*
X-450396104Y-91334654D02*
X-450335281Y-91300220D01*
X-450455276Y-91371649D02*
X-450396104Y-91334654D01*
X-450512719Y-91411136D02*
X-450455276Y-91371649D01*
X-450568351Y-91453046D02*
X-450512719Y-91411136D01*
X-450622095Y-91497313D02*
X-450568351Y-91453046D01*
X-450673870Y-91543866D02*
X-450622095Y-91497313D01*
X-450723598Y-91592638D02*
X-450673870Y-91543866D01*
X-450771198Y-91643560D02*
X-450723598Y-91592638D01*
X-450816591Y-91696564D02*
X-450771198Y-91643560D01*
X-450859698Y-91751582D02*
X-450816591Y-91696564D01*
X-450900439Y-91808545D02*
X-450859698Y-91751582D01*
X-450938736Y-91867385D02*
X-450900439Y-91808545D01*
X-450974507Y-91928033D02*
X-450938736Y-91867385D01*
X-451007675Y-91990421D02*
X-450974507Y-91928033D01*
X-451038159Y-92054481D02*
X-451007675Y-91990421D01*
X-451065881Y-92120144D02*
X-451038159Y-92054481D01*
X-451090760Y-92187343D02*
X-451065881Y-92120144D01*
X-451112718Y-92256007D02*
X-451090760Y-92187343D01*
X-451131674Y-92326070D02*
X-451112718Y-92256007D01*
X-451147550Y-92397463D02*
X-451131674Y-92326070D01*
X-451160266Y-92470118D02*
X-451147550Y-92397463D01*
X-472440103Y-92470118D02*
X-451160266Y-92470118D01*
X-472571194Y-92466825D02*
X-472440103Y-92470118D01*
X-472700520Y-92457053D02*
X-472571194Y-92466825D01*
X-472827924Y-92440958D02*
X-472700520Y-92457053D01*
X-472953248Y-92418697D02*
X-472827924Y-92440958D01*
X-473076336Y-92390428D02*
X-472953248Y-92418697D01*
X-473197030Y-92356307D02*
X-473076336Y-92390428D01*
X-473315173Y-92316492D02*
X-473197030Y-92356307D01*
X-473430608Y-92271141D02*
X-473315173Y-92316492D01*
X-473543178Y-92220409D02*
X-473430608Y-92271141D01*
X-473652725Y-92164455D02*
X-473543178Y-92220409D01*
X-473759092Y-92103435D02*
X-473652725Y-92164455D01*
X-473862123Y-92037507D02*
X-473759092Y-92103435D01*
X-473961661Y-91966828D02*
X-473862123Y-92037507D01*
X-474057547Y-91891554D02*
X-473961661Y-91966828D01*
X-474149624Y-91811844D02*
X-474057547Y-91891554D01*
X-474237737Y-91727854D02*
X-474149624Y-91811844D01*
X-474321727Y-91639742D02*
X-474237737Y-91727854D01*
X-474401437Y-91547664D02*
X-474321727Y-91639742D01*
X-474476710Y-91451778D02*
X-474401437Y-91547664D01*
X-474547389Y-91352241D02*
X-474476710Y-91451778D01*
X-474613317Y-91249210D02*
X-474547389Y-91352241D01*
X-474674337Y-91142843D02*
X-474613317Y-91249210D01*
X-474730291Y-91033295D02*
X-474674337Y-91142843D01*
X-474781023Y-90920726D02*
X-474730291Y-91033295D01*
X-474826375Y-90805291D02*
X-474781023Y-90920726D01*
X-474866190Y-90687148D02*
X-474826375Y-90805291D01*
X-474900310Y-90566454D02*
X-474866190Y-90687148D01*
X-474928579Y-90443366D02*
X-474900310Y-90566454D01*
X-474950840Y-90318042D02*
X-474928579Y-90443366D01*
X-474966935Y-90190638D02*
X-474950840Y-90318042D01*
X-474976708Y-90061312D02*
X-474966935Y-90190638D01*
X-474980000Y-89930221D02*
X-474976708Y-90061312D01*
X-474980000Y-65009779D02*
X-474980000Y-89930221D01*
X-474976708Y-64878688D02*
X-474980000Y-65009779D01*
X-474966935Y-64749362D02*
X-474976708Y-64878688D01*
X-474950840Y-64621958D02*
X-474966935Y-64749362D01*
X-474928579Y-64496634D02*
X-474950840Y-64621958D01*
X-474900310Y-64373546D02*
X-474928579Y-64496634D01*
X-474866190Y-64252852D02*
X-474900310Y-64373546D01*
X-474826375Y-64134709D02*
X-474866190Y-64252852D01*
X-474781023Y-64019274D02*
X-474826375Y-64134709D01*
X-474730291Y-63906705D02*
X-474781023Y-64019274D01*
X-474674337Y-63797157D02*
X-474730291Y-63906705D01*
X-474613317Y-63690790D02*
X-474674337Y-63797157D01*
X-474547389Y-63587759D02*
X-474613317Y-63690790D01*
X-474476710Y-63488222D02*
X-474547389Y-63587759D01*
X-474401437Y-63392336D02*
X-474476710Y-63488222D01*
X-474321727Y-63300258D02*
X-474401437Y-63392336D01*
X-474237737Y-63212146D02*
X-474321727Y-63300258D01*
X-474149624Y-63128156D02*
X-474237737Y-63212146D01*
X-474057547Y-63048446D02*
X-474149624Y-63128156D01*
X-473961661Y-62973172D02*
X-474057547Y-63048446D01*
X-473862123Y-62902493D02*
X-473961661Y-62973172D01*
X-473759092Y-62836565D02*
X-473862123Y-62902493D01*
X-473652725Y-62775545D02*
X-473759092Y-62836565D01*
X-473543178Y-62719591D02*
X-473652725Y-62775545D01*
X-473430608Y-62668859D02*
X-473543178Y-62719591D01*
X-473315173Y-62623508D02*
X-473430608Y-62668859D01*
X-473197030Y-62583693D02*
X-473315173Y-62623508D01*
X-473076336Y-62549572D02*
X-473197030Y-62583693D01*
X-472953248Y-62521303D02*
X-473076336Y-62549572D01*
X-472827924Y-62499042D02*
X-472953248Y-62521303D01*
X-472700520Y-62482947D02*
X-472827924Y-62499042D01*
X-472571194Y-62473175D02*
X-472700520Y-62482947D01*
X-472440103Y-62469882D02*
X-472571194Y-62473175D01*
M02*
