G04 #@! TF.GenerationSoftware,KiCad,Pcbnew,5.0.2+dfsg1-1*
G04 #@! TF.CreationDate,2019-08-29T01:20:59+02:00*
G04 #@! TF.ProjectId,hexdump,68657864-756d-4702-9e6b-696361645f70,rev?*
G04 #@! TF.SameCoordinates,Original*
G04 #@! TF.FileFunction,Soldermask,Top*
G04 #@! TF.FilePolarity,Negative*
%FSLAX46Y46*%
G04 Gerber Fmt 4.6, Leading zero omitted, Abs format (unit mm)*
G04 Created by KiCad (PCBNEW 5.0.2+dfsg1-1) date Thu 29 Aug 2019 01:20:59 AM CEST*
%MOMM*%
%LPD*%
G01*
G04 APERTURE LIST*
%ADD10C,0.100000*%
G04 APERTURE END LIST*
D10*
G36*
X-418959640Y-78969360D02*
X-418824672Y-79010302D01*
X-418758186Y-79045840D01*
X-418700287Y-79076788D01*
X-418700285Y-79076789D01*
X-418700286Y-79076789D01*
X-418591262Y-79166262D01*
X-418501789Y-79275286D01*
X-418435302Y-79399672D01*
X-418394360Y-79534641D01*
X-418384000Y-79639827D01*
X-418384000Y-80380173D01*
X-418394360Y-80485359D01*
X-418435302Y-80620328D01*
X-418470840Y-80686814D01*
X-418501787Y-80744712D01*
X-418501789Y-80744714D01*
X-418591259Y-80853735D01*
X-418624615Y-80881109D01*
X-418700288Y-80943212D01*
X-418700290Y-80943213D01*
X-418824673Y-81009698D01*
X-418959641Y-81050640D01*
X-419100000Y-81064464D01*
X-419240360Y-81050640D01*
X-419375328Y-81009698D01*
X-419441814Y-80974160D01*
X-419499713Y-80943212D01*
X-419511098Y-80933869D01*
X-419608735Y-80853741D01*
X-419698211Y-80744713D01*
X-419698212Y-80744712D01*
X-419764697Y-80620328D01*
X-419764698Y-80620327D01*
X-419785169Y-80552842D01*
X-419805640Y-80485359D01*
X-419816000Y-80380170D01*
X-419816000Y-79639829D01*
X-419805640Y-79534640D01*
X-419805640Y-79534638D01*
X-419785169Y-79467156D01*
X-419764698Y-79399673D01*
X-419698211Y-79275287D01*
X-419608737Y-79166262D01*
X-419499712Y-79076788D01*
X-419441813Y-79045840D01*
X-419375327Y-79010302D01*
X-419240359Y-78969360D01*
X-419100000Y-78955536D01*
X-418959640Y-78969360D01*
X-418959640Y-78969360D01*
G37*
G36*
X-375779640Y-78969360D02*
X-375644672Y-79010302D01*
X-375578186Y-79045840D01*
X-375520287Y-79076788D01*
X-375520285Y-79076789D01*
X-375520286Y-79076789D01*
X-375411262Y-79166262D01*
X-375321789Y-79275286D01*
X-375255302Y-79399672D01*
X-375214360Y-79534641D01*
X-375204000Y-79639827D01*
X-375204000Y-80380173D01*
X-375214360Y-80485359D01*
X-375255302Y-80620328D01*
X-375290840Y-80686814D01*
X-375321787Y-80744712D01*
X-375321789Y-80744714D01*
X-375411259Y-80853735D01*
X-375444615Y-80881109D01*
X-375520288Y-80943212D01*
X-375520290Y-80943213D01*
X-375644673Y-81009698D01*
X-375779641Y-81050640D01*
X-375920000Y-81064464D01*
X-376060360Y-81050640D01*
X-376195328Y-81009698D01*
X-376261814Y-80974160D01*
X-376319713Y-80943212D01*
X-376331098Y-80933869D01*
X-376428735Y-80853741D01*
X-376518211Y-80744713D01*
X-376518212Y-80744712D01*
X-376584697Y-80620328D01*
X-376584698Y-80620327D01*
X-376605169Y-80552842D01*
X-376625640Y-80485359D01*
X-376636000Y-80380170D01*
X-376636000Y-79639829D01*
X-376625640Y-79534640D01*
X-376625640Y-79534638D01*
X-376605169Y-79467156D01*
X-376584698Y-79399673D01*
X-376518211Y-79275287D01*
X-376428737Y-79166262D01*
X-376319712Y-79076788D01*
X-376261813Y-79045840D01*
X-376195327Y-79010302D01*
X-376060359Y-78969360D01*
X-375920000Y-78955536D01*
X-375779640Y-78969360D01*
X-375779640Y-78969360D01*
G37*
G36*
X-396099640Y-78969360D02*
X-395964672Y-79010302D01*
X-395898186Y-79045840D01*
X-395840287Y-79076788D01*
X-395840285Y-79076789D01*
X-395840286Y-79076789D01*
X-395731262Y-79166262D01*
X-395641789Y-79275286D01*
X-395575302Y-79399672D01*
X-395534360Y-79534641D01*
X-395524000Y-79639827D01*
X-395524000Y-80380173D01*
X-395534360Y-80485359D01*
X-395575302Y-80620328D01*
X-395610840Y-80686814D01*
X-395641787Y-80744712D01*
X-395641789Y-80744714D01*
X-395731259Y-80853735D01*
X-395764615Y-80881109D01*
X-395840288Y-80943212D01*
X-395840290Y-80943213D01*
X-395964673Y-81009698D01*
X-396099641Y-81050640D01*
X-396240000Y-81064464D01*
X-396380360Y-81050640D01*
X-396515328Y-81009698D01*
X-396581814Y-80974160D01*
X-396639713Y-80943212D01*
X-396651098Y-80933869D01*
X-396748735Y-80853741D01*
X-396838211Y-80744713D01*
X-396838212Y-80744712D01*
X-396904697Y-80620328D01*
X-396904698Y-80620327D01*
X-396925169Y-80552842D01*
X-396945640Y-80485359D01*
X-396956000Y-80380170D01*
X-396956000Y-79639829D01*
X-396945640Y-79534640D01*
X-396945640Y-79534638D01*
X-396925169Y-79467156D01*
X-396904698Y-79399673D01*
X-396838211Y-79275287D01*
X-396748737Y-79166262D01*
X-396639712Y-79076788D01*
X-396581813Y-79045840D01*
X-396515327Y-79010302D01*
X-396380359Y-78969360D01*
X-396240000Y-78955536D01*
X-396099640Y-78969360D01*
X-396099640Y-78969360D01*
G37*
G36*
X-393559640Y-78969360D02*
X-393424672Y-79010302D01*
X-393358186Y-79045840D01*
X-393300287Y-79076788D01*
X-393300285Y-79076789D01*
X-393300286Y-79076789D01*
X-393191262Y-79166262D01*
X-393101789Y-79275286D01*
X-393035302Y-79399672D01*
X-392994360Y-79534641D01*
X-392984000Y-79639827D01*
X-392984000Y-80380173D01*
X-392994360Y-80485359D01*
X-393035302Y-80620328D01*
X-393070840Y-80686814D01*
X-393101787Y-80744712D01*
X-393101789Y-80744714D01*
X-393191259Y-80853735D01*
X-393224615Y-80881109D01*
X-393300288Y-80943212D01*
X-393300290Y-80943213D01*
X-393424673Y-81009698D01*
X-393559641Y-81050640D01*
X-393700000Y-81064464D01*
X-393840360Y-81050640D01*
X-393975328Y-81009698D01*
X-394041814Y-80974160D01*
X-394099713Y-80943212D01*
X-394111098Y-80933869D01*
X-394208735Y-80853741D01*
X-394298211Y-80744713D01*
X-394298212Y-80744712D01*
X-394364697Y-80620328D01*
X-394364698Y-80620327D01*
X-394385169Y-80552842D01*
X-394405640Y-80485359D01*
X-394416000Y-80380170D01*
X-394416000Y-79639829D01*
X-394405640Y-79534640D01*
X-394405640Y-79534638D01*
X-394385169Y-79467156D01*
X-394364698Y-79399673D01*
X-394298211Y-79275287D01*
X-394208737Y-79166262D01*
X-394099712Y-79076788D01*
X-394041813Y-79045840D01*
X-393975327Y-79010302D01*
X-393840359Y-78969360D01*
X-393700000Y-78955536D01*
X-393559640Y-78969360D01*
X-393559640Y-78969360D01*
G37*
G36*
X-391019640Y-78969360D02*
X-390884672Y-79010302D01*
X-390818186Y-79045840D01*
X-390760287Y-79076788D01*
X-390760285Y-79076789D01*
X-390760286Y-79076789D01*
X-390651262Y-79166262D01*
X-390561789Y-79275286D01*
X-390495302Y-79399672D01*
X-390454360Y-79534641D01*
X-390444000Y-79639827D01*
X-390444000Y-80380173D01*
X-390454360Y-80485359D01*
X-390495302Y-80620328D01*
X-390530840Y-80686814D01*
X-390561787Y-80744712D01*
X-390561789Y-80744714D01*
X-390651259Y-80853735D01*
X-390684615Y-80881109D01*
X-390760288Y-80943212D01*
X-390760290Y-80943213D01*
X-390884673Y-81009698D01*
X-391019641Y-81050640D01*
X-391160000Y-81064464D01*
X-391300360Y-81050640D01*
X-391435328Y-81009698D01*
X-391501814Y-80974160D01*
X-391559713Y-80943212D01*
X-391571098Y-80933869D01*
X-391668735Y-80853741D01*
X-391758211Y-80744713D01*
X-391758212Y-80744712D01*
X-391824697Y-80620328D01*
X-391824698Y-80620327D01*
X-391845169Y-80552842D01*
X-391865640Y-80485359D01*
X-391876000Y-80380170D01*
X-391876000Y-79639829D01*
X-391865640Y-79534640D01*
X-391865640Y-79534638D01*
X-391845169Y-79467156D01*
X-391824698Y-79399673D01*
X-391758211Y-79275287D01*
X-391668737Y-79166262D01*
X-391559712Y-79076788D01*
X-391501813Y-79045840D01*
X-391435327Y-79010302D01*
X-391300359Y-78969360D01*
X-391160000Y-78955536D01*
X-391019640Y-78969360D01*
X-391019640Y-78969360D01*
G37*
G36*
X-388479640Y-78969360D02*
X-388344672Y-79010302D01*
X-388278186Y-79045840D01*
X-388220287Y-79076788D01*
X-388220285Y-79076789D01*
X-388220286Y-79076789D01*
X-388111262Y-79166262D01*
X-388021789Y-79275286D01*
X-387955302Y-79399672D01*
X-387914360Y-79534641D01*
X-387904000Y-79639827D01*
X-387904000Y-80380173D01*
X-387914360Y-80485359D01*
X-387955302Y-80620328D01*
X-387990840Y-80686814D01*
X-388021787Y-80744712D01*
X-388021789Y-80744714D01*
X-388111259Y-80853735D01*
X-388144615Y-80881109D01*
X-388220288Y-80943212D01*
X-388220290Y-80943213D01*
X-388344673Y-81009698D01*
X-388479641Y-81050640D01*
X-388620000Y-81064464D01*
X-388760360Y-81050640D01*
X-388895328Y-81009698D01*
X-388961814Y-80974160D01*
X-389019713Y-80943212D01*
X-389031098Y-80933869D01*
X-389128735Y-80853741D01*
X-389218211Y-80744713D01*
X-389218212Y-80744712D01*
X-389284697Y-80620328D01*
X-389284698Y-80620327D01*
X-389305169Y-80552842D01*
X-389325640Y-80485359D01*
X-389336000Y-80380170D01*
X-389336000Y-79639829D01*
X-389325640Y-79534640D01*
X-389325640Y-79534638D01*
X-389305169Y-79467156D01*
X-389284698Y-79399673D01*
X-389218211Y-79275287D01*
X-389128737Y-79166262D01*
X-389019712Y-79076788D01*
X-388961813Y-79045840D01*
X-388895327Y-79010302D01*
X-388760359Y-78969360D01*
X-388620000Y-78955536D01*
X-388479640Y-78969360D01*
X-388479640Y-78969360D01*
G37*
G36*
X-385939640Y-78969360D02*
X-385804672Y-79010302D01*
X-385738186Y-79045840D01*
X-385680287Y-79076788D01*
X-385680285Y-79076789D01*
X-385680286Y-79076789D01*
X-385571262Y-79166262D01*
X-385481789Y-79275286D01*
X-385415302Y-79399672D01*
X-385374360Y-79534641D01*
X-385364000Y-79639827D01*
X-385364000Y-80380173D01*
X-385374360Y-80485359D01*
X-385415302Y-80620328D01*
X-385450840Y-80686814D01*
X-385481787Y-80744712D01*
X-385481789Y-80744714D01*
X-385571259Y-80853735D01*
X-385604615Y-80881109D01*
X-385680288Y-80943212D01*
X-385680290Y-80943213D01*
X-385804673Y-81009698D01*
X-385939641Y-81050640D01*
X-386080000Y-81064464D01*
X-386220360Y-81050640D01*
X-386355328Y-81009698D01*
X-386421814Y-80974160D01*
X-386479713Y-80943212D01*
X-386491098Y-80933869D01*
X-386588735Y-80853741D01*
X-386678211Y-80744713D01*
X-386678212Y-80744712D01*
X-386744697Y-80620328D01*
X-386744698Y-80620327D01*
X-386765169Y-80552842D01*
X-386785640Y-80485359D01*
X-386796000Y-80380170D01*
X-386796000Y-79639829D01*
X-386785640Y-79534640D01*
X-386785640Y-79534638D01*
X-386765169Y-79467156D01*
X-386744698Y-79399673D01*
X-386678211Y-79275287D01*
X-386588737Y-79166262D01*
X-386479712Y-79076788D01*
X-386421813Y-79045840D01*
X-386355327Y-79010302D01*
X-386220359Y-78969360D01*
X-386080000Y-78955536D01*
X-385939640Y-78969360D01*
X-385939640Y-78969360D01*
G37*
G36*
X-383399640Y-78969360D02*
X-383264672Y-79010302D01*
X-383198186Y-79045840D01*
X-383140287Y-79076788D01*
X-383140285Y-79076789D01*
X-383140286Y-79076789D01*
X-383031262Y-79166262D01*
X-382941789Y-79275286D01*
X-382875302Y-79399672D01*
X-382834360Y-79534641D01*
X-382824000Y-79639827D01*
X-382824000Y-80380173D01*
X-382834360Y-80485359D01*
X-382875302Y-80620328D01*
X-382910840Y-80686814D01*
X-382941787Y-80744712D01*
X-382941789Y-80744714D01*
X-383031259Y-80853735D01*
X-383064615Y-80881109D01*
X-383140288Y-80943212D01*
X-383140290Y-80943213D01*
X-383264673Y-81009698D01*
X-383399641Y-81050640D01*
X-383540000Y-81064464D01*
X-383680360Y-81050640D01*
X-383815328Y-81009698D01*
X-383881814Y-80974160D01*
X-383939713Y-80943212D01*
X-383951098Y-80933869D01*
X-384048735Y-80853741D01*
X-384138211Y-80744713D01*
X-384138212Y-80744712D01*
X-384204697Y-80620328D01*
X-384204698Y-80620327D01*
X-384225169Y-80552842D01*
X-384245640Y-80485359D01*
X-384256000Y-80380170D01*
X-384256000Y-79639829D01*
X-384245640Y-79534640D01*
X-384245640Y-79534638D01*
X-384225169Y-79467156D01*
X-384204698Y-79399673D01*
X-384138211Y-79275287D01*
X-384048737Y-79166262D01*
X-383939712Y-79076788D01*
X-383881813Y-79045840D01*
X-383815327Y-79010302D01*
X-383680359Y-78969360D01*
X-383540000Y-78955536D01*
X-383399640Y-78969360D01*
X-383399640Y-78969360D01*
G37*
G36*
X-380859640Y-78969360D02*
X-380724672Y-79010302D01*
X-380658186Y-79045840D01*
X-380600287Y-79076788D01*
X-380600285Y-79076789D01*
X-380600286Y-79076789D01*
X-380491262Y-79166262D01*
X-380401789Y-79275286D01*
X-380335302Y-79399672D01*
X-380294360Y-79534641D01*
X-380284000Y-79639827D01*
X-380284000Y-80380173D01*
X-380294360Y-80485359D01*
X-380335302Y-80620328D01*
X-380370840Y-80686814D01*
X-380401787Y-80744712D01*
X-380401789Y-80744714D01*
X-380491259Y-80853735D01*
X-380524615Y-80881109D01*
X-380600288Y-80943212D01*
X-380600290Y-80943213D01*
X-380724673Y-81009698D01*
X-380859641Y-81050640D01*
X-381000000Y-81064464D01*
X-381140360Y-81050640D01*
X-381275328Y-81009698D01*
X-381341814Y-80974160D01*
X-381399713Y-80943212D01*
X-381411098Y-80933869D01*
X-381508735Y-80853741D01*
X-381598211Y-80744713D01*
X-381598212Y-80744712D01*
X-381664697Y-80620328D01*
X-381664698Y-80620327D01*
X-381685169Y-80552842D01*
X-381705640Y-80485359D01*
X-381716000Y-80380170D01*
X-381716000Y-79639829D01*
X-381705640Y-79534640D01*
X-381705640Y-79534638D01*
X-381685169Y-79467156D01*
X-381664698Y-79399673D01*
X-381598211Y-79275287D01*
X-381508737Y-79166262D01*
X-381399712Y-79076788D01*
X-381341813Y-79045840D01*
X-381275327Y-79010302D01*
X-381140359Y-78969360D01*
X-381000000Y-78955536D01*
X-380859640Y-78969360D01*
X-380859640Y-78969360D01*
G37*
G36*
X-378319640Y-78969360D02*
X-378184672Y-79010302D01*
X-378118186Y-79045840D01*
X-378060287Y-79076788D01*
X-378060285Y-79076789D01*
X-378060286Y-79076789D01*
X-377951262Y-79166262D01*
X-377861789Y-79275286D01*
X-377795302Y-79399672D01*
X-377754360Y-79534641D01*
X-377744000Y-79639827D01*
X-377744000Y-80380173D01*
X-377754360Y-80485359D01*
X-377795302Y-80620328D01*
X-377830840Y-80686814D01*
X-377861787Y-80744712D01*
X-377861789Y-80744714D01*
X-377951259Y-80853735D01*
X-377984615Y-80881109D01*
X-378060288Y-80943212D01*
X-378060290Y-80943213D01*
X-378184673Y-81009698D01*
X-378319641Y-81050640D01*
X-378460000Y-81064464D01*
X-378600360Y-81050640D01*
X-378735328Y-81009698D01*
X-378801814Y-80974160D01*
X-378859713Y-80943212D01*
X-378871098Y-80933869D01*
X-378968735Y-80853741D01*
X-379058211Y-80744713D01*
X-379058212Y-80744712D01*
X-379124697Y-80620328D01*
X-379124698Y-80620327D01*
X-379145169Y-80552842D01*
X-379165640Y-80485359D01*
X-379176000Y-80380170D01*
X-379176000Y-79639829D01*
X-379165640Y-79534640D01*
X-379165640Y-79534638D01*
X-379145169Y-79467156D01*
X-379124698Y-79399673D01*
X-379058211Y-79275287D01*
X-378968737Y-79166262D01*
X-378859712Y-79076788D01*
X-378801813Y-79045840D01*
X-378735327Y-79010302D01*
X-378600359Y-78969360D01*
X-378460000Y-78955536D01*
X-378319640Y-78969360D01*
X-378319640Y-78969360D01*
G37*
G36*
X-426579640Y-78969360D02*
X-426444672Y-79010302D01*
X-426378186Y-79045840D01*
X-426320287Y-79076788D01*
X-426320285Y-79076789D01*
X-426320286Y-79076789D01*
X-426211262Y-79166262D01*
X-426121789Y-79275286D01*
X-426055302Y-79399672D01*
X-426014360Y-79534641D01*
X-426004000Y-79639827D01*
X-426004000Y-80380173D01*
X-426014360Y-80485359D01*
X-426055302Y-80620328D01*
X-426090840Y-80686814D01*
X-426121787Y-80744712D01*
X-426121789Y-80744714D01*
X-426211259Y-80853735D01*
X-426244615Y-80881109D01*
X-426320288Y-80943212D01*
X-426320290Y-80943213D01*
X-426444673Y-81009698D01*
X-426579641Y-81050640D01*
X-426720000Y-81064464D01*
X-426860360Y-81050640D01*
X-426995328Y-81009698D01*
X-427061814Y-80974160D01*
X-427119713Y-80943212D01*
X-427131098Y-80933869D01*
X-427228735Y-80853741D01*
X-427318211Y-80744713D01*
X-427318212Y-80744712D01*
X-427384697Y-80620328D01*
X-427384698Y-80620327D01*
X-427405169Y-80552842D01*
X-427425640Y-80485359D01*
X-427436000Y-80380170D01*
X-427436000Y-79639829D01*
X-427425640Y-79534640D01*
X-427425640Y-79534638D01*
X-427405169Y-79467156D01*
X-427384698Y-79399673D01*
X-427318211Y-79275287D01*
X-427228737Y-79166262D01*
X-427119712Y-79076788D01*
X-427061813Y-79045840D01*
X-426995327Y-79010302D01*
X-426860359Y-78969360D01*
X-426720000Y-78955536D01*
X-426579640Y-78969360D01*
X-426579640Y-78969360D01*
G37*
G36*
X-421499640Y-78969360D02*
X-421364672Y-79010302D01*
X-421298186Y-79045840D01*
X-421240287Y-79076788D01*
X-421240285Y-79076789D01*
X-421240286Y-79076789D01*
X-421131262Y-79166262D01*
X-421041789Y-79275286D01*
X-420975302Y-79399672D01*
X-420934360Y-79534641D01*
X-420924000Y-79639827D01*
X-420924000Y-80380173D01*
X-420934360Y-80485359D01*
X-420975302Y-80620328D01*
X-421010840Y-80686814D01*
X-421041787Y-80744712D01*
X-421041789Y-80744714D01*
X-421131259Y-80853735D01*
X-421164615Y-80881109D01*
X-421240288Y-80943212D01*
X-421240290Y-80943213D01*
X-421364673Y-81009698D01*
X-421499641Y-81050640D01*
X-421640000Y-81064464D01*
X-421780360Y-81050640D01*
X-421915328Y-81009698D01*
X-421981814Y-80974160D01*
X-422039713Y-80943212D01*
X-422051098Y-80933869D01*
X-422148735Y-80853741D01*
X-422238211Y-80744713D01*
X-422238212Y-80744712D01*
X-422304697Y-80620328D01*
X-422304698Y-80620327D01*
X-422325169Y-80552842D01*
X-422345640Y-80485359D01*
X-422356000Y-80380170D01*
X-422356000Y-79639829D01*
X-422345640Y-79534640D01*
X-422345640Y-79534638D01*
X-422325169Y-79467156D01*
X-422304698Y-79399673D01*
X-422238211Y-79275287D01*
X-422148737Y-79166262D01*
X-422039712Y-79076788D01*
X-421981813Y-79045840D01*
X-421915327Y-79010302D01*
X-421780359Y-78969360D01*
X-421640000Y-78955536D01*
X-421499640Y-78969360D01*
X-421499640Y-78969360D01*
G37*
G36*
X-416419640Y-78969360D02*
X-416284672Y-79010302D01*
X-416218186Y-79045840D01*
X-416160287Y-79076788D01*
X-416160285Y-79076789D01*
X-416160286Y-79076789D01*
X-416051262Y-79166262D01*
X-415961789Y-79275286D01*
X-415895302Y-79399672D01*
X-415854360Y-79534641D01*
X-415844000Y-79639827D01*
X-415844000Y-80380173D01*
X-415854360Y-80485359D01*
X-415895302Y-80620328D01*
X-415930840Y-80686814D01*
X-415961787Y-80744712D01*
X-415961789Y-80744714D01*
X-416051259Y-80853735D01*
X-416084615Y-80881109D01*
X-416160288Y-80943212D01*
X-416160290Y-80943213D01*
X-416284673Y-81009698D01*
X-416419641Y-81050640D01*
X-416560000Y-81064464D01*
X-416700360Y-81050640D01*
X-416835328Y-81009698D01*
X-416901814Y-80974160D01*
X-416959713Y-80943212D01*
X-416971098Y-80933869D01*
X-417068735Y-80853741D01*
X-417158211Y-80744713D01*
X-417158212Y-80744712D01*
X-417224697Y-80620328D01*
X-417224698Y-80620327D01*
X-417245169Y-80552842D01*
X-417265640Y-80485359D01*
X-417276000Y-80380170D01*
X-417276000Y-79639829D01*
X-417265640Y-79534640D01*
X-417265640Y-79534638D01*
X-417245169Y-79467156D01*
X-417224698Y-79399673D01*
X-417158211Y-79275287D01*
X-417068737Y-79166262D01*
X-416959712Y-79076788D01*
X-416901813Y-79045840D01*
X-416835327Y-79010302D01*
X-416700359Y-78969360D01*
X-416560000Y-78955536D01*
X-416419640Y-78969360D01*
X-416419640Y-78969360D01*
G37*
G36*
X-413879640Y-78969360D02*
X-413744672Y-79010302D01*
X-413678186Y-79045840D01*
X-413620287Y-79076788D01*
X-413620285Y-79076789D01*
X-413620286Y-79076789D01*
X-413511262Y-79166262D01*
X-413421789Y-79275286D01*
X-413355302Y-79399672D01*
X-413314360Y-79534641D01*
X-413304000Y-79639827D01*
X-413304000Y-80380173D01*
X-413314360Y-80485359D01*
X-413355302Y-80620328D01*
X-413390840Y-80686814D01*
X-413421787Y-80744712D01*
X-413421789Y-80744714D01*
X-413511259Y-80853735D01*
X-413544615Y-80881109D01*
X-413620288Y-80943212D01*
X-413620290Y-80943213D01*
X-413744673Y-81009698D01*
X-413879641Y-81050640D01*
X-414020000Y-81064464D01*
X-414160360Y-81050640D01*
X-414295328Y-81009698D01*
X-414361814Y-80974160D01*
X-414419713Y-80943212D01*
X-414431098Y-80933869D01*
X-414528735Y-80853741D01*
X-414618211Y-80744713D01*
X-414618212Y-80744712D01*
X-414684697Y-80620328D01*
X-414684698Y-80620327D01*
X-414705169Y-80552842D01*
X-414725640Y-80485359D01*
X-414736000Y-80380170D01*
X-414736000Y-79639829D01*
X-414725640Y-79534640D01*
X-414725640Y-79534638D01*
X-414705169Y-79467156D01*
X-414684698Y-79399673D01*
X-414618211Y-79275287D01*
X-414528737Y-79166262D01*
X-414419712Y-79076788D01*
X-414361813Y-79045840D01*
X-414295327Y-79010302D01*
X-414160359Y-78969360D01*
X-414020000Y-78955536D01*
X-413879640Y-78969360D01*
X-413879640Y-78969360D01*
G37*
G36*
X-411339640Y-78969360D02*
X-411204672Y-79010302D01*
X-411138186Y-79045840D01*
X-411080287Y-79076788D01*
X-411080285Y-79076789D01*
X-411080286Y-79076789D01*
X-410971262Y-79166262D01*
X-410881789Y-79275286D01*
X-410815302Y-79399672D01*
X-410774360Y-79534641D01*
X-410764000Y-79639827D01*
X-410764000Y-80380173D01*
X-410774360Y-80485359D01*
X-410815302Y-80620328D01*
X-410850840Y-80686814D01*
X-410881787Y-80744712D01*
X-410881789Y-80744714D01*
X-410971259Y-80853735D01*
X-411004615Y-80881109D01*
X-411080288Y-80943212D01*
X-411080290Y-80943213D01*
X-411204673Y-81009698D01*
X-411339641Y-81050640D01*
X-411480000Y-81064464D01*
X-411620360Y-81050640D01*
X-411755328Y-81009698D01*
X-411821814Y-80974160D01*
X-411879713Y-80943212D01*
X-411891098Y-80933869D01*
X-411988735Y-80853741D01*
X-412078211Y-80744713D01*
X-412078212Y-80744712D01*
X-412144697Y-80620328D01*
X-412144698Y-80620327D01*
X-412165169Y-80552842D01*
X-412185640Y-80485359D01*
X-412196000Y-80380170D01*
X-412196000Y-79639829D01*
X-412185640Y-79534640D01*
X-412185640Y-79534638D01*
X-412165169Y-79467156D01*
X-412144698Y-79399673D01*
X-412078211Y-79275287D01*
X-411988737Y-79166262D01*
X-411879712Y-79076788D01*
X-411821813Y-79045840D01*
X-411755327Y-79010302D01*
X-411620359Y-78969360D01*
X-411480000Y-78955536D01*
X-411339640Y-78969360D01*
X-411339640Y-78969360D01*
G37*
G36*
X-408799640Y-78969360D02*
X-408664672Y-79010302D01*
X-408598186Y-79045840D01*
X-408540287Y-79076788D01*
X-408540285Y-79076789D01*
X-408540286Y-79076789D01*
X-408431262Y-79166262D01*
X-408341789Y-79275286D01*
X-408275302Y-79399672D01*
X-408234360Y-79534641D01*
X-408224000Y-79639827D01*
X-408224000Y-80380173D01*
X-408234360Y-80485359D01*
X-408275302Y-80620328D01*
X-408310840Y-80686814D01*
X-408341787Y-80744712D01*
X-408341789Y-80744714D01*
X-408431259Y-80853735D01*
X-408464615Y-80881109D01*
X-408540288Y-80943212D01*
X-408540290Y-80943213D01*
X-408664673Y-81009698D01*
X-408799641Y-81050640D01*
X-408940000Y-81064464D01*
X-409080360Y-81050640D01*
X-409215328Y-81009698D01*
X-409281814Y-80974160D01*
X-409339713Y-80943212D01*
X-409351098Y-80933869D01*
X-409448735Y-80853741D01*
X-409538211Y-80744713D01*
X-409538212Y-80744712D01*
X-409604697Y-80620328D01*
X-409604698Y-80620327D01*
X-409625169Y-80552842D01*
X-409645640Y-80485359D01*
X-409656000Y-80380170D01*
X-409656000Y-79639829D01*
X-409645640Y-79534640D01*
X-409645640Y-79534638D01*
X-409625169Y-79467156D01*
X-409604698Y-79399673D01*
X-409538211Y-79275287D01*
X-409448737Y-79166262D01*
X-409339712Y-79076788D01*
X-409281813Y-79045840D01*
X-409215327Y-79010302D01*
X-409080359Y-78969360D01*
X-408940000Y-78955536D01*
X-408799640Y-78969360D01*
X-408799640Y-78969360D01*
G37*
G36*
X-406259640Y-78969360D02*
X-406124672Y-79010302D01*
X-406058186Y-79045840D01*
X-406000287Y-79076788D01*
X-406000285Y-79076789D01*
X-406000286Y-79076789D01*
X-405891262Y-79166262D01*
X-405801789Y-79275286D01*
X-405735302Y-79399672D01*
X-405694360Y-79534641D01*
X-405684000Y-79639827D01*
X-405684000Y-80380173D01*
X-405694360Y-80485359D01*
X-405735302Y-80620328D01*
X-405770840Y-80686814D01*
X-405801787Y-80744712D01*
X-405801789Y-80744714D01*
X-405891259Y-80853735D01*
X-405924615Y-80881109D01*
X-406000288Y-80943212D01*
X-406000290Y-80943213D01*
X-406124673Y-81009698D01*
X-406259641Y-81050640D01*
X-406400000Y-81064464D01*
X-406540360Y-81050640D01*
X-406675328Y-81009698D01*
X-406741814Y-80974160D01*
X-406799713Y-80943212D01*
X-406811098Y-80933869D01*
X-406908735Y-80853741D01*
X-406998211Y-80744713D01*
X-406998212Y-80744712D01*
X-407064697Y-80620328D01*
X-407064698Y-80620327D01*
X-407085169Y-80552842D01*
X-407105640Y-80485359D01*
X-407116000Y-80380170D01*
X-407116000Y-79639829D01*
X-407105640Y-79534640D01*
X-407105640Y-79534638D01*
X-407085169Y-79467156D01*
X-407064698Y-79399673D01*
X-406998211Y-79275287D01*
X-406908737Y-79166262D01*
X-406799712Y-79076788D01*
X-406741813Y-79045840D01*
X-406675327Y-79010302D01*
X-406540359Y-78969360D01*
X-406400000Y-78955536D01*
X-406259640Y-78969360D01*
X-406259640Y-78969360D01*
G37*
G36*
X-403719640Y-78969360D02*
X-403584672Y-79010302D01*
X-403518186Y-79045840D01*
X-403460287Y-79076788D01*
X-403460285Y-79076789D01*
X-403460286Y-79076789D01*
X-403351262Y-79166262D01*
X-403261789Y-79275286D01*
X-403195302Y-79399672D01*
X-403154360Y-79534641D01*
X-403144000Y-79639827D01*
X-403144000Y-80380173D01*
X-403154360Y-80485359D01*
X-403195302Y-80620328D01*
X-403230840Y-80686814D01*
X-403261787Y-80744712D01*
X-403261789Y-80744714D01*
X-403351259Y-80853735D01*
X-403384615Y-80881109D01*
X-403460288Y-80943212D01*
X-403460290Y-80943213D01*
X-403584673Y-81009698D01*
X-403719641Y-81050640D01*
X-403860000Y-81064464D01*
X-404000360Y-81050640D01*
X-404135328Y-81009698D01*
X-404201814Y-80974160D01*
X-404259713Y-80943212D01*
X-404271098Y-80933869D01*
X-404368735Y-80853741D01*
X-404458211Y-80744713D01*
X-404458212Y-80744712D01*
X-404524697Y-80620328D01*
X-404524698Y-80620327D01*
X-404545169Y-80552842D01*
X-404565640Y-80485359D01*
X-404576000Y-80380170D01*
X-404576000Y-79639829D01*
X-404565640Y-79534640D01*
X-404565640Y-79534638D01*
X-404545169Y-79467156D01*
X-404524698Y-79399673D01*
X-404458211Y-79275287D01*
X-404368737Y-79166262D01*
X-404259712Y-79076788D01*
X-404201813Y-79045840D01*
X-404135327Y-79010302D01*
X-404000359Y-78969360D01*
X-403860000Y-78955536D01*
X-403719640Y-78969360D01*
X-403719640Y-78969360D01*
G37*
G36*
X-472299640Y-78969360D02*
X-472164672Y-79010302D01*
X-472098186Y-79045840D01*
X-472040287Y-79076788D01*
X-472040285Y-79076789D01*
X-472040286Y-79076789D01*
X-471931262Y-79166262D01*
X-471841789Y-79275286D01*
X-471775302Y-79399672D01*
X-471734360Y-79534641D01*
X-471724000Y-79639827D01*
X-471724000Y-80380173D01*
X-471734360Y-80485359D01*
X-471775302Y-80620328D01*
X-471810840Y-80686814D01*
X-471841787Y-80744712D01*
X-471841789Y-80744714D01*
X-471931259Y-80853735D01*
X-471964615Y-80881109D01*
X-472040288Y-80943212D01*
X-472040290Y-80943213D01*
X-472164673Y-81009698D01*
X-472299641Y-81050640D01*
X-472440000Y-81064464D01*
X-472580360Y-81050640D01*
X-472715328Y-81009698D01*
X-472781814Y-80974160D01*
X-472839713Y-80943212D01*
X-472851098Y-80933869D01*
X-472948735Y-80853741D01*
X-473038211Y-80744713D01*
X-473038212Y-80744712D01*
X-473104697Y-80620328D01*
X-473104698Y-80620327D01*
X-473125169Y-80552842D01*
X-473145640Y-80485359D01*
X-473156000Y-80380170D01*
X-473156000Y-79639829D01*
X-473145640Y-79534640D01*
X-473145640Y-79534638D01*
X-473125169Y-79467156D01*
X-473104698Y-79399673D01*
X-473038211Y-79275287D01*
X-472948737Y-79166262D01*
X-472839712Y-79076788D01*
X-472781813Y-79045840D01*
X-472715327Y-79010302D01*
X-472580359Y-78969360D01*
X-472440000Y-78955536D01*
X-472299640Y-78969360D01*
X-472299640Y-78969360D01*
G37*
G36*
X-454519640Y-78969360D02*
X-454384672Y-79010302D01*
X-454318186Y-79045840D01*
X-454260287Y-79076788D01*
X-454260285Y-79076789D01*
X-454260286Y-79076789D01*
X-454151262Y-79166262D01*
X-454061789Y-79275286D01*
X-453995302Y-79399672D01*
X-453954360Y-79534641D01*
X-453944000Y-79639827D01*
X-453944000Y-80380173D01*
X-453954360Y-80485359D01*
X-453995302Y-80620328D01*
X-454030840Y-80686814D01*
X-454061787Y-80744712D01*
X-454061789Y-80744714D01*
X-454151259Y-80853735D01*
X-454184615Y-80881109D01*
X-454260288Y-80943212D01*
X-454260290Y-80943213D01*
X-454384673Y-81009698D01*
X-454519641Y-81050640D01*
X-454660000Y-81064464D01*
X-454800360Y-81050640D01*
X-454935328Y-81009698D01*
X-455001814Y-80974160D01*
X-455059713Y-80943212D01*
X-455071098Y-80933869D01*
X-455168735Y-80853741D01*
X-455258211Y-80744713D01*
X-455258212Y-80744712D01*
X-455324697Y-80620328D01*
X-455324698Y-80620327D01*
X-455345169Y-80552842D01*
X-455365640Y-80485359D01*
X-455376000Y-80380170D01*
X-455376000Y-79639829D01*
X-455365640Y-79534640D01*
X-455365640Y-79534638D01*
X-455345169Y-79467156D01*
X-455324698Y-79399673D01*
X-455258211Y-79275287D01*
X-455168737Y-79166262D01*
X-455059712Y-79076788D01*
X-455001813Y-79045840D01*
X-454935327Y-79010302D01*
X-454800359Y-78969360D01*
X-454660000Y-78955536D01*
X-454519640Y-78969360D01*
X-454519640Y-78969360D01*
G37*
G36*
X-451979640Y-78969360D02*
X-451844672Y-79010302D01*
X-451778186Y-79045840D01*
X-451720287Y-79076788D01*
X-451720285Y-79076789D01*
X-451720286Y-79076789D01*
X-451611262Y-79166262D01*
X-451521789Y-79275286D01*
X-451455302Y-79399672D01*
X-451414360Y-79534641D01*
X-451404000Y-79639827D01*
X-451404000Y-80380173D01*
X-451414360Y-80485359D01*
X-451455302Y-80620328D01*
X-451490840Y-80686814D01*
X-451521787Y-80744712D01*
X-451521789Y-80744714D01*
X-451611259Y-80853735D01*
X-451644615Y-80881109D01*
X-451720288Y-80943212D01*
X-451720290Y-80943213D01*
X-451844673Y-81009698D01*
X-451979641Y-81050640D01*
X-452120000Y-81064464D01*
X-452260360Y-81050640D01*
X-452395328Y-81009698D01*
X-452461814Y-80974160D01*
X-452519713Y-80943212D01*
X-452531098Y-80933869D01*
X-452628735Y-80853741D01*
X-452718211Y-80744713D01*
X-452718212Y-80744712D01*
X-452784697Y-80620328D01*
X-452784698Y-80620327D01*
X-452805169Y-80552842D01*
X-452825640Y-80485359D01*
X-452836000Y-80380170D01*
X-452836000Y-79639829D01*
X-452825640Y-79534640D01*
X-452825640Y-79534638D01*
X-452805169Y-79467156D01*
X-452784698Y-79399673D01*
X-452718211Y-79275287D01*
X-452628737Y-79166262D01*
X-452519712Y-79076788D01*
X-452461813Y-79045840D01*
X-452395327Y-79010302D01*
X-452260359Y-78969360D01*
X-452120000Y-78955536D01*
X-451979640Y-78969360D01*
X-451979640Y-78969360D01*
G37*
G36*
X-429119640Y-78969360D02*
X-428984672Y-79010302D01*
X-428918186Y-79045840D01*
X-428860287Y-79076788D01*
X-428860285Y-79076789D01*
X-428860286Y-79076789D01*
X-428751262Y-79166262D01*
X-428661789Y-79275286D01*
X-428595302Y-79399672D01*
X-428554360Y-79534641D01*
X-428544000Y-79639827D01*
X-428544000Y-80380173D01*
X-428554360Y-80485359D01*
X-428595302Y-80620328D01*
X-428630840Y-80686814D01*
X-428661787Y-80744712D01*
X-428661789Y-80744714D01*
X-428751259Y-80853735D01*
X-428784615Y-80881109D01*
X-428860288Y-80943212D01*
X-428860290Y-80943213D01*
X-428984673Y-81009698D01*
X-429119641Y-81050640D01*
X-429260000Y-81064464D01*
X-429400360Y-81050640D01*
X-429535328Y-81009698D01*
X-429601814Y-80974160D01*
X-429659713Y-80943212D01*
X-429671098Y-80933869D01*
X-429768735Y-80853741D01*
X-429858211Y-80744713D01*
X-429858212Y-80744712D01*
X-429924697Y-80620328D01*
X-429924698Y-80620327D01*
X-429945169Y-80552842D01*
X-429965640Y-80485359D01*
X-429976000Y-80380170D01*
X-429976000Y-79639829D01*
X-429965640Y-79534640D01*
X-429965640Y-79534638D01*
X-429945169Y-79467156D01*
X-429924698Y-79399673D01*
X-429858211Y-79275287D01*
X-429768737Y-79166262D01*
X-429659712Y-79076788D01*
X-429601813Y-79045840D01*
X-429535327Y-79010302D01*
X-429400359Y-78969360D01*
X-429260000Y-78955536D01*
X-429119640Y-78969360D01*
X-429119640Y-78969360D01*
G37*
G36*
X-431659640Y-78969360D02*
X-431524672Y-79010302D01*
X-431458186Y-79045840D01*
X-431400287Y-79076788D01*
X-431400285Y-79076789D01*
X-431400286Y-79076789D01*
X-431291262Y-79166262D01*
X-431201789Y-79275286D01*
X-431135302Y-79399672D01*
X-431094360Y-79534641D01*
X-431084000Y-79639827D01*
X-431084000Y-80380173D01*
X-431094360Y-80485359D01*
X-431135302Y-80620328D01*
X-431170840Y-80686814D01*
X-431201787Y-80744712D01*
X-431201789Y-80744714D01*
X-431291259Y-80853735D01*
X-431324615Y-80881109D01*
X-431400288Y-80943212D01*
X-431400290Y-80943213D01*
X-431524673Y-81009698D01*
X-431659641Y-81050640D01*
X-431800000Y-81064464D01*
X-431940360Y-81050640D01*
X-432075328Y-81009698D01*
X-432141814Y-80974160D01*
X-432199713Y-80943212D01*
X-432211098Y-80933869D01*
X-432308735Y-80853741D01*
X-432398211Y-80744713D01*
X-432398212Y-80744712D01*
X-432464697Y-80620328D01*
X-432464698Y-80620327D01*
X-432485169Y-80552842D01*
X-432505640Y-80485359D01*
X-432516000Y-80380170D01*
X-432516000Y-79639829D01*
X-432505640Y-79534640D01*
X-432505640Y-79534638D01*
X-432485169Y-79467156D01*
X-432464698Y-79399673D01*
X-432398211Y-79275287D01*
X-432308737Y-79166262D01*
X-432199712Y-79076788D01*
X-432141813Y-79045840D01*
X-432075327Y-79010302D01*
X-431940359Y-78969360D01*
X-431800000Y-78955536D01*
X-431659640Y-78969360D01*
X-431659640Y-78969360D01*
G37*
G36*
X-434199640Y-78969360D02*
X-434064672Y-79010302D01*
X-433998186Y-79045840D01*
X-433940287Y-79076788D01*
X-433940285Y-79076789D01*
X-433940286Y-79076789D01*
X-433831262Y-79166262D01*
X-433741789Y-79275286D01*
X-433675302Y-79399672D01*
X-433634360Y-79534641D01*
X-433624000Y-79639827D01*
X-433624000Y-80380173D01*
X-433634360Y-80485359D01*
X-433675302Y-80620328D01*
X-433710840Y-80686814D01*
X-433741787Y-80744712D01*
X-433741789Y-80744714D01*
X-433831259Y-80853735D01*
X-433864615Y-80881109D01*
X-433940288Y-80943212D01*
X-433940290Y-80943213D01*
X-434064673Y-81009698D01*
X-434199641Y-81050640D01*
X-434340000Y-81064464D01*
X-434480360Y-81050640D01*
X-434615328Y-81009698D01*
X-434681814Y-80974160D01*
X-434739713Y-80943212D01*
X-434751098Y-80933869D01*
X-434848735Y-80853741D01*
X-434938211Y-80744713D01*
X-434938212Y-80744712D01*
X-435004697Y-80620328D01*
X-435004698Y-80620327D01*
X-435025169Y-80552842D01*
X-435045640Y-80485359D01*
X-435056000Y-80380170D01*
X-435056000Y-79639829D01*
X-435045640Y-79534640D01*
X-435045640Y-79534638D01*
X-435025169Y-79467156D01*
X-435004698Y-79399673D01*
X-434938211Y-79275287D01*
X-434848737Y-79166262D01*
X-434739712Y-79076788D01*
X-434681813Y-79045840D01*
X-434615327Y-79010302D01*
X-434480359Y-78969360D01*
X-434340000Y-78955536D01*
X-434199640Y-78969360D01*
X-434199640Y-78969360D01*
G37*
G36*
X-436739640Y-78969360D02*
X-436604672Y-79010302D01*
X-436538186Y-79045840D01*
X-436480287Y-79076788D01*
X-436480285Y-79076789D01*
X-436480286Y-79076789D01*
X-436371262Y-79166262D01*
X-436281789Y-79275286D01*
X-436215302Y-79399672D01*
X-436174360Y-79534641D01*
X-436164000Y-79639827D01*
X-436164000Y-80380173D01*
X-436174360Y-80485359D01*
X-436215302Y-80620328D01*
X-436250840Y-80686814D01*
X-436281787Y-80744712D01*
X-436281789Y-80744714D01*
X-436371259Y-80853735D01*
X-436404615Y-80881109D01*
X-436480288Y-80943212D01*
X-436480290Y-80943213D01*
X-436604673Y-81009698D01*
X-436739641Y-81050640D01*
X-436880000Y-81064464D01*
X-437020360Y-81050640D01*
X-437155328Y-81009698D01*
X-437221814Y-80974160D01*
X-437279713Y-80943212D01*
X-437291098Y-80933869D01*
X-437388735Y-80853741D01*
X-437478211Y-80744713D01*
X-437478212Y-80744712D01*
X-437544697Y-80620328D01*
X-437544698Y-80620327D01*
X-437565169Y-80552842D01*
X-437585640Y-80485359D01*
X-437596000Y-80380170D01*
X-437596000Y-79639829D01*
X-437585640Y-79534640D01*
X-437585640Y-79534638D01*
X-437565169Y-79467156D01*
X-437544698Y-79399673D01*
X-437478211Y-79275287D01*
X-437388737Y-79166262D01*
X-437279712Y-79076788D01*
X-437221813Y-79045840D01*
X-437155327Y-79010302D01*
X-437020359Y-78969360D01*
X-436880000Y-78955536D01*
X-436739640Y-78969360D01*
X-436739640Y-78969360D01*
G37*
G36*
X-439279640Y-78969360D02*
X-439144672Y-79010302D01*
X-439078186Y-79045840D01*
X-439020287Y-79076788D01*
X-439020285Y-79076789D01*
X-439020286Y-79076789D01*
X-438911262Y-79166262D01*
X-438821789Y-79275286D01*
X-438755302Y-79399672D01*
X-438714360Y-79534641D01*
X-438704000Y-79639827D01*
X-438704000Y-80380173D01*
X-438714360Y-80485359D01*
X-438755302Y-80620328D01*
X-438790840Y-80686814D01*
X-438821787Y-80744712D01*
X-438821789Y-80744714D01*
X-438911259Y-80853735D01*
X-438944615Y-80881109D01*
X-439020288Y-80943212D01*
X-439020290Y-80943213D01*
X-439144673Y-81009698D01*
X-439279641Y-81050640D01*
X-439420000Y-81064464D01*
X-439560360Y-81050640D01*
X-439695328Y-81009698D01*
X-439761814Y-80974160D01*
X-439819713Y-80943212D01*
X-439831098Y-80933869D01*
X-439928735Y-80853741D01*
X-440018211Y-80744713D01*
X-440018212Y-80744712D01*
X-440084697Y-80620328D01*
X-440084698Y-80620327D01*
X-440105169Y-80552842D01*
X-440125640Y-80485359D01*
X-440136000Y-80380170D01*
X-440136000Y-79639829D01*
X-440125640Y-79534640D01*
X-440125640Y-79534638D01*
X-440105169Y-79467156D01*
X-440084698Y-79399673D01*
X-440018211Y-79275287D01*
X-439928737Y-79166262D01*
X-439819712Y-79076788D01*
X-439761813Y-79045840D01*
X-439695327Y-79010302D01*
X-439560359Y-78969360D01*
X-439420000Y-78955536D01*
X-439279640Y-78969360D01*
X-439279640Y-78969360D01*
G37*
G36*
X-441819640Y-78969360D02*
X-441684672Y-79010302D01*
X-441618186Y-79045840D01*
X-441560287Y-79076788D01*
X-441560285Y-79076789D01*
X-441560286Y-79076789D01*
X-441451262Y-79166262D01*
X-441361789Y-79275286D01*
X-441295302Y-79399672D01*
X-441254360Y-79534641D01*
X-441244000Y-79639827D01*
X-441244000Y-80380173D01*
X-441254360Y-80485359D01*
X-441295302Y-80620328D01*
X-441330840Y-80686814D01*
X-441361787Y-80744712D01*
X-441361789Y-80744714D01*
X-441451259Y-80853735D01*
X-441484615Y-80881109D01*
X-441560288Y-80943212D01*
X-441560290Y-80943213D01*
X-441684673Y-81009698D01*
X-441819641Y-81050640D01*
X-441960000Y-81064464D01*
X-442100360Y-81050640D01*
X-442235328Y-81009698D01*
X-442301814Y-80974160D01*
X-442359713Y-80943212D01*
X-442371098Y-80933869D01*
X-442468735Y-80853741D01*
X-442558211Y-80744713D01*
X-442558212Y-80744712D01*
X-442624697Y-80620328D01*
X-442624698Y-80620327D01*
X-442645169Y-80552842D01*
X-442665640Y-80485359D01*
X-442676000Y-80380170D01*
X-442676000Y-79639829D01*
X-442665640Y-79534640D01*
X-442665640Y-79534638D01*
X-442645169Y-79467156D01*
X-442624698Y-79399673D01*
X-442558211Y-79275287D01*
X-442468737Y-79166262D01*
X-442359712Y-79076788D01*
X-442301813Y-79045840D01*
X-442235327Y-79010302D01*
X-442100359Y-78969360D01*
X-441960000Y-78955536D01*
X-441819640Y-78969360D01*
X-441819640Y-78969360D01*
G37*
G36*
X-444359640Y-78969360D02*
X-444224672Y-79010302D01*
X-444158186Y-79045840D01*
X-444100287Y-79076788D01*
X-444100285Y-79076789D01*
X-444100286Y-79076789D01*
X-443991262Y-79166262D01*
X-443901789Y-79275286D01*
X-443835302Y-79399672D01*
X-443794360Y-79534641D01*
X-443784000Y-79639827D01*
X-443784000Y-80380173D01*
X-443794360Y-80485359D01*
X-443835302Y-80620328D01*
X-443870840Y-80686814D01*
X-443901787Y-80744712D01*
X-443901789Y-80744714D01*
X-443991259Y-80853735D01*
X-444024615Y-80881109D01*
X-444100288Y-80943212D01*
X-444100290Y-80943213D01*
X-444224673Y-81009698D01*
X-444359641Y-81050640D01*
X-444500000Y-81064464D01*
X-444640360Y-81050640D01*
X-444775328Y-81009698D01*
X-444841814Y-80974160D01*
X-444899713Y-80943212D01*
X-444911098Y-80933869D01*
X-445008735Y-80853741D01*
X-445098211Y-80744713D01*
X-445098212Y-80744712D01*
X-445164697Y-80620328D01*
X-445164698Y-80620327D01*
X-445185169Y-80552842D01*
X-445205640Y-80485359D01*
X-445216000Y-80380170D01*
X-445216000Y-79639829D01*
X-445205640Y-79534640D01*
X-445205640Y-79534638D01*
X-445185169Y-79467156D01*
X-445164698Y-79399673D01*
X-445098211Y-79275287D01*
X-445008737Y-79166262D01*
X-444899712Y-79076788D01*
X-444841813Y-79045840D01*
X-444775327Y-79010302D01*
X-444640359Y-78969360D01*
X-444500000Y-78955536D01*
X-444359640Y-78969360D01*
X-444359640Y-78969360D01*
G37*
G36*
X-401179640Y-78969360D02*
X-401044672Y-79010302D01*
X-400978186Y-79045840D01*
X-400920287Y-79076788D01*
X-400920285Y-79076789D01*
X-400920286Y-79076789D01*
X-400811262Y-79166262D01*
X-400721789Y-79275286D01*
X-400655302Y-79399672D01*
X-400614360Y-79534641D01*
X-400604000Y-79639827D01*
X-400604000Y-80380173D01*
X-400614360Y-80485359D01*
X-400655302Y-80620328D01*
X-400690840Y-80686814D01*
X-400721787Y-80744712D01*
X-400721789Y-80744714D01*
X-400811259Y-80853735D01*
X-400844615Y-80881109D01*
X-400920288Y-80943212D01*
X-400920290Y-80943213D01*
X-401044673Y-81009698D01*
X-401179641Y-81050640D01*
X-401320000Y-81064464D01*
X-401460360Y-81050640D01*
X-401595328Y-81009698D01*
X-401661814Y-80974160D01*
X-401719713Y-80943212D01*
X-401731098Y-80933869D01*
X-401828735Y-80853741D01*
X-401918211Y-80744713D01*
X-401918212Y-80744712D01*
X-401984697Y-80620328D01*
X-401984698Y-80620327D01*
X-402005169Y-80552842D01*
X-402025640Y-80485359D01*
X-402036000Y-80380170D01*
X-402036000Y-79639829D01*
X-402025640Y-79534640D01*
X-402025640Y-79534638D01*
X-402005169Y-79467156D01*
X-401984698Y-79399673D01*
X-401918211Y-79275287D01*
X-401828737Y-79166262D01*
X-401719712Y-79076788D01*
X-401661813Y-79045840D01*
X-401595327Y-79010302D01*
X-401460359Y-78969360D01*
X-401320000Y-78955536D01*
X-401179640Y-78969360D01*
X-401179640Y-78969360D01*
G37*
G36*
X-469759640Y-78969360D02*
X-469624672Y-79010302D01*
X-469558186Y-79045840D01*
X-469500287Y-79076788D01*
X-469500285Y-79076789D01*
X-469500286Y-79076789D01*
X-469391262Y-79166262D01*
X-469301789Y-79275286D01*
X-469235302Y-79399672D01*
X-469194360Y-79534641D01*
X-469184000Y-79639827D01*
X-469184000Y-80380173D01*
X-469194360Y-80485359D01*
X-469235302Y-80620328D01*
X-469270840Y-80686814D01*
X-469301787Y-80744712D01*
X-469301789Y-80744714D01*
X-469391259Y-80853735D01*
X-469424615Y-80881109D01*
X-469500288Y-80943212D01*
X-469500290Y-80943213D01*
X-469624673Y-81009698D01*
X-469759641Y-81050640D01*
X-469900000Y-81064464D01*
X-470040360Y-81050640D01*
X-470175328Y-81009698D01*
X-470241814Y-80974160D01*
X-470299713Y-80943212D01*
X-470311098Y-80933869D01*
X-470408735Y-80853741D01*
X-470498211Y-80744713D01*
X-470498212Y-80744712D01*
X-470564697Y-80620328D01*
X-470564698Y-80620327D01*
X-470585169Y-80552842D01*
X-470605640Y-80485359D01*
X-470616000Y-80380170D01*
X-470616000Y-79639829D01*
X-470605640Y-79534640D01*
X-470605640Y-79534638D01*
X-470585169Y-79467156D01*
X-470564698Y-79399673D01*
X-470498211Y-79275287D01*
X-470408737Y-79166262D01*
X-470299712Y-79076788D01*
X-470241813Y-79045840D01*
X-470175327Y-79010302D01*
X-470040359Y-78969360D01*
X-469900000Y-78955536D01*
X-469759640Y-78969360D01*
X-469759640Y-78969360D01*
G37*
G36*
X-467219640Y-78969360D02*
X-467084672Y-79010302D01*
X-467018186Y-79045840D01*
X-466960287Y-79076788D01*
X-466960285Y-79076789D01*
X-466960286Y-79076789D01*
X-466851262Y-79166262D01*
X-466761789Y-79275286D01*
X-466695302Y-79399672D01*
X-466654360Y-79534641D01*
X-466644000Y-79639827D01*
X-466644000Y-80380173D01*
X-466654360Y-80485359D01*
X-466695302Y-80620328D01*
X-466730840Y-80686814D01*
X-466761787Y-80744712D01*
X-466761789Y-80744714D01*
X-466851259Y-80853735D01*
X-466884615Y-80881109D01*
X-466960288Y-80943212D01*
X-466960290Y-80943213D01*
X-467084673Y-81009698D01*
X-467219641Y-81050640D01*
X-467360000Y-81064464D01*
X-467500360Y-81050640D01*
X-467635328Y-81009698D01*
X-467701814Y-80974160D01*
X-467759713Y-80943212D01*
X-467771098Y-80933869D01*
X-467868735Y-80853741D01*
X-467958211Y-80744713D01*
X-467958212Y-80744712D01*
X-468024697Y-80620328D01*
X-468024698Y-80620327D01*
X-468045169Y-80552842D01*
X-468065640Y-80485359D01*
X-468076000Y-80380170D01*
X-468076000Y-79639829D01*
X-468065640Y-79534640D01*
X-468065640Y-79534638D01*
X-468045169Y-79467156D01*
X-468024698Y-79399673D01*
X-467958211Y-79275287D01*
X-467868737Y-79166262D01*
X-467759712Y-79076788D01*
X-467701813Y-79045840D01*
X-467635327Y-79010302D01*
X-467500359Y-78969360D01*
X-467360000Y-78955536D01*
X-467219640Y-78969360D01*
X-467219640Y-78969360D01*
G37*
G36*
X-464679640Y-78969360D02*
X-464544672Y-79010302D01*
X-464478186Y-79045840D01*
X-464420287Y-79076788D01*
X-464420285Y-79076789D01*
X-464420286Y-79076789D01*
X-464311262Y-79166262D01*
X-464221789Y-79275286D01*
X-464155302Y-79399672D01*
X-464114360Y-79534641D01*
X-464104000Y-79639827D01*
X-464104000Y-80380173D01*
X-464114360Y-80485359D01*
X-464155302Y-80620328D01*
X-464190840Y-80686814D01*
X-464221787Y-80744712D01*
X-464221789Y-80744714D01*
X-464311259Y-80853735D01*
X-464344615Y-80881109D01*
X-464420288Y-80943212D01*
X-464420290Y-80943213D01*
X-464544673Y-81009698D01*
X-464679641Y-81050640D01*
X-464820000Y-81064464D01*
X-464960360Y-81050640D01*
X-465095328Y-81009698D01*
X-465161814Y-80974160D01*
X-465219713Y-80943212D01*
X-465231098Y-80933869D01*
X-465328735Y-80853741D01*
X-465418211Y-80744713D01*
X-465418212Y-80744712D01*
X-465484697Y-80620328D01*
X-465484698Y-80620327D01*
X-465505169Y-80552842D01*
X-465525640Y-80485359D01*
X-465536000Y-80380170D01*
X-465536000Y-79639829D01*
X-465525640Y-79534640D01*
X-465525640Y-79534638D01*
X-465505169Y-79467156D01*
X-465484698Y-79399673D01*
X-465418211Y-79275287D01*
X-465328737Y-79166262D01*
X-465219712Y-79076788D01*
X-465161813Y-79045840D01*
X-465095327Y-79010302D01*
X-464960359Y-78969360D01*
X-464820000Y-78955536D01*
X-464679640Y-78969360D01*
X-464679640Y-78969360D01*
G37*
G36*
X-462139640Y-78969360D02*
X-462004672Y-79010302D01*
X-461938186Y-79045840D01*
X-461880287Y-79076788D01*
X-461880285Y-79076789D01*
X-461880286Y-79076789D01*
X-461771262Y-79166262D01*
X-461681789Y-79275286D01*
X-461615302Y-79399672D01*
X-461574360Y-79534641D01*
X-461564000Y-79639827D01*
X-461564000Y-80380173D01*
X-461574360Y-80485359D01*
X-461615302Y-80620328D01*
X-461650840Y-80686814D01*
X-461681787Y-80744712D01*
X-461681789Y-80744714D01*
X-461771259Y-80853735D01*
X-461804615Y-80881109D01*
X-461880288Y-80943212D01*
X-461880290Y-80943213D01*
X-462004673Y-81009698D01*
X-462139641Y-81050640D01*
X-462280000Y-81064464D01*
X-462420360Y-81050640D01*
X-462555328Y-81009698D01*
X-462621814Y-80974160D01*
X-462679713Y-80943212D01*
X-462691098Y-80933869D01*
X-462788735Y-80853741D01*
X-462878211Y-80744713D01*
X-462878212Y-80744712D01*
X-462944697Y-80620328D01*
X-462944698Y-80620327D01*
X-462965169Y-80552842D01*
X-462985640Y-80485359D01*
X-462996000Y-80380170D01*
X-462996000Y-79639829D01*
X-462985640Y-79534640D01*
X-462985640Y-79534638D01*
X-462965169Y-79467156D01*
X-462944698Y-79399673D01*
X-462878211Y-79275287D01*
X-462788737Y-79166262D01*
X-462679712Y-79076788D01*
X-462621813Y-79045840D01*
X-462555327Y-79010302D01*
X-462420359Y-78969360D01*
X-462280000Y-78955536D01*
X-462139640Y-78969360D01*
X-462139640Y-78969360D01*
G37*
G36*
X-459599640Y-78969360D02*
X-459464672Y-79010302D01*
X-459398186Y-79045840D01*
X-459340287Y-79076788D01*
X-459340285Y-79076789D01*
X-459340286Y-79076789D01*
X-459231262Y-79166262D01*
X-459141789Y-79275286D01*
X-459075302Y-79399672D01*
X-459034360Y-79534641D01*
X-459024000Y-79639827D01*
X-459024000Y-80380173D01*
X-459034360Y-80485359D01*
X-459075302Y-80620328D01*
X-459110840Y-80686814D01*
X-459141787Y-80744712D01*
X-459141789Y-80744714D01*
X-459231259Y-80853735D01*
X-459264615Y-80881109D01*
X-459340288Y-80943212D01*
X-459340290Y-80943213D01*
X-459464673Y-81009698D01*
X-459599641Y-81050640D01*
X-459740000Y-81064464D01*
X-459880360Y-81050640D01*
X-460015328Y-81009698D01*
X-460081814Y-80974160D01*
X-460139713Y-80943212D01*
X-460151098Y-80933869D01*
X-460248735Y-80853741D01*
X-460338211Y-80744713D01*
X-460338212Y-80744712D01*
X-460404697Y-80620328D01*
X-460404698Y-80620327D01*
X-460425169Y-80552842D01*
X-460445640Y-80485359D01*
X-460456000Y-80380170D01*
X-460456000Y-79639829D01*
X-460445640Y-79534640D01*
X-460445640Y-79534638D01*
X-460425169Y-79467156D01*
X-460404698Y-79399673D01*
X-460338211Y-79275287D01*
X-460248737Y-79166262D01*
X-460139712Y-79076788D01*
X-460081813Y-79045840D01*
X-460015327Y-79010302D01*
X-459880359Y-78969360D01*
X-459740000Y-78955536D01*
X-459599640Y-78969360D01*
X-459599640Y-78969360D01*
G37*
G36*
X-457059640Y-78969360D02*
X-456924672Y-79010302D01*
X-456858186Y-79045840D01*
X-456800287Y-79076788D01*
X-456800285Y-79076789D01*
X-456800286Y-79076789D01*
X-456691262Y-79166262D01*
X-456601789Y-79275286D01*
X-456535302Y-79399672D01*
X-456494360Y-79534641D01*
X-456484000Y-79639827D01*
X-456484000Y-80380173D01*
X-456494360Y-80485359D01*
X-456535302Y-80620328D01*
X-456570840Y-80686814D01*
X-456601787Y-80744712D01*
X-456601789Y-80744714D01*
X-456691259Y-80853735D01*
X-456724615Y-80881109D01*
X-456800288Y-80943212D01*
X-456800290Y-80943213D01*
X-456924673Y-81009698D01*
X-457059641Y-81050640D01*
X-457200000Y-81064464D01*
X-457340360Y-81050640D01*
X-457475328Y-81009698D01*
X-457541814Y-80974160D01*
X-457599713Y-80943212D01*
X-457611098Y-80933869D01*
X-457708735Y-80853741D01*
X-457798211Y-80744713D01*
X-457798212Y-80744712D01*
X-457864697Y-80620328D01*
X-457864698Y-80620327D01*
X-457885169Y-80552842D01*
X-457905640Y-80485359D01*
X-457916000Y-80380170D01*
X-457916000Y-79639829D01*
X-457905640Y-79534640D01*
X-457905640Y-79534638D01*
X-457885169Y-79467156D01*
X-457864698Y-79399673D01*
X-457798211Y-79275287D01*
X-457708737Y-79166262D01*
X-457599712Y-79076788D01*
X-457541813Y-79045840D01*
X-457475327Y-79010302D01*
X-457340359Y-78969360D01*
X-457200000Y-78955536D01*
X-457059640Y-78969360D01*
X-457059640Y-78969360D01*
G37*
G36*
X-446899640Y-78969360D02*
X-446764672Y-79010302D01*
X-446698186Y-79045840D01*
X-446640287Y-79076788D01*
X-446640285Y-79076789D01*
X-446640286Y-79076789D01*
X-446531262Y-79166262D01*
X-446441789Y-79275286D01*
X-446375302Y-79399672D01*
X-446334360Y-79534641D01*
X-446324000Y-79639827D01*
X-446324000Y-80380173D01*
X-446334360Y-80485359D01*
X-446375302Y-80620328D01*
X-446410840Y-80686814D01*
X-446441787Y-80744712D01*
X-446441789Y-80744714D01*
X-446531259Y-80853735D01*
X-446564615Y-80881109D01*
X-446640288Y-80943212D01*
X-446640290Y-80943213D01*
X-446764673Y-81009698D01*
X-446899641Y-81050640D01*
X-447040000Y-81064464D01*
X-447180360Y-81050640D01*
X-447315328Y-81009698D01*
X-447381814Y-80974160D01*
X-447439713Y-80943212D01*
X-447451098Y-80933869D01*
X-447548735Y-80853741D01*
X-447638211Y-80744713D01*
X-447638212Y-80744712D01*
X-447704697Y-80620328D01*
X-447704698Y-80620327D01*
X-447725169Y-80552842D01*
X-447745640Y-80485359D01*
X-447756000Y-80380170D01*
X-447756000Y-79639829D01*
X-447745640Y-79534640D01*
X-447745640Y-79534638D01*
X-447725169Y-79467156D01*
X-447704698Y-79399673D01*
X-447638211Y-79275287D01*
X-447548737Y-79166262D01*
X-447439712Y-79076788D01*
X-447381813Y-79045840D01*
X-447315327Y-79010302D01*
X-447180359Y-78969360D01*
X-447040000Y-78955536D01*
X-446899640Y-78969360D01*
X-446899640Y-78969360D01*
G37*
G36*
X-374209703Y-76760907D02*
X-374174640Y-76764360D01*
X-374039672Y-76805302D01*
X-373973186Y-76840840D01*
X-373915287Y-76871788D01*
X-373915285Y-76871789D01*
X-373915286Y-76871789D01*
X-373806262Y-76961262D01*
X-373716789Y-77070286D01*
X-373650302Y-77194672D01*
X-373609360Y-77329641D01*
X-373595536Y-77470000D01*
X-373609360Y-77610359D01*
X-373650302Y-77745328D01*
X-373685840Y-77811814D01*
X-373716788Y-77869713D01*
X-373806262Y-77978738D01*
X-373915287Y-78068212D01*
X-373973186Y-78099160D01*
X-374039672Y-78134698D01*
X-374107157Y-78155169D01*
X-374174640Y-78175640D01*
X-374209703Y-78179093D01*
X-374279827Y-78186000D01*
X-375020173Y-78186000D01*
X-375090297Y-78179093D01*
X-375125360Y-78175640D01*
X-375192843Y-78155169D01*
X-375260328Y-78134698D01*
X-375326814Y-78099160D01*
X-375384713Y-78068212D01*
X-375493738Y-77978738D01*
X-375583212Y-77869713D01*
X-375614160Y-77811814D01*
X-375649698Y-77745328D01*
X-375690640Y-77610359D01*
X-375704464Y-77470000D01*
X-375690640Y-77329641D01*
X-375649698Y-77194672D01*
X-375583211Y-77070286D01*
X-375493738Y-76961262D01*
X-375384714Y-76871789D01*
X-375384715Y-76871789D01*
X-375384713Y-76871788D01*
X-375326814Y-76840840D01*
X-375260328Y-76805302D01*
X-375125360Y-76764360D01*
X-375090297Y-76760907D01*
X-375020173Y-76754000D01*
X-374279827Y-76754000D01*
X-374209703Y-76760907D01*
X-374209703Y-76760907D01*
G37*
G36*
X-429119641Y-73889360D02*
X-428984673Y-73930302D01*
X-428874516Y-73989183D01*
X-428860288Y-73996788D01*
X-428784615Y-74058891D01*
X-428751259Y-74086265D01*
X-428671131Y-74183902D01*
X-428661788Y-74195287D01*
X-428630840Y-74253186D01*
X-428595302Y-74319672D01*
X-428554360Y-74454641D01*
X-428544000Y-74559827D01*
X-428544000Y-75300173D01*
X-428554360Y-75405359D01*
X-428595302Y-75540328D01*
X-428630840Y-75606814D01*
X-428661788Y-75664713D01*
X-428751262Y-75773738D01*
X-428860287Y-75863212D01*
X-428918186Y-75894160D01*
X-428984672Y-75929698D01*
X-429119640Y-75970640D01*
X-429260000Y-75984464D01*
X-429400359Y-75970640D01*
X-429467842Y-75950169D01*
X-429535327Y-75929698D01*
X-429601813Y-75894160D01*
X-429659712Y-75863212D01*
X-429768737Y-75773738D01*
X-429858211Y-75664713D01*
X-429924698Y-75540327D01*
X-429945169Y-75472844D01*
X-429965640Y-75405362D01*
X-429976000Y-75300173D01*
X-429976000Y-74559828D01*
X-429965640Y-74454642D01*
X-429965639Y-74454640D01*
X-429924698Y-74319674D01*
X-429924698Y-74319673D01*
X-429858213Y-74195290D01*
X-429858212Y-74195288D01*
X-429768738Y-74086263D01*
X-429768737Y-74086262D01*
X-429768735Y-74086259D01*
X-429659714Y-73996789D01*
X-429659715Y-73996789D01*
X-429659713Y-73996788D01*
X-429601814Y-73965840D01*
X-429535328Y-73930302D01*
X-429400360Y-73889360D01*
X-429260000Y-73875536D01*
X-429119641Y-73889360D01*
X-429119641Y-73889360D01*
G37*
G36*
X-431659641Y-73889360D02*
X-431524673Y-73930302D01*
X-431414516Y-73989183D01*
X-431400288Y-73996788D01*
X-431324615Y-74058891D01*
X-431291259Y-74086265D01*
X-431211131Y-74183902D01*
X-431201788Y-74195287D01*
X-431170840Y-74253186D01*
X-431135302Y-74319672D01*
X-431094360Y-74454641D01*
X-431084000Y-74559827D01*
X-431084000Y-75300173D01*
X-431094360Y-75405359D01*
X-431135302Y-75540328D01*
X-431170840Y-75606814D01*
X-431201788Y-75664713D01*
X-431291262Y-75773738D01*
X-431400287Y-75863212D01*
X-431458186Y-75894160D01*
X-431524672Y-75929698D01*
X-431659640Y-75970640D01*
X-431800000Y-75984464D01*
X-431940359Y-75970640D01*
X-432007842Y-75950169D01*
X-432075327Y-75929698D01*
X-432141813Y-75894160D01*
X-432199712Y-75863212D01*
X-432308737Y-75773738D01*
X-432398211Y-75664713D01*
X-432464698Y-75540327D01*
X-432485169Y-75472844D01*
X-432505640Y-75405362D01*
X-432516000Y-75300173D01*
X-432516000Y-74559828D01*
X-432505640Y-74454642D01*
X-432505639Y-74454640D01*
X-432464698Y-74319674D01*
X-432464698Y-74319673D01*
X-432398213Y-74195290D01*
X-432398212Y-74195288D01*
X-432308738Y-74086263D01*
X-432308737Y-74086262D01*
X-432308735Y-74086259D01*
X-432199714Y-73996789D01*
X-432199715Y-73996789D01*
X-432199713Y-73996788D01*
X-432141814Y-73965840D01*
X-432075328Y-73930302D01*
X-431940360Y-73889360D01*
X-431800000Y-73875536D01*
X-431659641Y-73889360D01*
X-431659641Y-73889360D01*
G37*
G36*
X-434199641Y-73889360D02*
X-434064673Y-73930302D01*
X-433954516Y-73989183D01*
X-433940288Y-73996788D01*
X-433864615Y-74058891D01*
X-433831259Y-74086265D01*
X-433751131Y-74183902D01*
X-433741788Y-74195287D01*
X-433710840Y-74253186D01*
X-433675302Y-74319672D01*
X-433634360Y-74454641D01*
X-433624000Y-74559827D01*
X-433624000Y-75300173D01*
X-433634360Y-75405359D01*
X-433675302Y-75540328D01*
X-433710840Y-75606814D01*
X-433741788Y-75664713D01*
X-433831262Y-75773738D01*
X-433940287Y-75863212D01*
X-433998186Y-75894160D01*
X-434064672Y-75929698D01*
X-434199640Y-75970640D01*
X-434340000Y-75984464D01*
X-434480359Y-75970640D01*
X-434547842Y-75950169D01*
X-434615327Y-75929698D01*
X-434681813Y-75894160D01*
X-434739712Y-75863212D01*
X-434848737Y-75773738D01*
X-434938211Y-75664713D01*
X-435004698Y-75540327D01*
X-435025169Y-75472844D01*
X-435045640Y-75405362D01*
X-435056000Y-75300173D01*
X-435056000Y-74559828D01*
X-435045640Y-74454642D01*
X-435045639Y-74454640D01*
X-435004698Y-74319674D01*
X-435004698Y-74319673D01*
X-434938213Y-74195290D01*
X-434938212Y-74195288D01*
X-434848738Y-74086263D01*
X-434848737Y-74086262D01*
X-434848735Y-74086259D01*
X-434739714Y-73996789D01*
X-434739715Y-73996789D01*
X-434739713Y-73996788D01*
X-434681814Y-73965840D01*
X-434615328Y-73930302D01*
X-434480360Y-73889360D01*
X-434340000Y-73875536D01*
X-434199641Y-73889360D01*
X-434199641Y-73889360D01*
G37*
G36*
X-436739641Y-73889360D02*
X-436604673Y-73930302D01*
X-436494516Y-73989183D01*
X-436480288Y-73996788D01*
X-436404615Y-74058891D01*
X-436371259Y-74086265D01*
X-436291131Y-74183902D01*
X-436281788Y-74195287D01*
X-436250840Y-74253186D01*
X-436215302Y-74319672D01*
X-436174360Y-74454641D01*
X-436164000Y-74559827D01*
X-436164000Y-75300173D01*
X-436174360Y-75405359D01*
X-436215302Y-75540328D01*
X-436250840Y-75606814D01*
X-436281788Y-75664713D01*
X-436371262Y-75773738D01*
X-436480287Y-75863212D01*
X-436538186Y-75894160D01*
X-436604672Y-75929698D01*
X-436739640Y-75970640D01*
X-436880000Y-75984464D01*
X-437020359Y-75970640D01*
X-437087842Y-75950169D01*
X-437155327Y-75929698D01*
X-437221813Y-75894160D01*
X-437279712Y-75863212D01*
X-437388737Y-75773738D01*
X-437478211Y-75664713D01*
X-437544698Y-75540327D01*
X-437565169Y-75472844D01*
X-437585640Y-75405362D01*
X-437596000Y-75300173D01*
X-437596000Y-74559828D01*
X-437585640Y-74454642D01*
X-437585639Y-74454640D01*
X-437544698Y-74319674D01*
X-437544698Y-74319673D01*
X-437478213Y-74195290D01*
X-437478212Y-74195288D01*
X-437388738Y-74086263D01*
X-437388737Y-74086262D01*
X-437388735Y-74086259D01*
X-437279714Y-73996789D01*
X-437279715Y-73996789D01*
X-437279713Y-73996788D01*
X-437221814Y-73965840D01*
X-437155328Y-73930302D01*
X-437020360Y-73889360D01*
X-436880000Y-73875536D01*
X-436739641Y-73889360D01*
X-436739641Y-73889360D01*
G37*
G36*
X-439279641Y-73889360D02*
X-439144673Y-73930302D01*
X-439034516Y-73989183D01*
X-439020288Y-73996788D01*
X-438944615Y-74058891D01*
X-438911259Y-74086265D01*
X-438831131Y-74183902D01*
X-438821788Y-74195287D01*
X-438790840Y-74253186D01*
X-438755302Y-74319672D01*
X-438714360Y-74454641D01*
X-438704000Y-74559827D01*
X-438704000Y-75300173D01*
X-438714360Y-75405359D01*
X-438755302Y-75540328D01*
X-438790840Y-75606814D01*
X-438821788Y-75664713D01*
X-438911262Y-75773738D01*
X-439020287Y-75863212D01*
X-439078186Y-75894160D01*
X-439144672Y-75929698D01*
X-439279640Y-75970640D01*
X-439420000Y-75984464D01*
X-439560359Y-75970640D01*
X-439627842Y-75950169D01*
X-439695327Y-75929698D01*
X-439761813Y-75894160D01*
X-439819712Y-75863212D01*
X-439928737Y-75773738D01*
X-440018211Y-75664713D01*
X-440084698Y-75540327D01*
X-440105169Y-75472844D01*
X-440125640Y-75405362D01*
X-440136000Y-75300173D01*
X-440136000Y-74559828D01*
X-440125640Y-74454642D01*
X-440125639Y-74454640D01*
X-440084698Y-74319674D01*
X-440084698Y-74319673D01*
X-440018213Y-74195290D01*
X-440018212Y-74195288D01*
X-439928738Y-74086263D01*
X-439928737Y-74086262D01*
X-439928735Y-74086259D01*
X-439819714Y-73996789D01*
X-439819715Y-73996789D01*
X-439819713Y-73996788D01*
X-439761814Y-73965840D01*
X-439695328Y-73930302D01*
X-439560360Y-73889360D01*
X-439420000Y-73875536D01*
X-439279641Y-73889360D01*
X-439279641Y-73889360D01*
G37*
G36*
X-441819641Y-73889360D02*
X-441684673Y-73930302D01*
X-441574516Y-73989183D01*
X-441560288Y-73996788D01*
X-441484615Y-74058891D01*
X-441451259Y-74086265D01*
X-441371131Y-74183902D01*
X-441361788Y-74195287D01*
X-441330840Y-74253186D01*
X-441295302Y-74319672D01*
X-441254360Y-74454641D01*
X-441244000Y-74559827D01*
X-441244000Y-75300173D01*
X-441254360Y-75405359D01*
X-441295302Y-75540328D01*
X-441330840Y-75606814D01*
X-441361788Y-75664713D01*
X-441451262Y-75773738D01*
X-441560287Y-75863212D01*
X-441618186Y-75894160D01*
X-441684672Y-75929698D01*
X-441819640Y-75970640D01*
X-441960000Y-75984464D01*
X-442100359Y-75970640D01*
X-442167842Y-75950169D01*
X-442235327Y-75929698D01*
X-442301813Y-75894160D01*
X-442359712Y-75863212D01*
X-442468737Y-75773738D01*
X-442558211Y-75664713D01*
X-442624698Y-75540327D01*
X-442645169Y-75472844D01*
X-442665640Y-75405362D01*
X-442676000Y-75300173D01*
X-442676000Y-74559828D01*
X-442665640Y-74454642D01*
X-442665639Y-74454640D01*
X-442624698Y-74319674D01*
X-442624698Y-74319673D01*
X-442558213Y-74195290D01*
X-442558212Y-74195288D01*
X-442468738Y-74086263D01*
X-442468737Y-74086262D01*
X-442468735Y-74086259D01*
X-442359714Y-73996789D01*
X-442359715Y-73996789D01*
X-442359713Y-73996788D01*
X-442301814Y-73965840D01*
X-442235328Y-73930302D01*
X-442100360Y-73889360D01*
X-441960000Y-73875536D01*
X-441819641Y-73889360D01*
X-441819641Y-73889360D01*
G37*
G36*
X-444359641Y-73889360D02*
X-444224673Y-73930302D01*
X-444114516Y-73989183D01*
X-444100288Y-73996788D01*
X-444024615Y-74058891D01*
X-443991259Y-74086265D01*
X-443911131Y-74183902D01*
X-443901788Y-74195287D01*
X-443870840Y-74253186D01*
X-443835302Y-74319672D01*
X-443794360Y-74454641D01*
X-443784000Y-74559827D01*
X-443784000Y-75300173D01*
X-443794360Y-75405359D01*
X-443835302Y-75540328D01*
X-443870840Y-75606814D01*
X-443901788Y-75664713D01*
X-443991262Y-75773738D01*
X-444100287Y-75863212D01*
X-444158186Y-75894160D01*
X-444224672Y-75929698D01*
X-444359640Y-75970640D01*
X-444500000Y-75984464D01*
X-444640359Y-75970640D01*
X-444707842Y-75950169D01*
X-444775327Y-75929698D01*
X-444841813Y-75894160D01*
X-444899712Y-75863212D01*
X-445008737Y-75773738D01*
X-445098211Y-75664713D01*
X-445164698Y-75540327D01*
X-445185169Y-75472844D01*
X-445205640Y-75405362D01*
X-445216000Y-75300173D01*
X-445216000Y-74559828D01*
X-445205640Y-74454642D01*
X-445205639Y-74454640D01*
X-445164698Y-74319674D01*
X-445164698Y-74319673D01*
X-445098213Y-74195290D01*
X-445098212Y-74195288D01*
X-445008738Y-74086263D01*
X-445008737Y-74086262D01*
X-445008735Y-74086259D01*
X-444899714Y-73996789D01*
X-444899715Y-73996789D01*
X-444899713Y-73996788D01*
X-444841814Y-73965840D01*
X-444775328Y-73930302D01*
X-444640360Y-73889360D01*
X-444500000Y-73875536D01*
X-444359641Y-73889360D01*
X-444359641Y-73889360D01*
G37*
G36*
X-472299641Y-73889360D02*
X-472164673Y-73930302D01*
X-472054516Y-73989183D01*
X-472040288Y-73996788D01*
X-471964615Y-74058891D01*
X-471931259Y-74086265D01*
X-471851131Y-74183902D01*
X-471841788Y-74195287D01*
X-471810840Y-74253186D01*
X-471775302Y-74319672D01*
X-471734360Y-74454641D01*
X-471724000Y-74559827D01*
X-471724000Y-75300173D01*
X-471734360Y-75405359D01*
X-471775302Y-75540328D01*
X-471810840Y-75606814D01*
X-471841788Y-75664713D01*
X-471931262Y-75773738D01*
X-472040287Y-75863212D01*
X-472098186Y-75894160D01*
X-472164672Y-75929698D01*
X-472299640Y-75970640D01*
X-472440000Y-75984464D01*
X-472580359Y-75970640D01*
X-472647842Y-75950169D01*
X-472715327Y-75929698D01*
X-472781813Y-75894160D01*
X-472839712Y-75863212D01*
X-472948737Y-75773738D01*
X-473038211Y-75664713D01*
X-473104698Y-75540327D01*
X-473125169Y-75472844D01*
X-473145640Y-75405362D01*
X-473156000Y-75300173D01*
X-473156000Y-74559828D01*
X-473145640Y-74454642D01*
X-473145639Y-74454640D01*
X-473104698Y-74319674D01*
X-473104698Y-74319673D01*
X-473038213Y-74195290D01*
X-473038212Y-74195288D01*
X-472948738Y-74086263D01*
X-472948737Y-74086262D01*
X-472948735Y-74086259D01*
X-472839714Y-73996789D01*
X-472839715Y-73996789D01*
X-472839713Y-73996788D01*
X-472781814Y-73965840D01*
X-472715328Y-73930302D01*
X-472580360Y-73889360D01*
X-472440000Y-73875536D01*
X-472299641Y-73889360D01*
X-472299641Y-73889360D01*
G37*
G36*
X-467219641Y-73889360D02*
X-467084673Y-73930302D01*
X-466974516Y-73989183D01*
X-466960288Y-73996788D01*
X-466884615Y-74058891D01*
X-466851259Y-74086265D01*
X-466771131Y-74183902D01*
X-466761788Y-74195287D01*
X-466730840Y-74253186D01*
X-466695302Y-74319672D01*
X-466654360Y-74454641D01*
X-466644000Y-74559827D01*
X-466644000Y-75300173D01*
X-466654360Y-75405359D01*
X-466695302Y-75540328D01*
X-466730840Y-75606814D01*
X-466761788Y-75664713D01*
X-466851262Y-75773738D01*
X-466960287Y-75863212D01*
X-467018186Y-75894160D01*
X-467084672Y-75929698D01*
X-467219640Y-75970640D01*
X-467360000Y-75984464D01*
X-467500359Y-75970640D01*
X-467567842Y-75950169D01*
X-467635327Y-75929698D01*
X-467701813Y-75894160D01*
X-467759712Y-75863212D01*
X-467868737Y-75773738D01*
X-467958211Y-75664713D01*
X-468024698Y-75540327D01*
X-468045169Y-75472844D01*
X-468065640Y-75405362D01*
X-468076000Y-75300173D01*
X-468076000Y-74559828D01*
X-468065640Y-74454642D01*
X-468065639Y-74454640D01*
X-468024698Y-74319674D01*
X-468024698Y-74319673D01*
X-467958213Y-74195290D01*
X-467958212Y-74195288D01*
X-467868738Y-74086263D01*
X-467868737Y-74086262D01*
X-467868735Y-74086259D01*
X-467759714Y-73996789D01*
X-467759715Y-73996789D01*
X-467759713Y-73996788D01*
X-467701814Y-73965840D01*
X-467635328Y-73930302D01*
X-467500360Y-73889360D01*
X-467360000Y-73875536D01*
X-467219641Y-73889360D01*
X-467219641Y-73889360D01*
G37*
G36*
X-426579641Y-73889360D02*
X-426444673Y-73930302D01*
X-426334516Y-73989183D01*
X-426320288Y-73996788D01*
X-426244615Y-74058891D01*
X-426211259Y-74086265D01*
X-426131131Y-74183902D01*
X-426121788Y-74195287D01*
X-426090840Y-74253186D01*
X-426055302Y-74319672D01*
X-426014360Y-74454641D01*
X-426004000Y-74559827D01*
X-426004000Y-75300173D01*
X-426014360Y-75405359D01*
X-426055302Y-75540328D01*
X-426090840Y-75606814D01*
X-426121788Y-75664713D01*
X-426211262Y-75773738D01*
X-426320287Y-75863212D01*
X-426378186Y-75894160D01*
X-426444672Y-75929698D01*
X-426579640Y-75970640D01*
X-426720000Y-75984464D01*
X-426860359Y-75970640D01*
X-426927842Y-75950169D01*
X-426995327Y-75929698D01*
X-427061813Y-75894160D01*
X-427119712Y-75863212D01*
X-427228737Y-75773738D01*
X-427318211Y-75664713D01*
X-427384698Y-75540327D01*
X-427405169Y-75472844D01*
X-427425640Y-75405362D01*
X-427436000Y-75300173D01*
X-427436000Y-74559828D01*
X-427425640Y-74454642D01*
X-427425639Y-74454640D01*
X-427384698Y-74319674D01*
X-427384698Y-74319673D01*
X-427318213Y-74195290D01*
X-427318212Y-74195288D01*
X-427228738Y-74086263D01*
X-427228737Y-74086262D01*
X-427228735Y-74086259D01*
X-427119714Y-73996789D01*
X-427119715Y-73996789D01*
X-427119713Y-73996788D01*
X-427061814Y-73965840D01*
X-426995328Y-73930302D01*
X-426860360Y-73889360D01*
X-426720000Y-73875536D01*
X-426579641Y-73889360D01*
X-426579641Y-73889360D01*
G37*
G36*
X-469759641Y-73889360D02*
X-469624673Y-73930302D01*
X-469514516Y-73989183D01*
X-469500288Y-73996788D01*
X-469424615Y-74058891D01*
X-469391259Y-74086265D01*
X-469311131Y-74183902D01*
X-469301788Y-74195287D01*
X-469270840Y-74253186D01*
X-469235302Y-74319672D01*
X-469194360Y-74454641D01*
X-469184000Y-74559827D01*
X-469184000Y-75300173D01*
X-469194360Y-75405359D01*
X-469235302Y-75540328D01*
X-469270840Y-75606814D01*
X-469301788Y-75664713D01*
X-469391262Y-75773738D01*
X-469500287Y-75863212D01*
X-469558186Y-75894160D01*
X-469624672Y-75929698D01*
X-469759640Y-75970640D01*
X-469900000Y-75984464D01*
X-470040359Y-75970640D01*
X-470107842Y-75950169D01*
X-470175327Y-75929698D01*
X-470241813Y-75894160D01*
X-470299712Y-75863212D01*
X-470408737Y-75773738D01*
X-470498211Y-75664713D01*
X-470564698Y-75540327D01*
X-470585169Y-75472844D01*
X-470605640Y-75405362D01*
X-470616000Y-75300173D01*
X-470616000Y-74559828D01*
X-470605640Y-74454642D01*
X-470605639Y-74454640D01*
X-470564698Y-74319674D01*
X-470564698Y-74319673D01*
X-470498213Y-74195290D01*
X-470498212Y-74195288D01*
X-470408738Y-74086263D01*
X-470408737Y-74086262D01*
X-470408735Y-74086259D01*
X-470299714Y-73996789D01*
X-470299715Y-73996789D01*
X-470299713Y-73996788D01*
X-470241814Y-73965840D01*
X-470175328Y-73930302D01*
X-470040360Y-73889360D01*
X-469900000Y-73875536D01*
X-469759641Y-73889360D01*
X-469759641Y-73889360D01*
G37*
G36*
X-464679641Y-73889360D02*
X-464544673Y-73930302D01*
X-464434516Y-73989183D01*
X-464420288Y-73996788D01*
X-464344615Y-74058891D01*
X-464311259Y-74086265D01*
X-464231131Y-74183902D01*
X-464221788Y-74195287D01*
X-464190840Y-74253186D01*
X-464155302Y-74319672D01*
X-464114360Y-74454641D01*
X-464104000Y-74559827D01*
X-464104000Y-75300173D01*
X-464114360Y-75405359D01*
X-464155302Y-75540328D01*
X-464190840Y-75606814D01*
X-464221788Y-75664713D01*
X-464311262Y-75773738D01*
X-464420287Y-75863212D01*
X-464478186Y-75894160D01*
X-464544672Y-75929698D01*
X-464679640Y-75970640D01*
X-464820000Y-75984464D01*
X-464960359Y-75970640D01*
X-465027842Y-75950169D01*
X-465095327Y-75929698D01*
X-465161813Y-75894160D01*
X-465219712Y-75863212D01*
X-465328737Y-75773738D01*
X-465418211Y-75664713D01*
X-465484698Y-75540327D01*
X-465505169Y-75472844D01*
X-465525640Y-75405362D01*
X-465536000Y-75300173D01*
X-465536000Y-74559828D01*
X-465525640Y-74454642D01*
X-465525639Y-74454640D01*
X-465484698Y-74319674D01*
X-465484698Y-74319673D01*
X-465418213Y-74195290D01*
X-465418212Y-74195288D01*
X-465328738Y-74086263D01*
X-465328737Y-74086262D01*
X-465328735Y-74086259D01*
X-465219714Y-73996789D01*
X-465219715Y-73996789D01*
X-465219713Y-73996788D01*
X-465161814Y-73965840D01*
X-465095328Y-73930302D01*
X-464960360Y-73889360D01*
X-464820000Y-73875536D01*
X-464679641Y-73889360D01*
X-464679641Y-73889360D01*
G37*
G36*
X-462139641Y-73889360D02*
X-462004673Y-73930302D01*
X-461894516Y-73989183D01*
X-461880288Y-73996788D01*
X-461804615Y-74058891D01*
X-461771259Y-74086265D01*
X-461691131Y-74183902D01*
X-461681788Y-74195287D01*
X-461650840Y-74253186D01*
X-461615302Y-74319672D01*
X-461574360Y-74454641D01*
X-461564000Y-74559827D01*
X-461564000Y-75300173D01*
X-461574360Y-75405359D01*
X-461615302Y-75540328D01*
X-461650840Y-75606814D01*
X-461681788Y-75664713D01*
X-461771262Y-75773738D01*
X-461880287Y-75863212D01*
X-461938186Y-75894160D01*
X-462004672Y-75929698D01*
X-462139640Y-75970640D01*
X-462280000Y-75984464D01*
X-462420359Y-75970640D01*
X-462487842Y-75950169D01*
X-462555327Y-75929698D01*
X-462621813Y-75894160D01*
X-462679712Y-75863212D01*
X-462788737Y-75773738D01*
X-462878211Y-75664713D01*
X-462944698Y-75540327D01*
X-462965169Y-75472844D01*
X-462985640Y-75405362D01*
X-462996000Y-75300173D01*
X-462996000Y-74559828D01*
X-462985640Y-74454642D01*
X-462985639Y-74454640D01*
X-462944698Y-74319674D01*
X-462944698Y-74319673D01*
X-462878213Y-74195290D01*
X-462878212Y-74195288D01*
X-462788738Y-74086263D01*
X-462788737Y-74086262D01*
X-462788735Y-74086259D01*
X-462679714Y-73996789D01*
X-462679715Y-73996789D01*
X-462679713Y-73996788D01*
X-462621814Y-73965840D01*
X-462555328Y-73930302D01*
X-462420360Y-73889360D01*
X-462280000Y-73875536D01*
X-462139641Y-73889360D01*
X-462139641Y-73889360D01*
G37*
G36*
X-459599641Y-73889360D02*
X-459464673Y-73930302D01*
X-459354516Y-73989183D01*
X-459340288Y-73996788D01*
X-459264615Y-74058891D01*
X-459231259Y-74086265D01*
X-459151131Y-74183902D01*
X-459141788Y-74195287D01*
X-459110840Y-74253186D01*
X-459075302Y-74319672D01*
X-459034360Y-74454641D01*
X-459024000Y-74559827D01*
X-459024000Y-75300173D01*
X-459034360Y-75405359D01*
X-459075302Y-75540328D01*
X-459110840Y-75606814D01*
X-459141788Y-75664713D01*
X-459231262Y-75773738D01*
X-459340287Y-75863212D01*
X-459398186Y-75894160D01*
X-459464672Y-75929698D01*
X-459599640Y-75970640D01*
X-459740000Y-75984464D01*
X-459880359Y-75970640D01*
X-459947842Y-75950169D01*
X-460015327Y-75929698D01*
X-460081813Y-75894160D01*
X-460139712Y-75863212D01*
X-460248737Y-75773738D01*
X-460338211Y-75664713D01*
X-460404698Y-75540327D01*
X-460425169Y-75472844D01*
X-460445640Y-75405362D01*
X-460456000Y-75300173D01*
X-460456000Y-74559828D01*
X-460445640Y-74454642D01*
X-460445639Y-74454640D01*
X-460404698Y-74319674D01*
X-460404698Y-74319673D01*
X-460338213Y-74195290D01*
X-460338212Y-74195288D01*
X-460248738Y-74086263D01*
X-460248737Y-74086262D01*
X-460248735Y-74086259D01*
X-460139714Y-73996789D01*
X-460139715Y-73996789D01*
X-460139713Y-73996788D01*
X-460081814Y-73965840D01*
X-460015328Y-73930302D01*
X-459880360Y-73889360D01*
X-459740000Y-73875536D01*
X-459599641Y-73889360D01*
X-459599641Y-73889360D01*
G37*
G36*
X-457059641Y-73889360D02*
X-456924673Y-73930302D01*
X-456814516Y-73989183D01*
X-456800288Y-73996788D01*
X-456724615Y-74058891D01*
X-456691259Y-74086265D01*
X-456611131Y-74183902D01*
X-456601788Y-74195287D01*
X-456570840Y-74253186D01*
X-456535302Y-74319672D01*
X-456494360Y-74454641D01*
X-456484000Y-74559827D01*
X-456484000Y-75300173D01*
X-456494360Y-75405359D01*
X-456535302Y-75540328D01*
X-456570840Y-75606814D01*
X-456601788Y-75664713D01*
X-456691262Y-75773738D01*
X-456800287Y-75863212D01*
X-456858186Y-75894160D01*
X-456924672Y-75929698D01*
X-457059640Y-75970640D01*
X-457200000Y-75984464D01*
X-457340359Y-75970640D01*
X-457407842Y-75950169D01*
X-457475327Y-75929698D01*
X-457541813Y-75894160D01*
X-457599712Y-75863212D01*
X-457708737Y-75773738D01*
X-457798211Y-75664713D01*
X-457864698Y-75540327D01*
X-457885169Y-75472844D01*
X-457905640Y-75405362D01*
X-457916000Y-75300173D01*
X-457916000Y-74559828D01*
X-457905640Y-74454642D01*
X-457905639Y-74454640D01*
X-457864698Y-74319674D01*
X-457864698Y-74319673D01*
X-457798213Y-74195290D01*
X-457798212Y-74195288D01*
X-457708738Y-74086263D01*
X-457708737Y-74086262D01*
X-457708735Y-74086259D01*
X-457599714Y-73996789D01*
X-457599715Y-73996789D01*
X-457599713Y-73996788D01*
X-457541814Y-73965840D01*
X-457475328Y-73930302D01*
X-457340360Y-73889360D01*
X-457200000Y-73875536D01*
X-457059641Y-73889360D01*
X-457059641Y-73889360D01*
G37*
G36*
X-454519641Y-73889360D02*
X-454384673Y-73930302D01*
X-454274516Y-73989183D01*
X-454260288Y-73996788D01*
X-454184615Y-74058891D01*
X-454151259Y-74086265D01*
X-454071131Y-74183902D01*
X-454061788Y-74195287D01*
X-454030840Y-74253186D01*
X-453995302Y-74319672D01*
X-453954360Y-74454641D01*
X-453944000Y-74559827D01*
X-453944000Y-75300173D01*
X-453954360Y-75405359D01*
X-453995302Y-75540328D01*
X-454030840Y-75606814D01*
X-454061788Y-75664713D01*
X-454151262Y-75773738D01*
X-454260287Y-75863212D01*
X-454318186Y-75894160D01*
X-454384672Y-75929698D01*
X-454519640Y-75970640D01*
X-454660000Y-75984464D01*
X-454800359Y-75970640D01*
X-454867842Y-75950169D01*
X-454935327Y-75929698D01*
X-455001813Y-75894160D01*
X-455059712Y-75863212D01*
X-455168737Y-75773738D01*
X-455258211Y-75664713D01*
X-455324698Y-75540327D01*
X-455345169Y-75472844D01*
X-455365640Y-75405362D01*
X-455376000Y-75300173D01*
X-455376000Y-74559828D01*
X-455365640Y-74454642D01*
X-455365639Y-74454640D01*
X-455324698Y-74319674D01*
X-455324698Y-74319673D01*
X-455258213Y-74195290D01*
X-455258212Y-74195288D01*
X-455168738Y-74086263D01*
X-455168737Y-74086262D01*
X-455168735Y-74086259D01*
X-455059714Y-73996789D01*
X-455059715Y-73996789D01*
X-455059713Y-73996788D01*
X-455001814Y-73965840D01*
X-454935328Y-73930302D01*
X-454800360Y-73889360D01*
X-454660000Y-73875536D01*
X-454519641Y-73889360D01*
X-454519641Y-73889360D01*
G37*
G36*
X-451979641Y-73889360D02*
X-451844673Y-73930302D01*
X-451734516Y-73989183D01*
X-451720288Y-73996788D01*
X-451644615Y-74058891D01*
X-451611259Y-74086265D01*
X-451531131Y-74183902D01*
X-451521788Y-74195287D01*
X-451490840Y-74253186D01*
X-451455302Y-74319672D01*
X-451414360Y-74454641D01*
X-451404000Y-74559827D01*
X-451404000Y-75300173D01*
X-451414360Y-75405359D01*
X-451455302Y-75540328D01*
X-451490840Y-75606814D01*
X-451521788Y-75664713D01*
X-451611262Y-75773738D01*
X-451720287Y-75863212D01*
X-451778186Y-75894160D01*
X-451844672Y-75929698D01*
X-451979640Y-75970640D01*
X-452120000Y-75984464D01*
X-452260359Y-75970640D01*
X-452327842Y-75950169D01*
X-452395327Y-75929698D01*
X-452461813Y-75894160D01*
X-452519712Y-75863212D01*
X-452628737Y-75773738D01*
X-452718211Y-75664713D01*
X-452784698Y-75540327D01*
X-452805169Y-75472844D01*
X-452825640Y-75405362D01*
X-452836000Y-75300173D01*
X-452836000Y-74559828D01*
X-452825640Y-74454642D01*
X-452825639Y-74454640D01*
X-452784698Y-74319674D01*
X-452784698Y-74319673D01*
X-452718213Y-74195290D01*
X-452718212Y-74195288D01*
X-452628738Y-74086263D01*
X-452628737Y-74086262D01*
X-452628735Y-74086259D01*
X-452519714Y-73996789D01*
X-452519715Y-73996789D01*
X-452519713Y-73996788D01*
X-452461814Y-73965840D01*
X-452395328Y-73930302D01*
X-452260360Y-73889360D01*
X-452120000Y-73875536D01*
X-451979641Y-73889360D01*
X-451979641Y-73889360D01*
G37*
G36*
X-401179641Y-73889360D02*
X-401044673Y-73930302D01*
X-400934516Y-73989183D01*
X-400920288Y-73996788D01*
X-400844615Y-74058891D01*
X-400811259Y-74086265D01*
X-400731131Y-74183902D01*
X-400721788Y-74195287D01*
X-400690840Y-74253186D01*
X-400655302Y-74319672D01*
X-400614360Y-74454641D01*
X-400604000Y-74559827D01*
X-400604000Y-75300173D01*
X-400614360Y-75405359D01*
X-400655302Y-75540328D01*
X-400690840Y-75606814D01*
X-400721788Y-75664713D01*
X-400811262Y-75773738D01*
X-400920287Y-75863212D01*
X-400978186Y-75894160D01*
X-401044672Y-75929698D01*
X-401179640Y-75970640D01*
X-401320000Y-75984464D01*
X-401460359Y-75970640D01*
X-401527842Y-75950169D01*
X-401595327Y-75929698D01*
X-401661813Y-75894160D01*
X-401719712Y-75863212D01*
X-401828737Y-75773738D01*
X-401918211Y-75664713D01*
X-401984698Y-75540327D01*
X-402005169Y-75472844D01*
X-402025640Y-75405362D01*
X-402036000Y-75300173D01*
X-402036000Y-74559828D01*
X-402025640Y-74454642D01*
X-402025639Y-74454640D01*
X-401984698Y-74319674D01*
X-401984698Y-74319673D01*
X-401918213Y-74195290D01*
X-401918212Y-74195288D01*
X-401828738Y-74086263D01*
X-401828737Y-74086262D01*
X-401828735Y-74086259D01*
X-401719714Y-73996789D01*
X-401719715Y-73996789D01*
X-401719713Y-73996788D01*
X-401661814Y-73965840D01*
X-401595328Y-73930302D01*
X-401460360Y-73889360D01*
X-401320000Y-73875536D01*
X-401179641Y-73889360D01*
X-401179641Y-73889360D01*
G37*
G36*
X-421499641Y-73889360D02*
X-421364673Y-73930302D01*
X-421254516Y-73989183D01*
X-421240288Y-73996788D01*
X-421164615Y-74058891D01*
X-421131259Y-74086265D01*
X-421051131Y-74183902D01*
X-421041788Y-74195287D01*
X-421010840Y-74253186D01*
X-420975302Y-74319672D01*
X-420934360Y-74454641D01*
X-420924000Y-74559827D01*
X-420924000Y-75300173D01*
X-420934360Y-75405359D01*
X-420975302Y-75540328D01*
X-421010840Y-75606814D01*
X-421041788Y-75664713D01*
X-421131262Y-75773738D01*
X-421240287Y-75863212D01*
X-421298186Y-75894160D01*
X-421364672Y-75929698D01*
X-421499640Y-75970640D01*
X-421640000Y-75984464D01*
X-421780359Y-75970640D01*
X-421847842Y-75950169D01*
X-421915327Y-75929698D01*
X-421981813Y-75894160D01*
X-422039712Y-75863212D01*
X-422148737Y-75773738D01*
X-422238211Y-75664713D01*
X-422304698Y-75540327D01*
X-422325169Y-75472844D01*
X-422345640Y-75405362D01*
X-422356000Y-75300173D01*
X-422356000Y-74559828D01*
X-422345640Y-74454642D01*
X-422345639Y-74454640D01*
X-422304698Y-74319674D01*
X-422304698Y-74319673D01*
X-422238213Y-74195290D01*
X-422238212Y-74195288D01*
X-422148738Y-74086263D01*
X-422148737Y-74086262D01*
X-422148735Y-74086259D01*
X-422039714Y-73996789D01*
X-422039715Y-73996789D01*
X-422039713Y-73996788D01*
X-421981814Y-73965840D01*
X-421915328Y-73930302D01*
X-421780360Y-73889360D01*
X-421640000Y-73875536D01*
X-421499641Y-73889360D01*
X-421499641Y-73889360D01*
G37*
G36*
X-393559641Y-73889360D02*
X-393424673Y-73930302D01*
X-393314516Y-73989183D01*
X-393300288Y-73996788D01*
X-393224615Y-74058891D01*
X-393191259Y-74086265D01*
X-393111131Y-74183902D01*
X-393101788Y-74195287D01*
X-393070840Y-74253186D01*
X-393035302Y-74319672D01*
X-392994360Y-74454641D01*
X-392984000Y-74559827D01*
X-392984000Y-75300173D01*
X-392994360Y-75405359D01*
X-393035302Y-75540328D01*
X-393070840Y-75606814D01*
X-393101788Y-75664713D01*
X-393191262Y-75773738D01*
X-393300287Y-75863212D01*
X-393358186Y-75894160D01*
X-393424672Y-75929698D01*
X-393559640Y-75970640D01*
X-393700000Y-75984464D01*
X-393840359Y-75970640D01*
X-393907842Y-75950169D01*
X-393975327Y-75929698D01*
X-394041813Y-75894160D01*
X-394099712Y-75863212D01*
X-394208737Y-75773738D01*
X-394298211Y-75664713D01*
X-394364698Y-75540327D01*
X-394385169Y-75472844D01*
X-394405640Y-75405362D01*
X-394416000Y-75300173D01*
X-394416000Y-74559828D01*
X-394405640Y-74454642D01*
X-394405639Y-74454640D01*
X-394364698Y-74319674D01*
X-394364698Y-74319673D01*
X-394298213Y-74195290D01*
X-394298212Y-74195288D01*
X-394208738Y-74086263D01*
X-394208737Y-74086262D01*
X-394208735Y-74086259D01*
X-394099714Y-73996789D01*
X-394099715Y-73996789D01*
X-394099713Y-73996788D01*
X-394041814Y-73965840D01*
X-393975328Y-73930302D01*
X-393840360Y-73889360D01*
X-393700000Y-73875536D01*
X-393559641Y-73889360D01*
X-393559641Y-73889360D01*
G37*
G36*
X-391019641Y-73889360D02*
X-390884673Y-73930302D01*
X-390774516Y-73989183D01*
X-390760288Y-73996788D01*
X-390684615Y-74058891D01*
X-390651259Y-74086265D01*
X-390571131Y-74183902D01*
X-390561788Y-74195287D01*
X-390530840Y-74253186D01*
X-390495302Y-74319672D01*
X-390454360Y-74454641D01*
X-390444000Y-74559827D01*
X-390444000Y-75300173D01*
X-390454360Y-75405359D01*
X-390495302Y-75540328D01*
X-390530840Y-75606814D01*
X-390561788Y-75664713D01*
X-390651262Y-75773738D01*
X-390760287Y-75863212D01*
X-390818186Y-75894160D01*
X-390884672Y-75929698D01*
X-391019640Y-75970640D01*
X-391160000Y-75984464D01*
X-391300359Y-75970640D01*
X-391367842Y-75950169D01*
X-391435327Y-75929698D01*
X-391501813Y-75894160D01*
X-391559712Y-75863212D01*
X-391668737Y-75773738D01*
X-391758211Y-75664713D01*
X-391824698Y-75540327D01*
X-391845169Y-75472844D01*
X-391865640Y-75405362D01*
X-391876000Y-75300173D01*
X-391876000Y-74559828D01*
X-391865640Y-74454642D01*
X-391865639Y-74454640D01*
X-391824698Y-74319674D01*
X-391824698Y-74319673D01*
X-391758213Y-74195290D01*
X-391758212Y-74195288D01*
X-391668738Y-74086263D01*
X-391668737Y-74086262D01*
X-391668735Y-74086259D01*
X-391559714Y-73996789D01*
X-391559715Y-73996789D01*
X-391559713Y-73996788D01*
X-391501814Y-73965840D01*
X-391435328Y-73930302D01*
X-391300360Y-73889360D01*
X-391160000Y-73875536D01*
X-391019641Y-73889360D01*
X-391019641Y-73889360D01*
G37*
G36*
X-388479641Y-73889360D02*
X-388344673Y-73930302D01*
X-388234516Y-73989183D01*
X-388220288Y-73996788D01*
X-388144615Y-74058891D01*
X-388111259Y-74086265D01*
X-388031131Y-74183902D01*
X-388021788Y-74195287D01*
X-387990840Y-74253186D01*
X-387955302Y-74319672D01*
X-387914360Y-74454641D01*
X-387904000Y-74559827D01*
X-387904000Y-75300173D01*
X-387914360Y-75405359D01*
X-387955302Y-75540328D01*
X-387990840Y-75606814D01*
X-388021788Y-75664713D01*
X-388111262Y-75773738D01*
X-388220287Y-75863212D01*
X-388278186Y-75894160D01*
X-388344672Y-75929698D01*
X-388479640Y-75970640D01*
X-388620000Y-75984464D01*
X-388760359Y-75970640D01*
X-388827842Y-75950169D01*
X-388895327Y-75929698D01*
X-388961813Y-75894160D01*
X-389019712Y-75863212D01*
X-389128737Y-75773738D01*
X-389218211Y-75664713D01*
X-389284698Y-75540327D01*
X-389305169Y-75472844D01*
X-389325640Y-75405362D01*
X-389336000Y-75300173D01*
X-389336000Y-74559828D01*
X-389325640Y-74454642D01*
X-389325639Y-74454640D01*
X-389284698Y-74319674D01*
X-389284698Y-74319673D01*
X-389218213Y-74195290D01*
X-389218212Y-74195288D01*
X-389128738Y-74086263D01*
X-389128737Y-74086262D01*
X-389128735Y-74086259D01*
X-389019714Y-73996789D01*
X-389019715Y-73996789D01*
X-389019713Y-73996788D01*
X-388961814Y-73965840D01*
X-388895328Y-73930302D01*
X-388760360Y-73889360D01*
X-388620000Y-73875536D01*
X-388479641Y-73889360D01*
X-388479641Y-73889360D01*
G37*
G36*
X-385939641Y-73889360D02*
X-385804673Y-73930302D01*
X-385694516Y-73989183D01*
X-385680288Y-73996788D01*
X-385604615Y-74058891D01*
X-385571259Y-74086265D01*
X-385491131Y-74183902D01*
X-385481788Y-74195287D01*
X-385450840Y-74253186D01*
X-385415302Y-74319672D01*
X-385374360Y-74454641D01*
X-385364000Y-74559827D01*
X-385364000Y-75300173D01*
X-385374360Y-75405359D01*
X-385415302Y-75540328D01*
X-385450840Y-75606814D01*
X-385481788Y-75664713D01*
X-385571262Y-75773738D01*
X-385680287Y-75863212D01*
X-385738186Y-75894160D01*
X-385804672Y-75929698D01*
X-385939640Y-75970640D01*
X-386080000Y-75984464D01*
X-386220359Y-75970640D01*
X-386287842Y-75950169D01*
X-386355327Y-75929698D01*
X-386421813Y-75894160D01*
X-386479712Y-75863212D01*
X-386588737Y-75773738D01*
X-386678211Y-75664713D01*
X-386744698Y-75540327D01*
X-386765169Y-75472844D01*
X-386785640Y-75405362D01*
X-386796000Y-75300173D01*
X-386796000Y-74559828D01*
X-386785640Y-74454642D01*
X-386785639Y-74454640D01*
X-386744698Y-74319674D01*
X-386744698Y-74319673D01*
X-386678213Y-74195290D01*
X-386678212Y-74195288D01*
X-386588738Y-74086263D01*
X-386588737Y-74086262D01*
X-386588735Y-74086259D01*
X-386479714Y-73996789D01*
X-386479715Y-73996789D01*
X-386479713Y-73996788D01*
X-386421814Y-73965840D01*
X-386355328Y-73930302D01*
X-386220360Y-73889360D01*
X-386080000Y-73875536D01*
X-385939641Y-73889360D01*
X-385939641Y-73889360D01*
G37*
G36*
X-383399641Y-73889360D02*
X-383264673Y-73930302D01*
X-383154516Y-73989183D01*
X-383140288Y-73996788D01*
X-383064615Y-74058891D01*
X-383031259Y-74086265D01*
X-382951131Y-74183902D01*
X-382941788Y-74195287D01*
X-382910840Y-74253186D01*
X-382875302Y-74319672D01*
X-382834360Y-74454641D01*
X-382824000Y-74559827D01*
X-382824000Y-75300173D01*
X-382834360Y-75405359D01*
X-382875302Y-75540328D01*
X-382910840Y-75606814D01*
X-382941788Y-75664713D01*
X-383031262Y-75773738D01*
X-383140287Y-75863212D01*
X-383198186Y-75894160D01*
X-383264672Y-75929698D01*
X-383399640Y-75970640D01*
X-383540000Y-75984464D01*
X-383680359Y-75970640D01*
X-383747842Y-75950169D01*
X-383815327Y-75929698D01*
X-383881813Y-75894160D01*
X-383939712Y-75863212D01*
X-384048737Y-75773738D01*
X-384138211Y-75664713D01*
X-384204698Y-75540327D01*
X-384225169Y-75472844D01*
X-384245640Y-75405362D01*
X-384256000Y-75300173D01*
X-384256000Y-74559828D01*
X-384245640Y-74454642D01*
X-384245639Y-74454640D01*
X-384204698Y-74319674D01*
X-384204698Y-74319673D01*
X-384138213Y-74195290D01*
X-384138212Y-74195288D01*
X-384048738Y-74086263D01*
X-384048737Y-74086262D01*
X-384048735Y-74086259D01*
X-383939714Y-73996789D01*
X-383939715Y-73996789D01*
X-383939713Y-73996788D01*
X-383881814Y-73965840D01*
X-383815328Y-73930302D01*
X-383680360Y-73889360D01*
X-383540000Y-73875536D01*
X-383399641Y-73889360D01*
X-383399641Y-73889360D01*
G37*
G36*
X-380859641Y-73889360D02*
X-380724673Y-73930302D01*
X-380614516Y-73989183D01*
X-380600288Y-73996788D01*
X-380524615Y-74058891D01*
X-380491259Y-74086265D01*
X-380411131Y-74183902D01*
X-380401788Y-74195287D01*
X-380370840Y-74253186D01*
X-380335302Y-74319672D01*
X-380294360Y-74454641D01*
X-380284000Y-74559827D01*
X-380284000Y-75300173D01*
X-380294360Y-75405359D01*
X-380335302Y-75540328D01*
X-380370840Y-75606814D01*
X-380401788Y-75664713D01*
X-380491262Y-75773738D01*
X-380600287Y-75863212D01*
X-380658186Y-75894160D01*
X-380724672Y-75929698D01*
X-380859640Y-75970640D01*
X-381000000Y-75984464D01*
X-381140359Y-75970640D01*
X-381207842Y-75950169D01*
X-381275327Y-75929698D01*
X-381341813Y-75894160D01*
X-381399712Y-75863212D01*
X-381508737Y-75773738D01*
X-381598211Y-75664713D01*
X-381664698Y-75540327D01*
X-381685169Y-75472844D01*
X-381705640Y-75405362D01*
X-381716000Y-75300173D01*
X-381716000Y-74559828D01*
X-381705640Y-74454642D01*
X-381705639Y-74454640D01*
X-381664698Y-74319674D01*
X-381664698Y-74319673D01*
X-381598213Y-74195290D01*
X-381598212Y-74195288D01*
X-381508738Y-74086263D01*
X-381508737Y-74086262D01*
X-381508735Y-74086259D01*
X-381399714Y-73996789D01*
X-381399715Y-73996789D01*
X-381399713Y-73996788D01*
X-381341814Y-73965840D01*
X-381275328Y-73930302D01*
X-381140360Y-73889360D01*
X-381000000Y-73875536D01*
X-380859641Y-73889360D01*
X-380859641Y-73889360D01*
G37*
G36*
X-378319641Y-73889360D02*
X-378184673Y-73930302D01*
X-378074516Y-73989183D01*
X-378060288Y-73996788D01*
X-377984615Y-74058891D01*
X-377951259Y-74086265D01*
X-377871131Y-74183902D01*
X-377861788Y-74195287D01*
X-377830840Y-74253186D01*
X-377795302Y-74319672D01*
X-377754360Y-74454641D01*
X-377744000Y-74559827D01*
X-377744000Y-75300173D01*
X-377754360Y-75405359D01*
X-377795302Y-75540328D01*
X-377830840Y-75606814D01*
X-377861788Y-75664713D01*
X-377951262Y-75773738D01*
X-378060287Y-75863212D01*
X-378118186Y-75894160D01*
X-378184672Y-75929698D01*
X-378319640Y-75970640D01*
X-378460000Y-75984464D01*
X-378600359Y-75970640D01*
X-378667842Y-75950169D01*
X-378735327Y-75929698D01*
X-378801813Y-75894160D01*
X-378859712Y-75863212D01*
X-378968737Y-75773738D01*
X-379058211Y-75664713D01*
X-379124698Y-75540327D01*
X-379145169Y-75472844D01*
X-379165640Y-75405362D01*
X-379176000Y-75300173D01*
X-379176000Y-74559828D01*
X-379165640Y-74454642D01*
X-379165639Y-74454640D01*
X-379124698Y-74319674D01*
X-379124698Y-74319673D01*
X-379058213Y-74195290D01*
X-379058212Y-74195288D01*
X-378968738Y-74086263D01*
X-378968737Y-74086262D01*
X-378968735Y-74086259D01*
X-378859714Y-73996789D01*
X-378859715Y-73996789D01*
X-378859713Y-73996788D01*
X-378801814Y-73965840D01*
X-378735328Y-73930302D01*
X-378600360Y-73889360D01*
X-378460000Y-73875536D01*
X-378319641Y-73889360D01*
X-378319641Y-73889360D01*
G37*
G36*
X-375779641Y-73889360D02*
X-375644673Y-73930302D01*
X-375534516Y-73989183D01*
X-375520288Y-73996788D01*
X-375444615Y-74058891D01*
X-375411259Y-74086265D01*
X-375331131Y-74183902D01*
X-375321788Y-74195287D01*
X-375290840Y-74253186D01*
X-375255302Y-74319672D01*
X-375214360Y-74454641D01*
X-375204000Y-74559827D01*
X-375204000Y-75300173D01*
X-375214360Y-75405359D01*
X-375255302Y-75540328D01*
X-375290840Y-75606814D01*
X-375321788Y-75664713D01*
X-375411262Y-75773738D01*
X-375520287Y-75863212D01*
X-375578186Y-75894160D01*
X-375644672Y-75929698D01*
X-375779640Y-75970640D01*
X-375920000Y-75984464D01*
X-376060359Y-75970640D01*
X-376127842Y-75950169D01*
X-376195327Y-75929698D01*
X-376261813Y-75894160D01*
X-376319712Y-75863212D01*
X-376428737Y-75773738D01*
X-376518211Y-75664713D01*
X-376584698Y-75540327D01*
X-376605169Y-75472844D01*
X-376625640Y-75405362D01*
X-376636000Y-75300173D01*
X-376636000Y-74559828D01*
X-376625640Y-74454642D01*
X-376625639Y-74454640D01*
X-376584698Y-74319674D01*
X-376584698Y-74319673D01*
X-376518213Y-74195290D01*
X-376518212Y-74195288D01*
X-376428738Y-74086263D01*
X-376428737Y-74086262D01*
X-376428735Y-74086259D01*
X-376319714Y-73996789D01*
X-376319715Y-73996789D01*
X-376319713Y-73996788D01*
X-376261814Y-73965840D01*
X-376195328Y-73930302D01*
X-376060360Y-73889360D01*
X-375920000Y-73875536D01*
X-375779641Y-73889360D01*
X-375779641Y-73889360D01*
G37*
G36*
X-446899641Y-73889360D02*
X-446764673Y-73930302D01*
X-446654516Y-73989183D01*
X-446640288Y-73996788D01*
X-446564615Y-74058891D01*
X-446531259Y-74086265D01*
X-446451131Y-74183902D01*
X-446441788Y-74195287D01*
X-446410840Y-74253186D01*
X-446375302Y-74319672D01*
X-446334360Y-74454641D01*
X-446324000Y-74559827D01*
X-446324000Y-75300173D01*
X-446334360Y-75405359D01*
X-446375302Y-75540328D01*
X-446410840Y-75606814D01*
X-446441788Y-75664713D01*
X-446531262Y-75773738D01*
X-446640287Y-75863212D01*
X-446698186Y-75894160D01*
X-446764672Y-75929698D01*
X-446899640Y-75970640D01*
X-447040000Y-75984464D01*
X-447180359Y-75970640D01*
X-447247842Y-75950169D01*
X-447315327Y-75929698D01*
X-447381813Y-75894160D01*
X-447439712Y-75863212D01*
X-447548737Y-75773738D01*
X-447638211Y-75664713D01*
X-447704698Y-75540327D01*
X-447725169Y-75472844D01*
X-447745640Y-75405362D01*
X-447756000Y-75300173D01*
X-447756000Y-74559828D01*
X-447745640Y-74454642D01*
X-447745639Y-74454640D01*
X-447704698Y-74319674D01*
X-447704698Y-74319673D01*
X-447638213Y-74195290D01*
X-447638212Y-74195288D01*
X-447548738Y-74086263D01*
X-447548737Y-74086262D01*
X-447548735Y-74086259D01*
X-447439714Y-73996789D01*
X-447439715Y-73996789D01*
X-447439713Y-73996788D01*
X-447381814Y-73965840D01*
X-447315328Y-73930302D01*
X-447180360Y-73889360D01*
X-447040000Y-73875536D01*
X-446899641Y-73889360D01*
X-446899641Y-73889360D01*
G37*
G36*
X-403719641Y-73889360D02*
X-403584673Y-73930302D01*
X-403474516Y-73989183D01*
X-403460288Y-73996788D01*
X-403384615Y-74058891D01*
X-403351259Y-74086265D01*
X-403271131Y-74183902D01*
X-403261788Y-74195287D01*
X-403230840Y-74253186D01*
X-403195302Y-74319672D01*
X-403154360Y-74454641D01*
X-403144000Y-74559827D01*
X-403144000Y-75300173D01*
X-403154360Y-75405359D01*
X-403195302Y-75540328D01*
X-403230840Y-75606814D01*
X-403261788Y-75664713D01*
X-403351262Y-75773738D01*
X-403460287Y-75863212D01*
X-403518186Y-75894160D01*
X-403584672Y-75929698D01*
X-403719640Y-75970640D01*
X-403860000Y-75984464D01*
X-404000359Y-75970640D01*
X-404067842Y-75950169D01*
X-404135327Y-75929698D01*
X-404201813Y-75894160D01*
X-404259712Y-75863212D01*
X-404368737Y-75773738D01*
X-404458211Y-75664713D01*
X-404524698Y-75540327D01*
X-404545169Y-75472844D01*
X-404565640Y-75405362D01*
X-404576000Y-75300173D01*
X-404576000Y-74559828D01*
X-404565640Y-74454642D01*
X-404565639Y-74454640D01*
X-404524698Y-74319674D01*
X-404524698Y-74319673D01*
X-404458213Y-74195290D01*
X-404458212Y-74195288D01*
X-404368738Y-74086263D01*
X-404368737Y-74086262D01*
X-404368735Y-74086259D01*
X-404259714Y-73996789D01*
X-404259715Y-73996789D01*
X-404259713Y-73996788D01*
X-404201814Y-73965840D01*
X-404135328Y-73930302D01*
X-404000360Y-73889360D01*
X-403860000Y-73875536D01*
X-403719641Y-73889360D01*
X-403719641Y-73889360D01*
G37*
G36*
X-406259641Y-73889360D02*
X-406124673Y-73930302D01*
X-406014516Y-73989183D01*
X-406000288Y-73996788D01*
X-405924615Y-74058891D01*
X-405891259Y-74086265D01*
X-405811131Y-74183902D01*
X-405801788Y-74195287D01*
X-405770840Y-74253186D01*
X-405735302Y-74319672D01*
X-405694360Y-74454641D01*
X-405684000Y-74559827D01*
X-405684000Y-75300173D01*
X-405694360Y-75405359D01*
X-405735302Y-75540328D01*
X-405770840Y-75606814D01*
X-405801788Y-75664713D01*
X-405891262Y-75773738D01*
X-406000287Y-75863212D01*
X-406058186Y-75894160D01*
X-406124672Y-75929698D01*
X-406259640Y-75970640D01*
X-406400000Y-75984464D01*
X-406540359Y-75970640D01*
X-406607842Y-75950169D01*
X-406675327Y-75929698D01*
X-406741813Y-75894160D01*
X-406799712Y-75863212D01*
X-406908737Y-75773738D01*
X-406998211Y-75664713D01*
X-407064698Y-75540327D01*
X-407085169Y-75472844D01*
X-407105640Y-75405362D01*
X-407116000Y-75300173D01*
X-407116000Y-74559828D01*
X-407105640Y-74454642D01*
X-407105639Y-74454640D01*
X-407064698Y-74319674D01*
X-407064698Y-74319673D01*
X-406998213Y-74195290D01*
X-406998212Y-74195288D01*
X-406908738Y-74086263D01*
X-406908737Y-74086262D01*
X-406908735Y-74086259D01*
X-406799714Y-73996789D01*
X-406799715Y-73996789D01*
X-406799713Y-73996788D01*
X-406741814Y-73965840D01*
X-406675328Y-73930302D01*
X-406540360Y-73889360D01*
X-406400000Y-73875536D01*
X-406259641Y-73889360D01*
X-406259641Y-73889360D01*
G37*
G36*
X-408799641Y-73889360D02*
X-408664673Y-73930302D01*
X-408554516Y-73989183D01*
X-408540288Y-73996788D01*
X-408464615Y-74058891D01*
X-408431259Y-74086265D01*
X-408351131Y-74183902D01*
X-408341788Y-74195287D01*
X-408310840Y-74253186D01*
X-408275302Y-74319672D01*
X-408234360Y-74454641D01*
X-408224000Y-74559827D01*
X-408224000Y-75300173D01*
X-408234360Y-75405359D01*
X-408275302Y-75540328D01*
X-408310840Y-75606814D01*
X-408341788Y-75664713D01*
X-408431262Y-75773738D01*
X-408540287Y-75863212D01*
X-408598186Y-75894160D01*
X-408664672Y-75929698D01*
X-408799640Y-75970640D01*
X-408940000Y-75984464D01*
X-409080359Y-75970640D01*
X-409147842Y-75950169D01*
X-409215327Y-75929698D01*
X-409281813Y-75894160D01*
X-409339712Y-75863212D01*
X-409448737Y-75773738D01*
X-409538211Y-75664713D01*
X-409604698Y-75540327D01*
X-409625169Y-75472844D01*
X-409645640Y-75405362D01*
X-409656000Y-75300173D01*
X-409656000Y-74559828D01*
X-409645640Y-74454642D01*
X-409645639Y-74454640D01*
X-409604698Y-74319674D01*
X-409604698Y-74319673D01*
X-409538213Y-74195290D01*
X-409538212Y-74195288D01*
X-409448738Y-74086263D01*
X-409448737Y-74086262D01*
X-409448735Y-74086259D01*
X-409339714Y-73996789D01*
X-409339715Y-73996789D01*
X-409339713Y-73996788D01*
X-409281814Y-73965840D01*
X-409215328Y-73930302D01*
X-409080360Y-73889360D01*
X-408940000Y-73875536D01*
X-408799641Y-73889360D01*
X-408799641Y-73889360D01*
G37*
G36*
X-411339641Y-73889360D02*
X-411204673Y-73930302D01*
X-411094516Y-73989183D01*
X-411080288Y-73996788D01*
X-411004615Y-74058891D01*
X-410971259Y-74086265D01*
X-410891131Y-74183902D01*
X-410881788Y-74195287D01*
X-410850840Y-74253186D01*
X-410815302Y-74319672D01*
X-410774360Y-74454641D01*
X-410764000Y-74559827D01*
X-410764000Y-75300173D01*
X-410774360Y-75405359D01*
X-410815302Y-75540328D01*
X-410850840Y-75606814D01*
X-410881788Y-75664713D01*
X-410971262Y-75773738D01*
X-411080287Y-75863212D01*
X-411138186Y-75894160D01*
X-411204672Y-75929698D01*
X-411339640Y-75970640D01*
X-411480000Y-75984464D01*
X-411620359Y-75970640D01*
X-411687842Y-75950169D01*
X-411755327Y-75929698D01*
X-411821813Y-75894160D01*
X-411879712Y-75863212D01*
X-411988737Y-75773738D01*
X-412078211Y-75664713D01*
X-412144698Y-75540327D01*
X-412165169Y-75472844D01*
X-412185640Y-75405362D01*
X-412196000Y-75300173D01*
X-412196000Y-74559828D01*
X-412185640Y-74454642D01*
X-412185639Y-74454640D01*
X-412144698Y-74319674D01*
X-412144698Y-74319673D01*
X-412078213Y-74195290D01*
X-412078212Y-74195288D01*
X-411988738Y-74086263D01*
X-411988737Y-74086262D01*
X-411988735Y-74086259D01*
X-411879714Y-73996789D01*
X-411879715Y-73996789D01*
X-411879713Y-73996788D01*
X-411821814Y-73965840D01*
X-411755328Y-73930302D01*
X-411620360Y-73889360D01*
X-411480000Y-73875536D01*
X-411339641Y-73889360D01*
X-411339641Y-73889360D01*
G37*
G36*
X-413879641Y-73889360D02*
X-413744673Y-73930302D01*
X-413634516Y-73989183D01*
X-413620288Y-73996788D01*
X-413544615Y-74058891D01*
X-413511259Y-74086265D01*
X-413431131Y-74183902D01*
X-413421788Y-74195287D01*
X-413390840Y-74253186D01*
X-413355302Y-74319672D01*
X-413314360Y-74454641D01*
X-413304000Y-74559827D01*
X-413304000Y-75300173D01*
X-413314360Y-75405359D01*
X-413355302Y-75540328D01*
X-413390840Y-75606814D01*
X-413421788Y-75664713D01*
X-413511262Y-75773738D01*
X-413620287Y-75863212D01*
X-413678186Y-75894160D01*
X-413744672Y-75929698D01*
X-413879640Y-75970640D01*
X-414020000Y-75984464D01*
X-414160359Y-75970640D01*
X-414227842Y-75950169D01*
X-414295327Y-75929698D01*
X-414361813Y-75894160D01*
X-414419712Y-75863212D01*
X-414528737Y-75773738D01*
X-414618211Y-75664713D01*
X-414684698Y-75540327D01*
X-414705169Y-75472844D01*
X-414725640Y-75405362D01*
X-414736000Y-75300173D01*
X-414736000Y-74559828D01*
X-414725640Y-74454642D01*
X-414725639Y-74454640D01*
X-414684698Y-74319674D01*
X-414684698Y-74319673D01*
X-414618213Y-74195290D01*
X-414618212Y-74195288D01*
X-414528738Y-74086263D01*
X-414528737Y-74086262D01*
X-414528735Y-74086259D01*
X-414419714Y-73996789D01*
X-414419715Y-73996789D01*
X-414419713Y-73996788D01*
X-414361814Y-73965840D01*
X-414295328Y-73930302D01*
X-414160360Y-73889360D01*
X-414020000Y-73875536D01*
X-413879641Y-73889360D01*
X-413879641Y-73889360D01*
G37*
G36*
X-416419641Y-73889360D02*
X-416284673Y-73930302D01*
X-416174516Y-73989183D01*
X-416160288Y-73996788D01*
X-416084615Y-74058891D01*
X-416051259Y-74086265D01*
X-415971131Y-74183902D01*
X-415961788Y-74195287D01*
X-415930840Y-74253186D01*
X-415895302Y-74319672D01*
X-415854360Y-74454641D01*
X-415844000Y-74559827D01*
X-415844000Y-75300173D01*
X-415854360Y-75405359D01*
X-415895302Y-75540328D01*
X-415930840Y-75606814D01*
X-415961788Y-75664713D01*
X-416051262Y-75773738D01*
X-416160287Y-75863212D01*
X-416218186Y-75894160D01*
X-416284672Y-75929698D01*
X-416419640Y-75970640D01*
X-416560000Y-75984464D01*
X-416700359Y-75970640D01*
X-416767842Y-75950169D01*
X-416835327Y-75929698D01*
X-416901813Y-75894160D01*
X-416959712Y-75863212D01*
X-417068737Y-75773738D01*
X-417158211Y-75664713D01*
X-417224698Y-75540327D01*
X-417245169Y-75472844D01*
X-417265640Y-75405362D01*
X-417276000Y-75300173D01*
X-417276000Y-74559828D01*
X-417265640Y-74454642D01*
X-417265639Y-74454640D01*
X-417224698Y-74319674D01*
X-417224698Y-74319673D01*
X-417158213Y-74195290D01*
X-417158212Y-74195288D01*
X-417068738Y-74086263D01*
X-417068737Y-74086262D01*
X-417068735Y-74086259D01*
X-416959714Y-73996789D01*
X-416959715Y-73996789D01*
X-416959713Y-73996788D01*
X-416901814Y-73965840D01*
X-416835328Y-73930302D01*
X-416700360Y-73889360D01*
X-416560000Y-73875536D01*
X-416419641Y-73889360D01*
X-416419641Y-73889360D01*
G37*
G36*
X-418959641Y-73889360D02*
X-418824673Y-73930302D01*
X-418714516Y-73989183D01*
X-418700288Y-73996788D01*
X-418624615Y-74058891D01*
X-418591259Y-74086265D01*
X-418511131Y-74183902D01*
X-418501788Y-74195287D01*
X-418470840Y-74253186D01*
X-418435302Y-74319672D01*
X-418394360Y-74454641D01*
X-418384000Y-74559827D01*
X-418384000Y-75300173D01*
X-418394360Y-75405359D01*
X-418435302Y-75540328D01*
X-418470840Y-75606814D01*
X-418501788Y-75664713D01*
X-418591262Y-75773738D01*
X-418700287Y-75863212D01*
X-418758186Y-75894160D01*
X-418824672Y-75929698D01*
X-418959640Y-75970640D01*
X-419100000Y-75984464D01*
X-419240359Y-75970640D01*
X-419307842Y-75950169D01*
X-419375327Y-75929698D01*
X-419441813Y-75894160D01*
X-419499712Y-75863212D01*
X-419608737Y-75773738D01*
X-419698211Y-75664713D01*
X-419764698Y-75540327D01*
X-419785169Y-75472844D01*
X-419805640Y-75405362D01*
X-419816000Y-75300173D01*
X-419816000Y-74559828D01*
X-419805640Y-74454642D01*
X-419805639Y-74454640D01*
X-419764698Y-74319674D01*
X-419764698Y-74319673D01*
X-419698213Y-74195290D01*
X-419698212Y-74195288D01*
X-419608738Y-74086263D01*
X-419608737Y-74086262D01*
X-419608735Y-74086259D01*
X-419499714Y-73996789D01*
X-419499715Y-73996789D01*
X-419499713Y-73996788D01*
X-419441814Y-73965840D01*
X-419375328Y-73930302D01*
X-419240360Y-73889360D01*
X-419100000Y-73875536D01*
X-418959641Y-73889360D01*
X-418959641Y-73889360D01*
G37*
G36*
X-396099641Y-73889360D02*
X-395964673Y-73930302D01*
X-395854516Y-73989183D01*
X-395840288Y-73996788D01*
X-395764615Y-74058891D01*
X-395731259Y-74086265D01*
X-395651131Y-74183902D01*
X-395641788Y-74195287D01*
X-395610840Y-74253186D01*
X-395575302Y-74319672D01*
X-395534360Y-74454641D01*
X-395524000Y-74559827D01*
X-395524000Y-75300173D01*
X-395534360Y-75405359D01*
X-395575302Y-75540328D01*
X-395610840Y-75606814D01*
X-395641788Y-75664713D01*
X-395731262Y-75773738D01*
X-395840287Y-75863212D01*
X-395898186Y-75894160D01*
X-395964672Y-75929698D01*
X-396099640Y-75970640D01*
X-396240000Y-75984464D01*
X-396380359Y-75970640D01*
X-396447842Y-75950169D01*
X-396515327Y-75929698D01*
X-396581813Y-75894160D01*
X-396639712Y-75863212D01*
X-396748737Y-75773738D01*
X-396838211Y-75664713D01*
X-396904698Y-75540327D01*
X-396925169Y-75472844D01*
X-396945640Y-75405362D01*
X-396956000Y-75300173D01*
X-396956000Y-74559828D01*
X-396945640Y-74454642D01*
X-396945639Y-74454640D01*
X-396904698Y-74319674D01*
X-396904698Y-74319673D01*
X-396838213Y-74195290D01*
X-396838212Y-74195288D01*
X-396748738Y-74086263D01*
X-396748737Y-74086262D01*
X-396748735Y-74086259D01*
X-396639714Y-73996789D01*
X-396639715Y-73996789D01*
X-396639713Y-73996788D01*
X-396581814Y-73965840D01*
X-396515328Y-73930302D01*
X-396380360Y-73889360D01*
X-396240000Y-73875536D01*
X-396099641Y-73889360D01*
X-396099641Y-73889360D01*
G37*
G36*
X-374209703Y-71680907D02*
X-374174640Y-71684360D01*
X-374039672Y-71725302D01*
X-373973186Y-71760840D01*
X-373915287Y-71791788D01*
X-373915285Y-71791789D01*
X-373915286Y-71791789D01*
X-373806262Y-71881262D01*
X-373716789Y-71990286D01*
X-373650302Y-72114672D01*
X-373609360Y-72249641D01*
X-373595536Y-72390000D01*
X-373609360Y-72530359D01*
X-373650302Y-72665328D01*
X-373685840Y-72731814D01*
X-373716788Y-72789713D01*
X-373806262Y-72898738D01*
X-373915287Y-72988212D01*
X-373973186Y-73019160D01*
X-374039672Y-73054698D01*
X-374107157Y-73075169D01*
X-374174640Y-73095640D01*
X-374209703Y-73099093D01*
X-374279827Y-73106000D01*
X-375020173Y-73106000D01*
X-375090297Y-73099093D01*
X-375125360Y-73095640D01*
X-375192843Y-73075169D01*
X-375260328Y-73054698D01*
X-375326814Y-73019160D01*
X-375384713Y-72988212D01*
X-375493738Y-72898738D01*
X-375583212Y-72789713D01*
X-375614160Y-72731814D01*
X-375649698Y-72665328D01*
X-375690640Y-72530359D01*
X-375704464Y-72390000D01*
X-375690640Y-72249641D01*
X-375649698Y-72114672D01*
X-375583211Y-71990286D01*
X-375493738Y-71881262D01*
X-375384714Y-71791789D01*
X-375384715Y-71791789D01*
X-375384713Y-71791788D01*
X-375326814Y-71760840D01*
X-375260328Y-71725302D01*
X-375125360Y-71684360D01*
X-375090297Y-71680907D01*
X-375020173Y-71674000D01*
X-374279827Y-71674000D01*
X-374209703Y-71680907D01*
X-374209703Y-71680907D01*
G37*
M02*
