M48
METRIC,TZ
T1C0.300
T2C1.000
%
G90
G05
T1
X-469.9Y-83.82
X-468.63Y-83.82
X-467.36Y-83.82
X-466.09Y-76.2
X-466.09Y-83.82
X-465.963Y-63.5
X-464.82Y-83.82
X-463.55Y-77.47
X-463.55Y-83.82
X-462.28Y-77.47
X-462.28Y-82.55
X-461.01Y-77.47
X-461.01Y-82.55
X-459.74Y-72.39
X-459.74Y-82.55
X-458.47Y-82.55
X-457.2Y-72.39
X-454.66Y-72.39
X-452.628Y-63.5
X-447.04Y-77.47
X-444.5Y-83.82
X-443.23Y-83.82
X-441.96Y-83.82
X-440.69Y-76.2
X-440.69Y-83.82
X-439.42Y-83.82
X-438.658Y-63.5
X-438.15Y-77.47
X-438.15Y-83.82
X-436.88Y-77.47
X-436.88Y-82.55
X-435.61Y-77.47
X-435.61Y-82.55
X-434.34Y-72.39
X-434.34Y-82.55
X-433.07Y-82.55
X-431.8Y-72.39
X-429.26Y-72.39
X-427.228Y-63.5
X-421.64Y-77.47
X-419.1Y-83.82
X-417.83Y-83.82
X-416.56Y-83.82
X-415.29Y-76.2
X-415.29Y-83.82
X-414.528Y-63.5
X-414.02Y-83.82
X-412.75Y-77.47
X-412.75Y-83.82
X-411.48Y-77.47
X-411.48Y-82.55
X-410.21Y-77.47
X-410.21Y-82.55
X-408.94Y-72.39
X-408.94Y-82.55
X-407.67Y-82.55
X-406.4Y-72.39
X-403.86Y-72.39
X-403.733Y-63.5
X-396.24Y-77.47
X-393.7Y-83.82
X-392.43Y-83.82
X-391.16Y-83.82
X-390.398Y-63.5
X-389.89Y-76.2
X-389.89Y-83.82
X-388.62Y-83.82
X-387.35Y-77.47
X-387.35Y-83.82
X-386.08Y-77.47
X-386.08Y-82.55
X-384.81Y-77.47
X-384.81Y-82.55
X-383.54Y-72.39
X-383.54Y-82.55
X-382.27Y-82.55
X-381.Y-72.39
X-378.46Y-72.39
X-377.063Y-63.5
T2
X-447.04Y-74.93
X-444.5Y-74.93
X-441.96Y-74.93
X-439.42Y-74.93
X-436.88Y-74.93
X-434.34Y-74.93
X-431.8Y-74.93
X-429.26Y-74.93
X-426.72Y-74.93
X-421.64Y-74.93
X-419.1Y-74.93
X-416.56Y-74.93
X-414.02Y-74.93
X-411.48Y-74.93
X-408.94Y-74.93
X-406.4Y-74.93
X-403.86Y-74.93
X-401.32Y-74.93
X-374.65Y-72.39
X-374.65Y-77.47
X-421.64Y-80.01
X-419.1Y-80.01
X-416.56Y-80.01
X-414.02Y-80.01
X-411.48Y-80.01
X-408.94Y-80.01
X-406.4Y-80.01
X-403.86Y-80.01
X-401.32Y-80.01
X-396.24Y-74.93
X-393.7Y-74.93
X-391.16Y-74.93
X-388.62Y-74.93
X-386.08Y-74.93
X-383.54Y-74.93
X-381.Y-74.93
X-378.46Y-74.93
X-375.92Y-74.93
X-447.04Y-80.01
X-444.5Y-80.01
X-441.96Y-80.01
X-439.42Y-80.01
X-436.88Y-80.01
X-434.34Y-80.01
X-431.8Y-80.01
X-429.26Y-80.01
X-426.72Y-80.01
X-396.24Y-80.01
X-393.7Y-80.01
X-391.16Y-80.01
X-388.62Y-80.01
X-386.08Y-80.01
X-383.54Y-80.01
X-381.Y-80.01
X-378.46Y-80.01
X-375.92Y-80.01
X-472.44Y-74.93
X-469.9Y-74.93
X-467.36Y-74.93
X-464.82Y-74.93
X-462.28Y-74.93
X-459.74Y-74.93
X-457.2Y-74.93
X-454.66Y-74.93
X-452.12Y-74.93
X-472.44Y-80.01
X-469.9Y-80.01
X-467.36Y-80.01
X-464.82Y-80.01
X-462.28Y-80.01
X-459.74Y-80.01
X-457.2Y-80.01
X-454.66Y-80.01
X-452.12Y-80.01
T0
M30
