G04 #@! TF.GenerationSoftware,KiCad,Pcbnew,5.0.2+dfsg1-1*
G04 #@! TF.CreationDate,2019-08-29T01:20:59+02:00*
G04 #@! TF.ProjectId,hexdump,68657864-756d-4702-9e6b-696361645f70,rev?*
G04 #@! TF.SameCoordinates,Original*
G04 #@! TF.FileFunction,Copper,L1,Top*
G04 #@! TF.FilePolarity,Positive*
%FSLAX46Y46*%
G04 Gerber Fmt 4.6, Leading zero omitted, Abs format (unit mm)*
G04 Created by KiCad (PCBNEW 5.0.2+dfsg1-1) date Thu 29 Aug 2019 01:20:59 AM CEST*
%MOMM*%
%LPD*%
G01*
G04 APERTURE LIST*
G04 #@! TA.AperFunction,ComponentPad*
%ADD10O,2.000000X1.330000*%
G04 #@! TD*
G04 #@! TA.AperFunction,ComponentPad*
%ADD11O,1.330000X2.000000*%
G04 #@! TD*
G04 #@! TA.AperFunction,ViaPad*
%ADD12C,0.600000*%
G04 #@! TD*
G04 #@! TA.AperFunction,Conductor*
%ADD13C,0.250000*%
G04 #@! TD*
G04 #@! TA.AperFunction,Conductor*
%ADD14C,0.800000*%
G04 #@! TD*
G04 #@! TA.AperFunction,Conductor*
%ADD15C,0.254000*%
G04 #@! TD*
G04 APERTURE END LIST*
D10*
G04 #@! TO.P,,2*
G04 #@! TO.N,/uart_rx1*
X-374650000Y-77470000D03*
G04 #@! TO.P,,1*
G04 #@! TO.N,/uart_rx0*
X-374650000Y-72390000D03*
G04 #@! TD*
D11*
G04 #@! TO.P,,9*
G04 #@! TO.N,GND*
X-452120000Y-74930000D03*
G04 #@! TO.P,,8*
X-454660000Y-74930000D03*
G04 #@! TO.P,,7*
G04 #@! TO.N,Net-(J1-Pad7)*
X-457200000Y-74930000D03*
G04 #@! TO.P,,6*
G04 #@! TO.N,GND*
X-459740000Y-74930000D03*
G04 #@! TO.P,,5*
G04 #@! TO.N,VCC*
X-462280000Y-74930000D03*
G04 #@! TO.P,,4*
X-464820000Y-74930000D03*
G04 #@! TO.P,,3*
X-467360000Y-74930000D03*
G04 #@! TO.P,,2*
G04 #@! TO.N,GND*
X-469900000Y-74930000D03*
G04 #@! TO.P,,1*
G04 #@! TO.N,/uart_rx0*
X-472440000Y-74930000D03*
G04 #@! TD*
G04 #@! TO.P,,1*
G04 #@! TO.N,/uart_rx0*
X-452120000Y-80010000D03*
G04 #@! TO.P,,2*
G04 #@! TO.N,GND*
X-454660000Y-80010000D03*
G04 #@! TO.P,,3*
G04 #@! TO.N,VCC*
X-457200000Y-80010000D03*
G04 #@! TO.P,,4*
X-459740000Y-80010000D03*
G04 #@! TO.P,,5*
X-462280000Y-80010000D03*
G04 #@! TO.P,,6*
G04 #@! TO.N,GND*
X-464820000Y-80010000D03*
G04 #@! TO.P,,7*
G04 #@! TO.N,Net-(J2-Pad7)*
X-467360000Y-80010000D03*
G04 #@! TO.P,,8*
G04 #@! TO.N,Net-(J2-Pad8)*
X-469900000Y-80010000D03*
G04 #@! TO.P,,9*
G04 #@! TO.N,GND*
X-472440000Y-80010000D03*
G04 #@! TD*
G04 #@! TO.P,,1*
G04 #@! TO.N,/uart_rx0*
X-447040000Y-74930000D03*
G04 #@! TO.P,,2*
G04 #@! TO.N,GND*
X-444500000Y-74930000D03*
G04 #@! TO.P,,3*
G04 #@! TO.N,VCC*
X-441960000Y-74930000D03*
G04 #@! TO.P,,4*
X-439420000Y-74930000D03*
G04 #@! TO.P,,5*
X-436880000Y-74930000D03*
G04 #@! TO.P,,6*
G04 #@! TO.N,GND*
X-434340000Y-74930000D03*
G04 #@! TO.P,,7*
G04 #@! TO.N,Net-(J3-Pad7)*
X-431800000Y-74930000D03*
G04 #@! TO.P,,8*
G04 #@! TO.N,Net-(J3-Pad8)*
X-429260000Y-74930000D03*
G04 #@! TO.P,,9*
G04 #@! TO.N,GND*
X-426720000Y-74930000D03*
G04 #@! TD*
G04 #@! TO.P,,9*
G04 #@! TO.N,GND*
X-447040000Y-80010000D03*
G04 #@! TO.P,,8*
X-444500000Y-80010000D03*
G04 #@! TO.P,,7*
G04 #@! TO.N,Net-(J4-Pad7)*
X-441960000Y-80010000D03*
G04 #@! TO.P,,6*
G04 #@! TO.N,GND*
X-439420000Y-80010000D03*
G04 #@! TO.P,,5*
G04 #@! TO.N,VCC*
X-436880000Y-80010000D03*
G04 #@! TO.P,,4*
X-434340000Y-80010000D03*
G04 #@! TO.P,,3*
X-431800000Y-80010000D03*
G04 #@! TO.P,,2*
G04 #@! TO.N,GND*
X-429260000Y-80010000D03*
G04 #@! TO.P,,1*
G04 #@! TO.N,/uart_rx0*
X-426720000Y-80010000D03*
G04 #@! TD*
G04 #@! TO.P,,1*
G04 #@! TO.N,/uart_rx1*
X-421640000Y-74930000D03*
G04 #@! TO.P,,2*
G04 #@! TO.N,GND*
X-419100000Y-74930000D03*
G04 #@! TO.P,,3*
G04 #@! TO.N,VCC*
X-416560000Y-74930000D03*
G04 #@! TO.P,,4*
X-414020000Y-74930000D03*
G04 #@! TO.P,,5*
X-411480000Y-74930000D03*
G04 #@! TO.P,,6*
G04 #@! TO.N,GND*
X-408940000Y-74930000D03*
G04 #@! TO.P,,7*
G04 #@! TO.N,Net-(J5-Pad7)*
X-406400000Y-74930000D03*
G04 #@! TO.P,,8*
G04 #@! TO.N,GND*
X-403860000Y-74930000D03*
G04 #@! TO.P,,9*
X-401320000Y-74930000D03*
G04 #@! TD*
G04 #@! TO.P,,1*
G04 #@! TO.N,/uart_rx1*
X-401320000Y-80010000D03*
G04 #@! TO.P,,2*
G04 #@! TO.N,GND*
X-403860000Y-80010000D03*
G04 #@! TO.P,,3*
G04 #@! TO.N,VCC*
X-406400000Y-80010000D03*
G04 #@! TO.P,,4*
X-408940000Y-80010000D03*
G04 #@! TO.P,,5*
X-411480000Y-80010000D03*
G04 #@! TO.P,,6*
G04 #@! TO.N,GND*
X-414020000Y-80010000D03*
G04 #@! TO.P,,7*
G04 #@! TO.N,Net-(J6-Pad7)*
X-416560000Y-80010000D03*
G04 #@! TO.P,,8*
G04 #@! TO.N,Net-(J6-Pad8)*
X-419100000Y-80010000D03*
G04 #@! TO.P,,9*
G04 #@! TO.N,GND*
X-421640000Y-80010000D03*
G04 #@! TD*
G04 #@! TO.P,,9*
G04 #@! TO.N,GND*
X-375920000Y-74930000D03*
G04 #@! TO.P,,8*
G04 #@! TO.N,Net-(J7-Pad8)*
X-378460000Y-74930000D03*
G04 #@! TO.P,,7*
G04 #@! TO.N,Net-(J7-Pad7)*
X-381000000Y-74930000D03*
G04 #@! TO.P,,6*
G04 #@! TO.N,GND*
X-383540000Y-74930000D03*
G04 #@! TO.P,,5*
G04 #@! TO.N,VCC*
X-386080000Y-74930000D03*
G04 #@! TO.P,,4*
X-388620000Y-74930000D03*
G04 #@! TO.P,,3*
X-391160000Y-74930000D03*
G04 #@! TO.P,,2*
G04 #@! TO.N,GND*
X-393700000Y-74930000D03*
G04 #@! TO.P,,1*
G04 #@! TO.N,/uart_rx1*
X-396240000Y-74930000D03*
G04 #@! TD*
G04 #@! TO.P,,1*
G04 #@! TO.N,/uart_rx1*
X-375920000Y-80010000D03*
G04 #@! TO.P,,2*
G04 #@! TO.N,GND*
X-378460000Y-80010000D03*
G04 #@! TO.P,,3*
G04 #@! TO.N,VCC*
X-381000000Y-80010000D03*
G04 #@! TO.P,,4*
X-383540000Y-80010000D03*
G04 #@! TO.P,,5*
X-386080000Y-80010000D03*
G04 #@! TO.P,,6*
G04 #@! TO.N,GND*
X-388620000Y-80010000D03*
G04 #@! TO.P,,7*
G04 #@! TO.N,Net-(J8-Pad7)*
X-391160000Y-80010000D03*
G04 #@! TO.P,,8*
G04 #@! TO.N,GND*
X-393700000Y-80010000D03*
G04 #@! TO.P,,9*
X-396240000Y-80010000D03*
G04 #@! TD*
D12*
G04 #@! TO.N,GND*
X-459740000Y-72390000D03*
X-457200000Y-72390000D03*
X-454660000Y-72390000D03*
X-447040000Y-77470000D03*
X-434340000Y-72390000D03*
X-431800000Y-72390000D03*
X-429260000Y-72390000D03*
X-396240000Y-77470000D03*
X-383540000Y-72390000D03*
X-381000000Y-72390000D03*
X-378460000Y-72390000D03*
X-403860000Y-72390000D03*
X-406400000Y-72390000D03*
X-408940000Y-72390000D03*
X-421640000Y-77470000D03*
X-465963000Y-63500000D03*
X-377063000Y-63500000D03*
X-390398000Y-63500000D03*
X-403733000Y-63500000D03*
X-414528000Y-63500000D03*
X-427228000Y-63500000D03*
X-438658000Y-63500000D03*
X-452628000Y-63500000D03*
G04 #@! TO.N,VCC*
X-386080000Y-77470000D03*
X-393700000Y-83820000D03*
X-391160000Y-83820000D03*
X-387350000Y-83820000D03*
X-389890000Y-76200000D03*
X-384810000Y-82550000D03*
X-382270000Y-82550000D03*
X-387350000Y-77470000D03*
X-383540000Y-82550000D03*
X-388620000Y-83820000D03*
X-389890000Y-83820000D03*
X-384810000Y-77470000D03*
X-386080000Y-82550000D03*
X-392430000Y-83820000D03*
X-438150000Y-83820000D03*
X-440690000Y-83820000D03*
X-440690000Y-76200000D03*
X-436880000Y-82550000D03*
X-435610000Y-77470000D03*
X-443230000Y-83820000D03*
X-438150000Y-77470000D03*
X-436880000Y-77470000D03*
X-434340000Y-82550000D03*
X-439420000Y-83820000D03*
X-441960000Y-83820000D03*
X-444500000Y-83820000D03*
X-433070000Y-82550000D03*
X-435610000Y-82550000D03*
X-463550000Y-77470000D03*
X-459740000Y-82550000D03*
X-463550000Y-83820000D03*
X-458470000Y-82550000D03*
X-461010000Y-82550000D03*
X-462280000Y-77470000D03*
X-464820000Y-83820000D03*
X-461010000Y-77470000D03*
X-466090000Y-76200000D03*
X-462280000Y-82550000D03*
X-468630000Y-83820000D03*
X-467360000Y-83820000D03*
X-469900000Y-83820000D03*
X-466090000Y-83820000D03*
X-412750000Y-83820000D03*
X-410210000Y-77470000D03*
X-414020000Y-83820000D03*
X-408940000Y-82550000D03*
X-417830000Y-83820000D03*
X-412750000Y-77470000D03*
X-415290000Y-76200000D03*
X-415290000Y-83820000D03*
X-419100000Y-83820000D03*
X-411480000Y-77470000D03*
X-407670000Y-82550000D03*
X-411480000Y-82550000D03*
X-416560000Y-83820000D03*
X-410210000Y-82550000D03*
G04 #@! TD*
D13*
G04 #@! TO.N,GND*
X-459740000Y-74930000D02*
X-459740000Y-72390000D01*
X-457200000Y-72390000D02*
X-454660000Y-72390000D01*
X-447040000Y-80010000D02*
X-447040000Y-77470000D01*
X-434340000Y-74930000D02*
X-434340000Y-74595000D01*
X-434340000Y-74595000D02*
X-434340000Y-72390000D01*
X-431800000Y-72390000D02*
X-429260000Y-72390000D01*
X-383540000Y-74930000D02*
X-383540000Y-74595000D01*
X-383540000Y-74595000D02*
X-383540000Y-72390000D01*
X-381000000Y-72390000D02*
X-378460000Y-72390000D01*
X-406400000Y-72390000D02*
X-403860000Y-72390000D01*
X-408940000Y-74930000D02*
X-408940000Y-72390000D01*
X-421640000Y-80010000D02*
X-421640000Y-77470000D01*
X-427228000Y-63500000D02*
X-414528000Y-63500000D01*
D14*
G04 #@! TO.N,VCC*
X-391160000Y-83820000D02*
X-392430000Y-83820000D01*
X-386080000Y-77470000D02*
X-387350000Y-77470000D01*
X-381000000Y-81280000D02*
X-382270000Y-82550000D01*
X-383540000Y-82550000D02*
X-384810000Y-82550000D01*
X-386080000Y-82550000D02*
X-387350000Y-83820000D01*
X-383540000Y-80010000D02*
X-383540000Y-78740000D01*
X-381000000Y-80010000D02*
X-381000000Y-81280000D01*
X-383540000Y-78740000D02*
X-384810000Y-77470000D01*
X-388620000Y-83820000D02*
X-389890000Y-83820000D01*
X-434340000Y-80010000D02*
X-434340000Y-78740000D01*
X-436880000Y-82550000D02*
X-438150000Y-83820000D01*
X-434340000Y-78740000D02*
X-435610000Y-77470000D01*
X-439420000Y-83820000D02*
X-440690000Y-83820000D01*
X-431800000Y-81280000D02*
X-433070000Y-82550000D01*
X-434340000Y-82550000D02*
X-435610000Y-82550000D01*
X-441960000Y-83820000D02*
X-443230000Y-83820000D01*
X-436880000Y-77470000D02*
X-438150000Y-77470000D01*
X-431800000Y-80010000D02*
X-431800000Y-81280000D01*
X-462280000Y-77470000D02*
X-463550000Y-77470000D01*
X-459740000Y-80010000D02*
X-459740000Y-78740000D01*
X-467360000Y-83820000D02*
X-468630000Y-83820000D01*
X-457200000Y-80010000D02*
X-457200000Y-81280000D01*
X-457200000Y-81280000D02*
X-458470000Y-82550000D01*
X-464820000Y-83820000D02*
X-466090000Y-83820000D01*
X-462280000Y-82550000D02*
X-463550000Y-83820000D01*
X-459740000Y-82550000D02*
X-461010000Y-82550000D01*
X-459740000Y-78740000D02*
X-461010000Y-77470000D01*
X-411480000Y-82550000D02*
X-412750000Y-83820000D01*
X-406400000Y-81280000D02*
X-407670000Y-82550000D01*
X-411480000Y-77470000D02*
X-412750000Y-77470000D01*
X-414020000Y-83820000D02*
X-415290000Y-83820000D01*
X-416560000Y-83820000D02*
X-417830000Y-83820000D01*
X-408940000Y-82550000D02*
X-410210000Y-82550000D01*
X-408940000Y-78740000D02*
X-410210000Y-77470000D01*
X-406400000Y-80010000D02*
X-406400000Y-81280000D01*
X-408940000Y-80010000D02*
X-408940000Y-78740000D01*
D13*
G04 #@! TO.N,/uart_rx0*
X-427345001Y-71764999D02*
X-421005000Y-71764999D01*
X-419862000Y-71120000D02*
X-375920000Y-71120000D01*
X-421005000Y-71764999D02*
X-420506999Y-71764999D01*
X-420506999Y-71764999D02*
X-419862000Y-71120000D01*
X-472440000Y-75265000D02*
X-472440000Y-74930000D01*
X-444209999Y-71764999D02*
X-444120000Y-71764999D01*
X-447040000Y-74595000D02*
X-444209999Y-71764999D01*
X-447040000Y-74930000D02*
X-447040000Y-74595000D01*
X-444120000Y-71764999D02*
X-427345001Y-71764999D01*
X-452120000Y-80010000D02*
X-447040000Y-74930000D01*
X-422084999Y-71764999D02*
X-420506999Y-71764999D01*
X-426720000Y-80010000D02*
X-426720000Y-78760000D01*
X-424815000Y-76855000D02*
X-426720000Y-78760000D01*
X-424815000Y-74495000D02*
X-422084999Y-71764999D01*
X-424815000Y-76855000D02*
X-424815000Y-74495000D01*
X-451120001Y-71764999D02*
X-444120000Y-71764999D01*
X-469274999Y-71764999D02*
X-451120001Y-71764999D01*
X-472440000Y-74930000D02*
X-469274999Y-71764999D01*
X-374650000Y-72390000D02*
X-375920000Y-71120000D01*
G04 #@! TO.N,/uart_rx1*
X-421640000Y-74930000D02*
X-421640000Y-73680000D01*
X-420370000Y-72410000D02*
X-419724999Y-71764999D01*
X-421640000Y-73680000D02*
X-420370000Y-72410000D01*
X-419724999Y-71764999D02*
X-400685000Y-71764999D01*
X-393120000Y-71764999D02*
X-383239999Y-71764999D01*
X-374650000Y-74295000D02*
X-374650000Y-77470000D01*
X-377180001Y-71764999D02*
X-374650000Y-74295000D01*
X-377190000Y-71764999D02*
X-377180001Y-71764999D01*
X-383239999Y-71764999D02*
X-377190000Y-71764999D01*
X-393409999Y-71764999D02*
X-393120000Y-71764999D01*
X-396240000Y-74595000D02*
X-393409999Y-71764999D01*
X-396240000Y-74930000D02*
X-396240000Y-74595000D01*
X-393120000Y-71764999D02*
X-400685000Y-71764999D01*
X-396240000Y-74930000D02*
X-401320000Y-80010000D01*
X-374650000Y-77470000D02*
X-374650000Y-78740000D01*
X-374650000Y-78740000D02*
X-375920000Y-80010000D01*
G04 #@! TD*
D15*
G04 #@! TO.N,VCC*
G36*
X-384937000Y-73712606D02*
X-384937000Y-76200000D01*
X-384927333Y-76248601D01*
X-384899803Y-76289803D01*
X-383629803Y-77559803D01*
X-383588601Y-77587333D01*
X-383540000Y-77597000D01*
X-381052606Y-77597000D01*
X-379857000Y-78792606D01*
X-379857000Y-82497394D01*
X-381052606Y-83693000D01*
X-384810000Y-83693000D01*
X-384858601Y-83702667D01*
X-384899803Y-83730197D01*
X-387402606Y-86233000D01*
X-393647394Y-86233000D01*
X-394843000Y-85037394D01*
X-394843000Y-79576313D01*
X-394702000Y-79576313D01*
X-394702000Y-80443686D01*
X-394643863Y-80735960D01*
X-394422402Y-81067402D01*
X-394090961Y-81288863D01*
X-393700000Y-81366630D01*
X-393309040Y-81288863D01*
X-392977598Y-81067402D01*
X-392756137Y-80735961D01*
X-392698000Y-80443687D01*
X-392698000Y-79576314D01*
X-392698000Y-79576313D01*
X-392162000Y-79576313D01*
X-392162000Y-80443686D01*
X-392103863Y-80735960D01*
X-391882402Y-81067402D01*
X-391550961Y-81288863D01*
X-391160000Y-81366630D01*
X-390769040Y-81288863D01*
X-390437598Y-81067402D01*
X-390216137Y-80735961D01*
X-390158000Y-80443687D01*
X-390158000Y-79576314D01*
X-390158000Y-79576313D01*
X-389622000Y-79576313D01*
X-389622000Y-80443686D01*
X-389563863Y-80735960D01*
X-389342402Y-81067402D01*
X-389010961Y-81288863D01*
X-388620000Y-81366630D01*
X-388229040Y-81288863D01*
X-387897598Y-81067402D01*
X-387676137Y-80735961D01*
X-387618000Y-80443687D01*
X-387618000Y-79576314D01*
X-387676137Y-79284039D01*
X-387897598Y-78952598D01*
X-388229039Y-78731137D01*
X-388620000Y-78653370D01*
X-389010960Y-78731137D01*
X-389342401Y-78952598D01*
X-389563862Y-79284039D01*
X-389622000Y-79576313D01*
X-390158000Y-79576313D01*
X-390216137Y-79284039D01*
X-390437598Y-78952598D01*
X-390769039Y-78731137D01*
X-391160000Y-78653370D01*
X-391550960Y-78731137D01*
X-391882401Y-78952598D01*
X-392103862Y-79284039D01*
X-392162000Y-79576313D01*
X-392698000Y-79576313D01*
X-392756137Y-79284039D01*
X-392977598Y-78952598D01*
X-393309039Y-78731137D01*
X-393700000Y-78653370D01*
X-394090960Y-78731137D01*
X-394422401Y-78952598D01*
X-394643862Y-79284039D01*
X-394702000Y-79576313D01*
X-394843000Y-79576313D01*
X-394843000Y-78792606D01*
X-392340197Y-76289803D01*
X-392312667Y-76248601D01*
X-392303000Y-76200000D01*
X-392303000Y-73712606D01*
X-391107394Y-72517000D01*
X-386132606Y-72517000D01*
X-384937000Y-73712606D01*
X-384937000Y-73712606D01*
G37*
X-384937000Y-73712606D02*
X-384937000Y-76200000D01*
X-384927333Y-76248601D01*
X-384899803Y-76289803D01*
X-383629803Y-77559803D01*
X-383588601Y-77587333D01*
X-383540000Y-77597000D01*
X-381052606Y-77597000D01*
X-379857000Y-78792606D01*
X-379857000Y-82497394D01*
X-381052606Y-83693000D01*
X-384810000Y-83693000D01*
X-384858601Y-83702667D01*
X-384899803Y-83730197D01*
X-387402606Y-86233000D01*
X-393647394Y-86233000D01*
X-394843000Y-85037394D01*
X-394843000Y-79576313D01*
X-394702000Y-79576313D01*
X-394702000Y-80443686D01*
X-394643863Y-80735960D01*
X-394422402Y-81067402D01*
X-394090961Y-81288863D01*
X-393700000Y-81366630D01*
X-393309040Y-81288863D01*
X-392977598Y-81067402D01*
X-392756137Y-80735961D01*
X-392698000Y-80443687D01*
X-392698000Y-79576314D01*
X-392698000Y-79576313D01*
X-392162000Y-79576313D01*
X-392162000Y-80443686D01*
X-392103863Y-80735960D01*
X-391882402Y-81067402D01*
X-391550961Y-81288863D01*
X-391160000Y-81366630D01*
X-390769040Y-81288863D01*
X-390437598Y-81067402D01*
X-390216137Y-80735961D01*
X-390158000Y-80443687D01*
X-390158000Y-79576314D01*
X-390158000Y-79576313D01*
X-389622000Y-79576313D01*
X-389622000Y-80443686D01*
X-389563863Y-80735960D01*
X-389342402Y-81067402D01*
X-389010961Y-81288863D01*
X-388620000Y-81366630D01*
X-388229040Y-81288863D01*
X-387897598Y-81067402D01*
X-387676137Y-80735961D01*
X-387618000Y-80443687D01*
X-387618000Y-79576314D01*
X-387676137Y-79284039D01*
X-387897598Y-78952598D01*
X-388229039Y-78731137D01*
X-388620000Y-78653370D01*
X-389010960Y-78731137D01*
X-389342401Y-78952598D01*
X-389563862Y-79284039D01*
X-389622000Y-79576313D01*
X-390158000Y-79576313D01*
X-390216137Y-79284039D01*
X-390437598Y-78952598D01*
X-390769039Y-78731137D01*
X-391160000Y-78653370D01*
X-391550960Y-78731137D01*
X-391882401Y-78952598D01*
X-392103862Y-79284039D01*
X-392162000Y-79576313D01*
X-392698000Y-79576313D01*
X-392756137Y-79284039D01*
X-392977598Y-78952598D01*
X-393309039Y-78731137D01*
X-393700000Y-78653370D01*
X-394090960Y-78731137D01*
X-394422401Y-78952598D01*
X-394643862Y-79284039D01*
X-394702000Y-79576313D01*
X-394843000Y-79576313D01*
X-394843000Y-78792606D01*
X-392340197Y-76289803D01*
X-392312667Y-76248601D01*
X-392303000Y-76200000D01*
X-392303000Y-73712606D01*
X-391107394Y-72517000D01*
X-386132606Y-72517000D01*
X-384937000Y-73712606D01*
G36*
X-435737000Y-73712606D02*
X-435737000Y-76200000D01*
X-435727333Y-76248601D01*
X-435699803Y-76289803D01*
X-434429803Y-77559803D01*
X-434388601Y-77587333D01*
X-434340000Y-77597000D01*
X-431852606Y-77597000D01*
X-430657000Y-78792606D01*
X-430657000Y-82497394D01*
X-431852606Y-83693000D01*
X-435610000Y-83693000D01*
X-435658601Y-83702667D01*
X-435699803Y-83730197D01*
X-438202606Y-86233000D01*
X-444447394Y-86233000D01*
X-445643000Y-85037394D01*
X-445643000Y-79576313D01*
X-445502000Y-79576313D01*
X-445502000Y-80443686D01*
X-445443863Y-80735960D01*
X-445222402Y-81067402D01*
X-444890961Y-81288863D01*
X-444500000Y-81366630D01*
X-444109040Y-81288863D01*
X-443777598Y-81067402D01*
X-443556137Y-80735961D01*
X-443498000Y-80443687D01*
X-443498000Y-79576314D01*
X-443498000Y-79576313D01*
X-442962000Y-79576313D01*
X-442962000Y-80443686D01*
X-442903863Y-80735960D01*
X-442682402Y-81067402D01*
X-442350961Y-81288863D01*
X-441960000Y-81366630D01*
X-441569040Y-81288863D01*
X-441237598Y-81067402D01*
X-441016137Y-80735961D01*
X-440958000Y-80443687D01*
X-440958000Y-79576314D01*
X-440958000Y-79576313D01*
X-440422000Y-79576313D01*
X-440422000Y-80443686D01*
X-440363863Y-80735960D01*
X-440142402Y-81067402D01*
X-439810961Y-81288863D01*
X-439420000Y-81366630D01*
X-439029040Y-81288863D01*
X-438697598Y-81067402D01*
X-438476137Y-80735961D01*
X-438418000Y-80443687D01*
X-438418000Y-79576314D01*
X-438476137Y-79284039D01*
X-438697598Y-78952598D01*
X-439029039Y-78731137D01*
X-439420000Y-78653370D01*
X-439810960Y-78731137D01*
X-440142401Y-78952598D01*
X-440363862Y-79284039D01*
X-440422000Y-79576313D01*
X-440958000Y-79576313D01*
X-441016137Y-79284039D01*
X-441237598Y-78952598D01*
X-441569039Y-78731137D01*
X-441960000Y-78653370D01*
X-442350960Y-78731137D01*
X-442682401Y-78952598D01*
X-442903862Y-79284039D01*
X-442962000Y-79576313D01*
X-443498000Y-79576313D01*
X-443556137Y-79284039D01*
X-443777598Y-78952598D01*
X-444109039Y-78731137D01*
X-444500000Y-78653370D01*
X-444890960Y-78731137D01*
X-445222401Y-78952598D01*
X-445443862Y-79284039D01*
X-445502000Y-79576313D01*
X-445643000Y-79576313D01*
X-445643000Y-78792606D01*
X-443140197Y-76289803D01*
X-443112667Y-76248601D01*
X-443103000Y-76200000D01*
X-443103000Y-73712606D01*
X-441907394Y-72517000D01*
X-436932606Y-72517000D01*
X-435737000Y-73712606D01*
X-435737000Y-73712606D01*
G37*
X-435737000Y-73712606D02*
X-435737000Y-76200000D01*
X-435727333Y-76248601D01*
X-435699803Y-76289803D01*
X-434429803Y-77559803D01*
X-434388601Y-77587333D01*
X-434340000Y-77597000D01*
X-431852606Y-77597000D01*
X-430657000Y-78792606D01*
X-430657000Y-82497394D01*
X-431852606Y-83693000D01*
X-435610000Y-83693000D01*
X-435658601Y-83702667D01*
X-435699803Y-83730197D01*
X-438202606Y-86233000D01*
X-444447394Y-86233000D01*
X-445643000Y-85037394D01*
X-445643000Y-79576313D01*
X-445502000Y-79576313D01*
X-445502000Y-80443686D01*
X-445443863Y-80735960D01*
X-445222402Y-81067402D01*
X-444890961Y-81288863D01*
X-444500000Y-81366630D01*
X-444109040Y-81288863D01*
X-443777598Y-81067402D01*
X-443556137Y-80735961D01*
X-443498000Y-80443687D01*
X-443498000Y-79576314D01*
X-443498000Y-79576313D01*
X-442962000Y-79576313D01*
X-442962000Y-80443686D01*
X-442903863Y-80735960D01*
X-442682402Y-81067402D01*
X-442350961Y-81288863D01*
X-441960000Y-81366630D01*
X-441569040Y-81288863D01*
X-441237598Y-81067402D01*
X-441016137Y-80735961D01*
X-440958000Y-80443687D01*
X-440958000Y-79576314D01*
X-440958000Y-79576313D01*
X-440422000Y-79576313D01*
X-440422000Y-80443686D01*
X-440363863Y-80735960D01*
X-440142402Y-81067402D01*
X-439810961Y-81288863D01*
X-439420000Y-81366630D01*
X-439029040Y-81288863D01*
X-438697598Y-81067402D01*
X-438476137Y-80735961D01*
X-438418000Y-80443687D01*
X-438418000Y-79576314D01*
X-438476137Y-79284039D01*
X-438697598Y-78952598D01*
X-439029039Y-78731137D01*
X-439420000Y-78653370D01*
X-439810960Y-78731137D01*
X-440142401Y-78952598D01*
X-440363862Y-79284039D01*
X-440422000Y-79576313D01*
X-440958000Y-79576313D01*
X-441016137Y-79284039D01*
X-441237598Y-78952598D01*
X-441569039Y-78731137D01*
X-441960000Y-78653370D01*
X-442350960Y-78731137D01*
X-442682401Y-78952598D01*
X-442903862Y-79284039D01*
X-442962000Y-79576313D01*
X-443498000Y-79576313D01*
X-443556137Y-79284039D01*
X-443777598Y-78952598D01*
X-444109039Y-78731137D01*
X-444500000Y-78653370D01*
X-444890960Y-78731137D01*
X-445222401Y-78952598D01*
X-445443862Y-79284039D01*
X-445502000Y-79576313D01*
X-445643000Y-79576313D01*
X-445643000Y-78792606D01*
X-443140197Y-76289803D01*
X-443112667Y-76248601D01*
X-443103000Y-76200000D01*
X-443103000Y-73712606D01*
X-441907394Y-72517000D01*
X-436932606Y-72517000D01*
X-435737000Y-73712606D01*
G36*
X-461137000Y-73712606D02*
X-461137000Y-76200000D01*
X-461127333Y-76248601D01*
X-461099803Y-76289803D01*
X-459829803Y-77559803D01*
X-459788601Y-77587333D01*
X-459740000Y-77597000D01*
X-457252606Y-77597000D01*
X-456057000Y-78792606D01*
X-456057000Y-82497394D01*
X-457252606Y-83693000D01*
X-461010000Y-83693000D01*
X-461058601Y-83702667D01*
X-461099803Y-83730197D01*
X-463602606Y-86233000D01*
X-469847394Y-86233000D01*
X-471043000Y-85037394D01*
X-471043000Y-79576313D01*
X-470902000Y-79576313D01*
X-470902000Y-80443686D01*
X-470843863Y-80735960D01*
X-470622402Y-81067402D01*
X-470290961Y-81288863D01*
X-469900000Y-81366630D01*
X-469509040Y-81288863D01*
X-469177598Y-81067402D01*
X-468956137Y-80735961D01*
X-468898000Y-80443687D01*
X-468898000Y-79576314D01*
X-468898000Y-79576313D01*
X-468362000Y-79576313D01*
X-468362000Y-80443686D01*
X-468303863Y-80735960D01*
X-468082402Y-81067402D01*
X-467750961Y-81288863D01*
X-467360000Y-81366630D01*
X-466969040Y-81288863D01*
X-466637598Y-81067402D01*
X-466416137Y-80735961D01*
X-466358000Y-80443687D01*
X-466358000Y-79576314D01*
X-466358000Y-79576313D01*
X-465822000Y-79576313D01*
X-465822000Y-80443686D01*
X-465763863Y-80735960D01*
X-465542402Y-81067402D01*
X-465210961Y-81288863D01*
X-464820000Y-81366630D01*
X-464429040Y-81288863D01*
X-464097598Y-81067402D01*
X-463876137Y-80735961D01*
X-463818000Y-80443687D01*
X-463818000Y-79576314D01*
X-463876137Y-79284039D01*
X-464097598Y-78952598D01*
X-464429039Y-78731137D01*
X-464820000Y-78653370D01*
X-465210960Y-78731137D01*
X-465542401Y-78952598D01*
X-465763862Y-79284039D01*
X-465822000Y-79576313D01*
X-466358000Y-79576313D01*
X-466416137Y-79284039D01*
X-466637598Y-78952598D01*
X-466969039Y-78731137D01*
X-467360000Y-78653370D01*
X-467750960Y-78731137D01*
X-468082401Y-78952598D01*
X-468303862Y-79284039D01*
X-468362000Y-79576313D01*
X-468898000Y-79576313D01*
X-468956137Y-79284039D01*
X-469177598Y-78952598D01*
X-469509039Y-78731137D01*
X-469900000Y-78653370D01*
X-470290960Y-78731137D01*
X-470622401Y-78952598D01*
X-470843862Y-79284039D01*
X-470902000Y-79576313D01*
X-471043000Y-79576313D01*
X-471043000Y-78792606D01*
X-468540197Y-76289803D01*
X-468512667Y-76248601D01*
X-468503000Y-76200000D01*
X-468503000Y-73712606D01*
X-467307394Y-72517000D01*
X-462332606Y-72517000D01*
X-461137000Y-73712606D01*
X-461137000Y-73712606D01*
G37*
X-461137000Y-73712606D02*
X-461137000Y-76200000D01*
X-461127333Y-76248601D01*
X-461099803Y-76289803D01*
X-459829803Y-77559803D01*
X-459788601Y-77587333D01*
X-459740000Y-77597000D01*
X-457252606Y-77597000D01*
X-456057000Y-78792606D01*
X-456057000Y-82497394D01*
X-457252606Y-83693000D01*
X-461010000Y-83693000D01*
X-461058601Y-83702667D01*
X-461099803Y-83730197D01*
X-463602606Y-86233000D01*
X-469847394Y-86233000D01*
X-471043000Y-85037394D01*
X-471043000Y-79576313D01*
X-470902000Y-79576313D01*
X-470902000Y-80443686D01*
X-470843863Y-80735960D01*
X-470622402Y-81067402D01*
X-470290961Y-81288863D01*
X-469900000Y-81366630D01*
X-469509040Y-81288863D01*
X-469177598Y-81067402D01*
X-468956137Y-80735961D01*
X-468898000Y-80443687D01*
X-468898000Y-79576314D01*
X-468898000Y-79576313D01*
X-468362000Y-79576313D01*
X-468362000Y-80443686D01*
X-468303863Y-80735960D01*
X-468082402Y-81067402D01*
X-467750961Y-81288863D01*
X-467360000Y-81366630D01*
X-466969040Y-81288863D01*
X-466637598Y-81067402D01*
X-466416137Y-80735961D01*
X-466358000Y-80443687D01*
X-466358000Y-79576314D01*
X-466358000Y-79576313D01*
X-465822000Y-79576313D01*
X-465822000Y-80443686D01*
X-465763863Y-80735960D01*
X-465542402Y-81067402D01*
X-465210961Y-81288863D01*
X-464820000Y-81366630D01*
X-464429040Y-81288863D01*
X-464097598Y-81067402D01*
X-463876137Y-80735961D01*
X-463818000Y-80443687D01*
X-463818000Y-79576314D01*
X-463876137Y-79284039D01*
X-464097598Y-78952598D01*
X-464429039Y-78731137D01*
X-464820000Y-78653370D01*
X-465210960Y-78731137D01*
X-465542401Y-78952598D01*
X-465763862Y-79284039D01*
X-465822000Y-79576313D01*
X-466358000Y-79576313D01*
X-466416137Y-79284039D01*
X-466637598Y-78952598D01*
X-466969039Y-78731137D01*
X-467360000Y-78653370D01*
X-467750960Y-78731137D01*
X-468082401Y-78952598D01*
X-468303862Y-79284039D01*
X-468362000Y-79576313D01*
X-468898000Y-79576313D01*
X-468956137Y-79284039D01*
X-469177598Y-78952598D01*
X-469509039Y-78731137D01*
X-469900000Y-78653370D01*
X-470290960Y-78731137D01*
X-470622401Y-78952598D01*
X-470843862Y-79284039D01*
X-470902000Y-79576313D01*
X-471043000Y-79576313D01*
X-471043000Y-78792606D01*
X-468540197Y-76289803D01*
X-468512667Y-76248601D01*
X-468503000Y-76200000D01*
X-468503000Y-73712606D01*
X-467307394Y-72517000D01*
X-462332606Y-72517000D01*
X-461137000Y-73712606D01*
G36*
X-410337000Y-73712606D02*
X-410337000Y-76200000D01*
X-410327333Y-76248601D01*
X-410299803Y-76289803D01*
X-409029803Y-77559803D01*
X-408988601Y-77587333D01*
X-408940000Y-77597000D01*
X-406452606Y-77597000D01*
X-405257000Y-78792606D01*
X-405257000Y-82497394D01*
X-406452606Y-83693000D01*
X-410210000Y-83693000D01*
X-410258601Y-83702667D01*
X-410299803Y-83730197D01*
X-412802606Y-86233000D01*
X-419047394Y-86233000D01*
X-420243000Y-85037394D01*
X-420243000Y-79576313D01*
X-420102000Y-79576313D01*
X-420102000Y-80443686D01*
X-420043863Y-80735960D01*
X-419822402Y-81067402D01*
X-419490961Y-81288863D01*
X-419100000Y-81366630D01*
X-418709040Y-81288863D01*
X-418377598Y-81067402D01*
X-418156137Y-80735961D01*
X-418098000Y-80443687D01*
X-418098000Y-79576314D01*
X-418098000Y-79576313D01*
X-417562000Y-79576313D01*
X-417562000Y-80443686D01*
X-417503863Y-80735960D01*
X-417282402Y-81067402D01*
X-416950961Y-81288863D01*
X-416560000Y-81366630D01*
X-416169040Y-81288863D01*
X-415837598Y-81067402D01*
X-415616137Y-80735961D01*
X-415558000Y-80443687D01*
X-415558000Y-79576314D01*
X-415558000Y-79576313D01*
X-415022000Y-79576313D01*
X-415022000Y-80443686D01*
X-414963863Y-80735960D01*
X-414742402Y-81067402D01*
X-414410961Y-81288863D01*
X-414020000Y-81366630D01*
X-413629040Y-81288863D01*
X-413297598Y-81067402D01*
X-413076137Y-80735961D01*
X-413018000Y-80443687D01*
X-413018000Y-79576314D01*
X-413076137Y-79284039D01*
X-413297598Y-78952598D01*
X-413629039Y-78731137D01*
X-414020000Y-78653370D01*
X-414410960Y-78731137D01*
X-414742401Y-78952598D01*
X-414963862Y-79284039D01*
X-415022000Y-79576313D01*
X-415558000Y-79576313D01*
X-415616137Y-79284039D01*
X-415837598Y-78952598D01*
X-416169039Y-78731137D01*
X-416560000Y-78653370D01*
X-416950960Y-78731137D01*
X-417282401Y-78952598D01*
X-417503862Y-79284039D01*
X-417562000Y-79576313D01*
X-418098000Y-79576313D01*
X-418156137Y-79284039D01*
X-418377598Y-78952598D01*
X-418709039Y-78731137D01*
X-419100000Y-78653370D01*
X-419490960Y-78731137D01*
X-419822401Y-78952598D01*
X-420043862Y-79284039D01*
X-420102000Y-79576313D01*
X-420243000Y-79576313D01*
X-420243000Y-78792606D01*
X-417740197Y-76289803D01*
X-417712667Y-76248601D01*
X-417703000Y-76200000D01*
X-417703000Y-73712606D01*
X-416507394Y-72517000D01*
X-411532606Y-72517000D01*
X-410337000Y-73712606D01*
X-410337000Y-73712606D01*
G37*
X-410337000Y-73712606D02*
X-410337000Y-76200000D01*
X-410327333Y-76248601D01*
X-410299803Y-76289803D01*
X-409029803Y-77559803D01*
X-408988601Y-77587333D01*
X-408940000Y-77597000D01*
X-406452606Y-77597000D01*
X-405257000Y-78792606D01*
X-405257000Y-82497394D01*
X-406452606Y-83693000D01*
X-410210000Y-83693000D01*
X-410258601Y-83702667D01*
X-410299803Y-83730197D01*
X-412802606Y-86233000D01*
X-419047394Y-86233000D01*
X-420243000Y-85037394D01*
X-420243000Y-79576313D01*
X-420102000Y-79576313D01*
X-420102000Y-80443686D01*
X-420043863Y-80735960D01*
X-419822402Y-81067402D01*
X-419490961Y-81288863D01*
X-419100000Y-81366630D01*
X-418709040Y-81288863D01*
X-418377598Y-81067402D01*
X-418156137Y-80735961D01*
X-418098000Y-80443687D01*
X-418098000Y-79576314D01*
X-418098000Y-79576313D01*
X-417562000Y-79576313D01*
X-417562000Y-80443686D01*
X-417503863Y-80735960D01*
X-417282402Y-81067402D01*
X-416950961Y-81288863D01*
X-416560000Y-81366630D01*
X-416169040Y-81288863D01*
X-415837598Y-81067402D01*
X-415616137Y-80735961D01*
X-415558000Y-80443687D01*
X-415558000Y-79576314D01*
X-415558000Y-79576313D01*
X-415022000Y-79576313D01*
X-415022000Y-80443686D01*
X-414963863Y-80735960D01*
X-414742402Y-81067402D01*
X-414410961Y-81288863D01*
X-414020000Y-81366630D01*
X-413629040Y-81288863D01*
X-413297598Y-81067402D01*
X-413076137Y-80735961D01*
X-413018000Y-80443687D01*
X-413018000Y-79576314D01*
X-413076137Y-79284039D01*
X-413297598Y-78952598D01*
X-413629039Y-78731137D01*
X-414020000Y-78653370D01*
X-414410960Y-78731137D01*
X-414742401Y-78952598D01*
X-414963862Y-79284039D01*
X-415022000Y-79576313D01*
X-415558000Y-79576313D01*
X-415616137Y-79284039D01*
X-415837598Y-78952598D01*
X-416169039Y-78731137D01*
X-416560000Y-78653370D01*
X-416950960Y-78731137D01*
X-417282401Y-78952598D01*
X-417503862Y-79284039D01*
X-417562000Y-79576313D01*
X-418098000Y-79576313D01*
X-418156137Y-79284039D01*
X-418377598Y-78952598D01*
X-418709039Y-78731137D01*
X-419100000Y-78653370D01*
X-419490960Y-78731137D01*
X-419822401Y-78952598D01*
X-420043862Y-79284039D01*
X-420102000Y-79576313D01*
X-420243000Y-79576313D01*
X-420243000Y-78792606D01*
X-417740197Y-76289803D01*
X-417712667Y-76248601D01*
X-417703000Y-76200000D01*
X-417703000Y-73712606D01*
X-416507394Y-72517000D01*
X-411532606Y-72517000D01*
X-410337000Y-73712606D01*
G04 #@! TO.N,GND*
G36*
X-451451938Y-62847401D02*
X-451442132Y-62873892D01*
X-451433523Y-62900816D01*
X-451429428Y-62908208D01*
X-451424148Y-62922473D01*
X-451422451Y-62930715D01*
X-451411444Y-62956791D01*
X-451401626Y-62983314D01*
X-451397225Y-62990479D01*
X-451391482Y-63004084D01*
X-451389429Y-63012200D01*
X-451377260Y-63037777D01*
X-451366240Y-63063884D01*
X-451361540Y-63070817D01*
X-451355374Y-63083777D01*
X-451352972Y-63091761D01*
X-451339656Y-63116813D01*
X-451327469Y-63142427D01*
X-451322488Y-63149111D01*
X-451315923Y-63161462D01*
X-451313185Y-63169290D01*
X-451298753Y-63193764D01*
X-451285418Y-63218851D01*
X-451280172Y-63225273D01*
X-451273230Y-63237045D01*
X-451270161Y-63244718D01*
X-451254642Y-63268567D01*
X-451240200Y-63293058D01*
X-451234698Y-63299216D01*
X-451227392Y-63310445D01*
X-451224004Y-63317942D01*
X-451207439Y-63341108D01*
X-451191907Y-63364977D01*
X-451186161Y-63370865D01*
X-451178511Y-63381562D01*
X-451174811Y-63388881D01*
X-451157219Y-63411339D01*
X-451140649Y-63434512D01*
X-451134677Y-63440117D01*
X-451126681Y-63450324D01*
X-451122681Y-63457447D01*
X-451104121Y-63479125D01*
X-451086526Y-63501587D01*
X-451080331Y-63506911D01*
X-451072000Y-63516642D01*
X-451067704Y-63523568D01*
X-451048211Y-63544428D01*
X-451029641Y-63566117D01*
X-451023234Y-63571156D01*
X-451014566Y-63580431D01*
X-451009981Y-63587153D01*
X-450989586Y-63607161D01*
X-450970082Y-63628033D01*
X-450963474Y-63632779D01*
X-450954469Y-63641614D01*
X-450949606Y-63648119D01*
X-450928360Y-63667228D01*
X-450907956Y-63687246D01*
X-450901157Y-63691695D01*
X-450891810Y-63700103D01*
X-450886669Y-63706392D01*
X-450864606Y-63724571D01*
X-450843359Y-63743681D01*
X-450836378Y-63747829D01*
X-450826669Y-63755829D01*
X-450821257Y-63761893D01*
X-450798435Y-63779092D01*
X-450776384Y-63797261D01*
X-450769224Y-63801106D01*
X-450759143Y-63808703D01*
X-450753470Y-63814530D01*
X-450729940Y-63830712D01*
X-450707116Y-63847912D01*
X-450699787Y-63851448D01*
X-450689331Y-63858638D01*
X-450683397Y-63864225D01*
X-450659186Y-63879369D01*
X-450635660Y-63895547D01*
X-450628174Y-63898766D01*
X-450617316Y-63905557D01*
X-450611134Y-63910889D01*
X-450586315Y-63924948D01*
X-450562110Y-63940087D01*
X-450554471Y-63942985D01*
X-450543194Y-63949373D01*
X-450536756Y-63954452D01*
X-450511371Y-63967399D01*
X-450486564Y-63981450D01*
X-450478774Y-63984023D01*
X-450467054Y-63990000D01*
X-450460379Y-63994807D01*
X-450434461Y-64006623D01*
X-450409094Y-64019560D01*
X-450401180Y-64021795D01*
X-450388996Y-64027350D01*
X-450382085Y-64031878D01*
X-450355702Y-64042528D01*
X-450329828Y-64054324D01*
X-450321790Y-64056218D01*
X-450309110Y-64061337D01*
X-450301979Y-64065570D01*
X-450275204Y-64075024D01*
X-450248848Y-64085663D01*
X-450240693Y-64087209D01*
X-450227512Y-64091863D01*
X-450220157Y-64095798D01*
X-450192991Y-64104051D01*
X-450166261Y-64113489D01*
X-450158017Y-64114677D01*
X-450144276Y-64118851D01*
X-450136728Y-64122466D01*
X-450109285Y-64129482D01*
X-450082168Y-64137720D01*
X-450073835Y-64138544D01*
X-450059535Y-64142200D01*
X-450051796Y-64145488D01*
X-450024106Y-64151257D01*
X-449996686Y-64158267D01*
X-449988285Y-64158720D01*
X-449973387Y-64161825D01*
X-449965466Y-64164776D01*
X-449937573Y-64169286D01*
X-449909915Y-64175049D01*
X-449901464Y-64175125D01*
X-449885936Y-64177636D01*
X-449877866Y-64180234D01*
X-449849845Y-64183472D01*
X-449821970Y-64187980D01*
X-449813489Y-64187674D01*
X-449797324Y-64189542D01*
X-449789108Y-64191781D01*
X-449760978Y-64193743D01*
X-449732979Y-64196979D01*
X-449724494Y-64196288D01*
X-449707652Y-64197462D01*
X-449699324Y-64199329D01*
X-449671150Y-64200008D01*
X-449643057Y-64201968D01*
X-449634596Y-64200890D01*
X-449616620Y-64201324D01*
X-449607775Y-64202865D01*
X-449580066Y-64202205D01*
X-449552339Y-64202874D01*
X-449543489Y-64201334D01*
X-449525499Y-64200906D01*
X-449517033Y-64201987D01*
X-449488940Y-64200036D01*
X-449460770Y-64199365D01*
X-449452437Y-64197500D01*
X-449435579Y-64196329D01*
X-449427094Y-64197023D01*
X-449399090Y-64193795D01*
X-449370962Y-64191841D01*
X-449362746Y-64189605D01*
X-449346557Y-64187739D01*
X-449338073Y-64188047D01*
X-449310208Y-64183549D01*
X-449282183Y-64180318D01*
X-449274105Y-64177720D01*
X-449258562Y-64175211D01*
X-449250111Y-64175137D01*
X-449222444Y-64169381D01*
X-449194553Y-64164878D01*
X-449186635Y-64161930D01*
X-449171718Y-64158826D01*
X-449163315Y-64158375D01*
X-449135896Y-64151373D01*
X-449108206Y-64145612D01*
X-449100464Y-64142325D01*
X-449086138Y-64138667D01*
X-449077808Y-64137845D01*
X-449050710Y-64129620D01*
X-449023247Y-64122607D01*
X-449015691Y-64118991D01*
X-449001943Y-64114818D01*
X-448993683Y-64113630D01*
X-448966925Y-64104189D01*
X-448939794Y-64095954D01*
X-448932440Y-64092022D01*
X-448919226Y-64087360D01*
X-448911078Y-64085817D01*
X-448884735Y-64075190D01*
X-448857940Y-64065736D01*
X-448850806Y-64061503D01*
X-448838116Y-64056384D01*
X-448830071Y-64054490D01*
X-448804184Y-64042695D01*
X-448777813Y-64032057D01*
X-448770901Y-64027531D01*
X-448758697Y-64021970D01*
X-448750780Y-64019736D01*
X-448725407Y-64006803D01*
X-448699492Y-63994995D01*
X-448692816Y-63990190D01*
X-448681076Y-63984206D01*
X-448673288Y-63981635D01*
X-448648483Y-63967592D01*
X-448623090Y-63954648D01*
X-448616651Y-63949570D01*
X-448605353Y-63943174D01*
X-448597715Y-63940278D01*
X-448573524Y-63925154D01*
X-448548688Y-63911093D01*
X-448542499Y-63905757D01*
X-448531629Y-63898961D01*
X-448524136Y-63895741D01*
X-448500603Y-63879563D01*
X-448476400Y-63864432D01*
X-448470464Y-63858845D01*
X-448459989Y-63851644D01*
X-448452659Y-63848110D01*
X-448429834Y-63830915D01*
X-448406300Y-63814737D01*
X-448400626Y-63808911D01*
X-448390533Y-63801308D01*
X-448383372Y-63797464D01*
X-448361315Y-63779297D01*
X-448338489Y-63762101D01*
X-448333076Y-63756038D01*
X-448323352Y-63748029D01*
X-448316369Y-63743881D01*
X-448295121Y-63724776D01*
X-448273058Y-63706604D01*
X-448267914Y-63700314D01*
X-448258547Y-63691891D01*
X-448251745Y-63687441D01*
X-448231347Y-63667434D01*
X-448210096Y-63648327D01*
X-448205227Y-63641816D01*
X-448196208Y-63632971D01*
X-448189597Y-63628223D01*
X-448170083Y-63607346D01*
X-448149696Y-63587351D01*
X-448145111Y-63580632D01*
X-448136433Y-63571348D01*
X-448130025Y-63566310D01*
X-448111445Y-63544615D01*
X-448091951Y-63523760D01*
X-448087656Y-63516837D01*
X-448079311Y-63507094D01*
X-448073112Y-63501767D01*
X-448055517Y-63479310D01*
X-448036959Y-63457641D01*
X-448032956Y-63450515D01*
X-448024946Y-63440292D01*
X-448018969Y-63434684D01*
X-448002390Y-63411504D01*
X-447984805Y-63389060D01*
X-447981104Y-63381743D01*
X-447973443Y-63371031D01*
X-447967697Y-63365145D01*
X-447952162Y-63341278D01*
X-447935593Y-63318111D01*
X-447932205Y-63310615D01*
X-447924890Y-63299376D01*
X-447919381Y-63293211D01*
X-447904933Y-63268715D01*
X-447889421Y-63244882D01*
X-447886350Y-63237206D01*
X-447879397Y-63225418D01*
X-447874147Y-63218992D01*
X-447860805Y-63193895D01*
X-447846378Y-63169435D01*
X-447843640Y-63161609D01*
X-447837066Y-63149244D01*
X-447832083Y-63142558D01*
X-447819888Y-63116931D01*
X-447806576Y-63091892D01*
X-447804175Y-63083913D01*
X-447797995Y-63070927D01*
X-447793296Y-63063996D01*
X-447782283Y-63037910D01*
X-447770106Y-63012321D01*
X-447768050Y-63004196D01*
X-447762303Y-62990582D01*
X-447757897Y-62983411D01*
X-447748070Y-62956869D01*
X-447737071Y-62930815D01*
X-447735374Y-62922578D01*
X-447730084Y-62908288D01*
X-447725989Y-62900896D01*
X-447717382Y-62873981D01*
X-447707572Y-62847484D01*
X-447706693Y-62841975D01*
X-400652804Y-62841975D01*
X-400651938Y-62847401D01*
X-400642132Y-62873892D01*
X-400633523Y-62900816D01*
X-400629428Y-62908208D01*
X-400624148Y-62922473D01*
X-400622451Y-62930715D01*
X-400611444Y-62956791D01*
X-400601626Y-62983314D01*
X-400597225Y-62990479D01*
X-400591482Y-63004084D01*
X-400589429Y-63012200D01*
X-400577260Y-63037777D01*
X-400566240Y-63063884D01*
X-400561540Y-63070817D01*
X-400555375Y-63083775D01*
X-400552974Y-63091756D01*
X-400539658Y-63116808D01*
X-400527469Y-63142427D01*
X-400522489Y-63149110D01*
X-400515925Y-63161459D01*
X-400513186Y-63169290D01*
X-400498754Y-63193764D01*
X-400485421Y-63218848D01*
X-400480174Y-63225272D01*
X-400473231Y-63237046D01*
X-400470161Y-63244720D01*
X-400454643Y-63268567D01*
X-400440201Y-63293058D01*
X-400434698Y-63299218D01*
X-400427391Y-63310446D01*
X-400424006Y-63317938D01*
X-400407443Y-63341102D01*
X-400391906Y-63364978D01*
X-400386162Y-63370864D01*
X-400378514Y-63381560D01*
X-400374812Y-63388881D01*
X-400357221Y-63411338D01*
X-400340652Y-63434510D01*
X-400334678Y-63440117D01*
X-400326677Y-63450331D01*
X-400322677Y-63457453D01*
X-400304129Y-63479117D01*
X-400286527Y-63501587D01*
X-400280326Y-63506916D01*
X-400272001Y-63516640D01*
X-400267706Y-63523564D01*
X-400248204Y-63544434D01*
X-400229635Y-63566121D01*
X-400223233Y-63571155D01*
X-400214569Y-63580427D01*
X-400209984Y-63587149D01*
X-400189592Y-63607155D01*
X-400170086Y-63628029D01*
X-400163477Y-63632776D01*
X-400154473Y-63641610D01*
X-400149607Y-63648119D01*
X-400128356Y-63667233D01*
X-400107960Y-63687243D01*
X-400101162Y-63691692D01*
X-400091809Y-63700104D01*
X-400086667Y-63706395D01*
X-400064605Y-63724573D01*
X-400043360Y-63743681D01*
X-400036378Y-63747830D01*
X-400026669Y-63755829D01*
X-400021261Y-63761889D01*
X-399998442Y-63779086D01*
X-399976381Y-63797263D01*
X-399969222Y-63801107D01*
X-399959146Y-63808701D01*
X-399953471Y-63814530D01*
X-399929938Y-63830713D01*
X-399907120Y-63847910D01*
X-399899790Y-63851446D01*
X-399889332Y-63858638D01*
X-399883398Y-63864225D01*
X-399859187Y-63879369D01*
X-399835661Y-63895547D01*
X-399828175Y-63898766D01*
X-399817315Y-63905558D01*
X-399811131Y-63910892D01*
X-399786312Y-63924950D01*
X-399762111Y-63940087D01*
X-399754470Y-63942986D01*
X-399743198Y-63949370D01*
X-399736761Y-63954449D01*
X-399711360Y-63967404D01*
X-399686560Y-63981451D01*
X-399678777Y-63984022D01*
X-399667056Y-63990000D01*
X-399660380Y-63994807D01*
X-399634466Y-64006621D01*
X-399609100Y-64019558D01*
X-399601184Y-64021794D01*
X-399588997Y-64027350D01*
X-399582086Y-64031878D01*
X-399555703Y-64042528D01*
X-399529829Y-64054324D01*
X-399521791Y-64056218D01*
X-399509111Y-64061337D01*
X-399501980Y-64065570D01*
X-399475205Y-64075024D01*
X-399448849Y-64085663D01*
X-399440694Y-64087209D01*
X-399427513Y-64091863D01*
X-399420158Y-64095798D01*
X-399392992Y-64104051D01*
X-399366262Y-64113489D01*
X-399358018Y-64114677D01*
X-399344277Y-64118851D01*
X-399336729Y-64122466D01*
X-399309286Y-64129482D01*
X-399282169Y-64137720D01*
X-399273836Y-64138544D01*
X-399259536Y-64142200D01*
X-399251797Y-64145488D01*
X-399224107Y-64151257D01*
X-399196687Y-64158267D01*
X-399188286Y-64158720D01*
X-399173388Y-64161825D01*
X-399165467Y-64164776D01*
X-399137574Y-64169286D01*
X-399109916Y-64175049D01*
X-399101465Y-64175125D01*
X-399085937Y-64177636D01*
X-399077867Y-64180234D01*
X-399049846Y-64183472D01*
X-399021971Y-64187980D01*
X-399013490Y-64187674D01*
X-398997325Y-64189542D01*
X-398989109Y-64191781D01*
X-398960979Y-64193743D01*
X-398932980Y-64196979D01*
X-398924495Y-64196288D01*
X-398907653Y-64197462D01*
X-398899325Y-64199329D01*
X-398871151Y-64200008D01*
X-398843058Y-64201968D01*
X-398834597Y-64200890D01*
X-398816621Y-64201324D01*
X-398807776Y-64202865D01*
X-398780067Y-64202205D01*
X-398752340Y-64202874D01*
X-398743490Y-64201334D01*
X-398725499Y-64200906D01*
X-398717034Y-64201987D01*
X-398688941Y-64200036D01*
X-398660771Y-64199365D01*
X-398652438Y-64197500D01*
X-398635579Y-64196329D01*
X-398627094Y-64197023D01*
X-398599089Y-64193795D01*
X-398570962Y-64191841D01*
X-398562746Y-64189605D01*
X-398546557Y-64187739D01*
X-398538074Y-64188047D01*
X-398510212Y-64183549D01*
X-398482183Y-64180318D01*
X-398474104Y-64177720D01*
X-398458563Y-64175211D01*
X-398450112Y-64175137D01*
X-398422445Y-64169381D01*
X-398394554Y-64164878D01*
X-398386636Y-64161930D01*
X-398371719Y-64158826D01*
X-398363316Y-64158375D01*
X-398335897Y-64151373D01*
X-398308207Y-64145612D01*
X-398300465Y-64142325D01*
X-398286139Y-64138667D01*
X-398277809Y-64137845D01*
X-398250711Y-64129620D01*
X-398223248Y-64122607D01*
X-398215692Y-64118991D01*
X-398201942Y-64114817D01*
X-398193686Y-64113630D01*
X-398166933Y-64104191D01*
X-398139795Y-64095954D01*
X-398132442Y-64092022D01*
X-398119229Y-64087360D01*
X-398111076Y-64085817D01*
X-398084726Y-64075187D01*
X-398057941Y-64065737D01*
X-398050807Y-64061504D01*
X-398038114Y-64056383D01*
X-398030074Y-64054491D01*
X-398004195Y-64042700D01*
X-397977812Y-64032057D01*
X-397970901Y-64027531D01*
X-397958694Y-64021969D01*
X-397950777Y-64019735D01*
X-397925416Y-64006807D01*
X-397899494Y-63994997D01*
X-397892813Y-63990188D01*
X-397881075Y-63984205D01*
X-397873289Y-63981635D01*
X-397848488Y-63967594D01*
X-397823089Y-63954647D01*
X-397816650Y-63949569D01*
X-397805355Y-63943174D01*
X-397797718Y-63940279D01*
X-397773526Y-63925155D01*
X-397748689Y-63911093D01*
X-397742501Y-63905758D01*
X-397731630Y-63898962D01*
X-397724136Y-63895741D01*
X-397700601Y-63879563D01*
X-397676403Y-63864434D01*
X-397670467Y-63858847D01*
X-397659989Y-63851644D01*
X-397652659Y-63848110D01*
X-397629834Y-63830915D01*
X-397606300Y-63814737D01*
X-397600626Y-63808911D01*
X-397590529Y-63801305D01*
X-397583370Y-63797462D01*
X-397561322Y-63779302D01*
X-397538489Y-63762101D01*
X-397533074Y-63756035D01*
X-397523354Y-63748029D01*
X-397516370Y-63743881D01*
X-397495120Y-63724774D01*
X-397473057Y-63706602D01*
X-397467914Y-63700312D01*
X-397458552Y-63691895D01*
X-397451749Y-63687444D01*
X-397431342Y-63667429D01*
X-397410097Y-63648327D01*
X-397405231Y-63641820D01*
X-397396208Y-63632970D01*
X-397389597Y-63628223D01*
X-397370090Y-63607354D01*
X-397349699Y-63587355D01*
X-397345112Y-63580633D01*
X-397336431Y-63571346D01*
X-397330022Y-63566307D01*
X-397311444Y-63544614D01*
X-397291951Y-63523760D01*
X-397287655Y-63516835D01*
X-397279311Y-63507093D01*
X-397273113Y-63501767D01*
X-397255516Y-63479308D01*
X-397236958Y-63457638D01*
X-397232956Y-63450514D01*
X-397224950Y-63440296D01*
X-397218973Y-63434688D01*
X-397202390Y-63411502D01*
X-397184806Y-63389060D01*
X-397181107Y-63381745D01*
X-397173442Y-63371029D01*
X-397167694Y-63365141D01*
X-397152160Y-63341274D01*
X-397135595Y-63318114D01*
X-397132206Y-63310616D01*
X-397124890Y-63299375D01*
X-397119384Y-63293214D01*
X-397104934Y-63268716D01*
X-397089420Y-63244879D01*
X-397086350Y-63237208D01*
X-397079393Y-63225412D01*
X-397074145Y-63218988D01*
X-397060816Y-63193916D01*
X-397046379Y-63169439D01*
X-397043638Y-63161603D01*
X-397037066Y-63149242D01*
X-397032084Y-63142558D01*
X-397019889Y-63116932D01*
X-397006575Y-63091888D01*
X-397004174Y-63083909D01*
X-396997996Y-63070927D01*
X-396993297Y-63063996D01*
X-396982284Y-63037910D01*
X-396970107Y-63012321D01*
X-396968051Y-63004196D01*
X-396962306Y-62990587D01*
X-396957900Y-62983416D01*
X-396948071Y-62956868D01*
X-396937072Y-62930815D01*
X-396935376Y-62922580D01*
X-396930085Y-62908288D01*
X-396925987Y-62900891D01*
X-396917380Y-62873974D01*
X-396907574Y-62847489D01*
X-396906694Y-62841975D01*
X-375924549Y-62841975D01*
X-375807517Y-62844915D01*
X-375696841Y-62853277D01*
X-375587967Y-62867031D01*
X-375480973Y-62886037D01*
X-375375982Y-62910149D01*
X-375273060Y-62939247D01*
X-375172345Y-62973188D01*
X-375073954Y-63011844D01*
X-374977999Y-63055088D01*
X-374884584Y-63102802D01*
X-374793880Y-63154836D01*
X-374705985Y-63211078D01*
X-374621066Y-63271377D01*
X-374539245Y-63335609D01*
X-374460658Y-63403640D01*
X-374385442Y-63475338D01*
X-374313761Y-63550537D01*
X-374245735Y-63629119D01*
X-374181492Y-63710952D01*
X-374121199Y-63795862D01*
X-374064957Y-63883755D01*
X-374012916Y-63974472D01*
X-373965216Y-64067861D01*
X-373921961Y-64163838D01*
X-373883306Y-64262230D01*
X-373849363Y-64362949D01*
X-373820268Y-64465864D01*
X-373796153Y-64570868D01*
X-373777151Y-64677845D01*
X-373763396Y-64786722D01*
X-373755034Y-64897398D01*
X-373752093Y-65014470D01*
X-373752093Y-71561027D01*
X-373924039Y-71446137D01*
X-374216313Y-71388000D01*
X-374998634Y-71388000D01*
X-375561142Y-70825492D01*
X-375586917Y-70786917D01*
X-375739737Y-70684806D01*
X-375874498Y-70658000D01*
X-375874503Y-70658000D01*
X-375920000Y-70648950D01*
X-375965497Y-70658000D01*
X-419816504Y-70658000D01*
X-419862001Y-70648950D01*
X-419907498Y-70658000D01*
X-419907502Y-70658000D01*
X-420042263Y-70684806D01*
X-420195083Y-70786917D01*
X-420220858Y-70825492D01*
X-420698365Y-71302999D01*
X-422039503Y-71302999D01*
X-422085000Y-71293949D01*
X-422130497Y-71302999D01*
X-444164502Y-71302999D01*
X-444209999Y-71293949D01*
X-444255496Y-71302999D01*
X-469229503Y-71302999D01*
X-469275000Y-71293949D01*
X-469320497Y-71302999D01*
X-469320501Y-71302999D01*
X-469455262Y-71329805D01*
X-469608082Y-71431916D01*
X-469633857Y-71470491D01*
X-471908445Y-73745079D01*
X-472049040Y-73651137D01*
X-472440000Y-73573370D01*
X-472830961Y-73651137D01*
X-473162402Y-73872598D01*
X-473383863Y-74204040D01*
X-473442000Y-74496314D01*
X-473442000Y-75363687D01*
X-473383862Y-75655961D01*
X-473162401Y-75987402D01*
X-472830960Y-76208863D01*
X-472440000Y-76286630D01*
X-472049039Y-76208863D01*
X-471717598Y-75987402D01*
X-471496137Y-75655961D01*
X-471438000Y-75363686D01*
X-471438000Y-74581366D01*
X-469083633Y-72226999D01*
X-467673589Y-72226999D01*
X-468868295Y-73421705D01*
X-468941347Y-73531036D01*
X-468967000Y-73660000D01*
X-468967000Y-76060410D01*
X-471408295Y-78501705D01*
X-471481347Y-78611036D01*
X-471507000Y-78740000D01*
X-471507000Y-85090000D01*
X-471481347Y-85218964D01*
X-471408295Y-85328295D01*
X-470138295Y-86598295D01*
X-470028964Y-86671347D01*
X-469900000Y-86697000D01*
X-463550000Y-86697000D01*
X-463421036Y-86671347D01*
X-463311705Y-86598295D01*
X-460870410Y-84157000D01*
X-457200000Y-84157000D01*
X-457071036Y-84131347D01*
X-456961705Y-84058295D01*
X-455691705Y-82788295D01*
X-455618653Y-82678964D01*
X-455593000Y-82550000D01*
X-455593000Y-78740000D01*
X-455618653Y-78611036D01*
X-455691705Y-78501705D01*
X-456961705Y-77231705D01*
X-457071036Y-77158653D01*
X-457200000Y-77133000D01*
X-459600410Y-77133000D01*
X-460673000Y-76060410D01*
X-460673000Y-74496314D01*
X-458202000Y-74496314D01*
X-458202000Y-75363687D01*
X-458143862Y-75655961D01*
X-457922401Y-75987402D01*
X-457590960Y-76208863D01*
X-457200000Y-76286630D01*
X-456809039Y-76208863D01*
X-456477598Y-75987402D01*
X-456256137Y-75655961D01*
X-456198000Y-75363686D01*
X-456198000Y-74496313D01*
X-456256137Y-74204039D01*
X-456477598Y-73872598D01*
X-456809040Y-73651137D01*
X-457200000Y-73573370D01*
X-457590961Y-73651137D01*
X-457922402Y-73872598D01*
X-458143863Y-74204040D01*
X-458202000Y-74496314D01*
X-460673000Y-74496314D01*
X-460673000Y-73660000D01*
X-460698653Y-73531036D01*
X-460771705Y-73421705D01*
X-461966411Y-72226999D01*
X-445325366Y-72226999D01*
X-446732835Y-73634469D01*
X-447040000Y-73573370D01*
X-447430961Y-73651137D01*
X-447762402Y-73872598D01*
X-447983863Y-74204040D01*
X-448042000Y-74496314D01*
X-448042000Y-75278633D01*
X-451588445Y-78825079D01*
X-451729039Y-78731137D01*
X-452120000Y-78653370D01*
X-452510960Y-78731137D01*
X-452842401Y-78952598D01*
X-453063862Y-79284039D01*
X-453122000Y-79576313D01*
X-453122000Y-80443686D01*
X-453063863Y-80735960D01*
X-452842402Y-81067402D01*
X-452510961Y-81288863D01*
X-452120000Y-81366630D01*
X-451729040Y-81288863D01*
X-451397598Y-81067402D01*
X-451176137Y-80735961D01*
X-451118000Y-80443687D01*
X-451118000Y-79661366D01*
X-447571554Y-76114921D01*
X-447430960Y-76208863D01*
X-447040000Y-76286630D01*
X-446649039Y-76208863D01*
X-446317598Y-75987402D01*
X-446096137Y-75655961D01*
X-446038000Y-75363686D01*
X-446038000Y-74496313D01*
X-446079469Y-74287835D01*
X-444018632Y-72226999D01*
X-442273589Y-72226999D01*
X-443468295Y-73421705D01*
X-443541347Y-73531036D01*
X-443567000Y-73660000D01*
X-443567000Y-76060410D01*
X-446008295Y-78501705D01*
X-446081347Y-78611036D01*
X-446107000Y-78740000D01*
X-446107000Y-85090000D01*
X-446081347Y-85218964D01*
X-446008295Y-85328295D01*
X-444738295Y-86598295D01*
X-444628964Y-86671347D01*
X-444500000Y-86697000D01*
X-438150000Y-86697000D01*
X-438021036Y-86671347D01*
X-437911705Y-86598295D01*
X-435470410Y-84157000D01*
X-431800000Y-84157000D01*
X-431671036Y-84131347D01*
X-431561705Y-84058295D01*
X-430291705Y-82788295D01*
X-430218653Y-82678964D01*
X-430193000Y-82550000D01*
X-430193000Y-78740000D01*
X-430218653Y-78611036D01*
X-430291705Y-78501705D01*
X-431561705Y-77231705D01*
X-431671036Y-77158653D01*
X-431800000Y-77133000D01*
X-434200410Y-77133000D01*
X-435273000Y-76060410D01*
X-435273000Y-74496314D01*
X-432802000Y-74496314D01*
X-432802000Y-75363687D01*
X-432743862Y-75655961D01*
X-432522401Y-75987402D01*
X-432190960Y-76208863D01*
X-431800000Y-76286630D01*
X-431409039Y-76208863D01*
X-431077598Y-75987402D01*
X-430856137Y-75655961D01*
X-430798000Y-75363686D01*
X-430798000Y-74496314D01*
X-430262000Y-74496314D01*
X-430262000Y-75363687D01*
X-430203862Y-75655961D01*
X-429982401Y-75987402D01*
X-429650960Y-76208863D01*
X-429260000Y-76286630D01*
X-428869039Y-76208863D01*
X-428537598Y-75987402D01*
X-428316137Y-75655961D01*
X-428258000Y-75363686D01*
X-428258000Y-74496313D01*
X-428316137Y-74204039D01*
X-428537598Y-73872598D01*
X-428869040Y-73651137D01*
X-429260000Y-73573370D01*
X-429650961Y-73651137D01*
X-429982402Y-73872598D01*
X-430203863Y-74204040D01*
X-430262000Y-74496314D01*
X-430798000Y-74496314D01*
X-430798000Y-74496313D01*
X-430856137Y-74204039D01*
X-431077598Y-73872598D01*
X-431409040Y-73651137D01*
X-431800000Y-73573370D01*
X-432190961Y-73651137D01*
X-432522402Y-73872598D01*
X-432743863Y-74204040D01*
X-432802000Y-74496314D01*
X-435273000Y-74496314D01*
X-435273000Y-73660000D01*
X-435298653Y-73531036D01*
X-435371705Y-73421705D01*
X-436566411Y-72226999D01*
X-423200365Y-72226999D01*
X-425109510Y-74136144D01*
X-425148082Y-74161917D01*
X-425173855Y-74200489D01*
X-425173858Y-74200492D01*
X-425214900Y-74261917D01*
X-425250193Y-74314737D01*
X-425270084Y-74414737D01*
X-425286050Y-74495000D01*
X-425276999Y-74540502D01*
X-425277000Y-76663633D01*
X-427014510Y-78401144D01*
X-427053082Y-78426917D01*
X-427078855Y-78465489D01*
X-427078858Y-78465492D01*
X-427155193Y-78579737D01*
X-427191050Y-78760000D01*
X-427186722Y-78781759D01*
X-427442401Y-78952598D01*
X-427663862Y-79284039D01*
X-427722000Y-79576313D01*
X-427722000Y-80443686D01*
X-427663863Y-80735960D01*
X-427442402Y-81067402D01*
X-427110961Y-81288863D01*
X-426720000Y-81366630D01*
X-426329040Y-81288863D01*
X-425997598Y-81067402D01*
X-425776137Y-80735961D01*
X-425718000Y-80443687D01*
X-425718000Y-79576314D01*
X-425776137Y-79284039D01*
X-425997598Y-78952598D01*
X-426154436Y-78847802D01*
X-424520489Y-77213855D01*
X-424481917Y-77188083D01*
X-424456144Y-77149511D01*
X-424456142Y-77149509D01*
X-424379807Y-77035264D01*
X-424379806Y-77035263D01*
X-424353000Y-76900502D01*
X-424353000Y-76900497D01*
X-424343950Y-76855000D01*
X-424353000Y-76809503D01*
X-424353000Y-74686366D01*
X-421893633Y-72226999D01*
X-420840365Y-72226999D01*
X-421934510Y-73321144D01*
X-421973082Y-73346917D01*
X-421998855Y-73385489D01*
X-421998858Y-73385492D01*
X-422075193Y-73499737D01*
X-422111050Y-73680000D01*
X-422106722Y-73701759D01*
X-422362402Y-73872598D01*
X-422583863Y-74204040D01*
X-422642000Y-74496314D01*
X-422642000Y-75363687D01*
X-422583862Y-75655961D01*
X-422362401Y-75987402D01*
X-422030960Y-76208863D01*
X-421640000Y-76286630D01*
X-421249039Y-76208863D01*
X-420917598Y-75987402D01*
X-420696137Y-75655961D01*
X-420638000Y-75363686D01*
X-420638000Y-74496313D01*
X-420696137Y-74204039D01*
X-420917598Y-73872598D01*
X-421074437Y-73767803D01*
X-419533633Y-72226999D01*
X-416873589Y-72226999D01*
X-418068295Y-73421705D01*
X-418141347Y-73531036D01*
X-418167000Y-73660000D01*
X-418167000Y-76060410D01*
X-420608295Y-78501705D01*
X-420681347Y-78611036D01*
X-420707000Y-78740000D01*
X-420707000Y-85090000D01*
X-420681347Y-85218964D01*
X-420608295Y-85328295D01*
X-419338295Y-86598295D01*
X-419228964Y-86671347D01*
X-419100000Y-86697000D01*
X-412750000Y-86697000D01*
X-412621036Y-86671347D01*
X-412511705Y-86598295D01*
X-410070410Y-84157000D01*
X-406400000Y-84157000D01*
X-406271036Y-84131347D01*
X-406161705Y-84058295D01*
X-404891705Y-82788295D01*
X-404818653Y-82678964D01*
X-404793000Y-82550000D01*
X-404793000Y-78740000D01*
X-404818653Y-78611036D01*
X-404891705Y-78501705D01*
X-406161705Y-77231705D01*
X-406271036Y-77158653D01*
X-406400000Y-77133000D01*
X-408800410Y-77133000D01*
X-409873000Y-76060410D01*
X-409873000Y-74496314D01*
X-407402000Y-74496314D01*
X-407402000Y-75363687D01*
X-407343862Y-75655961D01*
X-407122401Y-75987402D01*
X-406790960Y-76208863D01*
X-406400000Y-76286630D01*
X-406009039Y-76208863D01*
X-405677598Y-75987402D01*
X-405456137Y-75655961D01*
X-405398000Y-75363686D01*
X-405398000Y-74496313D01*
X-405456137Y-74204039D01*
X-405677598Y-73872598D01*
X-406009040Y-73651137D01*
X-406400000Y-73573370D01*
X-406790961Y-73651137D01*
X-407122402Y-73872598D01*
X-407343863Y-74204040D01*
X-407402000Y-74496314D01*
X-409873000Y-74496314D01*
X-409873000Y-73660000D01*
X-409898653Y-73531036D01*
X-409971705Y-73421705D01*
X-411166411Y-72226999D01*
X-394525366Y-72226999D01*
X-395932835Y-73634469D01*
X-396240000Y-73573370D01*
X-396630961Y-73651137D01*
X-396962402Y-73872598D01*
X-397183863Y-74204040D01*
X-397242000Y-74496314D01*
X-397242000Y-75278633D01*
X-400788445Y-78825079D01*
X-400929039Y-78731137D01*
X-401320000Y-78653370D01*
X-401710960Y-78731137D01*
X-402042401Y-78952598D01*
X-402263862Y-79284039D01*
X-402322000Y-79576313D01*
X-402322000Y-80443686D01*
X-402263863Y-80735960D01*
X-402042402Y-81067402D01*
X-401710961Y-81288863D01*
X-401320000Y-81366630D01*
X-400929040Y-81288863D01*
X-400597598Y-81067402D01*
X-400376137Y-80735961D01*
X-400318000Y-80443687D01*
X-400318000Y-79661366D01*
X-396771554Y-76114921D01*
X-396630960Y-76208863D01*
X-396240000Y-76286630D01*
X-395849039Y-76208863D01*
X-395517598Y-75987402D01*
X-395296137Y-75655961D01*
X-395238000Y-75363686D01*
X-395238000Y-74496313D01*
X-395279469Y-74287835D01*
X-393218632Y-72226999D01*
X-391473589Y-72226999D01*
X-392668295Y-73421705D01*
X-392741347Y-73531036D01*
X-392767000Y-73660000D01*
X-392767000Y-76060410D01*
X-395208295Y-78501705D01*
X-395281347Y-78611036D01*
X-395307000Y-78740000D01*
X-395307000Y-85090000D01*
X-395281347Y-85218964D01*
X-395208295Y-85328295D01*
X-393938295Y-86598295D01*
X-393828964Y-86671347D01*
X-393700000Y-86697000D01*
X-387350000Y-86697000D01*
X-387221036Y-86671347D01*
X-387111705Y-86598295D01*
X-384670410Y-84157000D01*
X-381000000Y-84157000D01*
X-380871036Y-84131347D01*
X-380761705Y-84058295D01*
X-379491705Y-82788295D01*
X-379418653Y-82678964D01*
X-379393000Y-82550000D01*
X-379393000Y-78740000D01*
X-379418653Y-78611036D01*
X-379491705Y-78501705D01*
X-380761705Y-77231705D01*
X-380871036Y-77158653D01*
X-381000000Y-77133000D01*
X-383400410Y-77133000D01*
X-384473000Y-76060410D01*
X-384473000Y-74496314D01*
X-382002000Y-74496314D01*
X-382002000Y-75363687D01*
X-381943862Y-75655961D01*
X-381722401Y-75987402D01*
X-381390960Y-76208863D01*
X-381000000Y-76286630D01*
X-380609039Y-76208863D01*
X-380277598Y-75987402D01*
X-380056137Y-75655961D01*
X-379998000Y-75363686D01*
X-379998000Y-74496314D01*
X-379462000Y-74496314D01*
X-379462000Y-75363687D01*
X-379403862Y-75655961D01*
X-379182401Y-75987402D01*
X-378850960Y-76208863D01*
X-378460000Y-76286630D01*
X-378069039Y-76208863D01*
X-377737598Y-75987402D01*
X-377516137Y-75655961D01*
X-377458000Y-75363686D01*
X-377458000Y-74496313D01*
X-377516137Y-74204039D01*
X-377737598Y-73872598D01*
X-378069040Y-73651137D01*
X-378460000Y-73573370D01*
X-378850961Y-73651137D01*
X-379182402Y-73872598D01*
X-379403863Y-74204040D01*
X-379462000Y-74496314D01*
X-379998000Y-74496314D01*
X-379998000Y-74496313D01*
X-380056137Y-74204039D01*
X-380277598Y-73872598D01*
X-380609040Y-73651137D01*
X-381000000Y-73573370D01*
X-381390961Y-73651137D01*
X-381722402Y-73872598D01*
X-381943863Y-74204040D01*
X-382002000Y-74496314D01*
X-384473000Y-74496314D01*
X-384473000Y-73660000D01*
X-384498653Y-73531036D01*
X-384571705Y-73421705D01*
X-385766411Y-72226999D01*
X-377371367Y-72226999D01*
X-375112000Y-74486367D01*
X-375111999Y-76473632D01*
X-375375961Y-76526137D01*
X-375707402Y-76747598D01*
X-375928863Y-77079039D01*
X-376006630Y-77470000D01*
X-375928863Y-77860961D01*
X-375707402Y-78192402D01*
X-375375961Y-78413863D01*
X-375111999Y-78466368D01*
X-375111999Y-78548633D01*
X-375388445Y-78825079D01*
X-375529039Y-78731137D01*
X-375920000Y-78653370D01*
X-376310960Y-78731137D01*
X-376642401Y-78952598D01*
X-376863862Y-79284039D01*
X-376922000Y-79576313D01*
X-376922000Y-80443686D01*
X-376863863Y-80735960D01*
X-376642402Y-81067402D01*
X-376310961Y-81288863D01*
X-375920000Y-81366630D01*
X-375529040Y-81288863D01*
X-375197598Y-81067402D01*
X-374976137Y-80735961D01*
X-374918000Y-80443687D01*
X-374918000Y-79661366D01*
X-374355492Y-79098858D01*
X-374316917Y-79073083D01*
X-374214806Y-78920263D01*
X-374188000Y-78785502D01*
X-374188000Y-78785498D01*
X-374178950Y-78740001D01*
X-374188000Y-78694504D01*
X-374188000Y-78466368D01*
X-373924039Y-78413863D01*
X-373752094Y-78298973D01*
X-373752094Y-89925570D01*
X-373755034Y-90042602D01*
X-373763396Y-90153278D01*
X-373777151Y-90262155D01*
X-373796153Y-90369132D01*
X-373820268Y-90474136D01*
X-373849363Y-90577051D01*
X-373883306Y-90677770D01*
X-373921961Y-90776162D01*
X-373965216Y-90872139D01*
X-374012916Y-90965528D01*
X-374064957Y-91056245D01*
X-374121199Y-91144138D01*
X-374181492Y-91229048D01*
X-374245735Y-91310881D01*
X-374313761Y-91389463D01*
X-374385442Y-91464662D01*
X-374460658Y-91536360D01*
X-374539245Y-91604391D01*
X-374621066Y-91668623D01*
X-374705985Y-91728922D01*
X-374793880Y-91785164D01*
X-374884584Y-91837198D01*
X-374977999Y-91884912D01*
X-375073954Y-91928156D01*
X-375172345Y-91966812D01*
X-375273060Y-92000753D01*
X-375375982Y-92029851D01*
X-375480973Y-92053963D01*
X-375587967Y-92072969D01*
X-375696841Y-92086723D01*
X-375807517Y-92095085D01*
X-375924549Y-92098025D01*
X-396907198Y-92098025D01*
X-396908064Y-92092595D01*
X-396917870Y-92066105D01*
X-396926476Y-92039189D01*
X-396930572Y-92031794D01*
X-396935855Y-92017523D01*
X-396937551Y-92009286D01*
X-396948554Y-91983218D01*
X-396958378Y-91956681D01*
X-396962780Y-91949516D01*
X-396968520Y-91935917D01*
X-396970573Y-91927800D01*
X-396982743Y-91902221D01*
X-396993762Y-91876116D01*
X-396998462Y-91869183D01*
X-397004627Y-91856225D01*
X-397007028Y-91848244D01*
X-397020344Y-91823192D01*
X-397032533Y-91797573D01*
X-397037513Y-91790890D01*
X-397044077Y-91778541D01*
X-397046816Y-91770710D01*
X-397061248Y-91746236D01*
X-397074581Y-91721152D01*
X-397079828Y-91714728D01*
X-397086771Y-91702954D01*
X-397089841Y-91695280D01*
X-397105359Y-91671433D01*
X-397119801Y-91646942D01*
X-397125304Y-91640782D01*
X-397132608Y-91629559D01*
X-397135995Y-91622062D01*
X-397152569Y-91598882D01*
X-397168096Y-91575022D01*
X-397173836Y-91569140D01*
X-397181492Y-91558433D01*
X-397185190Y-91551120D01*
X-397202761Y-91528688D01*
X-397219349Y-91505490D01*
X-397225330Y-91499877D01*
X-397233322Y-91489674D01*
X-397237323Y-91482550D01*
X-397255881Y-91460875D01*
X-397273475Y-91438414D01*
X-397279671Y-91433089D01*
X-397287999Y-91423362D01*
X-397292297Y-91416433D01*
X-397311799Y-91395564D01*
X-397330363Y-91373882D01*
X-397336768Y-91368845D01*
X-397345436Y-91359569D01*
X-397350018Y-91352852D01*
X-397370407Y-91332848D01*
X-397389919Y-91311969D01*
X-397396526Y-91307223D01*
X-397405528Y-91298392D01*
X-397410395Y-91291881D01*
X-397431649Y-91272765D01*
X-397452042Y-91252757D01*
X-397458840Y-91248308D01*
X-397468193Y-91239896D01*
X-397473335Y-91233605D01*
X-397495397Y-91215427D01*
X-397516642Y-91196319D01*
X-397523624Y-91192170D01*
X-397533329Y-91184174D01*
X-397538740Y-91178111D01*
X-397561569Y-91160907D01*
X-397583621Y-91142737D01*
X-397590778Y-91138894D01*
X-397600854Y-91131300D01*
X-397606530Y-91125470D01*
X-397630070Y-91109282D01*
X-397652882Y-91092090D01*
X-397660210Y-91088555D01*
X-397670671Y-91081361D01*
X-397676604Y-91075775D01*
X-397700810Y-91060635D01*
X-397724341Y-91044453D01*
X-397731830Y-91041233D01*
X-397742685Y-91034444D01*
X-397748871Y-91029108D01*
X-397773704Y-91015042D01*
X-397797891Y-90999914D01*
X-397805527Y-90997017D01*
X-397816804Y-90990630D01*
X-397823241Y-90985551D01*
X-397848642Y-90972596D01*
X-397873442Y-90958549D01*
X-397881224Y-90955979D01*
X-397892946Y-90950000D01*
X-397899622Y-90945193D01*
X-397925536Y-90933379D01*
X-397950902Y-90920442D01*
X-397958818Y-90918206D01*
X-397971005Y-90912650D01*
X-397977916Y-90908122D01*
X-398004299Y-90897472D01*
X-398030173Y-90885676D01*
X-398038211Y-90883782D01*
X-398050891Y-90878663D01*
X-398058022Y-90874430D01*
X-398084797Y-90864976D01*
X-398111153Y-90854337D01*
X-398119308Y-90852791D01*
X-398132494Y-90848136D01*
X-398139844Y-90844203D01*
X-398166995Y-90835954D01*
X-398193740Y-90826511D01*
X-398201987Y-90825323D01*
X-398215726Y-90821149D01*
X-398223274Y-90817534D01*
X-398250709Y-90810520D01*
X-398277832Y-90802280D01*
X-398286168Y-90801455D01*
X-398300464Y-90797801D01*
X-398308205Y-90794512D01*
X-398335901Y-90788742D01*
X-398363316Y-90781733D01*
X-398371715Y-90781280D01*
X-398386616Y-90778175D01*
X-398394536Y-90775224D01*
X-398422424Y-90770714D01*
X-398450086Y-90764951D01*
X-398458539Y-90764875D01*
X-398474061Y-90762364D01*
X-398482134Y-90759766D01*
X-398510164Y-90756527D01*
X-398538033Y-90752020D01*
X-398546512Y-90752326D01*
X-398562677Y-90750458D01*
X-398570893Y-90748219D01*
X-398599024Y-90746257D01*
X-398627023Y-90743021D01*
X-398635507Y-90743712D01*
X-398652350Y-90742537D01*
X-398660678Y-90740671D01*
X-398688851Y-90739992D01*
X-398716945Y-90738032D01*
X-398725406Y-90739110D01*
X-398743381Y-90738676D01*
X-398752226Y-90737135D01*
X-398779935Y-90737795D01*
X-398807662Y-90737126D01*
X-398816512Y-90738666D01*
X-398834502Y-90739094D01*
X-398842967Y-90738013D01*
X-398871060Y-90739964D01*
X-398899231Y-90740635D01*
X-398907564Y-90742500D01*
X-398924423Y-90743671D01*
X-398932909Y-90742977D01*
X-398960914Y-90746205D01*
X-398989040Y-90748159D01*
X-398997256Y-90750395D01*
X-399013445Y-90752261D01*
X-399021929Y-90751953D01*
X-399049795Y-90756451D01*
X-399077818Y-90759682D01*
X-399085895Y-90762279D01*
X-399101446Y-90764790D01*
X-399109891Y-90764864D01*
X-399137544Y-90770617D01*
X-399165448Y-90775122D01*
X-399173368Y-90778071D01*
X-399188281Y-90781173D01*
X-399196687Y-90781625D01*
X-399224109Y-90788628D01*
X-399251796Y-90794388D01*
X-399259538Y-90797675D01*
X-399273865Y-90801333D01*
X-399282193Y-90802155D01*
X-399309290Y-90810380D01*
X-399336754Y-90817393D01*
X-399344310Y-90821009D01*
X-399358060Y-90825183D01*
X-399366316Y-90826370D01*
X-399393069Y-90835809D01*
X-399420207Y-90844046D01*
X-399427560Y-90847978D01*
X-399440773Y-90852640D01*
X-399448926Y-90854183D01*
X-399475276Y-90864813D01*
X-399502061Y-90874263D01*
X-399509194Y-90878496D01*
X-399521891Y-90883618D01*
X-399529930Y-90885510D01*
X-399555802Y-90897298D01*
X-399582190Y-90907943D01*
X-399589104Y-90912471D01*
X-399601306Y-90918030D01*
X-399609221Y-90920264D01*
X-399634586Y-90933193D01*
X-399660508Y-90945004D01*
X-399667187Y-90949811D01*
X-399678923Y-90955793D01*
X-399686714Y-90958365D01*
X-399711526Y-90972413D01*
X-399736911Y-90985352D01*
X-399743349Y-90990429D01*
X-399754649Y-90996827D01*
X-399762286Y-90999722D01*
X-399786478Y-91014847D01*
X-399811313Y-91028907D01*
X-399817500Y-91034242D01*
X-399828377Y-91041041D01*
X-399835862Y-91044258D01*
X-399859376Y-91060422D01*
X-399883601Y-91075567D01*
X-399889541Y-91081157D01*
X-399900011Y-91088355D01*
X-399907347Y-91091892D01*
X-399930171Y-91109087D01*
X-399953700Y-91125261D01*
X-399959378Y-91131090D01*
X-399969470Y-91138694D01*
X-399976628Y-91142536D01*
X-399998689Y-91160706D01*
X-400021514Y-91177902D01*
X-400026924Y-91183962D01*
X-400036644Y-91191968D01*
X-400043633Y-91196119D01*
X-400064891Y-91215233D01*
X-400086943Y-91233396D01*
X-400092085Y-91239685D01*
X-400101456Y-91248110D01*
X-400108253Y-91252557D01*
X-400128650Y-91272562D01*
X-400149905Y-91291673D01*
X-400154772Y-91298181D01*
X-400163797Y-91307033D01*
X-400170404Y-91311777D01*
X-400189896Y-91332629D01*
X-400210304Y-91352645D01*
X-400214895Y-91359373D01*
X-400223569Y-91368653D01*
X-400229980Y-91373693D01*
X-400248560Y-91395388D01*
X-400268051Y-91416240D01*
X-400272347Y-91423165D01*
X-400280691Y-91432908D01*
X-400286889Y-91438233D01*
X-400304486Y-91460692D01*
X-400323044Y-91482362D01*
X-400327046Y-91489486D01*
X-400335055Y-91499708D01*
X-400341032Y-91505316D01*
X-400357611Y-91528496D01*
X-400375196Y-91550940D01*
X-400378897Y-91558257D01*
X-400386558Y-91568969D01*
X-400392304Y-91574855D01*
X-400407840Y-91598724D01*
X-400424408Y-91621889D01*
X-400427796Y-91629384D01*
X-400435111Y-91640624D01*
X-400440617Y-91646785D01*
X-400455061Y-91671274D01*
X-400470580Y-91695117D01*
X-400473651Y-91702793D01*
X-400480607Y-91714585D01*
X-400485858Y-91721013D01*
X-400499194Y-91746098D01*
X-400513622Y-91770560D01*
X-400516362Y-91778392D01*
X-400522936Y-91790759D01*
X-400527918Y-91797442D01*
X-400540112Y-91823066D01*
X-400553427Y-91848112D01*
X-400555828Y-91856091D01*
X-400562006Y-91869073D01*
X-400566705Y-91876004D01*
X-400577718Y-91902090D01*
X-400589895Y-91927679D01*
X-400591951Y-91935804D01*
X-400597696Y-91949413D01*
X-400602102Y-91956584D01*
X-400611931Y-91983132D01*
X-400622930Y-92009185D01*
X-400624626Y-92017420D01*
X-400629918Y-92031712D01*
X-400634015Y-92039109D01*
X-400642622Y-92066025D01*
X-400652428Y-92092511D01*
X-400653308Y-92098025D01*
X-447707197Y-92098025D01*
X-447708063Y-92092599D01*
X-447717872Y-92066102D01*
X-447726478Y-92039185D01*
X-447730571Y-92031795D01*
X-447735854Y-92017525D01*
X-447737550Y-92009286D01*
X-447748552Y-91983221D01*
X-447758375Y-91956685D01*
X-447762778Y-91949517D01*
X-447768519Y-91935917D01*
X-447770572Y-91927800D01*
X-447782742Y-91902221D01*
X-447793761Y-91876116D01*
X-447798461Y-91869183D01*
X-447804627Y-91856223D01*
X-447807029Y-91848239D01*
X-447820346Y-91823185D01*
X-447832532Y-91797573D01*
X-447837512Y-91790890D01*
X-447844079Y-91778537D01*
X-447846816Y-91770710D01*
X-447861244Y-91746243D01*
X-447874583Y-91721148D01*
X-447879831Y-91714723D01*
X-447886771Y-91702954D01*
X-447889841Y-91695280D01*
X-447905359Y-91671433D01*
X-447919801Y-91646942D01*
X-447925304Y-91640782D01*
X-447932608Y-91629559D01*
X-447935995Y-91622062D01*
X-447952569Y-91598882D01*
X-447968096Y-91575022D01*
X-447973836Y-91569140D01*
X-447981492Y-91558433D01*
X-447985190Y-91551120D01*
X-448002761Y-91528688D01*
X-448019349Y-91505490D01*
X-448025330Y-91499877D01*
X-448033322Y-91489674D01*
X-448037323Y-91482550D01*
X-448055881Y-91460875D01*
X-448073475Y-91438414D01*
X-448079671Y-91433089D01*
X-448087999Y-91423362D01*
X-448092297Y-91416433D01*
X-448111799Y-91395564D01*
X-448130363Y-91373882D01*
X-448136768Y-91368845D01*
X-448145436Y-91359569D01*
X-448150018Y-91352852D01*
X-448170407Y-91332848D01*
X-448189919Y-91311969D01*
X-448196526Y-91307223D01*
X-448205525Y-91298394D01*
X-448210392Y-91291884D01*
X-448231649Y-91272764D01*
X-448252042Y-91252757D01*
X-448258838Y-91248309D01*
X-448268192Y-91239896D01*
X-448273336Y-91233603D01*
X-448295392Y-91215431D01*
X-448316638Y-91196321D01*
X-448323625Y-91192169D01*
X-448333330Y-91184173D01*
X-448338740Y-91178111D01*
X-448361571Y-91160905D01*
X-448383624Y-91142735D01*
X-448390779Y-91138893D01*
X-448400854Y-91131300D01*
X-448406528Y-91125472D01*
X-448430064Y-91109286D01*
X-448452882Y-91092090D01*
X-448460210Y-91088555D01*
X-448470671Y-91081361D01*
X-448476605Y-91075774D01*
X-448500809Y-91060635D01*
X-448524337Y-91044455D01*
X-448531826Y-91041235D01*
X-448542687Y-91034442D01*
X-448548871Y-91029108D01*
X-448573692Y-91015049D01*
X-448597893Y-90999912D01*
X-448605533Y-90997014D01*
X-448616804Y-90990630D01*
X-448623241Y-90985551D01*
X-448648642Y-90972596D01*
X-448673442Y-90958549D01*
X-448681224Y-90955979D01*
X-448692945Y-90950001D01*
X-448699620Y-90945194D01*
X-448725536Y-90933379D01*
X-448750902Y-90920442D01*
X-448758817Y-90918206D01*
X-448771004Y-90912651D01*
X-448777917Y-90908121D01*
X-448804300Y-90897471D01*
X-448830170Y-90885677D01*
X-448838210Y-90883783D01*
X-448850891Y-90878664D01*
X-448858022Y-90874430D01*
X-448884808Y-90864972D01*
X-448911155Y-90854337D01*
X-448919306Y-90852792D01*
X-448932492Y-90848136D01*
X-448939843Y-90844203D01*
X-448966998Y-90835953D01*
X-448993740Y-90826511D01*
X-449001987Y-90825323D01*
X-449015720Y-90821151D01*
X-449023274Y-90817533D01*
X-449050730Y-90810514D01*
X-449077830Y-90802281D01*
X-449086161Y-90801457D01*
X-449100464Y-90797800D01*
X-449108204Y-90794512D01*
X-449135902Y-90788741D01*
X-449163317Y-90781733D01*
X-449171716Y-90781280D01*
X-449186612Y-90778176D01*
X-449194535Y-90775224D01*
X-449222436Y-90770712D01*
X-449250084Y-90764952D01*
X-449258532Y-90764875D01*
X-449274060Y-90762364D01*
X-449282133Y-90759766D01*
X-449310163Y-90756527D01*
X-449338032Y-90752020D01*
X-449346511Y-90752326D01*
X-449362676Y-90750458D01*
X-449370892Y-90748219D01*
X-449399023Y-90746257D01*
X-449427022Y-90743021D01*
X-449435506Y-90743712D01*
X-449452349Y-90742537D01*
X-449460677Y-90740671D01*
X-449488850Y-90739992D01*
X-449516944Y-90738032D01*
X-449525405Y-90739110D01*
X-449543380Y-90738676D01*
X-449552225Y-90737135D01*
X-449579934Y-90737795D01*
X-449607661Y-90737126D01*
X-449616511Y-90738666D01*
X-449634501Y-90739094D01*
X-449642966Y-90738013D01*
X-449671059Y-90739964D01*
X-449699230Y-90740635D01*
X-449707563Y-90742500D01*
X-449724422Y-90743671D01*
X-449732907Y-90742977D01*
X-449760912Y-90746205D01*
X-449789039Y-90748159D01*
X-449797255Y-90750395D01*
X-449813445Y-90752261D01*
X-449821929Y-90751953D01*
X-449849796Y-90756452D01*
X-449877818Y-90759682D01*
X-449885896Y-90762279D01*
X-449901446Y-90764790D01*
X-449909892Y-90764864D01*
X-449937547Y-90770618D01*
X-449965448Y-90775122D01*
X-449973368Y-90778070D01*
X-449988282Y-90781174D01*
X-449996686Y-90781625D01*
X-450024103Y-90788626D01*
X-450051796Y-90794388D01*
X-450059539Y-90797675D01*
X-450073860Y-90801332D01*
X-450082197Y-90802155D01*
X-450109309Y-90810385D01*
X-450136753Y-90817393D01*
X-450144308Y-90821009D01*
X-450158063Y-90825184D01*
X-450166310Y-90826370D01*
X-450193058Y-90835807D01*
X-450220211Y-90844049D01*
X-450227561Y-90847979D01*
X-450240768Y-90852639D01*
X-450248925Y-90854183D01*
X-450275278Y-90864814D01*
X-450302055Y-90874261D01*
X-450309190Y-90878494D01*
X-450321887Y-90883617D01*
X-450329927Y-90885509D01*
X-450355805Y-90897299D01*
X-450382189Y-90907943D01*
X-450389102Y-90912470D01*
X-450401310Y-90918032D01*
X-450409228Y-90920267D01*
X-450434585Y-90933193D01*
X-450460506Y-90945003D01*
X-450467188Y-90949813D01*
X-450478923Y-90955794D01*
X-450486708Y-90958364D01*
X-450511522Y-90972412D01*
X-450536916Y-90985357D01*
X-450543351Y-90990432D01*
X-450554645Y-90996826D01*
X-450562289Y-90999724D01*
X-450586486Y-91014852D01*
X-450611308Y-91028905D01*
X-450617497Y-91034241D01*
X-450628376Y-91041042D01*
X-450635861Y-91044259D01*
X-450659385Y-91060429D01*
X-450683603Y-91075571D01*
X-450689539Y-91081158D01*
X-450700012Y-91088357D01*
X-450707341Y-91091891D01*
X-450730154Y-91109077D01*
X-450753699Y-91125262D01*
X-450759377Y-91131092D01*
X-450769469Y-91138694D01*
X-450776631Y-91142539D01*
X-450798686Y-91160705D01*
X-450821510Y-91177899D01*
X-450826924Y-91183963D01*
X-450836645Y-91191970D01*
X-450843632Y-91196120D01*
X-450864892Y-91215236D01*
X-450886945Y-91233400D01*
X-450892086Y-91239687D01*
X-450901455Y-91248111D01*
X-450908252Y-91252558D01*
X-450928649Y-91272563D01*
X-450949904Y-91291674D01*
X-450954771Y-91298182D01*
X-450963791Y-91307028D01*
X-450970401Y-91311775D01*
X-450989904Y-91332640D01*
X-451010303Y-91352646D01*
X-451014892Y-91359371D01*
X-451023567Y-91368652D01*
X-451029979Y-91373693D01*
X-451048561Y-91395391D01*
X-451068047Y-91416237D01*
X-451072343Y-91423161D01*
X-451080690Y-91432908D01*
X-451086888Y-91438233D01*
X-451104485Y-91460692D01*
X-451123043Y-91482362D01*
X-451127045Y-91489486D01*
X-451135054Y-91499708D01*
X-451141031Y-91505316D01*
X-451157610Y-91528496D01*
X-451175195Y-91550940D01*
X-451178896Y-91558257D01*
X-451186560Y-91568972D01*
X-451192305Y-91574858D01*
X-451207836Y-91598720D01*
X-451224407Y-91621889D01*
X-451227796Y-91629387D01*
X-451235112Y-91640627D01*
X-451240618Y-91646789D01*
X-451255067Y-91671287D01*
X-451270580Y-91695121D01*
X-451273650Y-91702793D01*
X-451280603Y-91714582D01*
X-451285853Y-91721008D01*
X-451299191Y-91746097D01*
X-451313621Y-91770562D01*
X-451316360Y-91778392D01*
X-451322938Y-91790763D01*
X-451327919Y-91797447D01*
X-451340107Y-91823058D01*
X-451353424Y-91848108D01*
X-451355826Y-91856092D01*
X-451362003Y-91869071D01*
X-451366701Y-91876000D01*
X-451377718Y-91902096D01*
X-451389895Y-91927684D01*
X-451391949Y-91935803D01*
X-451397696Y-91949416D01*
X-451402104Y-91956590D01*
X-451411928Y-91983126D01*
X-451422928Y-92009180D01*
X-451424626Y-92017422D01*
X-451429917Y-92031713D01*
X-451434010Y-92039103D01*
X-451442617Y-92066019D01*
X-451452428Y-92092518D01*
X-451453307Y-92098025D01*
X-472435452Y-92098025D01*
X-472552484Y-92095085D01*
X-472663160Y-92086723D01*
X-472772037Y-92072968D01*
X-472879014Y-92053966D01*
X-472984018Y-92029851D01*
X-473086933Y-92000756D01*
X-473187652Y-91966813D01*
X-473286042Y-91928159D01*
X-473382018Y-91884906D01*
X-473475406Y-91837205D01*
X-473566127Y-91785162D01*
X-473654018Y-91728921D01*
X-473738937Y-91668622D01*
X-473820761Y-91604387D01*
X-473899351Y-91536353D01*
X-473974548Y-91464674D01*
X-474046243Y-91389461D01*
X-474114268Y-91310880D01*
X-474178507Y-91229051D01*
X-474238804Y-91144134D01*
X-474295050Y-91056233D01*
X-474347086Y-90965526D01*
X-474394785Y-90872139D01*
X-474438033Y-90776177D01*
X-474476696Y-90677771D01*
X-474510638Y-90577053D01*
X-474539732Y-90474139D01*
X-474563845Y-90369146D01*
X-474582851Y-90262152D01*
X-474596605Y-90153273D01*
X-474604968Y-90042612D01*
X-474607907Y-89925581D01*
X-474607907Y-65014419D01*
X-474604968Y-64897388D01*
X-474596605Y-64786727D01*
X-474582851Y-64677848D01*
X-474563845Y-64570854D01*
X-474539732Y-64465861D01*
X-474510638Y-64362947D01*
X-474476696Y-64262229D01*
X-474438033Y-64163823D01*
X-474394785Y-64067861D01*
X-474347086Y-63974474D01*
X-474295050Y-63883767D01*
X-474238804Y-63795866D01*
X-474178507Y-63710949D01*
X-474114268Y-63629120D01*
X-474046243Y-63550539D01*
X-473974548Y-63475326D01*
X-473899351Y-63403647D01*
X-473820761Y-63335613D01*
X-473738937Y-63271378D01*
X-473654018Y-63211079D01*
X-473566127Y-63154838D01*
X-473475406Y-63102795D01*
X-473382018Y-63055094D01*
X-473286042Y-63011841D01*
X-473187652Y-62973187D01*
X-473086933Y-62939244D01*
X-472984018Y-62910149D01*
X-472879014Y-62886034D01*
X-472772037Y-62867032D01*
X-472663160Y-62853277D01*
X-472552484Y-62844915D01*
X-472435452Y-62841975D01*
X-451452804Y-62841975D01*
X-451451938Y-62847401D01*
X-451451938Y-62847401D01*
G37*
X-451451938Y-62847401D02*
X-451442132Y-62873892D01*
X-451433523Y-62900816D01*
X-451429428Y-62908208D01*
X-451424148Y-62922473D01*
X-451422451Y-62930715D01*
X-451411444Y-62956791D01*
X-451401626Y-62983314D01*
X-451397225Y-62990479D01*
X-451391482Y-63004084D01*
X-451389429Y-63012200D01*
X-451377260Y-63037777D01*
X-451366240Y-63063884D01*
X-451361540Y-63070817D01*
X-451355374Y-63083777D01*
X-451352972Y-63091761D01*
X-451339656Y-63116813D01*
X-451327469Y-63142427D01*
X-451322488Y-63149111D01*
X-451315923Y-63161462D01*
X-451313185Y-63169290D01*
X-451298753Y-63193764D01*
X-451285418Y-63218851D01*
X-451280172Y-63225273D01*
X-451273230Y-63237045D01*
X-451270161Y-63244718D01*
X-451254642Y-63268567D01*
X-451240200Y-63293058D01*
X-451234698Y-63299216D01*
X-451227392Y-63310445D01*
X-451224004Y-63317942D01*
X-451207439Y-63341108D01*
X-451191907Y-63364977D01*
X-451186161Y-63370865D01*
X-451178511Y-63381562D01*
X-451174811Y-63388881D01*
X-451157219Y-63411339D01*
X-451140649Y-63434512D01*
X-451134677Y-63440117D01*
X-451126681Y-63450324D01*
X-451122681Y-63457447D01*
X-451104121Y-63479125D01*
X-451086526Y-63501587D01*
X-451080331Y-63506911D01*
X-451072000Y-63516642D01*
X-451067704Y-63523568D01*
X-451048211Y-63544428D01*
X-451029641Y-63566117D01*
X-451023234Y-63571156D01*
X-451014566Y-63580431D01*
X-451009981Y-63587153D01*
X-450989586Y-63607161D01*
X-450970082Y-63628033D01*
X-450963474Y-63632779D01*
X-450954469Y-63641614D01*
X-450949606Y-63648119D01*
X-450928360Y-63667228D01*
X-450907956Y-63687246D01*
X-450901157Y-63691695D01*
X-450891810Y-63700103D01*
X-450886669Y-63706392D01*
X-450864606Y-63724571D01*
X-450843359Y-63743681D01*
X-450836378Y-63747829D01*
X-450826669Y-63755829D01*
X-450821257Y-63761893D01*
X-450798435Y-63779092D01*
X-450776384Y-63797261D01*
X-450769224Y-63801106D01*
X-450759143Y-63808703D01*
X-450753470Y-63814530D01*
X-450729940Y-63830712D01*
X-450707116Y-63847912D01*
X-450699787Y-63851448D01*
X-450689331Y-63858638D01*
X-450683397Y-63864225D01*
X-450659186Y-63879369D01*
X-450635660Y-63895547D01*
X-450628174Y-63898766D01*
X-450617316Y-63905557D01*
X-450611134Y-63910889D01*
X-450586315Y-63924948D01*
X-450562110Y-63940087D01*
X-450554471Y-63942985D01*
X-450543194Y-63949373D01*
X-450536756Y-63954452D01*
X-450511371Y-63967399D01*
X-450486564Y-63981450D01*
X-450478774Y-63984023D01*
X-450467054Y-63990000D01*
X-450460379Y-63994807D01*
X-450434461Y-64006623D01*
X-450409094Y-64019560D01*
X-450401180Y-64021795D01*
X-450388996Y-64027350D01*
X-450382085Y-64031878D01*
X-450355702Y-64042528D01*
X-450329828Y-64054324D01*
X-450321790Y-64056218D01*
X-450309110Y-64061337D01*
X-450301979Y-64065570D01*
X-450275204Y-64075024D01*
X-450248848Y-64085663D01*
X-450240693Y-64087209D01*
X-450227512Y-64091863D01*
X-450220157Y-64095798D01*
X-450192991Y-64104051D01*
X-450166261Y-64113489D01*
X-450158017Y-64114677D01*
X-450144276Y-64118851D01*
X-450136728Y-64122466D01*
X-450109285Y-64129482D01*
X-450082168Y-64137720D01*
X-450073835Y-64138544D01*
X-450059535Y-64142200D01*
X-450051796Y-64145488D01*
X-450024106Y-64151257D01*
X-449996686Y-64158267D01*
X-449988285Y-64158720D01*
X-449973387Y-64161825D01*
X-449965466Y-64164776D01*
X-449937573Y-64169286D01*
X-449909915Y-64175049D01*
X-449901464Y-64175125D01*
X-449885936Y-64177636D01*
X-449877866Y-64180234D01*
X-449849845Y-64183472D01*
X-449821970Y-64187980D01*
X-449813489Y-64187674D01*
X-449797324Y-64189542D01*
X-449789108Y-64191781D01*
X-449760978Y-64193743D01*
X-449732979Y-64196979D01*
X-449724494Y-64196288D01*
X-449707652Y-64197462D01*
X-449699324Y-64199329D01*
X-449671150Y-64200008D01*
X-449643057Y-64201968D01*
X-449634596Y-64200890D01*
X-449616620Y-64201324D01*
X-449607775Y-64202865D01*
X-449580066Y-64202205D01*
X-449552339Y-64202874D01*
X-449543489Y-64201334D01*
X-449525499Y-64200906D01*
X-449517033Y-64201987D01*
X-449488940Y-64200036D01*
X-449460770Y-64199365D01*
X-449452437Y-64197500D01*
X-449435579Y-64196329D01*
X-449427094Y-64197023D01*
X-449399090Y-64193795D01*
X-449370962Y-64191841D01*
X-449362746Y-64189605D01*
X-449346557Y-64187739D01*
X-449338073Y-64188047D01*
X-449310208Y-64183549D01*
X-449282183Y-64180318D01*
X-449274105Y-64177720D01*
X-449258562Y-64175211D01*
X-449250111Y-64175137D01*
X-449222444Y-64169381D01*
X-449194553Y-64164878D01*
X-449186635Y-64161930D01*
X-449171718Y-64158826D01*
X-449163315Y-64158375D01*
X-449135896Y-64151373D01*
X-449108206Y-64145612D01*
X-449100464Y-64142325D01*
X-449086138Y-64138667D01*
X-449077808Y-64137845D01*
X-449050710Y-64129620D01*
X-449023247Y-64122607D01*
X-449015691Y-64118991D01*
X-449001943Y-64114818D01*
X-448993683Y-64113630D01*
X-448966925Y-64104189D01*
X-448939794Y-64095954D01*
X-448932440Y-64092022D01*
X-448919226Y-64087360D01*
X-448911078Y-64085817D01*
X-448884735Y-64075190D01*
X-448857940Y-64065736D01*
X-448850806Y-64061503D01*
X-448838116Y-64056384D01*
X-448830071Y-64054490D01*
X-448804184Y-64042695D01*
X-448777813Y-64032057D01*
X-448770901Y-64027531D01*
X-448758697Y-64021970D01*
X-448750780Y-64019736D01*
X-448725407Y-64006803D01*
X-448699492Y-63994995D01*
X-448692816Y-63990190D01*
X-448681076Y-63984206D01*
X-448673288Y-63981635D01*
X-448648483Y-63967592D01*
X-448623090Y-63954648D01*
X-448616651Y-63949570D01*
X-448605353Y-63943174D01*
X-448597715Y-63940278D01*
X-448573524Y-63925154D01*
X-448548688Y-63911093D01*
X-448542499Y-63905757D01*
X-448531629Y-63898961D01*
X-448524136Y-63895741D01*
X-448500603Y-63879563D01*
X-448476400Y-63864432D01*
X-448470464Y-63858845D01*
X-448459989Y-63851644D01*
X-448452659Y-63848110D01*
X-448429834Y-63830915D01*
X-448406300Y-63814737D01*
X-448400626Y-63808911D01*
X-448390533Y-63801308D01*
X-448383372Y-63797464D01*
X-448361315Y-63779297D01*
X-448338489Y-63762101D01*
X-448333076Y-63756038D01*
X-448323352Y-63748029D01*
X-448316369Y-63743881D01*
X-448295121Y-63724776D01*
X-448273058Y-63706604D01*
X-448267914Y-63700314D01*
X-448258547Y-63691891D01*
X-448251745Y-63687441D01*
X-448231347Y-63667434D01*
X-448210096Y-63648327D01*
X-448205227Y-63641816D01*
X-448196208Y-63632971D01*
X-448189597Y-63628223D01*
X-448170083Y-63607346D01*
X-448149696Y-63587351D01*
X-448145111Y-63580632D01*
X-448136433Y-63571348D01*
X-448130025Y-63566310D01*
X-448111445Y-63544615D01*
X-448091951Y-63523760D01*
X-448087656Y-63516837D01*
X-448079311Y-63507094D01*
X-448073112Y-63501767D01*
X-448055517Y-63479310D01*
X-448036959Y-63457641D01*
X-448032956Y-63450515D01*
X-448024946Y-63440292D01*
X-448018969Y-63434684D01*
X-448002390Y-63411504D01*
X-447984805Y-63389060D01*
X-447981104Y-63381743D01*
X-447973443Y-63371031D01*
X-447967697Y-63365145D01*
X-447952162Y-63341278D01*
X-447935593Y-63318111D01*
X-447932205Y-63310615D01*
X-447924890Y-63299376D01*
X-447919381Y-63293211D01*
X-447904933Y-63268715D01*
X-447889421Y-63244882D01*
X-447886350Y-63237206D01*
X-447879397Y-63225418D01*
X-447874147Y-63218992D01*
X-447860805Y-63193895D01*
X-447846378Y-63169435D01*
X-447843640Y-63161609D01*
X-447837066Y-63149244D01*
X-447832083Y-63142558D01*
X-447819888Y-63116931D01*
X-447806576Y-63091892D01*
X-447804175Y-63083913D01*
X-447797995Y-63070927D01*
X-447793296Y-63063996D01*
X-447782283Y-63037910D01*
X-447770106Y-63012321D01*
X-447768050Y-63004196D01*
X-447762303Y-62990582D01*
X-447757897Y-62983411D01*
X-447748070Y-62956869D01*
X-447737071Y-62930815D01*
X-447735374Y-62922578D01*
X-447730084Y-62908288D01*
X-447725989Y-62900896D01*
X-447717382Y-62873981D01*
X-447707572Y-62847484D01*
X-447706693Y-62841975D01*
X-400652804Y-62841975D01*
X-400651938Y-62847401D01*
X-400642132Y-62873892D01*
X-400633523Y-62900816D01*
X-400629428Y-62908208D01*
X-400624148Y-62922473D01*
X-400622451Y-62930715D01*
X-400611444Y-62956791D01*
X-400601626Y-62983314D01*
X-400597225Y-62990479D01*
X-400591482Y-63004084D01*
X-400589429Y-63012200D01*
X-400577260Y-63037777D01*
X-400566240Y-63063884D01*
X-400561540Y-63070817D01*
X-400555375Y-63083775D01*
X-400552974Y-63091756D01*
X-400539658Y-63116808D01*
X-400527469Y-63142427D01*
X-400522489Y-63149110D01*
X-400515925Y-63161459D01*
X-400513186Y-63169290D01*
X-400498754Y-63193764D01*
X-400485421Y-63218848D01*
X-400480174Y-63225272D01*
X-400473231Y-63237046D01*
X-400470161Y-63244720D01*
X-400454643Y-63268567D01*
X-400440201Y-63293058D01*
X-400434698Y-63299218D01*
X-400427391Y-63310446D01*
X-400424006Y-63317938D01*
X-400407443Y-63341102D01*
X-400391906Y-63364978D01*
X-400386162Y-63370864D01*
X-400378514Y-63381560D01*
X-400374812Y-63388881D01*
X-400357221Y-63411338D01*
X-400340652Y-63434510D01*
X-400334678Y-63440117D01*
X-400326677Y-63450331D01*
X-400322677Y-63457453D01*
X-400304129Y-63479117D01*
X-400286527Y-63501587D01*
X-400280326Y-63506916D01*
X-400272001Y-63516640D01*
X-400267706Y-63523564D01*
X-400248204Y-63544434D01*
X-400229635Y-63566121D01*
X-400223233Y-63571155D01*
X-400214569Y-63580427D01*
X-400209984Y-63587149D01*
X-400189592Y-63607155D01*
X-400170086Y-63628029D01*
X-400163477Y-63632776D01*
X-400154473Y-63641610D01*
X-400149607Y-63648119D01*
X-400128356Y-63667233D01*
X-400107960Y-63687243D01*
X-400101162Y-63691692D01*
X-400091809Y-63700104D01*
X-400086667Y-63706395D01*
X-400064605Y-63724573D01*
X-400043360Y-63743681D01*
X-400036378Y-63747830D01*
X-400026669Y-63755829D01*
X-400021261Y-63761889D01*
X-399998442Y-63779086D01*
X-399976381Y-63797263D01*
X-399969222Y-63801107D01*
X-399959146Y-63808701D01*
X-399953471Y-63814530D01*
X-399929938Y-63830713D01*
X-399907120Y-63847910D01*
X-399899790Y-63851446D01*
X-399889332Y-63858638D01*
X-399883398Y-63864225D01*
X-399859187Y-63879369D01*
X-399835661Y-63895547D01*
X-399828175Y-63898766D01*
X-399817315Y-63905558D01*
X-399811131Y-63910892D01*
X-399786312Y-63924950D01*
X-399762111Y-63940087D01*
X-399754470Y-63942986D01*
X-399743198Y-63949370D01*
X-399736761Y-63954449D01*
X-399711360Y-63967404D01*
X-399686560Y-63981451D01*
X-399678777Y-63984022D01*
X-399667056Y-63990000D01*
X-399660380Y-63994807D01*
X-399634466Y-64006621D01*
X-399609100Y-64019558D01*
X-399601184Y-64021794D01*
X-399588997Y-64027350D01*
X-399582086Y-64031878D01*
X-399555703Y-64042528D01*
X-399529829Y-64054324D01*
X-399521791Y-64056218D01*
X-399509111Y-64061337D01*
X-399501980Y-64065570D01*
X-399475205Y-64075024D01*
X-399448849Y-64085663D01*
X-399440694Y-64087209D01*
X-399427513Y-64091863D01*
X-399420158Y-64095798D01*
X-399392992Y-64104051D01*
X-399366262Y-64113489D01*
X-399358018Y-64114677D01*
X-399344277Y-64118851D01*
X-399336729Y-64122466D01*
X-399309286Y-64129482D01*
X-399282169Y-64137720D01*
X-399273836Y-64138544D01*
X-399259536Y-64142200D01*
X-399251797Y-64145488D01*
X-399224107Y-64151257D01*
X-399196687Y-64158267D01*
X-399188286Y-64158720D01*
X-399173388Y-64161825D01*
X-399165467Y-64164776D01*
X-399137574Y-64169286D01*
X-399109916Y-64175049D01*
X-399101465Y-64175125D01*
X-399085937Y-64177636D01*
X-399077867Y-64180234D01*
X-399049846Y-64183472D01*
X-399021971Y-64187980D01*
X-399013490Y-64187674D01*
X-398997325Y-64189542D01*
X-398989109Y-64191781D01*
X-398960979Y-64193743D01*
X-398932980Y-64196979D01*
X-398924495Y-64196288D01*
X-398907653Y-64197462D01*
X-398899325Y-64199329D01*
X-398871151Y-64200008D01*
X-398843058Y-64201968D01*
X-398834597Y-64200890D01*
X-398816621Y-64201324D01*
X-398807776Y-64202865D01*
X-398780067Y-64202205D01*
X-398752340Y-64202874D01*
X-398743490Y-64201334D01*
X-398725499Y-64200906D01*
X-398717034Y-64201987D01*
X-398688941Y-64200036D01*
X-398660771Y-64199365D01*
X-398652438Y-64197500D01*
X-398635579Y-64196329D01*
X-398627094Y-64197023D01*
X-398599089Y-64193795D01*
X-398570962Y-64191841D01*
X-398562746Y-64189605D01*
X-398546557Y-64187739D01*
X-398538074Y-64188047D01*
X-398510212Y-64183549D01*
X-398482183Y-64180318D01*
X-398474104Y-64177720D01*
X-398458563Y-64175211D01*
X-398450112Y-64175137D01*
X-398422445Y-64169381D01*
X-398394554Y-64164878D01*
X-398386636Y-64161930D01*
X-398371719Y-64158826D01*
X-398363316Y-64158375D01*
X-398335897Y-64151373D01*
X-398308207Y-64145612D01*
X-398300465Y-64142325D01*
X-398286139Y-64138667D01*
X-398277809Y-64137845D01*
X-398250711Y-64129620D01*
X-398223248Y-64122607D01*
X-398215692Y-64118991D01*
X-398201942Y-64114817D01*
X-398193686Y-64113630D01*
X-398166933Y-64104191D01*
X-398139795Y-64095954D01*
X-398132442Y-64092022D01*
X-398119229Y-64087360D01*
X-398111076Y-64085817D01*
X-398084726Y-64075187D01*
X-398057941Y-64065737D01*
X-398050807Y-64061504D01*
X-398038114Y-64056383D01*
X-398030074Y-64054491D01*
X-398004195Y-64042700D01*
X-397977812Y-64032057D01*
X-397970901Y-64027531D01*
X-397958694Y-64021969D01*
X-397950777Y-64019735D01*
X-397925416Y-64006807D01*
X-397899494Y-63994997D01*
X-397892813Y-63990188D01*
X-397881075Y-63984205D01*
X-397873289Y-63981635D01*
X-397848488Y-63967594D01*
X-397823089Y-63954647D01*
X-397816650Y-63949569D01*
X-397805355Y-63943174D01*
X-397797718Y-63940279D01*
X-397773526Y-63925155D01*
X-397748689Y-63911093D01*
X-397742501Y-63905758D01*
X-397731630Y-63898962D01*
X-397724136Y-63895741D01*
X-397700601Y-63879563D01*
X-397676403Y-63864434D01*
X-397670467Y-63858847D01*
X-397659989Y-63851644D01*
X-397652659Y-63848110D01*
X-397629834Y-63830915D01*
X-397606300Y-63814737D01*
X-397600626Y-63808911D01*
X-397590529Y-63801305D01*
X-397583370Y-63797462D01*
X-397561322Y-63779302D01*
X-397538489Y-63762101D01*
X-397533074Y-63756035D01*
X-397523354Y-63748029D01*
X-397516370Y-63743881D01*
X-397495120Y-63724774D01*
X-397473057Y-63706602D01*
X-397467914Y-63700312D01*
X-397458552Y-63691895D01*
X-397451749Y-63687444D01*
X-397431342Y-63667429D01*
X-397410097Y-63648327D01*
X-397405231Y-63641820D01*
X-397396208Y-63632970D01*
X-397389597Y-63628223D01*
X-397370090Y-63607354D01*
X-397349699Y-63587355D01*
X-397345112Y-63580633D01*
X-397336431Y-63571346D01*
X-397330022Y-63566307D01*
X-397311444Y-63544614D01*
X-397291951Y-63523760D01*
X-397287655Y-63516835D01*
X-397279311Y-63507093D01*
X-397273113Y-63501767D01*
X-397255516Y-63479308D01*
X-397236958Y-63457638D01*
X-397232956Y-63450514D01*
X-397224950Y-63440296D01*
X-397218973Y-63434688D01*
X-397202390Y-63411502D01*
X-397184806Y-63389060D01*
X-397181107Y-63381745D01*
X-397173442Y-63371029D01*
X-397167694Y-63365141D01*
X-397152160Y-63341274D01*
X-397135595Y-63318114D01*
X-397132206Y-63310616D01*
X-397124890Y-63299375D01*
X-397119384Y-63293214D01*
X-397104934Y-63268716D01*
X-397089420Y-63244879D01*
X-397086350Y-63237208D01*
X-397079393Y-63225412D01*
X-397074145Y-63218988D01*
X-397060816Y-63193916D01*
X-397046379Y-63169439D01*
X-397043638Y-63161603D01*
X-397037066Y-63149242D01*
X-397032084Y-63142558D01*
X-397019889Y-63116932D01*
X-397006575Y-63091888D01*
X-397004174Y-63083909D01*
X-396997996Y-63070927D01*
X-396993297Y-63063996D01*
X-396982284Y-63037910D01*
X-396970107Y-63012321D01*
X-396968051Y-63004196D01*
X-396962306Y-62990587D01*
X-396957900Y-62983416D01*
X-396948071Y-62956868D01*
X-396937072Y-62930815D01*
X-396935376Y-62922580D01*
X-396930085Y-62908288D01*
X-396925987Y-62900891D01*
X-396917380Y-62873974D01*
X-396907574Y-62847489D01*
X-396906694Y-62841975D01*
X-375924549Y-62841975D01*
X-375807517Y-62844915D01*
X-375696841Y-62853277D01*
X-375587967Y-62867031D01*
X-375480973Y-62886037D01*
X-375375982Y-62910149D01*
X-375273060Y-62939247D01*
X-375172345Y-62973188D01*
X-375073954Y-63011844D01*
X-374977999Y-63055088D01*
X-374884584Y-63102802D01*
X-374793880Y-63154836D01*
X-374705985Y-63211078D01*
X-374621066Y-63271377D01*
X-374539245Y-63335609D01*
X-374460658Y-63403640D01*
X-374385442Y-63475338D01*
X-374313761Y-63550537D01*
X-374245735Y-63629119D01*
X-374181492Y-63710952D01*
X-374121199Y-63795862D01*
X-374064957Y-63883755D01*
X-374012916Y-63974472D01*
X-373965216Y-64067861D01*
X-373921961Y-64163838D01*
X-373883306Y-64262230D01*
X-373849363Y-64362949D01*
X-373820268Y-64465864D01*
X-373796153Y-64570868D01*
X-373777151Y-64677845D01*
X-373763396Y-64786722D01*
X-373755034Y-64897398D01*
X-373752093Y-65014470D01*
X-373752093Y-71561027D01*
X-373924039Y-71446137D01*
X-374216313Y-71388000D01*
X-374998634Y-71388000D01*
X-375561142Y-70825492D01*
X-375586917Y-70786917D01*
X-375739737Y-70684806D01*
X-375874498Y-70658000D01*
X-375874503Y-70658000D01*
X-375920000Y-70648950D01*
X-375965497Y-70658000D01*
X-419816504Y-70658000D01*
X-419862001Y-70648950D01*
X-419907498Y-70658000D01*
X-419907502Y-70658000D01*
X-420042263Y-70684806D01*
X-420195083Y-70786917D01*
X-420220858Y-70825492D01*
X-420698365Y-71302999D01*
X-422039503Y-71302999D01*
X-422085000Y-71293949D01*
X-422130497Y-71302999D01*
X-444164502Y-71302999D01*
X-444209999Y-71293949D01*
X-444255496Y-71302999D01*
X-469229503Y-71302999D01*
X-469275000Y-71293949D01*
X-469320497Y-71302999D01*
X-469320501Y-71302999D01*
X-469455262Y-71329805D01*
X-469608082Y-71431916D01*
X-469633857Y-71470491D01*
X-471908445Y-73745079D01*
X-472049040Y-73651137D01*
X-472440000Y-73573370D01*
X-472830961Y-73651137D01*
X-473162402Y-73872598D01*
X-473383863Y-74204040D01*
X-473442000Y-74496314D01*
X-473442000Y-75363687D01*
X-473383862Y-75655961D01*
X-473162401Y-75987402D01*
X-472830960Y-76208863D01*
X-472440000Y-76286630D01*
X-472049039Y-76208863D01*
X-471717598Y-75987402D01*
X-471496137Y-75655961D01*
X-471438000Y-75363686D01*
X-471438000Y-74581366D01*
X-469083633Y-72226999D01*
X-467673589Y-72226999D01*
X-468868295Y-73421705D01*
X-468941347Y-73531036D01*
X-468967000Y-73660000D01*
X-468967000Y-76060410D01*
X-471408295Y-78501705D01*
X-471481347Y-78611036D01*
X-471507000Y-78740000D01*
X-471507000Y-85090000D01*
X-471481347Y-85218964D01*
X-471408295Y-85328295D01*
X-470138295Y-86598295D01*
X-470028964Y-86671347D01*
X-469900000Y-86697000D01*
X-463550000Y-86697000D01*
X-463421036Y-86671347D01*
X-463311705Y-86598295D01*
X-460870410Y-84157000D01*
X-457200000Y-84157000D01*
X-457071036Y-84131347D01*
X-456961705Y-84058295D01*
X-455691705Y-82788295D01*
X-455618653Y-82678964D01*
X-455593000Y-82550000D01*
X-455593000Y-78740000D01*
X-455618653Y-78611036D01*
X-455691705Y-78501705D01*
X-456961705Y-77231705D01*
X-457071036Y-77158653D01*
X-457200000Y-77133000D01*
X-459600410Y-77133000D01*
X-460673000Y-76060410D01*
X-460673000Y-74496314D01*
X-458202000Y-74496314D01*
X-458202000Y-75363687D01*
X-458143862Y-75655961D01*
X-457922401Y-75987402D01*
X-457590960Y-76208863D01*
X-457200000Y-76286630D01*
X-456809039Y-76208863D01*
X-456477598Y-75987402D01*
X-456256137Y-75655961D01*
X-456198000Y-75363686D01*
X-456198000Y-74496313D01*
X-456256137Y-74204039D01*
X-456477598Y-73872598D01*
X-456809040Y-73651137D01*
X-457200000Y-73573370D01*
X-457590961Y-73651137D01*
X-457922402Y-73872598D01*
X-458143863Y-74204040D01*
X-458202000Y-74496314D01*
X-460673000Y-74496314D01*
X-460673000Y-73660000D01*
X-460698653Y-73531036D01*
X-460771705Y-73421705D01*
X-461966411Y-72226999D01*
X-445325366Y-72226999D01*
X-446732835Y-73634469D01*
X-447040000Y-73573370D01*
X-447430961Y-73651137D01*
X-447762402Y-73872598D01*
X-447983863Y-74204040D01*
X-448042000Y-74496314D01*
X-448042000Y-75278633D01*
X-451588445Y-78825079D01*
X-451729039Y-78731137D01*
X-452120000Y-78653370D01*
X-452510960Y-78731137D01*
X-452842401Y-78952598D01*
X-453063862Y-79284039D01*
X-453122000Y-79576313D01*
X-453122000Y-80443686D01*
X-453063863Y-80735960D01*
X-452842402Y-81067402D01*
X-452510961Y-81288863D01*
X-452120000Y-81366630D01*
X-451729040Y-81288863D01*
X-451397598Y-81067402D01*
X-451176137Y-80735961D01*
X-451118000Y-80443687D01*
X-451118000Y-79661366D01*
X-447571554Y-76114921D01*
X-447430960Y-76208863D01*
X-447040000Y-76286630D01*
X-446649039Y-76208863D01*
X-446317598Y-75987402D01*
X-446096137Y-75655961D01*
X-446038000Y-75363686D01*
X-446038000Y-74496313D01*
X-446079469Y-74287835D01*
X-444018632Y-72226999D01*
X-442273589Y-72226999D01*
X-443468295Y-73421705D01*
X-443541347Y-73531036D01*
X-443567000Y-73660000D01*
X-443567000Y-76060410D01*
X-446008295Y-78501705D01*
X-446081347Y-78611036D01*
X-446107000Y-78740000D01*
X-446107000Y-85090000D01*
X-446081347Y-85218964D01*
X-446008295Y-85328295D01*
X-444738295Y-86598295D01*
X-444628964Y-86671347D01*
X-444500000Y-86697000D01*
X-438150000Y-86697000D01*
X-438021036Y-86671347D01*
X-437911705Y-86598295D01*
X-435470410Y-84157000D01*
X-431800000Y-84157000D01*
X-431671036Y-84131347D01*
X-431561705Y-84058295D01*
X-430291705Y-82788295D01*
X-430218653Y-82678964D01*
X-430193000Y-82550000D01*
X-430193000Y-78740000D01*
X-430218653Y-78611036D01*
X-430291705Y-78501705D01*
X-431561705Y-77231705D01*
X-431671036Y-77158653D01*
X-431800000Y-77133000D01*
X-434200410Y-77133000D01*
X-435273000Y-76060410D01*
X-435273000Y-74496314D01*
X-432802000Y-74496314D01*
X-432802000Y-75363687D01*
X-432743862Y-75655961D01*
X-432522401Y-75987402D01*
X-432190960Y-76208863D01*
X-431800000Y-76286630D01*
X-431409039Y-76208863D01*
X-431077598Y-75987402D01*
X-430856137Y-75655961D01*
X-430798000Y-75363686D01*
X-430798000Y-74496314D01*
X-430262000Y-74496314D01*
X-430262000Y-75363687D01*
X-430203862Y-75655961D01*
X-429982401Y-75987402D01*
X-429650960Y-76208863D01*
X-429260000Y-76286630D01*
X-428869039Y-76208863D01*
X-428537598Y-75987402D01*
X-428316137Y-75655961D01*
X-428258000Y-75363686D01*
X-428258000Y-74496313D01*
X-428316137Y-74204039D01*
X-428537598Y-73872598D01*
X-428869040Y-73651137D01*
X-429260000Y-73573370D01*
X-429650961Y-73651137D01*
X-429982402Y-73872598D01*
X-430203863Y-74204040D01*
X-430262000Y-74496314D01*
X-430798000Y-74496314D01*
X-430798000Y-74496313D01*
X-430856137Y-74204039D01*
X-431077598Y-73872598D01*
X-431409040Y-73651137D01*
X-431800000Y-73573370D01*
X-432190961Y-73651137D01*
X-432522402Y-73872598D01*
X-432743863Y-74204040D01*
X-432802000Y-74496314D01*
X-435273000Y-74496314D01*
X-435273000Y-73660000D01*
X-435298653Y-73531036D01*
X-435371705Y-73421705D01*
X-436566411Y-72226999D01*
X-423200365Y-72226999D01*
X-425109510Y-74136144D01*
X-425148082Y-74161917D01*
X-425173855Y-74200489D01*
X-425173858Y-74200492D01*
X-425214900Y-74261917D01*
X-425250193Y-74314737D01*
X-425270084Y-74414737D01*
X-425286050Y-74495000D01*
X-425276999Y-74540502D01*
X-425277000Y-76663633D01*
X-427014510Y-78401144D01*
X-427053082Y-78426917D01*
X-427078855Y-78465489D01*
X-427078858Y-78465492D01*
X-427155193Y-78579737D01*
X-427191050Y-78760000D01*
X-427186722Y-78781759D01*
X-427442401Y-78952598D01*
X-427663862Y-79284039D01*
X-427722000Y-79576313D01*
X-427722000Y-80443686D01*
X-427663863Y-80735960D01*
X-427442402Y-81067402D01*
X-427110961Y-81288863D01*
X-426720000Y-81366630D01*
X-426329040Y-81288863D01*
X-425997598Y-81067402D01*
X-425776137Y-80735961D01*
X-425718000Y-80443687D01*
X-425718000Y-79576314D01*
X-425776137Y-79284039D01*
X-425997598Y-78952598D01*
X-426154436Y-78847802D01*
X-424520489Y-77213855D01*
X-424481917Y-77188083D01*
X-424456144Y-77149511D01*
X-424456142Y-77149509D01*
X-424379807Y-77035264D01*
X-424379806Y-77035263D01*
X-424353000Y-76900502D01*
X-424353000Y-76900497D01*
X-424343950Y-76855000D01*
X-424353000Y-76809503D01*
X-424353000Y-74686366D01*
X-421893633Y-72226999D01*
X-420840365Y-72226999D01*
X-421934510Y-73321144D01*
X-421973082Y-73346917D01*
X-421998855Y-73385489D01*
X-421998858Y-73385492D01*
X-422075193Y-73499737D01*
X-422111050Y-73680000D01*
X-422106722Y-73701759D01*
X-422362402Y-73872598D01*
X-422583863Y-74204040D01*
X-422642000Y-74496314D01*
X-422642000Y-75363687D01*
X-422583862Y-75655961D01*
X-422362401Y-75987402D01*
X-422030960Y-76208863D01*
X-421640000Y-76286630D01*
X-421249039Y-76208863D01*
X-420917598Y-75987402D01*
X-420696137Y-75655961D01*
X-420638000Y-75363686D01*
X-420638000Y-74496313D01*
X-420696137Y-74204039D01*
X-420917598Y-73872598D01*
X-421074437Y-73767803D01*
X-419533633Y-72226999D01*
X-416873589Y-72226999D01*
X-418068295Y-73421705D01*
X-418141347Y-73531036D01*
X-418167000Y-73660000D01*
X-418167000Y-76060410D01*
X-420608295Y-78501705D01*
X-420681347Y-78611036D01*
X-420707000Y-78740000D01*
X-420707000Y-85090000D01*
X-420681347Y-85218964D01*
X-420608295Y-85328295D01*
X-419338295Y-86598295D01*
X-419228964Y-86671347D01*
X-419100000Y-86697000D01*
X-412750000Y-86697000D01*
X-412621036Y-86671347D01*
X-412511705Y-86598295D01*
X-410070410Y-84157000D01*
X-406400000Y-84157000D01*
X-406271036Y-84131347D01*
X-406161705Y-84058295D01*
X-404891705Y-82788295D01*
X-404818653Y-82678964D01*
X-404793000Y-82550000D01*
X-404793000Y-78740000D01*
X-404818653Y-78611036D01*
X-404891705Y-78501705D01*
X-406161705Y-77231705D01*
X-406271036Y-77158653D01*
X-406400000Y-77133000D01*
X-408800410Y-77133000D01*
X-409873000Y-76060410D01*
X-409873000Y-74496314D01*
X-407402000Y-74496314D01*
X-407402000Y-75363687D01*
X-407343862Y-75655961D01*
X-407122401Y-75987402D01*
X-406790960Y-76208863D01*
X-406400000Y-76286630D01*
X-406009039Y-76208863D01*
X-405677598Y-75987402D01*
X-405456137Y-75655961D01*
X-405398000Y-75363686D01*
X-405398000Y-74496313D01*
X-405456137Y-74204039D01*
X-405677598Y-73872598D01*
X-406009040Y-73651137D01*
X-406400000Y-73573370D01*
X-406790961Y-73651137D01*
X-407122402Y-73872598D01*
X-407343863Y-74204040D01*
X-407402000Y-74496314D01*
X-409873000Y-74496314D01*
X-409873000Y-73660000D01*
X-409898653Y-73531036D01*
X-409971705Y-73421705D01*
X-411166411Y-72226999D01*
X-394525366Y-72226999D01*
X-395932835Y-73634469D01*
X-396240000Y-73573370D01*
X-396630961Y-73651137D01*
X-396962402Y-73872598D01*
X-397183863Y-74204040D01*
X-397242000Y-74496314D01*
X-397242000Y-75278633D01*
X-400788445Y-78825079D01*
X-400929039Y-78731137D01*
X-401320000Y-78653370D01*
X-401710960Y-78731137D01*
X-402042401Y-78952598D01*
X-402263862Y-79284039D01*
X-402322000Y-79576313D01*
X-402322000Y-80443686D01*
X-402263863Y-80735960D01*
X-402042402Y-81067402D01*
X-401710961Y-81288863D01*
X-401320000Y-81366630D01*
X-400929040Y-81288863D01*
X-400597598Y-81067402D01*
X-400376137Y-80735961D01*
X-400318000Y-80443687D01*
X-400318000Y-79661366D01*
X-396771554Y-76114921D01*
X-396630960Y-76208863D01*
X-396240000Y-76286630D01*
X-395849039Y-76208863D01*
X-395517598Y-75987402D01*
X-395296137Y-75655961D01*
X-395238000Y-75363686D01*
X-395238000Y-74496313D01*
X-395279469Y-74287835D01*
X-393218632Y-72226999D01*
X-391473589Y-72226999D01*
X-392668295Y-73421705D01*
X-392741347Y-73531036D01*
X-392767000Y-73660000D01*
X-392767000Y-76060410D01*
X-395208295Y-78501705D01*
X-395281347Y-78611036D01*
X-395307000Y-78740000D01*
X-395307000Y-85090000D01*
X-395281347Y-85218964D01*
X-395208295Y-85328295D01*
X-393938295Y-86598295D01*
X-393828964Y-86671347D01*
X-393700000Y-86697000D01*
X-387350000Y-86697000D01*
X-387221036Y-86671347D01*
X-387111705Y-86598295D01*
X-384670410Y-84157000D01*
X-381000000Y-84157000D01*
X-380871036Y-84131347D01*
X-380761705Y-84058295D01*
X-379491705Y-82788295D01*
X-379418653Y-82678964D01*
X-379393000Y-82550000D01*
X-379393000Y-78740000D01*
X-379418653Y-78611036D01*
X-379491705Y-78501705D01*
X-380761705Y-77231705D01*
X-380871036Y-77158653D01*
X-381000000Y-77133000D01*
X-383400410Y-77133000D01*
X-384473000Y-76060410D01*
X-384473000Y-74496314D01*
X-382002000Y-74496314D01*
X-382002000Y-75363687D01*
X-381943862Y-75655961D01*
X-381722401Y-75987402D01*
X-381390960Y-76208863D01*
X-381000000Y-76286630D01*
X-380609039Y-76208863D01*
X-380277598Y-75987402D01*
X-380056137Y-75655961D01*
X-379998000Y-75363686D01*
X-379998000Y-74496314D01*
X-379462000Y-74496314D01*
X-379462000Y-75363687D01*
X-379403862Y-75655961D01*
X-379182401Y-75987402D01*
X-378850960Y-76208863D01*
X-378460000Y-76286630D01*
X-378069039Y-76208863D01*
X-377737598Y-75987402D01*
X-377516137Y-75655961D01*
X-377458000Y-75363686D01*
X-377458000Y-74496313D01*
X-377516137Y-74204039D01*
X-377737598Y-73872598D01*
X-378069040Y-73651137D01*
X-378460000Y-73573370D01*
X-378850961Y-73651137D01*
X-379182402Y-73872598D01*
X-379403863Y-74204040D01*
X-379462000Y-74496314D01*
X-379998000Y-74496314D01*
X-379998000Y-74496313D01*
X-380056137Y-74204039D01*
X-380277598Y-73872598D01*
X-380609040Y-73651137D01*
X-381000000Y-73573370D01*
X-381390961Y-73651137D01*
X-381722402Y-73872598D01*
X-381943863Y-74204040D01*
X-382002000Y-74496314D01*
X-384473000Y-74496314D01*
X-384473000Y-73660000D01*
X-384498653Y-73531036D01*
X-384571705Y-73421705D01*
X-385766411Y-72226999D01*
X-377371367Y-72226999D01*
X-375112000Y-74486367D01*
X-375111999Y-76473632D01*
X-375375961Y-76526137D01*
X-375707402Y-76747598D01*
X-375928863Y-77079039D01*
X-376006630Y-77470000D01*
X-375928863Y-77860961D01*
X-375707402Y-78192402D01*
X-375375961Y-78413863D01*
X-375111999Y-78466368D01*
X-375111999Y-78548633D01*
X-375388445Y-78825079D01*
X-375529039Y-78731137D01*
X-375920000Y-78653370D01*
X-376310960Y-78731137D01*
X-376642401Y-78952598D01*
X-376863862Y-79284039D01*
X-376922000Y-79576313D01*
X-376922000Y-80443686D01*
X-376863863Y-80735960D01*
X-376642402Y-81067402D01*
X-376310961Y-81288863D01*
X-375920000Y-81366630D01*
X-375529040Y-81288863D01*
X-375197598Y-81067402D01*
X-374976137Y-80735961D01*
X-374918000Y-80443687D01*
X-374918000Y-79661366D01*
X-374355492Y-79098858D01*
X-374316917Y-79073083D01*
X-374214806Y-78920263D01*
X-374188000Y-78785502D01*
X-374188000Y-78785498D01*
X-374178950Y-78740001D01*
X-374188000Y-78694504D01*
X-374188000Y-78466368D01*
X-373924039Y-78413863D01*
X-373752094Y-78298973D01*
X-373752094Y-89925570D01*
X-373755034Y-90042602D01*
X-373763396Y-90153278D01*
X-373777151Y-90262155D01*
X-373796153Y-90369132D01*
X-373820268Y-90474136D01*
X-373849363Y-90577051D01*
X-373883306Y-90677770D01*
X-373921961Y-90776162D01*
X-373965216Y-90872139D01*
X-374012916Y-90965528D01*
X-374064957Y-91056245D01*
X-374121199Y-91144138D01*
X-374181492Y-91229048D01*
X-374245735Y-91310881D01*
X-374313761Y-91389463D01*
X-374385442Y-91464662D01*
X-374460658Y-91536360D01*
X-374539245Y-91604391D01*
X-374621066Y-91668623D01*
X-374705985Y-91728922D01*
X-374793880Y-91785164D01*
X-374884584Y-91837198D01*
X-374977999Y-91884912D01*
X-375073954Y-91928156D01*
X-375172345Y-91966812D01*
X-375273060Y-92000753D01*
X-375375982Y-92029851D01*
X-375480973Y-92053963D01*
X-375587967Y-92072969D01*
X-375696841Y-92086723D01*
X-375807517Y-92095085D01*
X-375924549Y-92098025D01*
X-396907198Y-92098025D01*
X-396908064Y-92092595D01*
X-396917870Y-92066105D01*
X-396926476Y-92039189D01*
X-396930572Y-92031794D01*
X-396935855Y-92017523D01*
X-396937551Y-92009286D01*
X-396948554Y-91983218D01*
X-396958378Y-91956681D01*
X-396962780Y-91949516D01*
X-396968520Y-91935917D01*
X-396970573Y-91927800D01*
X-396982743Y-91902221D01*
X-396993762Y-91876116D01*
X-396998462Y-91869183D01*
X-397004627Y-91856225D01*
X-397007028Y-91848244D01*
X-397020344Y-91823192D01*
X-397032533Y-91797573D01*
X-397037513Y-91790890D01*
X-397044077Y-91778541D01*
X-397046816Y-91770710D01*
X-397061248Y-91746236D01*
X-397074581Y-91721152D01*
X-397079828Y-91714728D01*
X-397086771Y-91702954D01*
X-397089841Y-91695280D01*
X-397105359Y-91671433D01*
X-397119801Y-91646942D01*
X-397125304Y-91640782D01*
X-397132608Y-91629559D01*
X-397135995Y-91622062D01*
X-397152569Y-91598882D01*
X-397168096Y-91575022D01*
X-397173836Y-91569140D01*
X-397181492Y-91558433D01*
X-397185190Y-91551120D01*
X-397202761Y-91528688D01*
X-397219349Y-91505490D01*
X-397225330Y-91499877D01*
X-397233322Y-91489674D01*
X-397237323Y-91482550D01*
X-397255881Y-91460875D01*
X-397273475Y-91438414D01*
X-397279671Y-91433089D01*
X-397287999Y-91423362D01*
X-397292297Y-91416433D01*
X-397311799Y-91395564D01*
X-397330363Y-91373882D01*
X-397336768Y-91368845D01*
X-397345436Y-91359569D01*
X-397350018Y-91352852D01*
X-397370407Y-91332848D01*
X-397389919Y-91311969D01*
X-397396526Y-91307223D01*
X-397405528Y-91298392D01*
X-397410395Y-91291881D01*
X-397431649Y-91272765D01*
X-397452042Y-91252757D01*
X-397458840Y-91248308D01*
X-397468193Y-91239896D01*
X-397473335Y-91233605D01*
X-397495397Y-91215427D01*
X-397516642Y-91196319D01*
X-397523624Y-91192170D01*
X-397533329Y-91184174D01*
X-397538740Y-91178111D01*
X-397561569Y-91160907D01*
X-397583621Y-91142737D01*
X-397590778Y-91138894D01*
X-397600854Y-91131300D01*
X-397606530Y-91125470D01*
X-397630070Y-91109282D01*
X-397652882Y-91092090D01*
X-397660210Y-91088555D01*
X-397670671Y-91081361D01*
X-397676604Y-91075775D01*
X-397700810Y-91060635D01*
X-397724341Y-91044453D01*
X-397731830Y-91041233D01*
X-397742685Y-91034444D01*
X-397748871Y-91029108D01*
X-397773704Y-91015042D01*
X-397797891Y-90999914D01*
X-397805527Y-90997017D01*
X-397816804Y-90990630D01*
X-397823241Y-90985551D01*
X-397848642Y-90972596D01*
X-397873442Y-90958549D01*
X-397881224Y-90955979D01*
X-397892946Y-90950000D01*
X-397899622Y-90945193D01*
X-397925536Y-90933379D01*
X-397950902Y-90920442D01*
X-397958818Y-90918206D01*
X-397971005Y-90912650D01*
X-397977916Y-90908122D01*
X-398004299Y-90897472D01*
X-398030173Y-90885676D01*
X-398038211Y-90883782D01*
X-398050891Y-90878663D01*
X-398058022Y-90874430D01*
X-398084797Y-90864976D01*
X-398111153Y-90854337D01*
X-398119308Y-90852791D01*
X-398132494Y-90848136D01*
X-398139844Y-90844203D01*
X-398166995Y-90835954D01*
X-398193740Y-90826511D01*
X-398201987Y-90825323D01*
X-398215726Y-90821149D01*
X-398223274Y-90817534D01*
X-398250709Y-90810520D01*
X-398277832Y-90802280D01*
X-398286168Y-90801455D01*
X-398300464Y-90797801D01*
X-398308205Y-90794512D01*
X-398335901Y-90788742D01*
X-398363316Y-90781733D01*
X-398371715Y-90781280D01*
X-398386616Y-90778175D01*
X-398394536Y-90775224D01*
X-398422424Y-90770714D01*
X-398450086Y-90764951D01*
X-398458539Y-90764875D01*
X-398474061Y-90762364D01*
X-398482134Y-90759766D01*
X-398510164Y-90756527D01*
X-398538033Y-90752020D01*
X-398546512Y-90752326D01*
X-398562677Y-90750458D01*
X-398570893Y-90748219D01*
X-398599024Y-90746257D01*
X-398627023Y-90743021D01*
X-398635507Y-90743712D01*
X-398652350Y-90742537D01*
X-398660678Y-90740671D01*
X-398688851Y-90739992D01*
X-398716945Y-90738032D01*
X-398725406Y-90739110D01*
X-398743381Y-90738676D01*
X-398752226Y-90737135D01*
X-398779935Y-90737795D01*
X-398807662Y-90737126D01*
X-398816512Y-90738666D01*
X-398834502Y-90739094D01*
X-398842967Y-90738013D01*
X-398871060Y-90739964D01*
X-398899231Y-90740635D01*
X-398907564Y-90742500D01*
X-398924423Y-90743671D01*
X-398932909Y-90742977D01*
X-398960914Y-90746205D01*
X-398989040Y-90748159D01*
X-398997256Y-90750395D01*
X-399013445Y-90752261D01*
X-399021929Y-90751953D01*
X-399049795Y-90756451D01*
X-399077818Y-90759682D01*
X-399085895Y-90762279D01*
X-399101446Y-90764790D01*
X-399109891Y-90764864D01*
X-399137544Y-90770617D01*
X-399165448Y-90775122D01*
X-399173368Y-90778071D01*
X-399188281Y-90781173D01*
X-399196687Y-90781625D01*
X-399224109Y-90788628D01*
X-399251796Y-90794388D01*
X-399259538Y-90797675D01*
X-399273865Y-90801333D01*
X-399282193Y-90802155D01*
X-399309290Y-90810380D01*
X-399336754Y-90817393D01*
X-399344310Y-90821009D01*
X-399358060Y-90825183D01*
X-399366316Y-90826370D01*
X-399393069Y-90835809D01*
X-399420207Y-90844046D01*
X-399427560Y-90847978D01*
X-399440773Y-90852640D01*
X-399448926Y-90854183D01*
X-399475276Y-90864813D01*
X-399502061Y-90874263D01*
X-399509194Y-90878496D01*
X-399521891Y-90883618D01*
X-399529930Y-90885510D01*
X-399555802Y-90897298D01*
X-399582190Y-90907943D01*
X-399589104Y-90912471D01*
X-399601306Y-90918030D01*
X-399609221Y-90920264D01*
X-399634586Y-90933193D01*
X-399660508Y-90945004D01*
X-399667187Y-90949811D01*
X-399678923Y-90955793D01*
X-399686714Y-90958365D01*
X-399711526Y-90972413D01*
X-399736911Y-90985352D01*
X-399743349Y-90990429D01*
X-399754649Y-90996827D01*
X-399762286Y-90999722D01*
X-399786478Y-91014847D01*
X-399811313Y-91028907D01*
X-399817500Y-91034242D01*
X-399828377Y-91041041D01*
X-399835862Y-91044258D01*
X-399859376Y-91060422D01*
X-399883601Y-91075567D01*
X-399889541Y-91081157D01*
X-399900011Y-91088355D01*
X-399907347Y-91091892D01*
X-399930171Y-91109087D01*
X-399953700Y-91125261D01*
X-399959378Y-91131090D01*
X-399969470Y-91138694D01*
X-399976628Y-91142536D01*
X-399998689Y-91160706D01*
X-400021514Y-91177902D01*
X-400026924Y-91183962D01*
X-400036644Y-91191968D01*
X-400043633Y-91196119D01*
X-400064891Y-91215233D01*
X-400086943Y-91233396D01*
X-400092085Y-91239685D01*
X-400101456Y-91248110D01*
X-400108253Y-91252557D01*
X-400128650Y-91272562D01*
X-400149905Y-91291673D01*
X-400154772Y-91298181D01*
X-400163797Y-91307033D01*
X-400170404Y-91311777D01*
X-400189896Y-91332629D01*
X-400210304Y-91352645D01*
X-400214895Y-91359373D01*
X-400223569Y-91368653D01*
X-400229980Y-91373693D01*
X-400248560Y-91395388D01*
X-400268051Y-91416240D01*
X-400272347Y-91423165D01*
X-400280691Y-91432908D01*
X-400286889Y-91438233D01*
X-400304486Y-91460692D01*
X-400323044Y-91482362D01*
X-400327046Y-91489486D01*
X-400335055Y-91499708D01*
X-400341032Y-91505316D01*
X-400357611Y-91528496D01*
X-400375196Y-91550940D01*
X-400378897Y-91558257D01*
X-400386558Y-91568969D01*
X-400392304Y-91574855D01*
X-400407840Y-91598724D01*
X-400424408Y-91621889D01*
X-400427796Y-91629384D01*
X-400435111Y-91640624D01*
X-400440617Y-91646785D01*
X-400455061Y-91671274D01*
X-400470580Y-91695117D01*
X-400473651Y-91702793D01*
X-400480607Y-91714585D01*
X-400485858Y-91721013D01*
X-400499194Y-91746098D01*
X-400513622Y-91770560D01*
X-400516362Y-91778392D01*
X-400522936Y-91790759D01*
X-400527918Y-91797442D01*
X-400540112Y-91823066D01*
X-400553427Y-91848112D01*
X-400555828Y-91856091D01*
X-400562006Y-91869073D01*
X-400566705Y-91876004D01*
X-400577718Y-91902090D01*
X-400589895Y-91927679D01*
X-400591951Y-91935804D01*
X-400597696Y-91949413D01*
X-400602102Y-91956584D01*
X-400611931Y-91983132D01*
X-400622930Y-92009185D01*
X-400624626Y-92017420D01*
X-400629918Y-92031712D01*
X-400634015Y-92039109D01*
X-400642622Y-92066025D01*
X-400652428Y-92092511D01*
X-400653308Y-92098025D01*
X-447707197Y-92098025D01*
X-447708063Y-92092599D01*
X-447717872Y-92066102D01*
X-447726478Y-92039185D01*
X-447730571Y-92031795D01*
X-447735854Y-92017525D01*
X-447737550Y-92009286D01*
X-447748552Y-91983221D01*
X-447758375Y-91956685D01*
X-447762778Y-91949517D01*
X-447768519Y-91935917D01*
X-447770572Y-91927800D01*
X-447782742Y-91902221D01*
X-447793761Y-91876116D01*
X-447798461Y-91869183D01*
X-447804627Y-91856223D01*
X-447807029Y-91848239D01*
X-447820346Y-91823185D01*
X-447832532Y-91797573D01*
X-447837512Y-91790890D01*
X-447844079Y-91778537D01*
X-447846816Y-91770710D01*
X-447861244Y-91746243D01*
X-447874583Y-91721148D01*
X-447879831Y-91714723D01*
X-447886771Y-91702954D01*
X-447889841Y-91695280D01*
X-447905359Y-91671433D01*
X-447919801Y-91646942D01*
X-447925304Y-91640782D01*
X-447932608Y-91629559D01*
X-447935995Y-91622062D01*
X-447952569Y-91598882D01*
X-447968096Y-91575022D01*
X-447973836Y-91569140D01*
X-447981492Y-91558433D01*
X-447985190Y-91551120D01*
X-448002761Y-91528688D01*
X-448019349Y-91505490D01*
X-448025330Y-91499877D01*
X-448033322Y-91489674D01*
X-448037323Y-91482550D01*
X-448055881Y-91460875D01*
X-448073475Y-91438414D01*
X-448079671Y-91433089D01*
X-448087999Y-91423362D01*
X-448092297Y-91416433D01*
X-448111799Y-91395564D01*
X-448130363Y-91373882D01*
X-448136768Y-91368845D01*
X-448145436Y-91359569D01*
X-448150018Y-91352852D01*
X-448170407Y-91332848D01*
X-448189919Y-91311969D01*
X-448196526Y-91307223D01*
X-448205525Y-91298394D01*
X-448210392Y-91291884D01*
X-448231649Y-91272764D01*
X-448252042Y-91252757D01*
X-448258838Y-91248309D01*
X-448268192Y-91239896D01*
X-448273336Y-91233603D01*
X-448295392Y-91215431D01*
X-448316638Y-91196321D01*
X-448323625Y-91192169D01*
X-448333330Y-91184173D01*
X-448338740Y-91178111D01*
X-448361571Y-91160905D01*
X-448383624Y-91142735D01*
X-448390779Y-91138893D01*
X-448400854Y-91131300D01*
X-448406528Y-91125472D01*
X-448430064Y-91109286D01*
X-448452882Y-91092090D01*
X-448460210Y-91088555D01*
X-448470671Y-91081361D01*
X-448476605Y-91075774D01*
X-448500809Y-91060635D01*
X-448524337Y-91044455D01*
X-448531826Y-91041235D01*
X-448542687Y-91034442D01*
X-448548871Y-91029108D01*
X-448573692Y-91015049D01*
X-448597893Y-90999912D01*
X-448605533Y-90997014D01*
X-448616804Y-90990630D01*
X-448623241Y-90985551D01*
X-448648642Y-90972596D01*
X-448673442Y-90958549D01*
X-448681224Y-90955979D01*
X-448692945Y-90950001D01*
X-448699620Y-90945194D01*
X-448725536Y-90933379D01*
X-448750902Y-90920442D01*
X-448758817Y-90918206D01*
X-448771004Y-90912651D01*
X-448777917Y-90908121D01*
X-448804300Y-90897471D01*
X-448830170Y-90885677D01*
X-448838210Y-90883783D01*
X-448850891Y-90878664D01*
X-448858022Y-90874430D01*
X-448884808Y-90864972D01*
X-448911155Y-90854337D01*
X-448919306Y-90852792D01*
X-448932492Y-90848136D01*
X-448939843Y-90844203D01*
X-448966998Y-90835953D01*
X-448993740Y-90826511D01*
X-449001987Y-90825323D01*
X-449015720Y-90821151D01*
X-449023274Y-90817533D01*
X-449050730Y-90810514D01*
X-449077830Y-90802281D01*
X-449086161Y-90801457D01*
X-449100464Y-90797800D01*
X-449108204Y-90794512D01*
X-449135902Y-90788741D01*
X-449163317Y-90781733D01*
X-449171716Y-90781280D01*
X-449186612Y-90778176D01*
X-449194535Y-90775224D01*
X-449222436Y-90770712D01*
X-449250084Y-90764952D01*
X-449258532Y-90764875D01*
X-449274060Y-90762364D01*
X-449282133Y-90759766D01*
X-449310163Y-90756527D01*
X-449338032Y-90752020D01*
X-449346511Y-90752326D01*
X-449362676Y-90750458D01*
X-449370892Y-90748219D01*
X-449399023Y-90746257D01*
X-449427022Y-90743021D01*
X-449435506Y-90743712D01*
X-449452349Y-90742537D01*
X-449460677Y-90740671D01*
X-449488850Y-90739992D01*
X-449516944Y-90738032D01*
X-449525405Y-90739110D01*
X-449543380Y-90738676D01*
X-449552225Y-90737135D01*
X-449579934Y-90737795D01*
X-449607661Y-90737126D01*
X-449616511Y-90738666D01*
X-449634501Y-90739094D01*
X-449642966Y-90738013D01*
X-449671059Y-90739964D01*
X-449699230Y-90740635D01*
X-449707563Y-90742500D01*
X-449724422Y-90743671D01*
X-449732907Y-90742977D01*
X-449760912Y-90746205D01*
X-449789039Y-90748159D01*
X-449797255Y-90750395D01*
X-449813445Y-90752261D01*
X-449821929Y-90751953D01*
X-449849796Y-90756452D01*
X-449877818Y-90759682D01*
X-449885896Y-90762279D01*
X-449901446Y-90764790D01*
X-449909892Y-90764864D01*
X-449937547Y-90770618D01*
X-449965448Y-90775122D01*
X-449973368Y-90778070D01*
X-449988282Y-90781174D01*
X-449996686Y-90781625D01*
X-450024103Y-90788626D01*
X-450051796Y-90794388D01*
X-450059539Y-90797675D01*
X-450073860Y-90801332D01*
X-450082197Y-90802155D01*
X-450109309Y-90810385D01*
X-450136753Y-90817393D01*
X-450144308Y-90821009D01*
X-450158063Y-90825184D01*
X-450166310Y-90826370D01*
X-450193058Y-90835807D01*
X-450220211Y-90844049D01*
X-450227561Y-90847979D01*
X-450240768Y-90852639D01*
X-450248925Y-90854183D01*
X-450275278Y-90864814D01*
X-450302055Y-90874261D01*
X-450309190Y-90878494D01*
X-450321887Y-90883617D01*
X-450329927Y-90885509D01*
X-450355805Y-90897299D01*
X-450382189Y-90907943D01*
X-450389102Y-90912470D01*
X-450401310Y-90918032D01*
X-450409228Y-90920267D01*
X-450434585Y-90933193D01*
X-450460506Y-90945003D01*
X-450467188Y-90949813D01*
X-450478923Y-90955794D01*
X-450486708Y-90958364D01*
X-450511522Y-90972412D01*
X-450536916Y-90985357D01*
X-450543351Y-90990432D01*
X-450554645Y-90996826D01*
X-450562289Y-90999724D01*
X-450586486Y-91014852D01*
X-450611308Y-91028905D01*
X-450617497Y-91034241D01*
X-450628376Y-91041042D01*
X-450635861Y-91044259D01*
X-450659385Y-91060429D01*
X-450683603Y-91075571D01*
X-450689539Y-91081158D01*
X-450700012Y-91088357D01*
X-450707341Y-91091891D01*
X-450730154Y-91109077D01*
X-450753699Y-91125262D01*
X-450759377Y-91131092D01*
X-450769469Y-91138694D01*
X-450776631Y-91142539D01*
X-450798686Y-91160705D01*
X-450821510Y-91177899D01*
X-450826924Y-91183963D01*
X-450836645Y-91191970D01*
X-450843632Y-91196120D01*
X-450864892Y-91215236D01*
X-450886945Y-91233400D01*
X-450892086Y-91239687D01*
X-450901455Y-91248111D01*
X-450908252Y-91252558D01*
X-450928649Y-91272563D01*
X-450949904Y-91291674D01*
X-450954771Y-91298182D01*
X-450963791Y-91307028D01*
X-450970401Y-91311775D01*
X-450989904Y-91332640D01*
X-451010303Y-91352646D01*
X-451014892Y-91359371D01*
X-451023567Y-91368652D01*
X-451029979Y-91373693D01*
X-451048561Y-91395391D01*
X-451068047Y-91416237D01*
X-451072343Y-91423161D01*
X-451080690Y-91432908D01*
X-451086888Y-91438233D01*
X-451104485Y-91460692D01*
X-451123043Y-91482362D01*
X-451127045Y-91489486D01*
X-451135054Y-91499708D01*
X-451141031Y-91505316D01*
X-451157610Y-91528496D01*
X-451175195Y-91550940D01*
X-451178896Y-91558257D01*
X-451186560Y-91568972D01*
X-451192305Y-91574858D01*
X-451207836Y-91598720D01*
X-451224407Y-91621889D01*
X-451227796Y-91629387D01*
X-451235112Y-91640627D01*
X-451240618Y-91646789D01*
X-451255067Y-91671287D01*
X-451270580Y-91695121D01*
X-451273650Y-91702793D01*
X-451280603Y-91714582D01*
X-451285853Y-91721008D01*
X-451299191Y-91746097D01*
X-451313621Y-91770562D01*
X-451316360Y-91778392D01*
X-451322938Y-91790763D01*
X-451327919Y-91797447D01*
X-451340107Y-91823058D01*
X-451353424Y-91848108D01*
X-451355826Y-91856092D01*
X-451362003Y-91869071D01*
X-451366701Y-91876000D01*
X-451377718Y-91902096D01*
X-451389895Y-91927684D01*
X-451391949Y-91935803D01*
X-451397696Y-91949416D01*
X-451402104Y-91956590D01*
X-451411928Y-91983126D01*
X-451422928Y-92009180D01*
X-451424626Y-92017422D01*
X-451429917Y-92031713D01*
X-451434010Y-92039103D01*
X-451442617Y-92066019D01*
X-451452428Y-92092518D01*
X-451453307Y-92098025D01*
X-472435452Y-92098025D01*
X-472552484Y-92095085D01*
X-472663160Y-92086723D01*
X-472772037Y-92072968D01*
X-472879014Y-92053966D01*
X-472984018Y-92029851D01*
X-473086933Y-92000756D01*
X-473187652Y-91966813D01*
X-473286042Y-91928159D01*
X-473382018Y-91884906D01*
X-473475406Y-91837205D01*
X-473566127Y-91785162D01*
X-473654018Y-91728921D01*
X-473738937Y-91668622D01*
X-473820761Y-91604387D01*
X-473899351Y-91536353D01*
X-473974548Y-91464674D01*
X-474046243Y-91389461D01*
X-474114268Y-91310880D01*
X-474178507Y-91229051D01*
X-474238804Y-91144134D01*
X-474295050Y-91056233D01*
X-474347086Y-90965526D01*
X-474394785Y-90872139D01*
X-474438033Y-90776177D01*
X-474476696Y-90677771D01*
X-474510638Y-90577053D01*
X-474539732Y-90474139D01*
X-474563845Y-90369146D01*
X-474582851Y-90262152D01*
X-474596605Y-90153273D01*
X-474604968Y-90042612D01*
X-474607907Y-89925581D01*
X-474607907Y-65014419D01*
X-474604968Y-64897388D01*
X-474596605Y-64786727D01*
X-474582851Y-64677848D01*
X-474563845Y-64570854D01*
X-474539732Y-64465861D01*
X-474510638Y-64362947D01*
X-474476696Y-64262229D01*
X-474438033Y-64163823D01*
X-474394785Y-64067861D01*
X-474347086Y-63974474D01*
X-474295050Y-63883767D01*
X-474238804Y-63795866D01*
X-474178507Y-63710949D01*
X-474114268Y-63629120D01*
X-474046243Y-63550539D01*
X-473974548Y-63475326D01*
X-473899351Y-63403647D01*
X-473820761Y-63335613D01*
X-473738937Y-63271378D01*
X-473654018Y-63211079D01*
X-473566127Y-63154838D01*
X-473475406Y-63102795D01*
X-473382018Y-63055094D01*
X-473286042Y-63011841D01*
X-473187652Y-62973187D01*
X-473086933Y-62939244D01*
X-472984018Y-62910149D01*
X-472879014Y-62886034D01*
X-472772037Y-62867032D01*
X-472663160Y-62853277D01*
X-472552484Y-62844915D01*
X-472435452Y-62841975D01*
X-451452804Y-62841975D01*
X-451451938Y-62847401D01*
G04 #@! TD*
M02*
