G04 #@! TF.GenerationSoftware,KiCad,Pcbnew,5.0.2+dfsg1-1*
G04 #@! TF.CreationDate,2019-08-29T01:11:28+02:00*
G04 #@! TF.ProjectId,hexdump,68657864-756d-4702-9e6b-696361645f70,rev?*
G04 #@! TF.SameCoordinates,Original*
G04 #@! TF.FileFunction,Legend,Top*
G04 #@! TF.FilePolarity,Positive*
%FSLAX46Y46*%
G04 Gerber Fmt 4.6, Leading zero omitted, Abs format (unit mm)*
G04 Created by KiCad (PCBNEW 5.0.2+dfsg1-1) date Thu Aug 29 01:11:28 2019*
%MOMM*%
%LPD*%
G01*
G04 APERTURE LIST*
%ADD10C,0.150000*%
G04 APERTURE END LIST*
G04 #@! TO.C,U12*
D10*
X34321904Y-223472380D02*
X34321904Y-224281904D01*
X34369523Y-224377142D01*
X34417142Y-224424761D01*
X34512380Y-224472380D01*
X34702857Y-224472380D01*
X34798095Y-224424761D01*
X34845714Y-224377142D01*
X34893333Y-224281904D01*
X34893333Y-223472380D01*
X35893333Y-224472380D02*
X35321904Y-224472380D01*
X35607619Y-224472380D02*
X35607619Y-223472380D01*
X35512380Y-223615238D01*
X35417142Y-223710476D01*
X35321904Y-223758095D01*
X36274285Y-223567619D02*
X36321904Y-223520000D01*
X36417142Y-223472380D01*
X36655238Y-223472380D01*
X36750476Y-223520000D01*
X36798095Y-223567619D01*
X36845714Y-223662857D01*
X36845714Y-223758095D01*
X36798095Y-223900952D01*
X36226666Y-224472380D01*
X36845714Y-224472380D01*
G04 #@! TO.C,U23*
X34321904Y195627619D02*
X34321904Y194818095D01*
X34369523Y194722857D01*
X34417142Y194675238D01*
X34512380Y194627619D01*
X34702857Y194627619D01*
X34798095Y194675238D01*
X34845714Y194722857D01*
X34893333Y194818095D01*
X34893333Y195627619D01*
X35321904Y195532380D02*
X35369523Y195580000D01*
X35464761Y195627619D01*
X35702857Y195627619D01*
X35798095Y195580000D01*
X35845714Y195532380D01*
X35893333Y195437142D01*
X35893333Y195341904D01*
X35845714Y195199047D01*
X35274285Y194627619D01*
X35893333Y194627619D01*
X36226666Y195627619D02*
X36845714Y195627619D01*
X36512380Y195246666D01*
X36655238Y195246666D01*
X36750476Y195199047D01*
X36798095Y195151428D01*
X36845714Y195056190D01*
X36845714Y194818095D01*
X36798095Y194722857D01*
X36750476Y194675238D01*
X36655238Y194627619D01*
X36369523Y194627619D01*
X36274285Y194675238D01*
X36226666Y194722857D01*
G04 #@! TO.C,U2*
X34798095Y-27892380D02*
X34798095Y-28701904D01*
X34845714Y-28797142D01*
X34893333Y-28844761D01*
X34988571Y-28892380D01*
X35179047Y-28892380D01*
X35274285Y-28844761D01*
X35321904Y-28797142D01*
X35369523Y-28701904D01*
X35369523Y-27892380D01*
X35798095Y-27987619D02*
X35845714Y-27940000D01*
X35940952Y-27892380D01*
X36179047Y-27892380D01*
X36274285Y-27940000D01*
X36321904Y-27987619D01*
X36369523Y-28082857D01*
X36369523Y-28178095D01*
X36321904Y-28320952D01*
X35750476Y-28892380D01*
X36369523Y-28892380D01*
G04 #@! TO.C,U3*
X34798095Y-55832380D02*
X34798095Y-56641904D01*
X34845714Y-56737142D01*
X34893333Y-56784761D01*
X34988571Y-56832380D01*
X35179047Y-56832380D01*
X35274285Y-56784761D01*
X35321904Y-56737142D01*
X35369523Y-56641904D01*
X35369523Y-55832380D01*
X35750476Y-55832380D02*
X36369523Y-55832380D01*
X36036190Y-56213333D01*
X36179047Y-56213333D01*
X36274285Y-56260952D01*
X36321904Y-56308571D01*
X36369523Y-56403809D01*
X36369523Y-56641904D01*
X36321904Y-56737142D01*
X36274285Y-56784761D01*
X36179047Y-56832380D01*
X35893333Y-56832380D01*
X35798095Y-56784761D01*
X35750476Y-56737142D01*
G04 #@! TO.C,U5*
X34798095Y-83772380D02*
X34798095Y-84581904D01*
X34845714Y-84677142D01*
X34893333Y-84724761D01*
X34988571Y-84772380D01*
X35179047Y-84772380D01*
X35274285Y-84724761D01*
X35321904Y-84677142D01*
X35369523Y-84581904D01*
X35369523Y-83772380D01*
X36321904Y-83772380D02*
X35845714Y-83772380D01*
X35798095Y-84248571D01*
X35845714Y-84200952D01*
X35940952Y-84153333D01*
X36179047Y-84153333D01*
X36274285Y-84200952D01*
X36321904Y-84248571D01*
X36369523Y-84343809D01*
X36369523Y-84581904D01*
X36321904Y-84677142D01*
X36274285Y-84724761D01*
X36179047Y-84772380D01*
X35940952Y-84772380D01*
X35845714Y-84724761D01*
X35798095Y-84677142D01*
G04 #@! TO.C,U6*
X34798095Y-111712380D02*
X34798095Y-112521904D01*
X34845714Y-112617142D01*
X34893333Y-112664761D01*
X34988571Y-112712380D01*
X35179047Y-112712380D01*
X35274285Y-112664761D01*
X35321904Y-112617142D01*
X35369523Y-112521904D01*
X35369523Y-111712380D01*
X36274285Y-111712380D02*
X36083809Y-111712380D01*
X35988571Y-111760000D01*
X35940952Y-111807619D01*
X35845714Y-111950476D01*
X35798095Y-112140952D01*
X35798095Y-112521904D01*
X35845714Y-112617142D01*
X35893333Y-112664761D01*
X35988571Y-112712380D01*
X36179047Y-112712380D01*
X36274285Y-112664761D01*
X36321904Y-112617142D01*
X36369523Y-112521904D01*
X36369523Y-112283809D01*
X36321904Y-112188571D01*
X36274285Y-112140952D01*
X36179047Y-112093333D01*
X35988571Y-112093333D01*
X35893333Y-112140952D01*
X35845714Y-112188571D01*
X35798095Y-112283809D01*
G04 #@! TO.C,U8*
X34798095Y-139652380D02*
X34798095Y-140461904D01*
X34845714Y-140557142D01*
X34893333Y-140604761D01*
X34988571Y-140652380D01*
X35179047Y-140652380D01*
X35274285Y-140604761D01*
X35321904Y-140557142D01*
X35369523Y-140461904D01*
X35369523Y-139652380D01*
X35988571Y-140080952D02*
X35893333Y-140033333D01*
X35845714Y-139985714D01*
X35798095Y-139890476D01*
X35798095Y-139842857D01*
X35845714Y-139747619D01*
X35893333Y-139700000D01*
X35988571Y-139652380D01*
X36179047Y-139652380D01*
X36274285Y-139700000D01*
X36321904Y-139747619D01*
X36369523Y-139842857D01*
X36369523Y-139890476D01*
X36321904Y-139985714D01*
X36274285Y-140033333D01*
X36179047Y-140080952D01*
X35988571Y-140080952D01*
X35893333Y-140128571D01*
X35845714Y-140176190D01*
X35798095Y-140271428D01*
X35798095Y-140461904D01*
X35845714Y-140557142D01*
X35893333Y-140604761D01*
X35988571Y-140652380D01*
X36179047Y-140652380D01*
X36274285Y-140604761D01*
X36321904Y-140557142D01*
X36369523Y-140461904D01*
X36369523Y-140271428D01*
X36321904Y-140176190D01*
X36274285Y-140128571D01*
X36179047Y-140080952D01*
G04 #@! TO.C,U9*
X34798095Y-167592380D02*
X34798095Y-168401904D01*
X34845714Y-168497142D01*
X34893333Y-168544761D01*
X34988571Y-168592380D01*
X35179047Y-168592380D01*
X35274285Y-168544761D01*
X35321904Y-168497142D01*
X35369523Y-168401904D01*
X35369523Y-167592380D01*
X35893333Y-168592380D02*
X36083809Y-168592380D01*
X36179047Y-168544761D01*
X36226666Y-168497142D01*
X36321904Y-168354285D01*
X36369523Y-168163809D01*
X36369523Y-167782857D01*
X36321904Y-167687619D01*
X36274285Y-167640000D01*
X36179047Y-167592380D01*
X35988571Y-167592380D01*
X35893333Y-167640000D01*
X35845714Y-167687619D01*
X35798095Y-167782857D01*
X35798095Y-168020952D01*
X35845714Y-168116190D01*
X35893333Y-168163809D01*
X35988571Y-168211428D01*
X36179047Y-168211428D01*
X36274285Y-168163809D01*
X36321904Y-168116190D01*
X36369523Y-168020952D01*
G04 #@! TO.C,U11*
X34321904Y-195532380D02*
X34321904Y-196341904D01*
X34369523Y-196437142D01*
X34417142Y-196484761D01*
X34512380Y-196532380D01*
X34702857Y-196532380D01*
X34798095Y-196484761D01*
X34845714Y-196437142D01*
X34893333Y-196341904D01*
X34893333Y-195532380D01*
X35893333Y-196532380D02*
X35321904Y-196532380D01*
X35607619Y-196532380D02*
X35607619Y-195532380D01*
X35512380Y-195675238D01*
X35417142Y-195770476D01*
X35321904Y-195818095D01*
X36845714Y-196532380D02*
X36274285Y-196532380D01*
X36560000Y-196532380D02*
X36560000Y-195532380D01*
X36464761Y-195675238D01*
X36369523Y-195770476D01*
X36274285Y-195818095D01*
G04 #@! TO.C,U14*
X34321904Y27987619D02*
X34321904Y27178095D01*
X34369523Y27082857D01*
X34417142Y27035238D01*
X34512380Y26987619D01*
X34702857Y26987619D01*
X34798095Y27035238D01*
X34845714Y27082857D01*
X34893333Y27178095D01*
X34893333Y27987619D01*
X35893333Y26987619D02*
X35321904Y26987619D01*
X35607619Y26987619D02*
X35607619Y27987619D01*
X35512380Y27844761D01*
X35417142Y27749523D01*
X35321904Y27701904D01*
X36750476Y27654285D02*
X36750476Y26987619D01*
X36512380Y28035238D02*
X36274285Y27320952D01*
X36893333Y27320952D01*
G04 #@! TO.C,U15*
X34321904Y47619D02*
X34321904Y-761904D01*
X34369523Y-857142D01*
X34417142Y-904761D01*
X34512380Y-952380D01*
X34702857Y-952380D01*
X34798095Y-904761D01*
X34845714Y-857142D01*
X34893333Y-761904D01*
X34893333Y47619D01*
X35893333Y-952380D02*
X35321904Y-952380D01*
X35607619Y-952380D02*
X35607619Y47619D01*
X35512380Y-95238D01*
X35417142Y-190476D01*
X35321904Y-238095D01*
X36798095Y47619D02*
X36321904Y47619D01*
X36274285Y-428571D01*
X36321904Y-380952D01*
X36417142Y-333333D01*
X36655238Y-333333D01*
X36750476Y-380952D01*
X36798095Y-428571D01*
X36845714Y-523809D01*
X36845714Y-761904D01*
X36798095Y-857142D01*
X36750476Y-904761D01*
X36655238Y-952380D01*
X36417142Y-952380D01*
X36321904Y-904761D01*
X36274285Y-857142D01*
G04 #@! TO.C,U17*
X34321904Y83867619D02*
X34321904Y83058095D01*
X34369523Y82962857D01*
X34417142Y82915238D01*
X34512380Y82867619D01*
X34702857Y82867619D01*
X34798095Y82915238D01*
X34845714Y82962857D01*
X34893333Y83058095D01*
X34893333Y83867619D01*
X35893333Y82867619D02*
X35321904Y82867619D01*
X35607619Y82867619D02*
X35607619Y83867619D01*
X35512380Y83724761D01*
X35417142Y83629523D01*
X35321904Y83581904D01*
X36226666Y83867619D02*
X36893333Y83867619D01*
X36464761Y82867619D01*
G04 #@! TO.C,U18*
X34321904Y55927619D02*
X34321904Y55118095D01*
X34369523Y55022857D01*
X34417142Y54975238D01*
X34512380Y54927619D01*
X34702857Y54927619D01*
X34798095Y54975238D01*
X34845714Y55022857D01*
X34893333Y55118095D01*
X34893333Y55927619D01*
X35893333Y54927619D02*
X35321904Y54927619D01*
X35607619Y54927619D02*
X35607619Y55927619D01*
X35512380Y55784761D01*
X35417142Y55689523D01*
X35321904Y55641904D01*
X36464761Y55499047D02*
X36369523Y55546666D01*
X36321904Y55594285D01*
X36274285Y55689523D01*
X36274285Y55737142D01*
X36321904Y55832380D01*
X36369523Y55880000D01*
X36464761Y55927619D01*
X36655238Y55927619D01*
X36750476Y55880000D01*
X36798095Y55832380D01*
X36845714Y55737142D01*
X36845714Y55689523D01*
X36798095Y55594285D01*
X36750476Y55546666D01*
X36655238Y55499047D01*
X36464761Y55499047D01*
X36369523Y55451428D01*
X36321904Y55403809D01*
X36274285Y55308571D01*
X36274285Y55118095D01*
X36321904Y55022857D01*
X36369523Y54975238D01*
X36464761Y54927619D01*
X36655238Y54927619D01*
X36750476Y54975238D01*
X36798095Y55022857D01*
X36845714Y55118095D01*
X36845714Y55308571D01*
X36798095Y55403809D01*
X36750476Y55451428D01*
X36655238Y55499047D01*
G04 #@! TO.C,U20*
X34321904Y139747619D02*
X34321904Y138938095D01*
X34369523Y138842857D01*
X34417142Y138795238D01*
X34512380Y138747619D01*
X34702857Y138747619D01*
X34798095Y138795238D01*
X34845714Y138842857D01*
X34893333Y138938095D01*
X34893333Y139747619D01*
X35321904Y139652380D02*
X35369523Y139700000D01*
X35464761Y139747619D01*
X35702857Y139747619D01*
X35798095Y139700000D01*
X35845714Y139652380D01*
X35893333Y139557142D01*
X35893333Y139461904D01*
X35845714Y139319047D01*
X35274285Y138747619D01*
X35893333Y138747619D01*
X36512380Y139747619D02*
X36607619Y139747619D01*
X36702857Y139700000D01*
X36750476Y139652380D01*
X36798095Y139557142D01*
X36845714Y139366666D01*
X36845714Y139128571D01*
X36798095Y138938095D01*
X36750476Y138842857D01*
X36702857Y138795238D01*
X36607619Y138747619D01*
X36512380Y138747619D01*
X36417142Y138795238D01*
X36369523Y138842857D01*
X36321904Y138938095D01*
X36274285Y139128571D01*
X36274285Y139366666D01*
X36321904Y139557142D01*
X36369523Y139652380D01*
X36417142Y139700000D01*
X36512380Y139747619D01*
G04 #@! TO.C,U21*
X34321904Y111807619D02*
X34321904Y110998095D01*
X34369523Y110902857D01*
X34417142Y110855238D01*
X34512380Y110807619D01*
X34702857Y110807619D01*
X34798095Y110855238D01*
X34845714Y110902857D01*
X34893333Y110998095D01*
X34893333Y111807619D01*
X35321904Y111712380D02*
X35369523Y111760000D01*
X35464761Y111807619D01*
X35702857Y111807619D01*
X35798095Y111760000D01*
X35845714Y111712380D01*
X35893333Y111617142D01*
X35893333Y111521904D01*
X35845714Y111379047D01*
X35274285Y110807619D01*
X35893333Y110807619D01*
X36845714Y110807619D02*
X36274285Y110807619D01*
X36560000Y110807619D02*
X36560000Y111807619D01*
X36464761Y111664761D01*
X36369523Y111569523D01*
X36274285Y111521904D01*
G04 #@! TO.C,U24*
X34321904Y167687619D02*
X34321904Y166878095D01*
X34369523Y166782857D01*
X34417142Y166735238D01*
X34512380Y166687619D01*
X34702857Y166687619D01*
X34798095Y166735238D01*
X34845714Y166782857D01*
X34893333Y166878095D01*
X34893333Y167687619D01*
X35321904Y167592380D02*
X35369523Y167640000D01*
X35464761Y167687619D01*
X35702857Y167687619D01*
X35798095Y167640000D01*
X35845714Y167592380D01*
X35893333Y167497142D01*
X35893333Y167401904D01*
X35845714Y167259047D01*
X35274285Y166687619D01*
X35893333Y166687619D01*
X36750476Y167354285D02*
X36750476Y166687619D01*
X36512380Y167735238D02*
X36274285Y167020952D01*
X36893333Y167020952D01*
G04 #@! TD*
M02*
