M48
METRIC,TZ
T1C0.300
T2C0.400
T3C0.800
T4C3.200
%
G90
G05
T1
X23.749Y-39.878
X24.257Y-38.608
X24.511Y121.666
X24.511Y65.786
X24.511Y9.906
X24.638Y-50.292
X24.638Y-106.172
X24.638Y-162.052
X24.638Y-217.932
X24.701Y112.459
X24.701Y56.578
X24.701Y0.699
X24.765Y170.307
X24.765Y114.427
X24.765Y58.547
X24.765Y2.667
X24.828Y-37.529
X24.892Y173.355
X24.892Y164.211
X24.892Y122.428
X24.892Y117.475
X24.892Y108.331
X24.892Y66.548
X24.892Y61.595
X24.892Y52.451
X24.892Y10.668
X24.892Y5.715
X24.892Y-3.429
X24.892Y-53.086
X24.892Y-59.309
X24.892Y-108.966
X24.892Y-115.189
X24.892Y-164.846
X24.892Y-171.069
X24.892Y-220.726
X24.892Y-226.949
X25.146Y162.306
X25.146Y106.426
X25.146Y50.546
X25.146Y-5.334
X25.146Y-61.214
X25.146Y-117.094
X25.146Y-172.974
X25.146Y-228.854
X25.209Y-11.938
X25.336Y-54.356
X25.336Y-110.236
X25.336Y-166.116
X25.336Y-221.996
X25.4Y177.8
X25.4Y169.037
X25.4Y113.157
X25.4Y57.277
X25.4Y1.397
X25.4Y-15.748
X25.4Y-18.415
X25.527Y-21.844
X25.781Y-9.144
X26.035Y-24.003
X26.098Y167.831
X26.098Y111.95
X26.098Y56.07
X26.098Y0.191
X26.098Y-55.689
X26.098Y-111.569
X26.098Y-167.45
X26.098Y-223.329
X26.162Y174.117
X26.162Y118.237
X26.162Y62.357
X26.162Y6.477
X26.162Y-49.403
X26.162Y-105.283
X26.162Y-161.163
X26.162Y-217.043
X26.543Y-41.465
X26.543Y-45.212
X26.543Y-46.164
X26.67Y-31.623
X26.67Y-230.378
X26.733Y168.974
X26.733Y113.093
X26.733Y57.213
X26.733Y1.333
X26.733Y-29.718
X26.733Y-54.546
X26.733Y-110.426
X26.733Y-166.306
X26.733Y-222.186
X27.051Y161.671
X27.051Y105.791
X27.051Y49.911
X27.051Y-5.969
X27.051Y-62.103
X27.051Y-117.983
X27.051Y-173.863
X27.178Y-40.069
X27.178Y-228.854
X27.368Y173.418
X27.368Y167.45
X27.368Y117.538
X27.368Y111.569
X27.368Y61.658
X27.368Y55.689
X27.368Y5.778
X27.368Y-0.191
X27.368Y-50.101
X27.368Y-56.07
X27.368Y-105.981
X27.368Y-111.95
X27.368Y-161.862
X27.368Y-167.831
X27.368Y-217.742
X27.368Y-223.71
X27.432Y168.275
X27.432Y112.395
X27.432Y56.515
X27.432Y0.635
X27.432Y-55.245
X27.432Y-111.125
X27.432Y-167.005
X27.432Y-222.885
X27.559Y163.068
X27.559Y107.188
X27.559Y51.435
X27.559Y-4.445
X27.559Y-60.579
X27.559Y-172.212
X27.686Y162.179
X27.686Y106.299
X27.686Y50.419
X27.686Y-5.461
X27.686Y-67.31
X27.686Y-116.459
X27.749Y-12.065
X27.813Y-17.399
X27.813Y-61.468
X27.813Y-117.348
X27.813Y-173.228
X27.877Y-40.576
X27.94Y156.845
X27.94Y100.965
X27.94Y45.085
X27.94Y-9.144
X27.94Y-21.971
X27.94Y-38.163
X27.94Y-66.04
X27.94Y-120.904
X27.94Y-121.92
X27.94Y-176.784
X27.94Y-177.8
X27.94Y-232.664
X27.94Y-233.68
X28.003Y9.144
X28.067Y120.904
X28.067Y-226.822
X28.194Y157.861
X28.194Y101.981
X28.194Y46.101
X28.321Y176.784
X28.321Y65.024
X28.321Y-38.925
X28.321Y-42.164
X28.321Y-45.085
X28.384Y-45.91
X28.638Y6.223
X28.702Y117.602
X28.702Y-49.911
X28.702Y-105.791
X28.702Y-161.798
X28.702Y-217.551
X28.765Y173.927
X28.765Y62.166
X29.972Y-23.876
X30.226Y-31.496
X30.29Y-26.416
X30.607Y-17.399
X31.051Y-29.21
X31.115Y-25.971
X31.941Y-23.368
X32.004Y-25.717
X32.131Y-24.257
X33.401Y-34.163
X33.972Y-45.783
X34.29Y160.274
X34.29Y104.394
X34.29Y48.514
X34.29Y-7.366
X34.29Y-46.545
X34.29Y-63.373
X34.29Y-119.253
X34.29Y-175.133
X34.29Y-231.013
X34.671Y-22.669
X34.925Y-41.402
X34.925Y-44.133
X34.925Y-45.847
X35.306Y-34.036
X35.433Y-42.1
X35.433Y-43.434
X35.623Y-40.957
X35.75Y-44.196
X36.449Y-26.797
X36.639Y-29.578
X36.703Y-22.796
X36.703Y-23.558
X36.704Y-32.07
X36.83Y-30.607
X37.465Y-25.4
X37.719Y-24.13
X38.227Y-17.399
X38.481Y-23.495
X39.37Y160.274
X39.37Y104.14
X39.37Y48.26
X39.37Y-7.747
X39.37Y-46.863
X39.37Y-63.373
X39.37Y-119.253
X39.37Y-175.133
X39.37Y-231.013
X39.497Y-45.212
X40.005Y-46.228
X40.259Y-34.163
X40.64Y-23.05
X41.529Y-31.115
X42.672Y-33.337
X42.862Y-25.908
X43.053Y-10.223
X43.434Y-33.655
X43.815Y-39.37
X43.878Y-37.084
X44.005Y-37.973
X44.069Y-43.18
X44.069Y-45.466
X44.45Y160.147
X44.45Y104.14
X44.45Y48.26
X44.45Y-8.954
X44.45Y-63.5
X44.45Y-119.38
X44.45Y-175.26
X44.45Y-231.14
X44.577Y-29.781
X44.577Y-30.734
X44.704Y-31.75
X44.831Y-33.782
X44.958Y170.434
X44.958Y114.681
X44.958Y58.801
X44.958Y2.794
X44.958Y-52.959
X44.958Y-108.966
X44.958Y-164.846
X44.958Y-220.726
X45.402Y-22.098
X45.593Y-9.842
X45.593Y-11.239
X45.72Y-18.669
X47.117Y-19.939
X47.117Y-37.084
T2
X26.797Y-24.892
X26.797Y-25.781
X26.797Y-27.305
X26.797Y-28.321
X28.829Y-11.62
X29.21Y-12.383
X30.353Y-29.845
X30.543Y-27.305
X30.67Y-28.258
X30.988Y-30.48
X31.496Y-12.446
X32.385Y-12.446
X36.005Y-5.969
X36.576Y-8.89
X37.719Y-9.271
X37.846Y-26.924
X38.227Y-26.035
X40.45Y-5.397
X41.656Y-27.305
X41.91Y-8.89
X41.91Y-28.575
X42.291Y-26.67
X42.545Y-9.398
X42.545Y-27.94
X42.926Y-16.129
X42.926Y-17.145
T3
X25.4Y91.44
X25.4Y76.2
X27.94Y91.44
X27.94Y76.2
X30.48Y91.44
X30.48Y76.2
X33.02Y91.44
X33.02Y76.2
X35.56Y91.44
X35.56Y76.2
X38.1Y91.44
X38.1Y76.2
X40.64Y91.44
X40.64Y76.2
X43.18Y91.44
X43.18Y76.2
X45.72Y91.44
X45.72Y76.2
X25.4Y-160.02
X25.4Y-175.26
X27.94Y-160.02
X27.94Y-175.26
X30.48Y-160.02
X30.48Y-175.26
X33.02Y-160.02
X33.02Y-175.26
X35.56Y-160.02
X35.56Y-175.26
X38.1Y-160.02
X38.1Y-175.26
X40.64Y-160.02
X40.64Y-175.26
X43.18Y-160.02
X43.18Y-175.26
X45.72Y-160.02
X45.72Y-175.26
X25.4Y-48.26
X25.4Y-63.5
X27.94Y-48.26
X27.94Y-63.5
X30.48Y-48.26
X30.48Y-63.5
X33.02Y-48.26
X33.02Y-63.5
X35.56Y-48.26
X35.56Y-63.5
X38.1Y-48.26
X38.1Y-63.5
X40.64Y-48.26
X40.64Y-63.5
X43.18Y-48.26
X43.18Y-63.5
X45.72Y-48.26
X45.72Y-63.5
X25.4Y-209.55
X27.94Y-209.55
X30.48Y-209.55
X33.02Y-209.55
X35.56Y-209.55
X38.1Y-209.55
X40.64Y-209.55
X43.18Y-209.55
X45.72Y-209.55
X25.4Y35.56
X25.4Y20.32
X27.94Y35.56
X27.94Y20.32
X30.48Y35.56
X30.48Y20.32
X33.02Y35.56
X33.02Y20.32
X35.56Y35.56
X35.56Y20.32
X38.1Y35.56
X38.1Y20.32
X40.64Y35.56
X40.64Y20.32
X43.18Y35.56
X43.18Y20.32
X45.72Y35.56
X45.72Y20.32
X25.4Y119.38
X25.4Y104.14
X27.94Y119.38
X27.94Y104.14
X30.48Y119.38
X30.48Y104.14
X33.02Y119.38
X33.02Y104.14
X35.56Y119.38
X35.56Y104.14
X38.1Y119.38
X38.1Y104.14
X40.64Y119.38
X40.64Y104.14
X43.18Y119.38
X43.18Y104.14
X45.72Y119.38
X45.72Y104.14
X25.4Y-13.97
X27.94Y-13.97
X30.48Y-13.97
X33.02Y-13.97
X35.56Y-13.97
X38.1Y-13.97
X40.64Y-13.97
X43.18Y-13.97
X45.72Y-13.97
X25.4Y-215.9
X25.4Y-231.14
X27.94Y-215.9
X27.94Y-231.14
X30.48Y-215.9
X30.48Y-231.14
X33.02Y-215.9
X33.02Y-231.14
X35.56Y-215.9
X35.56Y-231.14
X38.1Y-215.9
X38.1Y-231.14
X40.64Y-215.9
X40.64Y-231.14
X43.18Y-215.9
X43.18Y-231.14
X45.72Y-215.9
X45.72Y-231.14
X25.4Y203.2
X25.4Y187.96
X27.94Y203.2
X27.94Y187.96
X30.48Y203.2
X30.48Y187.96
X33.02Y203.2
X33.02Y187.96
X35.56Y203.2
X35.56Y187.96
X38.1Y203.2
X38.1Y187.96
X40.64Y203.2
X40.64Y187.96
X43.18Y203.2
X43.18Y187.96
X45.72Y203.2
X45.72Y187.96
X25.4Y-104.14
X25.4Y-119.38
X27.94Y-104.14
X27.94Y-119.38
X30.48Y-104.14
X30.48Y-119.38
X33.02Y-104.14
X33.02Y-119.38
X35.56Y-104.14
X35.56Y-119.38
X38.1Y-104.14
X38.1Y-119.38
X40.64Y-104.14
X40.64Y-119.38
X43.18Y-104.14
X43.18Y-119.38
X45.72Y-104.14
X45.72Y-119.38
X25.4Y181.61
X27.94Y181.61
X30.48Y181.61
X33.02Y181.61
X35.56Y181.61
X38.1Y181.61
X40.64Y181.61
X43.18Y181.61
X45.72Y181.61
X25.4Y7.62
X25.4Y-7.62
X27.94Y7.62
X27.94Y-7.62
X30.48Y7.62
X30.48Y-7.62
X33.02Y7.62
X33.02Y-7.62
X35.56Y7.62
X35.56Y-7.62
X38.1Y7.62
X38.1Y-7.62
X40.64Y7.62
X40.64Y-7.62
X43.18Y7.62
X43.18Y-7.62
X45.72Y7.62
X45.72Y-7.62
X25.4Y175.26
X25.4Y160.02
X27.94Y175.26
X27.94Y160.02
X30.48Y175.26
X30.48Y160.02
X33.02Y175.26
X33.02Y160.02
X35.56Y175.26
X35.56Y160.02
X38.1Y175.26
X38.1Y160.02
X40.64Y175.26
X40.64Y160.02
X43.18Y175.26
X43.18Y160.02
X45.72Y175.26
X45.72Y160.02
X25.4Y-20.32
X25.4Y-35.56
X27.94Y-20.32
X27.94Y-35.56
X30.48Y-20.32
X30.48Y-35.56
X33.02Y-20.32
X33.02Y-35.56
X35.56Y-20.32
X35.56Y-35.56
X38.1Y-20.32
X38.1Y-35.56
X40.64Y-20.32
X40.64Y-35.56
X43.18Y-20.32
X43.18Y-35.56
X45.72Y-20.32
X45.72Y-35.56
X25.4Y147.32
X25.4Y132.08
X27.94Y147.32
X27.94Y132.08
X30.48Y147.32
X30.48Y132.08
X33.02Y147.32
X33.02Y132.08
X35.56Y147.32
X35.56Y132.08
X38.1Y147.32
X38.1Y132.08
X40.64Y147.32
X40.64Y132.08
X43.18Y147.32
X43.18Y132.08
X45.72Y147.32
X45.72Y132.08
X25.4Y-76.2
X25.4Y-91.44
X27.94Y-76.2
X27.94Y-91.44
X30.48Y-76.2
X30.48Y-91.44
X33.02Y-76.2
X33.02Y-91.44
X35.56Y-76.2
X35.56Y-91.44
X38.1Y-76.2
X38.1Y-91.44
X40.64Y-76.2
X40.64Y-91.44
X43.18Y-76.2
X43.18Y-91.44
X45.72Y-76.2
X45.72Y-91.44
X25.4Y-187.96
X25.4Y-203.2
X27.94Y-187.96
X27.94Y-203.2
X30.48Y-187.96
X30.48Y-203.2
X33.02Y-187.96
X33.02Y-203.2
X35.56Y-187.96
X35.56Y-203.2
X38.1Y-187.96
X38.1Y-203.2
X40.64Y-187.96
X40.64Y-203.2
X43.18Y-187.96
X43.18Y-203.2
X45.72Y-187.96
X45.72Y-203.2
X25.4Y63.5
X25.4Y48.26
X27.94Y63.5
X27.94Y48.26
X30.48Y63.5
X30.48Y48.26
X33.02Y63.5
X33.02Y48.26
X35.56Y63.5
X35.56Y48.26
X38.1Y63.5
X38.1Y48.26
X40.64Y63.5
X40.64Y48.26
X43.18Y63.5
X43.18Y48.26
X45.72Y63.5
X45.72Y48.26
X25.4Y-132.08
X25.4Y-147.32
X27.94Y-132.08
X27.94Y-147.32
X30.48Y-132.08
X30.48Y-147.32
X33.02Y-132.08
X33.02Y-147.32
X35.56Y-132.08
X35.56Y-147.32
X38.1Y-132.08
X38.1Y-147.32
X40.64Y-132.08
X40.64Y-147.32
X43.18Y-132.08
X43.18Y-147.32
X45.72Y-132.08
X45.72Y-147.32
T4
X35.56Y-125.73
X35.56Y97.79
T0
M30
