M48
METRIC,TZ
T1C0.300
T2C0.400
T3C0.800
T4C1.000
T5C3.200
%
G90
G05
T1
X24.257Y-37.338
X24.511Y120.396
X24.511Y64.516
X24.511Y8.636
X24.511Y-36.322
X24.638Y159.893
X24.638Y104.013
X24.638Y48.133
X24.638Y-7.747
X24.638Y-51.562
X24.638Y-63.627
X24.638Y-107.442
X24.638Y-119.507
X24.638Y-163.322
X24.638Y-175.387
X24.638Y-219.202
X24.638Y-223.901
X24.701Y111.188
X24.701Y55.308
X24.701Y-0.572
X24.765Y169.037
X24.765Y113.157
X24.765Y57.277
X24.765Y1.397
X24.892Y172.085
X24.892Y162.941
X24.892Y121.158
X24.892Y116.205
X24.892Y107.061
X24.892Y65.278
X24.892Y60.325
X24.892Y51.181
X24.892Y9.398
X24.892Y4.445
X24.892Y-4.699
X24.892Y-54.356
X24.892Y-60.579
X24.892Y-110.236
X24.892Y-116.459
X24.892Y-166.116
X24.892Y-172.339
X24.892Y-221.996
X25.019Y-64.516
X25.082Y159.067
X25.082Y103.188
X25.082Y47.307
X25.082Y-8.572
X25.273Y-120.332
X25.273Y-176.213
X25.273Y-232.093
X25.336Y-55.626
X25.336Y-111.506
X25.336Y-167.386
X25.4Y178.181
X25.4Y176.403
X25.4Y167.767
X25.4Y111.887
X25.4Y56.007
X25.4Y0.127
X25.4Y-17.272
X25.4Y-19.304
X25.463Y-224.028
X26.098Y166.56
X26.098Y110.68
X26.098Y54.8
X26.098Y-1.079
X26.098Y-56.959
X26.098Y-112.84
X26.098Y-168.719
X26.098Y-224.599
X26.162Y116.967
X26.162Y61.087
X26.162Y5.207
X26.162Y-50.673
X26.162Y-106.553
X26.162Y-162.433
X26.162Y-218.313
X26.543Y-40.195
X26.543Y-43.942
X26.543Y-44.895
X26.67Y-31.623
X26.733Y167.703
X26.733Y111.823
X26.733Y55.944
X26.733Y0.064
X26.733Y-29.718
X26.733Y-55.816
X26.733Y-111.697
X26.733Y-167.576
X26.733Y-223.456
X27.051Y158.496
X27.051Y102.616
X27.051Y46.736
X27.051Y-9.144
X27.051Y-23.495
X27.051Y-65.024
X27.051Y-120.904
X27.051Y-176.784
X27.178Y-38.798
X27.178Y-120.078
X27.178Y-175.958
X27.178Y-232.029
X27.305Y159.258
X27.305Y103.378
X27.305Y47.498
X27.305Y-8.382
X27.305Y-64.262
X27.368Y172.148
X27.368Y166.179
X27.368Y116.268
X27.368Y110.299
X27.368Y60.389
X27.368Y54.419
X27.368Y4.508
X27.368Y-1.46
X27.368Y-51.371
X27.368Y-57.34
X27.368Y-107.251
X27.368Y-113.221
X27.368Y-163.131
X27.368Y-169.1
X27.368Y-219.011
X27.368Y-224.98
X27.432Y167.005
X27.432Y111.125
X27.432Y55.245
X27.432Y-0.635
X27.432Y-56.515
X27.432Y-112.395
X27.432Y-168.275
X27.432Y-222.631
X27.432Y-224.155
X27.686Y175.387
X27.686Y119.507
X27.686Y63.627
X27.686Y7.747
X27.749Y-12.065
X27.813Y157.353
X27.813Y101.473
X27.813Y45.593
X27.813Y-17.399
X27.877Y-39.306
X27.94Y-36.893
X27.94Y-66.548
X27.94Y-67.501
X27.94Y-121.92
X27.94Y-122.872
X27.94Y-177.8
X27.94Y-178.752
X28.067Y163.068
X28.067Y107.188
X28.067Y51.308
X28.067Y-4.572
X28.067Y-60.452
X28.067Y-116.332
X28.067Y-172.212
X28.067Y-228.092
X28.258Y156.4
X28.258Y100.52
X28.258Y44.64
X28.321Y-37.655
X28.321Y-40.894
X28.321Y-43.815
X28.384Y-44.64
X28.765Y172.656
X28.765Y116.776
X28.765Y60.896
X28.765Y5.016
X28.765Y-50.609
X28.765Y-106.743
X28.765Y-162.623
X28.765Y-218.504
X29.337Y-232.029
X29.972Y-23.876
X30.226Y-31.496
X30.353Y-232.156
X30.48Y-26.352
X30.607Y-17.399
X31.051Y-29.21
X31.305Y-25.845
X32.131Y-24.257
X32.664Y-50.889
X33.21Y163.385
X33.21Y107.505
X33.21Y51.625
X33.21Y-4.255
X33.21Y-60.134
X33.21Y-116.014
X33.21Y-171.894
X33.21Y-227.774
X33.528Y-12.573
X33.655Y-44.704
X34.227Y-45.276
X34.76Y-18.64
X34.925Y-40.132
X34.925Y-42.862
X34.925Y-44.577
X35.369Y162.75
X35.369Y106.87
X35.369Y50.99
X35.369Y-4.889
X35.369Y-60.77
X35.369Y-116.649
X35.369Y-172.529
X35.369Y-228.409
X35.433Y-40.831
X35.433Y-42.164
X35.496Y-51.054
X35.814Y-39.497
X35.814Y-42.926
X36.36Y-26.64
X36.639Y-29.578
X36.703Y-22.796
X36.704Y-32.07
X36.83Y-30.607
X37.338Y-23.812
X37.465Y-25.4
X38.036Y162.75
X38.036Y106.87
X38.036Y50.99
X38.036Y-4.889
X38.036Y-51.054
X38.036Y-60.77
X38.036Y-116.649
X38.036Y-172.529
X38.036Y-228.409
X38.227Y-17.399
X38.481Y-7.874
X38.481Y-23.495
X38.735Y-44.323
X38.989Y-45.148
X39.624Y-44.323
X40.576Y162.75
X40.576Y106.87
X40.576Y50.99
X40.576Y-4.889
X40.576Y-60.77
X40.576Y-116.649
X40.576Y-172.529
X40.576Y-228.409
X40.64Y-23.05
X40.703Y-51.054
X41.529Y-31.115
X42.862Y-25.908
X42.862Y-32.322
X42.926Y-8.128
X43.116Y162.75
X43.116Y106.87
X43.116Y50.99
X43.116Y-4.889
X43.116Y-60.77
X43.116Y-116.649
X43.116Y-172.529
X43.116Y-228.409
X43.586Y-32.715
X43.752Y-18.288
X43.815Y-38.1
X43.878Y-35.814
X44.005Y-36.703
X44.069Y-41.91
X44.069Y-44.196
X44.577Y-30.734
X44.64Y-29.4
X44.704Y-31.75
X45.085Y163.195
X45.085Y107.315
X45.085Y51.435
X45.085Y-4.445
X45.085Y-51.435
X45.085Y-60.325
X45.085Y-116.205
X45.085Y-172.085
X45.085Y-227.965
X45.847Y-19.939
X47.117Y-19.939
X47.117Y-35.814
T2
X26.797Y-24.892
X26.797Y-25.781
X26.797Y-27.305
X26.797Y-28.321
X28.448Y-11.367
X29.21Y-12.383
X30.353Y-29.845
X30.543Y-27.305
X30.67Y-28.258
X30.988Y-30.48
X31.75Y-12.573
X32.575Y-12.128
X36.576Y-8.382
X37.592Y-8.382
X37.846Y-26.924
X38.227Y-26.035
X41.656Y-27.305
X41.91Y-7.62
X41.91Y-8.572
X41.91Y-12.509
X41.91Y-28.575
X42.291Y-26.67
X42.545Y-27.94
X42.921Y-17.404
T3
X25.4Y-133.35
X25.4Y-146.05
X27.94Y-133.35
X27.94Y-146.05
X30.48Y-133.35
X30.48Y-146.05
X33.02Y-133.35
X33.02Y-146.05
X35.56Y-133.35
X35.56Y-146.05
X38.1Y-133.35
X38.1Y-146.05
X40.64Y-133.35
X40.64Y-146.05
X43.18Y-133.35
X43.18Y-146.05
X45.72Y-133.35
X45.72Y-146.05
X25.4Y118.11
X25.4Y105.41
X27.94Y118.11
X27.94Y105.41
X30.48Y118.11
X30.48Y105.41
X33.02Y118.11
X33.02Y105.41
X35.56Y118.11
X35.56Y105.41
X38.1Y118.11
X38.1Y105.41
X40.64Y118.11
X40.64Y105.41
X43.18Y118.11
X43.18Y105.41
X45.72Y118.11
X45.72Y105.41
X25.4Y90.17
X25.4Y77.47
X27.94Y90.17
X27.94Y77.47
X30.48Y90.17
X30.48Y77.47
X33.02Y90.17
X33.02Y77.47
X35.56Y90.17
X35.56Y77.47
X38.1Y90.17
X38.1Y77.47
X40.64Y90.17
X40.64Y77.47
X43.18Y90.17
X43.18Y77.47
X45.72Y90.17
X45.72Y77.47
X25.4Y34.29
X25.4Y21.59
X27.94Y34.29
X27.94Y21.59
X30.48Y34.29
X30.48Y21.59
X33.02Y34.29
X33.02Y21.59
X35.56Y34.29
X35.56Y21.59
X38.1Y34.29
X38.1Y21.59
X40.64Y34.29
X40.64Y21.59
X43.18Y34.29
X43.18Y21.59
X45.72Y34.29
X45.72Y21.59
X25.4Y173.99
X25.4Y161.29
X27.94Y173.99
X27.94Y161.29
X30.48Y173.99
X30.48Y161.29
X33.02Y173.99
X33.02Y161.29
X35.56Y173.99
X35.56Y161.29
X38.1Y173.99
X38.1Y161.29
X40.64Y173.99
X40.64Y161.29
X43.18Y173.99
X43.18Y161.29
X45.72Y173.99
X45.72Y161.29
X25.4Y-21.59
X25.4Y-34.29
X27.94Y-21.59
X27.94Y-34.29
X30.48Y-21.59
X30.48Y-34.29
X33.02Y-21.59
X33.02Y-34.29
X35.56Y-21.59
X35.56Y-34.29
X38.1Y-21.59
X38.1Y-34.29
X40.64Y-21.59
X40.64Y-34.29
X43.18Y-21.59
X43.18Y-34.29
X45.72Y-21.59
X45.72Y-34.29
X25.4Y-77.47
X25.4Y-90.17
X27.94Y-77.47
X27.94Y-90.17
X30.48Y-77.47
X30.48Y-90.17
X33.02Y-77.47
X33.02Y-90.17
X35.56Y-77.47
X35.56Y-90.17
X38.1Y-77.47
X38.1Y-90.17
X40.64Y-77.47
X40.64Y-90.17
X43.18Y-77.47
X43.18Y-90.17
X45.72Y-77.47
X45.72Y-90.17
X25.4Y146.05
X25.4Y133.35
X27.94Y146.05
X27.94Y133.35
X30.48Y146.05
X30.48Y133.35
X33.02Y146.05
X33.02Y133.35
X35.56Y146.05
X35.56Y133.35
X38.1Y146.05
X38.1Y133.35
X40.64Y146.05
X40.64Y133.35
X43.18Y146.05
X43.18Y133.35
X45.72Y146.05
X45.72Y133.35
X25.4Y-49.53
X25.4Y-62.23
X27.94Y-49.53
X27.94Y-62.23
X30.48Y-49.53
X30.48Y-62.23
X33.02Y-49.53
X33.02Y-62.23
X35.56Y-49.53
X35.56Y-62.23
X38.1Y-49.53
X38.1Y-62.23
X40.64Y-49.53
X40.64Y-62.23
X43.18Y-49.53
X43.18Y-62.23
X45.72Y-49.53
X45.72Y-62.23
X25.4Y-217.17
X25.4Y-229.87
X27.94Y-217.17
X27.94Y-229.87
X30.48Y-217.17
X30.48Y-229.87
X33.02Y-217.17
X33.02Y-229.87
X35.56Y-217.17
X35.56Y-229.87
X38.1Y-217.17
X38.1Y-229.87
X40.64Y-217.17
X40.64Y-229.87
X43.18Y-217.17
X43.18Y-229.87
X45.72Y-217.17
X45.72Y-229.87
X25.4Y6.35
X25.4Y-6.35
X27.94Y6.35
X27.94Y-6.35
X30.48Y6.35
X30.48Y-6.35
X33.02Y6.35
X33.02Y-6.35
X35.56Y6.35
X35.56Y-6.35
X38.1Y6.35
X38.1Y-6.35
X40.64Y6.35
X40.64Y-6.35
X43.18Y6.35
X43.18Y-6.35
X45.72Y6.35
X45.72Y-6.35
X25.4Y-105.41
X25.4Y-118.11
X27.94Y-105.41
X27.94Y-118.11
X30.48Y-105.41
X30.48Y-118.11
X33.02Y-105.41
X33.02Y-118.11
X35.56Y-105.41
X35.56Y-118.11
X38.1Y-105.41
X38.1Y-118.11
X40.64Y-105.41
X40.64Y-118.11
X43.18Y-105.41
X43.18Y-118.11
X45.72Y-105.41
X45.72Y-118.11
X25.4Y62.23
X25.4Y49.53
X27.94Y62.23
X27.94Y49.53
X30.48Y62.23
X30.48Y49.53
X33.02Y62.23
X33.02Y49.53
X35.56Y62.23
X35.56Y49.53
X38.1Y62.23
X38.1Y49.53
X40.64Y62.23
X40.64Y49.53
X43.18Y62.23
X43.18Y49.53
X45.72Y62.23
X45.72Y49.53
X25.4Y-161.29
X25.4Y-173.99
X27.94Y-161.29
X27.94Y-173.99
X30.48Y-161.29
X30.48Y-173.99
X33.02Y-161.29
X33.02Y-173.99
X35.56Y-161.29
X35.56Y-173.99
X38.1Y-161.29
X38.1Y-173.99
X40.64Y-161.29
X40.64Y-173.99
X43.18Y-161.29
X43.18Y-173.99
X45.72Y-161.29
X45.72Y-173.99
X25.4Y201.93
X25.4Y189.23
X27.94Y201.93
X27.94Y189.23
X30.48Y201.93
X30.48Y189.23
X33.02Y201.93
X33.02Y189.23
X35.56Y201.93
X35.56Y189.23
X38.1Y201.93
X38.1Y189.23
X40.64Y201.93
X40.64Y189.23
X43.18Y201.93
X43.18Y189.23
X45.72Y201.93
X45.72Y189.23
X25.4Y-189.23
X25.4Y-201.93
X27.94Y-189.23
X27.94Y-201.93
X30.48Y-189.23
X30.48Y-201.93
X33.02Y-189.23
X33.02Y-201.93
X35.56Y-189.23
X35.56Y-201.93
X38.1Y-189.23
X38.1Y-201.93
X40.64Y-189.23
X40.64Y-201.93
X43.18Y-189.23
X43.18Y-201.93
X45.72Y-189.23
X45.72Y-201.93
T4
X25.4Y181.61
X27.94Y181.61
X30.48Y181.61
X33.02Y181.61
X35.56Y181.61
X38.1Y181.61
X40.64Y181.61
X43.18Y181.61
X45.72Y181.61
X25.4Y-13.97
X27.94Y-13.97
X30.48Y-13.97
X33.02Y-13.97
X35.56Y-13.97
X38.1Y-13.97
X40.64Y-13.97
X43.18Y-13.97
X45.72Y-13.97
X25.4Y-209.55
X27.94Y-209.55
X30.48Y-209.55
X33.02Y-209.55
X35.56Y-209.55
X38.1Y-209.55
X40.64Y-209.55
X43.18Y-209.55
X45.72Y-209.55
T5
X35.56Y97.79
X35.56Y-125.73
T0
M30
