G04 #@! TF.GenerationSoftware,KiCad,Pcbnew,5.0.2+dfsg1-1*
G04 #@! TF.CreationDate,2019-08-29T01:11:28+02:00*
G04 #@! TF.ProjectId,hexdump,68657864-756d-4702-9e6b-696361645f70,rev?*
G04 #@! TF.SameCoordinates,Original*
G04 #@! TF.FileFunction,Copper,L4,Bot*
G04 #@! TF.FilePolarity,Positive*
%FSLAX46Y46*%
G04 Gerber Fmt 4.6, Leading zero omitted, Abs format (unit mm)*
G04 Created by KiCad (PCBNEW 5.0.2+dfsg1-1) date Thu Aug 29 01:11:28 2019*
%MOMM*%
%LPD*%
G01*
G04 APERTURE LIST*
G04 #@! TA.AperFunction,ComponentPad*
%ADD10O,1.250000X1.800000*%
G04 #@! TD*
G04 #@! TA.AperFunction,SMDPad,CuDef*
%ADD11R,2.200000X0.600000*%
G04 #@! TD*
G04 #@! TA.AperFunction,SMDPad,CuDef*
%ADD12R,1.060000X0.650000*%
G04 #@! TD*
G04 #@! TA.AperFunction,SMDPad,CuDef*
%ADD13C,0.500000*%
G04 #@! TD*
G04 #@! TA.AperFunction,Conductor*
%ADD14C,0.100000*%
G04 #@! TD*
G04 #@! TA.AperFunction,ComponentPad*
%ADD15O,1.330000X2.000000*%
G04 #@! TD*
G04 #@! TA.AperFunction,SMDPad,CuDef*
%ADD16R,0.400000X2.000000*%
G04 #@! TD*
G04 #@! TA.AperFunction,SMDPad,CuDef*
%ADD17R,0.500000X0.900000*%
G04 #@! TD*
G04 #@! TA.AperFunction,SMDPad,CuDef*
%ADD18R,0.900000X0.500000*%
G04 #@! TD*
G04 #@! TA.AperFunction,SMDPad,CuDef*
%ADD19R,1.500000X0.350000*%
G04 #@! TD*
G04 #@! TA.AperFunction,SMDPad,CuDef*
%ADD20C,1.250000*%
G04 #@! TD*
G04 #@! TA.AperFunction,ViaPad*
%ADD21C,0.600000*%
G04 #@! TD*
G04 #@! TA.AperFunction,ViaPad*
%ADD22C,0.800000*%
G04 #@! TD*
G04 #@! TA.AperFunction,Conductor*
%ADD23C,0.250000*%
G04 #@! TD*
G04 #@! TA.AperFunction,Conductor*
%ADD24C,0.600000*%
G04 #@! TD*
G04 #@! TA.AperFunction,Conductor*
%ADD25C,0.800000*%
G04 #@! TD*
G04 #@! TA.AperFunction,Conductor*
%ADD26C,0.300000*%
G04 #@! TD*
G04 #@! TA.AperFunction,Conductor*
%ADD27C,0.200000*%
G04 #@! TD*
G04 #@! TA.AperFunction,Conductor*
%ADD28C,0.254000*%
G04 #@! TD*
G04 APERTURE END LIST*
D10*
G04 #@! TO.P,U12,1*
G04 #@! TO.N,/sheet5D3BEDE9/E*
X25400000Y-229870000D03*
G04 #@! TO.P,U12,2*
G04 #@! TO.N,/sheet5D3BEDE9/N*
X27940000Y-229870000D03*
G04 #@! TO.P,U12,3*
G04 #@! TO.N,Net-(U12-Pad3)*
X30480000Y-229870000D03*
G04 #@! TO.P,U12,4*
G04 #@! TO.N,/sheet5D3BEDE9/M*
X33020000Y-229870000D03*
G04 #@! TO.P,U12,5*
G04 #@! TO.N,/sheet5D3BEDE9/L*
X35560000Y-229870000D03*
G04 #@! TO.P,U12,6*
G04 #@! TO.N,/sheet5D3BEDE9/G2*
X38100000Y-229870000D03*
G04 #@! TO.P,U12,7*
G04 #@! TO.N,/sheet5D3BEDE9/D*
X40640000Y-229870000D03*
G04 #@! TO.P,U12,8*
G04 #@! TO.N,/sheet5D3BEDE9/Dp*
X43180000Y-229870000D03*
G04 #@! TO.P,U12,9*
G04 #@! TO.N,/sheet5D3BEDE9/C*
X45720000Y-229870000D03*
G04 #@! TO.P,U12,10*
G04 #@! TO.N,/sheet5D3BEDE9/B*
X45720000Y-217170000D03*
G04 #@! TO.P,U12,11*
G04 #@! TO.N,/DIG3S*
X43180000Y-217170000D03*
G04 #@! TO.P,U12,12*
G04 #@! TO.N,/sheet5D3BEDE9/A*
X40640000Y-217170000D03*
G04 #@! TO.P,U12,13*
G04 #@! TO.N,/sheet5D3BEDE9/G1*
X38100000Y-217170000D03*
G04 #@! TO.P,U12,14*
G04 #@! TO.N,/sheet5D3BEDE9/K*
X35560000Y-217170000D03*
G04 #@! TO.P,U12,15*
G04 #@! TO.N,/sheet5D3BEDE9/J*
X33020000Y-217170000D03*
G04 #@! TO.P,U12,16*
G04 #@! TO.N,/DIG2S*
X30480000Y-217170000D03*
G04 #@! TO.P,U12,17*
G04 #@! TO.N,/sheet5D3BEDE9/H*
X27940000Y-217170000D03*
G04 #@! TO.P,U12,18*
G04 #@! TO.N,/sheet5D3BEDE9/F*
X25400000Y-217170000D03*
G04 #@! TD*
G04 #@! TO.P,U23,18*
G04 #@! TO.N,/sheet5D86B604/F*
X25400000Y201930000D03*
G04 #@! TO.P,U23,17*
G04 #@! TO.N,/sheet5D86B604/H*
X27940000Y201930000D03*
G04 #@! TO.P,U23,16*
G04 #@! TO.N,/DIG0N*
X30480000Y201930000D03*
G04 #@! TO.P,U23,15*
G04 #@! TO.N,/sheet5D86B604/J*
X33020000Y201930000D03*
G04 #@! TO.P,U23,14*
G04 #@! TO.N,/sheet5D86B604/K*
X35560000Y201930000D03*
G04 #@! TO.P,U23,13*
G04 #@! TO.N,/sheet5D86B604/G1*
X38100000Y201930000D03*
G04 #@! TO.P,U23,12*
G04 #@! TO.N,/sheet5D86B604/A*
X40640000Y201930000D03*
G04 #@! TO.P,U23,11*
G04 #@! TO.N,/DIG1N*
X43180000Y201930000D03*
G04 #@! TO.P,U23,10*
G04 #@! TO.N,/sheet5D86B604/B*
X45720000Y201930000D03*
G04 #@! TO.P,U23,9*
G04 #@! TO.N,/sheet5D86B604/C*
X45720000Y189230000D03*
G04 #@! TO.P,U23,8*
G04 #@! TO.N,/sheet5D86B604/Dp*
X43180000Y189230000D03*
G04 #@! TO.P,U23,7*
G04 #@! TO.N,/sheet5D86B604/D*
X40640000Y189230000D03*
G04 #@! TO.P,U23,6*
G04 #@! TO.N,/sheet5D86B604/G2*
X38100000Y189230000D03*
G04 #@! TO.P,U23,5*
G04 #@! TO.N,/sheet5D86B604/L*
X35560000Y189230000D03*
G04 #@! TO.P,U23,4*
G04 #@! TO.N,/sheet5D86B604/M*
X33020000Y189230000D03*
G04 #@! TO.P,U23,3*
G04 #@! TO.N,Net-(U23-Pad3)*
X30480000Y189230000D03*
G04 #@! TO.P,U23,2*
G04 #@! TO.N,/sheet5D86B604/N*
X27940000Y189230000D03*
G04 #@! TO.P,U23,1*
G04 #@! TO.N,/sheet5D86B604/E*
X25400000Y189230000D03*
G04 #@! TD*
G04 #@! TO.P,U2,18*
G04 #@! TO.N,/2x2digit 14 segment/F*
X25400000Y-21590000D03*
G04 #@! TO.P,U2,17*
G04 #@! TO.N,/2x2digit 14 segment/H*
X27940000Y-21590000D03*
G04 #@! TO.P,U2,16*
G04 #@! TO.N,/DIG0S*
X30480000Y-21590000D03*
G04 #@! TO.P,U2,15*
G04 #@! TO.N,/2x2digit 14 segment/J*
X33020000Y-21590000D03*
G04 #@! TO.P,U2,14*
G04 #@! TO.N,/2x2digit 14 segment/K*
X35560000Y-21590000D03*
G04 #@! TO.P,U2,13*
G04 #@! TO.N,/2x2digit 14 segment/G1*
X38100000Y-21590000D03*
G04 #@! TO.P,U2,12*
G04 #@! TO.N,/2x2digit 14 segment/A*
X40640000Y-21590000D03*
G04 #@! TO.P,U2,11*
G04 #@! TO.N,/DIG1S*
X43180000Y-21590000D03*
G04 #@! TO.P,U2,10*
G04 #@! TO.N,/2x2digit 14 segment/B*
X45720000Y-21590000D03*
G04 #@! TO.P,U2,9*
G04 #@! TO.N,/2x2digit 14 segment/C*
X45720000Y-34290000D03*
G04 #@! TO.P,U2,8*
G04 #@! TO.N,/2x2digit 14 segment/Dp*
X43180000Y-34290000D03*
G04 #@! TO.P,U2,7*
G04 #@! TO.N,/2x2digit 14 segment/D*
X40640000Y-34290000D03*
G04 #@! TO.P,U2,6*
G04 #@! TO.N,/2x2digit 14 segment/G2*
X38100000Y-34290000D03*
G04 #@! TO.P,U2,5*
G04 #@! TO.N,/2x2digit 14 segment/L*
X35560000Y-34290000D03*
G04 #@! TO.P,U2,4*
G04 #@! TO.N,/2x2digit 14 segment/M*
X33020000Y-34290000D03*
G04 #@! TO.P,U2,3*
G04 #@! TO.N,Net-(U2-Pad3)*
X30480000Y-34290000D03*
G04 #@! TO.P,U2,2*
G04 #@! TO.N,/2x2digit 14 segment/N*
X27940000Y-34290000D03*
G04 #@! TO.P,U2,1*
G04 #@! TO.N,/2x2digit 14 segment/E*
X25400000Y-34290000D03*
G04 #@! TD*
D11*
G04 #@! TO.P,U25,16*
G04 #@! TO.N,/B_select*
X46280000Y-32385000D03*
G04 #@! TO.P,U25,1*
G04 #@! TO.N,VCC*
X40080000Y-32385000D03*
G04 #@! TO.P,U25,15*
G04 #@! TO.N,/A_select*
X46280000Y-31115000D03*
G04 #@! TO.P,U25,2*
G04 #@! TO.N,GND*
X40080000Y-31115000D03*
G04 #@! TO.P,U25,14*
G04 #@! TO.N,Net-(U25-Pad14)*
X46280000Y-29845000D03*
G04 #@! TO.P,U25,3*
G04 #@! TO.N,/DIG0N*
X40080000Y-29845000D03*
G04 #@! TO.P,U25,13*
G04 #@! TO.N,Net-(U25-Pad13)*
X46280000Y-28575000D03*
G04 #@! TO.P,U25,4*
G04 #@! TO.N,/DIG3S*
X40080000Y-28575000D03*
G04 #@! TO.P,U25,12*
G04 #@! TO.N,Net-(U25-Pad12)*
X46280000Y-27305000D03*
G04 #@! TO.P,U25,5*
G04 #@! TO.N,/DIG2N*
X40080000Y-27305000D03*
G04 #@! TO.P,U25,11*
G04 #@! TO.N,Net-(U25-Pad11)*
X46280000Y-26035000D03*
G04 #@! TO.P,U25,6*
G04 #@! TO.N,/DIG1S*
X40080000Y-26035000D03*
G04 #@! TO.P,U25,10*
G04 #@! TO.N,/ENL*
X46280000Y-24765000D03*
G04 #@! TO.P,U25,7*
G04 #@! TO.N,/ENH*
X40080000Y-24765000D03*
G04 #@! TO.P,U25,9*
G04 #@! TO.N,VCC*
X46280000Y-23495000D03*
G04 #@! TO.P,U25,8*
G04 #@! TO.N,GND*
X40080000Y-23495000D03*
G04 #@! TD*
G04 #@! TO.P,U26,16*
G04 #@! TO.N,/B_select*
X34850000Y-32385000D03*
G04 #@! TO.P,U26,1*
G04 #@! TO.N,VCC*
X28650000Y-32385000D03*
G04 #@! TO.P,U26,15*
G04 #@! TO.N,/A_select*
X34850000Y-31115000D03*
G04 #@! TO.P,U26,2*
G04 #@! TO.N,GND*
X28650000Y-31115000D03*
G04 #@! TO.P,U26,14*
G04 #@! TO.N,Net-(U26-Pad14)*
X34850000Y-29845000D03*
G04 #@! TO.P,U26,3*
G04 #@! TO.N,/DIG0S*
X28650000Y-29845000D03*
G04 #@! TO.P,U26,13*
G04 #@! TO.N,Net-(U26-Pad13)*
X34850000Y-28575000D03*
G04 #@! TO.P,U26,4*
G04 #@! TO.N,/DIG3N*
X28650000Y-28575000D03*
G04 #@! TO.P,U26,12*
G04 #@! TO.N,Net-(U26-Pad12)*
X34850000Y-27305000D03*
G04 #@! TO.P,U26,5*
G04 #@! TO.N,/DIG2S*
X28650000Y-27305000D03*
G04 #@! TO.P,U26,11*
G04 #@! TO.N,Net-(U26-Pad11)*
X34850000Y-26035000D03*
G04 #@! TO.P,U26,6*
G04 #@! TO.N,/DIG1N*
X28650000Y-26035000D03*
G04 #@! TO.P,U26,10*
G04 #@! TO.N,/ENL*
X34850000Y-24765000D03*
G04 #@! TO.P,U26,7*
G04 #@! TO.N,/ENH*
X28650000Y-24765000D03*
G04 #@! TO.P,U26,9*
G04 #@! TO.N,VCC*
X34850000Y-23495000D03*
G04 #@! TO.P,U26,8*
G04 #@! TO.N,GND*
X28650000Y-23495000D03*
G04 #@! TD*
D10*
G04 #@! TO.P,U3,1*
G04 #@! TO.N,/2x2digit 14 segment/E*
X25400000Y-62230000D03*
G04 #@! TO.P,U3,2*
G04 #@! TO.N,/2x2digit 14 segment/N*
X27940000Y-62230000D03*
G04 #@! TO.P,U3,3*
G04 #@! TO.N,Net-(U3-Pad3)*
X30480000Y-62230000D03*
G04 #@! TO.P,U3,4*
G04 #@! TO.N,/2x2digit 14 segment/M*
X33020000Y-62230000D03*
G04 #@! TO.P,U3,5*
G04 #@! TO.N,/2x2digit 14 segment/L*
X35560000Y-62230000D03*
G04 #@! TO.P,U3,6*
G04 #@! TO.N,/2x2digit 14 segment/G2*
X38100000Y-62230000D03*
G04 #@! TO.P,U3,7*
G04 #@! TO.N,/2x2digit 14 segment/D*
X40640000Y-62230000D03*
G04 #@! TO.P,U3,8*
G04 #@! TO.N,/2x2digit 14 segment/Dp*
X43180000Y-62230000D03*
G04 #@! TO.P,U3,9*
G04 #@! TO.N,/2x2digit 14 segment/C*
X45720000Y-62230000D03*
G04 #@! TO.P,U3,10*
G04 #@! TO.N,/2x2digit 14 segment/B*
X45720000Y-49530000D03*
G04 #@! TO.P,U3,11*
G04 #@! TO.N,/DIG3S*
X43180000Y-49530000D03*
G04 #@! TO.P,U3,12*
G04 #@! TO.N,/2x2digit 14 segment/A*
X40640000Y-49530000D03*
G04 #@! TO.P,U3,13*
G04 #@! TO.N,/2x2digit 14 segment/G1*
X38100000Y-49530000D03*
G04 #@! TO.P,U3,14*
G04 #@! TO.N,/2x2digit 14 segment/K*
X35560000Y-49530000D03*
G04 #@! TO.P,U3,15*
G04 #@! TO.N,/2x2digit 14 segment/J*
X33020000Y-49530000D03*
G04 #@! TO.P,U3,16*
G04 #@! TO.N,/DIG2S*
X30480000Y-49530000D03*
G04 #@! TO.P,U3,17*
G04 #@! TO.N,/2x2digit 14 segment/H*
X27940000Y-49530000D03*
G04 #@! TO.P,U3,18*
G04 #@! TO.N,/2x2digit 14 segment/F*
X25400000Y-49530000D03*
G04 #@! TD*
D12*
G04 #@! TO.P,U27,1*
G04 #@! TO.N,VCC*
X45550000Y-40960000D03*
G04 #@! TO.P,U27,2*
G04 #@! TO.N,GND*
X45550000Y-41910000D03*
G04 #@! TO.P,U27,3*
G04 #@! TO.N,VCC*
X45550000Y-42860000D03*
G04 #@! TO.P,U27,4*
G04 #@! TO.N,Net-(U27-Pad4)*
X43350000Y-42860000D03*
G04 #@! TO.P,U27,5*
G04 #@! TO.N,/3V3*
X43350000Y-40960000D03*
G04 #@! TD*
D13*
G04 #@! TO.P,JP1,2*
G04 #@! TO.N,/3V3*
X26027000Y-45085000D03*
D14*
G04 #@! TD*
G04 #@! TO.N,/3V3*
G04 #@! TO.C,JP1*
G36*
X26277000Y-45535000D02*
X25777000Y-45535000D01*
X25777000Y-44635000D01*
X26277000Y-44635000D01*
X26277000Y-45535000D01*
X26277000Y-45535000D01*
G37*
D13*
G04 #@! TO.P,JP1,1*
G04 #@! TO.N,/3V3*
X25027000Y-45085000D03*
D14*
G04 #@! TD*
G04 #@! TO.N,/3V3*
G04 #@! TO.C,JP1*
G36*
X25277000Y-44960000D02*
X25827000Y-44960000D01*
X25827000Y-45210000D01*
X25277000Y-45210000D01*
X25277000Y-45535000D01*
X24777000Y-45535000D01*
X24777000Y-44635000D01*
X25277000Y-44635000D01*
X25277000Y-44960000D01*
X25277000Y-44960000D01*
G37*
D13*
G04 #@! TO.P,JP2,2*
G04 #@! TO.N,GND*
X26027000Y-43942000D03*
D14*
G04 #@! TD*
G04 #@! TO.N,GND*
G04 #@! TO.C,JP2*
G36*
X26277000Y-44392000D02*
X25777000Y-44392000D01*
X25777000Y-43492000D01*
X26277000Y-43492000D01*
X26277000Y-44392000D01*
X26277000Y-44392000D01*
G37*
D13*
G04 #@! TO.P,JP2,1*
G04 #@! TO.N,GND*
X25027000Y-43942000D03*
D14*
G04 #@! TD*
G04 #@! TO.N,GND*
G04 #@! TO.C,JP2*
G36*
X25277000Y-43817000D02*
X25827000Y-43817000D01*
X25827000Y-44067000D01*
X25277000Y-44067000D01*
X25277000Y-44392000D01*
X24777000Y-44392000D01*
X24777000Y-43492000D01*
X25277000Y-43492000D01*
X25277000Y-43817000D01*
X25277000Y-43817000D01*
G37*
D15*
G04 #@! TO.P,J1,1*
G04 #@! TO.N,/uart_rx*
X25400000Y-13970000D03*
G04 #@! TO.P,J1,2*
G04 #@! TO.N,GND*
X27940000Y-13970000D03*
G04 #@! TO.P,J1,3*
G04 #@! TO.N,VCC*
X30480000Y-13970000D03*
G04 #@! TO.P,J1,4*
X33020000Y-13970000D03*
G04 #@! TO.P,J1,5*
X35560000Y-13970000D03*
G04 #@! TO.P,J1,6*
G04 #@! TO.N,GND*
X38100000Y-13970000D03*
G04 #@! TO.P,J1,7*
G04 #@! TO.N,/swdclk*
X40640000Y-13970000D03*
G04 #@! TO.P,J1,8*
G04 #@! TO.N,/swdio*
X43180000Y-13970000D03*
G04 #@! TO.P,J1,9*
G04 #@! TO.N,GND*
X45720000Y-13970000D03*
G04 #@! TD*
D16*
G04 #@! TO.P,U1,1*
G04 #@! TO.N,GND*
X24828500Y-52880000D03*
G04 #@! TO.P,U1,2*
G04 #@! TO.N,/data_south*
X25463500Y-52880000D03*
G04 #@! TO.P,U1,3*
G04 #@! TO.N,/clk_south*
X26098500Y-52880000D03*
G04 #@! TO.P,U1,4*
G04 #@! TO.N,/le*
X26733500Y-52880000D03*
G04 #@! TO.P,U1,5*
G04 #@! TO.N,/2x2digit 14 segment/F*
X27368500Y-52880000D03*
G04 #@! TO.P,U1,6*
G04 #@! TO.N,/2x2digit 14 segment/H*
X28003500Y-52880000D03*
G04 #@! TO.P,U1,7*
G04 #@! TO.N,/2x2digit 14 segment/B*
X28638500Y-52880000D03*
G04 #@! TO.P,U1,8*
G04 #@! TO.N,/2x2digit 14 segment/A*
X29273500Y-52880000D03*
G04 #@! TO.P,U1,9*
G04 #@! TO.N,/2x2digit 14 segment/G1*
X29908500Y-52880000D03*
G04 #@! TO.P,U1,10*
G04 #@! TO.N,/2x2digit 14 segment/J*
X30543500Y-52880000D03*
G04 #@! TO.P,U1,11*
G04 #@! TO.N,/2x2digit 14 segment/K*
X31178500Y-52880000D03*
G04 #@! TO.P,U1,12*
G04 #@! TO.N,Net-(U1-Pad12)*
X31813500Y-52880000D03*
G04 #@! TO.P,U1,13*
G04 #@! TO.N,/2x2digit 14 segment/G2*
X31813500Y-58880000D03*
G04 #@! TO.P,U1,14*
G04 #@! TO.N,/2x2digit 14 segment/D*
X31178500Y-58880000D03*
G04 #@! TO.P,U1,15*
G04 #@! TO.N,/2x2digit 14 segment/Dp*
X30543500Y-58880000D03*
G04 #@! TO.P,U1,16*
G04 #@! TO.N,/2x2digit 14 segment/L*
X29908500Y-58880000D03*
G04 #@! TO.P,U1,17*
G04 #@! TO.N,/2x2digit 14 segment/M*
X29273500Y-58880000D03*
G04 #@! TO.P,U1,18*
G04 #@! TO.N,/2x2digit 14 segment/N*
X28638500Y-58880000D03*
G04 #@! TO.P,U1,19*
G04 #@! TO.N,/2x2digit 14 segment/C*
X28003500Y-58880000D03*
G04 #@! TO.P,U1,20*
G04 #@! TO.N,/2x2digit 14 segment/E*
X27368500Y-58880000D03*
G04 #@! TO.P,U1,21*
G04 #@! TO.N,/!oe*
X26733500Y-58880000D03*
G04 #@! TO.P,U1,22*
G04 #@! TO.N,/sheet5D3BEBE4/DI*
X26098500Y-58880000D03*
G04 #@! TO.P,U1,23*
G04 #@! TO.N,Net-(R1-Pad2)*
X25463500Y-58880000D03*
G04 #@! TO.P,U1,24*
G04 #@! TO.N,VCC*
X24828500Y-58880000D03*
G04 #@! TD*
G04 #@! TO.P,U4,24*
G04 #@! TO.N,VCC*
X24828500Y-114760000D03*
G04 #@! TO.P,U4,23*
G04 #@! TO.N,Net-(R2-Pad2)*
X25463500Y-114760000D03*
G04 #@! TO.P,U4,22*
G04 #@! TO.N,/sheet5D3BEDDC/DI*
X26098500Y-114760000D03*
G04 #@! TO.P,U4,21*
G04 #@! TO.N,/!oe*
X26733500Y-114760000D03*
G04 #@! TO.P,U4,20*
G04 #@! TO.N,/sheet5D3BEBE4/E*
X27368500Y-114760000D03*
G04 #@! TO.P,U4,19*
G04 #@! TO.N,/sheet5D3BEBE4/C*
X28003500Y-114760000D03*
G04 #@! TO.P,U4,18*
G04 #@! TO.N,/sheet5D3BEBE4/N*
X28638500Y-114760000D03*
G04 #@! TO.P,U4,17*
G04 #@! TO.N,/sheet5D3BEBE4/M*
X29273500Y-114760000D03*
G04 #@! TO.P,U4,16*
G04 #@! TO.N,/sheet5D3BEBE4/L*
X29908500Y-114760000D03*
G04 #@! TO.P,U4,15*
G04 #@! TO.N,/sheet5D3BEBE4/Dp*
X30543500Y-114760000D03*
G04 #@! TO.P,U4,14*
G04 #@! TO.N,/sheet5D3BEBE4/D*
X31178500Y-114760000D03*
G04 #@! TO.P,U4,13*
G04 #@! TO.N,/sheet5D3BEBE4/G2*
X31813500Y-114760000D03*
G04 #@! TO.P,U4,12*
G04 #@! TO.N,Net-(U4-Pad12)*
X31813500Y-108760000D03*
G04 #@! TO.P,U4,11*
G04 #@! TO.N,/sheet5D3BEBE4/K*
X31178500Y-108760000D03*
G04 #@! TO.P,U4,10*
G04 #@! TO.N,/sheet5D3BEBE4/J*
X30543500Y-108760000D03*
G04 #@! TO.P,U4,9*
G04 #@! TO.N,/sheet5D3BEBE4/G1*
X29908500Y-108760000D03*
G04 #@! TO.P,U4,8*
G04 #@! TO.N,/sheet5D3BEBE4/A*
X29273500Y-108760000D03*
G04 #@! TO.P,U4,7*
G04 #@! TO.N,/sheet5D3BEBE4/B*
X28638500Y-108760000D03*
G04 #@! TO.P,U4,6*
G04 #@! TO.N,/sheet5D3BEBE4/H*
X28003500Y-108760000D03*
G04 #@! TO.P,U4,5*
G04 #@! TO.N,/sheet5D3BEBE4/F*
X27368500Y-108760000D03*
G04 #@! TO.P,U4,4*
G04 #@! TO.N,/le*
X26733500Y-108760000D03*
G04 #@! TO.P,U4,3*
G04 #@! TO.N,/clk_south*
X26098500Y-108760000D03*
G04 #@! TO.P,U4,2*
G04 #@! TO.N,/sheet5D3BEBE4/DI*
X25463500Y-108760000D03*
G04 #@! TO.P,U4,1*
G04 #@! TO.N,GND*
X24828500Y-108760000D03*
G04 #@! TD*
D10*
G04 #@! TO.P,U5,18*
G04 #@! TO.N,/sheet5D3BEBE4/F*
X25400000Y-77470000D03*
G04 #@! TO.P,U5,17*
G04 #@! TO.N,/sheet5D3BEBE4/H*
X27940000Y-77470000D03*
G04 #@! TO.P,U5,16*
G04 #@! TO.N,/DIG0S*
X30480000Y-77470000D03*
G04 #@! TO.P,U5,15*
G04 #@! TO.N,/sheet5D3BEBE4/J*
X33020000Y-77470000D03*
G04 #@! TO.P,U5,14*
G04 #@! TO.N,/sheet5D3BEBE4/K*
X35560000Y-77470000D03*
G04 #@! TO.P,U5,13*
G04 #@! TO.N,/sheet5D3BEBE4/G1*
X38100000Y-77470000D03*
G04 #@! TO.P,U5,12*
G04 #@! TO.N,/sheet5D3BEBE4/A*
X40640000Y-77470000D03*
G04 #@! TO.P,U5,11*
G04 #@! TO.N,/DIG1S*
X43180000Y-77470000D03*
G04 #@! TO.P,U5,10*
G04 #@! TO.N,/sheet5D3BEBE4/B*
X45720000Y-77470000D03*
G04 #@! TO.P,U5,9*
G04 #@! TO.N,/sheet5D3BEBE4/C*
X45720000Y-90170000D03*
G04 #@! TO.P,U5,8*
G04 #@! TO.N,/sheet5D3BEBE4/Dp*
X43180000Y-90170000D03*
G04 #@! TO.P,U5,7*
G04 #@! TO.N,/sheet5D3BEBE4/D*
X40640000Y-90170000D03*
G04 #@! TO.P,U5,6*
G04 #@! TO.N,/sheet5D3BEBE4/G2*
X38100000Y-90170000D03*
G04 #@! TO.P,U5,5*
G04 #@! TO.N,/sheet5D3BEBE4/L*
X35560000Y-90170000D03*
G04 #@! TO.P,U5,4*
G04 #@! TO.N,/sheet5D3BEBE4/M*
X33020000Y-90170000D03*
G04 #@! TO.P,U5,3*
G04 #@! TO.N,Net-(U5-Pad3)*
X30480000Y-90170000D03*
G04 #@! TO.P,U5,2*
G04 #@! TO.N,/sheet5D3BEBE4/N*
X27940000Y-90170000D03*
G04 #@! TO.P,U5,1*
G04 #@! TO.N,/sheet5D3BEBE4/E*
X25400000Y-90170000D03*
G04 #@! TD*
G04 #@! TO.P,U6,1*
G04 #@! TO.N,/sheet5D3BEBE4/E*
X25400000Y-118110000D03*
G04 #@! TO.P,U6,2*
G04 #@! TO.N,/sheet5D3BEBE4/N*
X27940000Y-118110000D03*
G04 #@! TO.P,U6,3*
G04 #@! TO.N,Net-(U6-Pad3)*
X30480000Y-118110000D03*
G04 #@! TO.P,U6,4*
G04 #@! TO.N,/sheet5D3BEBE4/M*
X33020000Y-118110000D03*
G04 #@! TO.P,U6,5*
G04 #@! TO.N,/sheet5D3BEBE4/L*
X35560000Y-118110000D03*
G04 #@! TO.P,U6,6*
G04 #@! TO.N,/sheet5D3BEBE4/G2*
X38100000Y-118110000D03*
G04 #@! TO.P,U6,7*
G04 #@! TO.N,/sheet5D3BEBE4/D*
X40640000Y-118110000D03*
G04 #@! TO.P,U6,8*
G04 #@! TO.N,/sheet5D3BEBE4/Dp*
X43180000Y-118110000D03*
G04 #@! TO.P,U6,9*
G04 #@! TO.N,/sheet5D3BEBE4/C*
X45720000Y-118110000D03*
G04 #@! TO.P,U6,10*
G04 #@! TO.N,/sheet5D3BEBE4/B*
X45720000Y-105410000D03*
G04 #@! TO.P,U6,11*
G04 #@! TO.N,/DIG3S*
X43180000Y-105410000D03*
G04 #@! TO.P,U6,12*
G04 #@! TO.N,/sheet5D3BEBE4/A*
X40640000Y-105410000D03*
G04 #@! TO.P,U6,13*
G04 #@! TO.N,/sheet5D3BEBE4/G1*
X38100000Y-105410000D03*
G04 #@! TO.P,U6,14*
G04 #@! TO.N,/sheet5D3BEBE4/K*
X35560000Y-105410000D03*
G04 #@! TO.P,U6,15*
G04 #@! TO.N,/sheet5D3BEBE4/J*
X33020000Y-105410000D03*
G04 #@! TO.P,U6,16*
G04 #@! TO.N,/DIG2S*
X30480000Y-105410000D03*
G04 #@! TO.P,U6,17*
G04 #@! TO.N,/sheet5D3BEBE4/H*
X27940000Y-105410000D03*
G04 #@! TO.P,U6,18*
G04 #@! TO.N,/sheet5D3BEBE4/F*
X25400000Y-105410000D03*
G04 #@! TD*
D16*
G04 #@! TO.P,U7,1*
G04 #@! TO.N,GND*
X24828500Y-164640000D03*
G04 #@! TO.P,U7,2*
G04 #@! TO.N,/sheet5D3BEDDC/DI*
X25463500Y-164640000D03*
G04 #@! TO.P,U7,3*
G04 #@! TO.N,/clk_south*
X26098500Y-164640000D03*
G04 #@! TO.P,U7,4*
G04 #@! TO.N,/le*
X26733500Y-164640000D03*
G04 #@! TO.P,U7,5*
G04 #@! TO.N,/sheet5D3BEDDC/F*
X27368500Y-164640000D03*
G04 #@! TO.P,U7,6*
G04 #@! TO.N,/sheet5D3BEDDC/H*
X28003500Y-164640000D03*
G04 #@! TO.P,U7,7*
G04 #@! TO.N,/sheet5D3BEDDC/B*
X28638500Y-164640000D03*
G04 #@! TO.P,U7,8*
G04 #@! TO.N,/sheet5D3BEDDC/A*
X29273500Y-164640000D03*
G04 #@! TO.P,U7,9*
G04 #@! TO.N,/sheet5D3BEDDC/G1*
X29908500Y-164640000D03*
G04 #@! TO.P,U7,10*
G04 #@! TO.N,/sheet5D3BEDDC/J*
X30543500Y-164640000D03*
G04 #@! TO.P,U7,11*
G04 #@! TO.N,/sheet5D3BEDDC/K*
X31178500Y-164640000D03*
G04 #@! TO.P,U7,12*
G04 #@! TO.N,Net-(U7-Pad12)*
X31813500Y-164640000D03*
G04 #@! TO.P,U7,13*
G04 #@! TO.N,/sheet5D3BEDDC/G2*
X31813500Y-170640000D03*
G04 #@! TO.P,U7,14*
G04 #@! TO.N,/sheet5D3BEDDC/D*
X31178500Y-170640000D03*
G04 #@! TO.P,U7,15*
G04 #@! TO.N,/sheet5D3BEDDC/Dp*
X30543500Y-170640000D03*
G04 #@! TO.P,U7,16*
G04 #@! TO.N,/sheet5D3BEDDC/L*
X29908500Y-170640000D03*
G04 #@! TO.P,U7,17*
G04 #@! TO.N,/sheet5D3BEDDC/M*
X29273500Y-170640000D03*
G04 #@! TO.P,U7,18*
G04 #@! TO.N,/sheet5D3BEDDC/N*
X28638500Y-170640000D03*
G04 #@! TO.P,U7,19*
G04 #@! TO.N,/sheet5D3BEDDC/C*
X28003500Y-170640000D03*
G04 #@! TO.P,U7,20*
G04 #@! TO.N,/sheet5D3BEDDC/E*
X27368500Y-170640000D03*
G04 #@! TO.P,U7,21*
G04 #@! TO.N,/!oe*
X26733500Y-170640000D03*
G04 #@! TO.P,U7,22*
G04 #@! TO.N,/sheet5D3BEDE9/DI*
X26098500Y-170640000D03*
G04 #@! TO.P,U7,23*
G04 #@! TO.N,Net-(R3-Pad2)*
X25463500Y-170640000D03*
G04 #@! TO.P,U7,24*
G04 #@! TO.N,VCC*
X24828500Y-170640000D03*
G04 #@! TD*
D10*
G04 #@! TO.P,U8,18*
G04 #@! TO.N,/sheet5D3BEDDC/F*
X25400000Y-133350000D03*
G04 #@! TO.P,U8,17*
G04 #@! TO.N,/sheet5D3BEDDC/H*
X27940000Y-133350000D03*
G04 #@! TO.P,U8,16*
G04 #@! TO.N,/DIG0S*
X30480000Y-133350000D03*
G04 #@! TO.P,U8,15*
G04 #@! TO.N,/sheet5D3BEDDC/J*
X33020000Y-133350000D03*
G04 #@! TO.P,U8,14*
G04 #@! TO.N,/sheet5D3BEDDC/K*
X35560000Y-133350000D03*
G04 #@! TO.P,U8,13*
G04 #@! TO.N,/sheet5D3BEDDC/G1*
X38100000Y-133350000D03*
G04 #@! TO.P,U8,12*
G04 #@! TO.N,/sheet5D3BEDDC/A*
X40640000Y-133350000D03*
G04 #@! TO.P,U8,11*
G04 #@! TO.N,/DIG1S*
X43180000Y-133350000D03*
G04 #@! TO.P,U8,10*
G04 #@! TO.N,/sheet5D3BEDDC/B*
X45720000Y-133350000D03*
G04 #@! TO.P,U8,9*
G04 #@! TO.N,/sheet5D3BEDDC/C*
X45720000Y-146050000D03*
G04 #@! TO.P,U8,8*
G04 #@! TO.N,/sheet5D3BEDDC/Dp*
X43180000Y-146050000D03*
G04 #@! TO.P,U8,7*
G04 #@! TO.N,/sheet5D3BEDDC/D*
X40640000Y-146050000D03*
G04 #@! TO.P,U8,6*
G04 #@! TO.N,/sheet5D3BEDDC/G2*
X38100000Y-146050000D03*
G04 #@! TO.P,U8,5*
G04 #@! TO.N,/sheet5D3BEDDC/L*
X35560000Y-146050000D03*
G04 #@! TO.P,U8,4*
G04 #@! TO.N,/sheet5D3BEDDC/M*
X33020000Y-146050000D03*
G04 #@! TO.P,U8,3*
G04 #@! TO.N,Net-(U8-Pad3)*
X30480000Y-146050000D03*
G04 #@! TO.P,U8,2*
G04 #@! TO.N,/sheet5D3BEDDC/N*
X27940000Y-146050000D03*
G04 #@! TO.P,U8,1*
G04 #@! TO.N,/sheet5D3BEDDC/E*
X25400000Y-146050000D03*
G04 #@! TD*
G04 #@! TO.P,U9,1*
G04 #@! TO.N,/sheet5D3BEDDC/E*
X25400000Y-173990000D03*
G04 #@! TO.P,U9,2*
G04 #@! TO.N,/sheet5D3BEDDC/N*
X27940000Y-173990000D03*
G04 #@! TO.P,U9,3*
G04 #@! TO.N,Net-(U9-Pad3)*
X30480000Y-173990000D03*
G04 #@! TO.P,U9,4*
G04 #@! TO.N,/sheet5D3BEDDC/M*
X33020000Y-173990000D03*
G04 #@! TO.P,U9,5*
G04 #@! TO.N,/sheet5D3BEDDC/L*
X35560000Y-173990000D03*
G04 #@! TO.P,U9,6*
G04 #@! TO.N,/sheet5D3BEDDC/G2*
X38100000Y-173990000D03*
G04 #@! TO.P,U9,7*
G04 #@! TO.N,/sheet5D3BEDDC/D*
X40640000Y-173990000D03*
G04 #@! TO.P,U9,8*
G04 #@! TO.N,/sheet5D3BEDDC/Dp*
X43180000Y-173990000D03*
G04 #@! TO.P,U9,9*
G04 #@! TO.N,/sheet5D3BEDDC/C*
X45720000Y-173990000D03*
G04 #@! TO.P,U9,10*
G04 #@! TO.N,/sheet5D3BEDDC/B*
X45720000Y-161290000D03*
G04 #@! TO.P,U9,11*
G04 #@! TO.N,/DIG3S*
X43180000Y-161290000D03*
G04 #@! TO.P,U9,12*
G04 #@! TO.N,/sheet5D3BEDDC/A*
X40640000Y-161290000D03*
G04 #@! TO.P,U9,13*
G04 #@! TO.N,/sheet5D3BEDDC/G1*
X38100000Y-161290000D03*
G04 #@! TO.P,U9,14*
G04 #@! TO.N,/sheet5D3BEDDC/K*
X35560000Y-161290000D03*
G04 #@! TO.P,U9,15*
G04 #@! TO.N,/sheet5D3BEDDC/J*
X33020000Y-161290000D03*
G04 #@! TO.P,U9,16*
G04 #@! TO.N,/DIG2S*
X30480000Y-161290000D03*
G04 #@! TO.P,U9,17*
G04 #@! TO.N,/sheet5D3BEDDC/H*
X27940000Y-161290000D03*
G04 #@! TO.P,U9,18*
G04 #@! TO.N,/sheet5D3BEDDC/F*
X25400000Y-161290000D03*
G04 #@! TD*
D16*
G04 #@! TO.P,U10,24*
G04 #@! TO.N,VCC*
X24828500Y-226520000D03*
G04 #@! TO.P,U10,23*
G04 #@! TO.N,Net-(R4-Pad2)*
X25463500Y-226520000D03*
G04 #@! TO.P,U10,22*
G04 #@! TO.N,/sheet5D3BEDE9/DO*
X26098500Y-226520000D03*
G04 #@! TO.P,U10,21*
G04 #@! TO.N,/!oe*
X26733500Y-226520000D03*
G04 #@! TO.P,U10,20*
G04 #@! TO.N,/sheet5D3BEDE9/E*
X27368500Y-226520000D03*
G04 #@! TO.P,U10,19*
G04 #@! TO.N,/sheet5D3BEDE9/C*
X28003500Y-226520000D03*
G04 #@! TO.P,U10,18*
G04 #@! TO.N,/sheet5D3BEDE9/N*
X28638500Y-226520000D03*
G04 #@! TO.P,U10,17*
G04 #@! TO.N,/sheet5D3BEDE9/M*
X29273500Y-226520000D03*
G04 #@! TO.P,U10,16*
G04 #@! TO.N,/sheet5D3BEDE9/L*
X29908500Y-226520000D03*
G04 #@! TO.P,U10,15*
G04 #@! TO.N,/sheet5D3BEDE9/Dp*
X30543500Y-226520000D03*
G04 #@! TO.P,U10,14*
G04 #@! TO.N,/sheet5D3BEDE9/D*
X31178500Y-226520000D03*
G04 #@! TO.P,U10,13*
G04 #@! TO.N,/sheet5D3BEDE9/G2*
X31813500Y-226520000D03*
G04 #@! TO.P,U10,12*
G04 #@! TO.N,Net-(U10-Pad12)*
X31813500Y-220520000D03*
G04 #@! TO.P,U10,11*
G04 #@! TO.N,/sheet5D3BEDE9/K*
X31178500Y-220520000D03*
G04 #@! TO.P,U10,10*
G04 #@! TO.N,/sheet5D3BEDE9/J*
X30543500Y-220520000D03*
G04 #@! TO.P,U10,9*
G04 #@! TO.N,/sheet5D3BEDE9/G1*
X29908500Y-220520000D03*
G04 #@! TO.P,U10,8*
G04 #@! TO.N,/sheet5D3BEDE9/A*
X29273500Y-220520000D03*
G04 #@! TO.P,U10,7*
G04 #@! TO.N,/sheet5D3BEDE9/B*
X28638500Y-220520000D03*
G04 #@! TO.P,U10,6*
G04 #@! TO.N,/sheet5D3BEDE9/H*
X28003500Y-220520000D03*
G04 #@! TO.P,U10,5*
G04 #@! TO.N,/sheet5D3BEDE9/F*
X27368500Y-220520000D03*
G04 #@! TO.P,U10,4*
G04 #@! TO.N,/le*
X26733500Y-220520000D03*
G04 #@! TO.P,U10,3*
G04 #@! TO.N,/clk_south*
X26098500Y-220520000D03*
G04 #@! TO.P,U10,2*
G04 #@! TO.N,/sheet5D3BEDE9/DI*
X25463500Y-220520000D03*
G04 #@! TO.P,U10,1*
G04 #@! TO.N,GND*
X24828500Y-220520000D03*
G04 #@! TD*
D10*
G04 #@! TO.P,U11,18*
G04 #@! TO.N,/sheet5D3BEDE9/F*
X25400000Y-189230000D03*
G04 #@! TO.P,U11,17*
G04 #@! TO.N,/sheet5D3BEDE9/H*
X27940000Y-189230000D03*
G04 #@! TO.P,U11,16*
G04 #@! TO.N,/DIG0S*
X30480000Y-189230000D03*
G04 #@! TO.P,U11,15*
G04 #@! TO.N,/sheet5D3BEDE9/J*
X33020000Y-189230000D03*
G04 #@! TO.P,U11,14*
G04 #@! TO.N,/sheet5D3BEDE9/K*
X35560000Y-189230000D03*
G04 #@! TO.P,U11,13*
G04 #@! TO.N,/sheet5D3BEDE9/G1*
X38100000Y-189230000D03*
G04 #@! TO.P,U11,12*
G04 #@! TO.N,/sheet5D3BEDE9/A*
X40640000Y-189230000D03*
G04 #@! TO.P,U11,11*
G04 #@! TO.N,/DIG1S*
X43180000Y-189230000D03*
G04 #@! TO.P,U11,10*
G04 #@! TO.N,/sheet5D3BEDE9/B*
X45720000Y-189230000D03*
G04 #@! TO.P,U11,9*
G04 #@! TO.N,/sheet5D3BEDE9/C*
X45720000Y-201930000D03*
G04 #@! TO.P,U11,8*
G04 #@! TO.N,/sheet5D3BEDE9/Dp*
X43180000Y-201930000D03*
G04 #@! TO.P,U11,7*
G04 #@! TO.N,/sheet5D3BEDE9/D*
X40640000Y-201930000D03*
G04 #@! TO.P,U11,6*
G04 #@! TO.N,/sheet5D3BEDE9/G2*
X38100000Y-201930000D03*
G04 #@! TO.P,U11,5*
G04 #@! TO.N,/sheet5D3BEDE9/L*
X35560000Y-201930000D03*
G04 #@! TO.P,U11,4*
G04 #@! TO.N,/sheet5D3BEDE9/M*
X33020000Y-201930000D03*
G04 #@! TO.P,U11,3*
G04 #@! TO.N,Net-(U11-Pad3)*
X30480000Y-201930000D03*
G04 #@! TO.P,U11,2*
G04 #@! TO.N,/sheet5D3BEDE9/N*
X27940000Y-201930000D03*
G04 #@! TO.P,U11,1*
G04 #@! TO.N,/sheet5D3BEDE9/E*
X25400000Y-201930000D03*
G04 #@! TD*
D17*
G04 #@! TO.P,R1,1*
G04 #@! TO.N,GND*
X27483500Y-60579000D03*
G04 #@! TO.P,R1,2*
G04 #@! TO.N,Net-(R1-Pad2)*
X25983500Y-60579000D03*
G04 #@! TD*
G04 #@! TO.P,R2,2*
G04 #@! TO.N,Net-(R2-Pad2)*
X25920000Y-116459000D03*
G04 #@! TO.P,R2,1*
G04 #@! TO.N,GND*
X27420000Y-116459000D03*
G04 #@! TD*
G04 #@! TO.P,R3,1*
G04 #@! TO.N,GND*
X27483500Y-172339000D03*
G04 #@! TO.P,R3,2*
G04 #@! TO.N,Net-(R3-Pad2)*
X25983500Y-172339000D03*
G04 #@! TD*
D18*
G04 #@! TO.P,C1,2*
G04 #@! TO.N,GND*
X25527000Y-65139000D03*
G04 #@! TO.P,C1,1*
G04 #@! TO.N,VCC*
X25527000Y-63639000D03*
G04 #@! TD*
G04 #@! TO.P,C2,1*
G04 #@! TO.N,VCC*
X25527000Y-119519000D03*
G04 #@! TO.P,C2,2*
G04 #@! TO.N,GND*
X25527000Y-121019000D03*
G04 #@! TD*
G04 #@! TO.P,C3,2*
G04 #@! TO.N,GND*
X25527000Y-176899000D03*
G04 #@! TO.P,C3,1*
G04 #@! TO.N,VCC*
X25527000Y-175399000D03*
G04 #@! TD*
G04 #@! TO.P,C4,1*
G04 #@! TO.N,VCC*
X25527000Y-231279000D03*
G04 #@! TO.P,C4,2*
G04 #@! TO.N,GND*
X25527000Y-232779000D03*
G04 #@! TD*
G04 #@! TO.P,C5,1*
G04 #@! TO.N,VCC*
X25527000Y-7759000D03*
G04 #@! TO.P,C5,2*
G04 #@! TO.N,GND*
X25527000Y-9259000D03*
G04 #@! TD*
G04 #@! TO.P,C6,2*
G04 #@! TO.N,GND*
X25527000Y46621000D03*
G04 #@! TO.P,C6,1*
G04 #@! TO.N,VCC*
X25527000Y48121000D03*
G04 #@! TD*
G04 #@! TO.P,C7,1*
G04 #@! TO.N,VCC*
X25527000Y104001000D03*
G04 #@! TO.P,C7,2*
G04 #@! TO.N,GND*
X25527000Y102501000D03*
G04 #@! TD*
G04 #@! TO.P,C8,2*
G04 #@! TO.N,GND*
X25527000Y158381000D03*
G04 #@! TO.P,C8,1*
G04 #@! TO.N,VCC*
X25527000Y159881000D03*
G04 #@! TD*
D17*
G04 #@! TO.P,R4,2*
G04 #@! TO.N,Net-(R4-Pad2)*
X25920000Y-228219000D03*
G04 #@! TO.P,R4,1*
G04 #@! TO.N,GND*
X27420000Y-228219000D03*
G04 #@! TD*
G04 #@! TO.P,R5,2*
G04 #@! TO.N,Net-(R5-Pad2)*
X25920000Y-4699000D03*
G04 #@! TO.P,R5,1*
G04 #@! TO.N,GND*
X27420000Y-4699000D03*
G04 #@! TD*
G04 #@! TO.P,R6,1*
G04 #@! TO.N,GND*
X27420000Y51181000D03*
G04 #@! TO.P,R6,2*
G04 #@! TO.N,Net-(R6-Pad2)*
X25920000Y51181000D03*
G04 #@! TD*
G04 #@! TO.P,R7,1*
G04 #@! TO.N,GND*
X27420000Y107061000D03*
G04 #@! TO.P,R7,2*
G04 #@! TO.N,Net-(R7-Pad2)*
X25920000Y107061000D03*
G04 #@! TD*
G04 #@! TO.P,R8,1*
G04 #@! TO.N,GND*
X27420000Y162941000D03*
G04 #@! TO.P,R8,2*
G04 #@! TO.N,Net-(R8-Pad2)*
X25920000Y162941000D03*
G04 #@! TD*
D16*
G04 #@! TO.P,U13,24*
G04 #@! TO.N,VCC*
X24828500Y-3000000D03*
G04 #@! TO.P,U13,23*
G04 #@! TO.N,Net-(R5-Pad2)*
X25463500Y-3000000D03*
G04 #@! TO.P,U13,22*
G04 #@! TO.N,/sheet5D86B5D9/DI*
X26098500Y-3000000D03*
G04 #@! TO.P,U13,21*
G04 #@! TO.N,/!oe*
X26733500Y-3000000D03*
G04 #@! TO.P,U13,20*
G04 #@! TO.N,/sheet5D86B5CC/E*
X27368500Y-3000000D03*
G04 #@! TO.P,U13,19*
G04 #@! TO.N,/sheet5D86B5CC/C*
X28003500Y-3000000D03*
G04 #@! TO.P,U13,18*
G04 #@! TO.N,/sheet5D86B5CC/N*
X28638500Y-3000000D03*
G04 #@! TO.P,U13,17*
G04 #@! TO.N,/sheet5D86B5CC/M*
X29273500Y-3000000D03*
G04 #@! TO.P,U13,16*
G04 #@! TO.N,/sheet5D86B5CC/L*
X29908500Y-3000000D03*
G04 #@! TO.P,U13,15*
G04 #@! TO.N,/sheet5D86B5CC/Dp*
X30543500Y-3000000D03*
G04 #@! TO.P,U13,14*
G04 #@! TO.N,/sheet5D86B5CC/D*
X31178500Y-3000000D03*
G04 #@! TO.P,U13,13*
G04 #@! TO.N,/sheet5D86B5CC/G2*
X31813500Y-3000000D03*
G04 #@! TO.P,U13,12*
G04 #@! TO.N,Net-(U13-Pad12)*
X31813500Y3000000D03*
G04 #@! TO.P,U13,11*
G04 #@! TO.N,/sheet5D86B5CC/K*
X31178500Y3000000D03*
G04 #@! TO.P,U13,10*
G04 #@! TO.N,/sheet5D86B5CC/J*
X30543500Y3000000D03*
G04 #@! TO.P,U13,9*
G04 #@! TO.N,/sheet5D86B5CC/G1*
X29908500Y3000000D03*
G04 #@! TO.P,U13,8*
G04 #@! TO.N,/sheet5D86B5CC/A*
X29273500Y3000000D03*
G04 #@! TO.P,U13,7*
G04 #@! TO.N,/sheet5D86B5CC/B*
X28638500Y3000000D03*
G04 #@! TO.P,U13,6*
G04 #@! TO.N,/sheet5D86B5CC/H*
X28003500Y3000000D03*
G04 #@! TO.P,U13,5*
G04 #@! TO.N,/sheet5D86B5CC/F*
X27368500Y3000000D03*
G04 #@! TO.P,U13,4*
G04 #@! TO.N,/le*
X26733500Y3000000D03*
G04 #@! TO.P,U13,3*
G04 #@! TO.N,/clk_north*
X26098500Y3000000D03*
G04 #@! TO.P,U13,2*
G04 #@! TO.N,/data_north*
X25463500Y3000000D03*
G04 #@! TO.P,U13,1*
G04 #@! TO.N,GND*
X24828500Y3000000D03*
G04 #@! TD*
D10*
G04 #@! TO.P,U14,1*
G04 #@! TO.N,/sheet5D86B5CC/E*
X25400000Y21590000D03*
G04 #@! TO.P,U14,2*
G04 #@! TO.N,/sheet5D86B5CC/N*
X27940000Y21590000D03*
G04 #@! TO.P,U14,3*
G04 #@! TO.N,Net-(U14-Pad3)*
X30480000Y21590000D03*
G04 #@! TO.P,U14,4*
G04 #@! TO.N,/sheet5D86B5CC/M*
X33020000Y21590000D03*
G04 #@! TO.P,U14,5*
G04 #@! TO.N,/sheet5D86B5CC/L*
X35560000Y21590000D03*
G04 #@! TO.P,U14,6*
G04 #@! TO.N,/sheet5D86B5CC/G2*
X38100000Y21590000D03*
G04 #@! TO.P,U14,7*
G04 #@! TO.N,/sheet5D86B5CC/D*
X40640000Y21590000D03*
G04 #@! TO.P,U14,8*
G04 #@! TO.N,/sheet5D86B5CC/Dp*
X43180000Y21590000D03*
G04 #@! TO.P,U14,9*
G04 #@! TO.N,/sheet5D86B5CC/C*
X45720000Y21590000D03*
G04 #@! TO.P,U14,10*
G04 #@! TO.N,/sheet5D86B5CC/B*
X45720000Y34290000D03*
G04 #@! TO.P,U14,11*
G04 #@! TO.N,/DIG1N*
X43180000Y34290000D03*
G04 #@! TO.P,U14,12*
G04 #@! TO.N,/sheet5D86B5CC/A*
X40640000Y34290000D03*
G04 #@! TO.P,U14,13*
G04 #@! TO.N,/sheet5D86B5CC/G1*
X38100000Y34290000D03*
G04 #@! TO.P,U14,14*
G04 #@! TO.N,/sheet5D86B5CC/K*
X35560000Y34290000D03*
G04 #@! TO.P,U14,15*
G04 #@! TO.N,/sheet5D86B5CC/J*
X33020000Y34290000D03*
G04 #@! TO.P,U14,16*
G04 #@! TO.N,/DIG0N*
X30480000Y34290000D03*
G04 #@! TO.P,U14,17*
G04 #@! TO.N,/sheet5D86B5CC/H*
X27940000Y34290000D03*
G04 #@! TO.P,U14,18*
G04 #@! TO.N,/sheet5D86B5CC/F*
X25400000Y34290000D03*
G04 #@! TD*
G04 #@! TO.P,U15,1*
G04 #@! TO.N,/sheet5D86B5CC/E*
X25400000Y-6350000D03*
G04 #@! TO.P,U15,2*
G04 #@! TO.N,/sheet5D86B5CC/N*
X27940000Y-6350000D03*
G04 #@! TO.P,U15,3*
G04 #@! TO.N,Net-(U15-Pad3)*
X30480000Y-6350000D03*
G04 #@! TO.P,U15,4*
G04 #@! TO.N,/sheet5D86B5CC/M*
X33020000Y-6350000D03*
G04 #@! TO.P,U15,5*
G04 #@! TO.N,/sheet5D86B5CC/L*
X35560000Y-6350000D03*
G04 #@! TO.P,U15,6*
G04 #@! TO.N,/sheet5D86B5CC/G2*
X38100000Y-6350000D03*
G04 #@! TO.P,U15,7*
G04 #@! TO.N,/sheet5D86B5CC/D*
X40640000Y-6350000D03*
G04 #@! TO.P,U15,8*
G04 #@! TO.N,/sheet5D86B5CC/Dp*
X43180000Y-6350000D03*
G04 #@! TO.P,U15,9*
G04 #@! TO.N,/sheet5D86B5CC/C*
X45720000Y-6350000D03*
G04 #@! TO.P,U15,10*
G04 #@! TO.N,/sheet5D86B5CC/B*
X45720000Y6350000D03*
G04 #@! TO.P,U15,11*
G04 #@! TO.N,/DIG3N*
X43180000Y6350000D03*
G04 #@! TO.P,U15,12*
G04 #@! TO.N,/sheet5D86B5CC/A*
X40640000Y6350000D03*
G04 #@! TO.P,U15,13*
G04 #@! TO.N,/sheet5D86B5CC/G1*
X38100000Y6350000D03*
G04 #@! TO.P,U15,14*
G04 #@! TO.N,/sheet5D86B5CC/K*
X35560000Y6350000D03*
G04 #@! TO.P,U15,15*
G04 #@! TO.N,/sheet5D86B5CC/J*
X33020000Y6350000D03*
G04 #@! TO.P,U15,16*
G04 #@! TO.N,/DIG2N*
X30480000Y6350000D03*
G04 #@! TO.P,U15,17*
G04 #@! TO.N,/sheet5D86B5CC/H*
X27940000Y6350000D03*
G04 #@! TO.P,U15,18*
G04 #@! TO.N,/sheet5D86B5CC/F*
X25400000Y6350000D03*
G04 #@! TD*
D16*
G04 #@! TO.P,U16,1*
G04 #@! TO.N,GND*
X24828500Y58880000D03*
G04 #@! TO.P,U16,2*
G04 #@! TO.N,/sheet5D86B5D9/DI*
X25463500Y58880000D03*
G04 #@! TO.P,U16,3*
G04 #@! TO.N,/clk_north*
X26098500Y58880000D03*
G04 #@! TO.P,U16,4*
G04 #@! TO.N,/le*
X26733500Y58880000D03*
G04 #@! TO.P,U16,5*
G04 #@! TO.N,/sheet5D86B5D9/F*
X27368500Y58880000D03*
G04 #@! TO.P,U16,6*
G04 #@! TO.N,/sheet5D86B5D9/H*
X28003500Y58880000D03*
G04 #@! TO.P,U16,7*
G04 #@! TO.N,/sheet5D86B5D9/B*
X28638500Y58880000D03*
G04 #@! TO.P,U16,8*
G04 #@! TO.N,/sheet5D86B5D9/A*
X29273500Y58880000D03*
G04 #@! TO.P,U16,9*
G04 #@! TO.N,/sheet5D86B5D9/G1*
X29908500Y58880000D03*
G04 #@! TO.P,U16,10*
G04 #@! TO.N,/sheet5D86B5D9/J*
X30543500Y58880000D03*
G04 #@! TO.P,U16,11*
G04 #@! TO.N,/sheet5D86B5D9/K*
X31178500Y58880000D03*
G04 #@! TO.P,U16,12*
G04 #@! TO.N,Net-(U16-Pad12)*
X31813500Y58880000D03*
G04 #@! TO.P,U16,13*
G04 #@! TO.N,/sheet5D86B5D9/G2*
X31813500Y52880000D03*
G04 #@! TO.P,U16,14*
G04 #@! TO.N,/sheet5D86B5D9/D*
X31178500Y52880000D03*
G04 #@! TO.P,U16,15*
G04 #@! TO.N,/sheet5D86B5D9/Dp*
X30543500Y52880000D03*
G04 #@! TO.P,U16,16*
G04 #@! TO.N,/sheet5D86B5D9/L*
X29908500Y52880000D03*
G04 #@! TO.P,U16,17*
G04 #@! TO.N,/sheet5D86B5D9/M*
X29273500Y52880000D03*
G04 #@! TO.P,U16,18*
G04 #@! TO.N,/sheet5D86B5D9/N*
X28638500Y52880000D03*
G04 #@! TO.P,U16,19*
G04 #@! TO.N,/sheet5D86B5D9/C*
X28003500Y52880000D03*
G04 #@! TO.P,U16,20*
G04 #@! TO.N,/sheet5D86B5D9/E*
X27368500Y52880000D03*
G04 #@! TO.P,U16,21*
G04 #@! TO.N,/!oe*
X26733500Y52880000D03*
G04 #@! TO.P,U16,22*
G04 #@! TO.N,/sheet5D86B5F7/DI*
X26098500Y52880000D03*
G04 #@! TO.P,U16,23*
G04 #@! TO.N,Net-(R6-Pad2)*
X25463500Y52880000D03*
G04 #@! TO.P,U16,24*
G04 #@! TO.N,VCC*
X24828500Y52880000D03*
G04 #@! TD*
D10*
G04 #@! TO.P,U17,18*
G04 #@! TO.N,/sheet5D86B5D9/F*
X25400000Y90170000D03*
G04 #@! TO.P,U17,17*
G04 #@! TO.N,/sheet5D86B5D9/H*
X27940000Y90170000D03*
G04 #@! TO.P,U17,16*
G04 #@! TO.N,/DIG0N*
X30480000Y90170000D03*
G04 #@! TO.P,U17,15*
G04 #@! TO.N,/sheet5D86B5D9/J*
X33020000Y90170000D03*
G04 #@! TO.P,U17,14*
G04 #@! TO.N,/sheet5D86B5D9/K*
X35560000Y90170000D03*
G04 #@! TO.P,U17,13*
G04 #@! TO.N,/sheet5D86B5D9/G1*
X38100000Y90170000D03*
G04 #@! TO.P,U17,12*
G04 #@! TO.N,/sheet5D86B5D9/A*
X40640000Y90170000D03*
G04 #@! TO.P,U17,11*
G04 #@! TO.N,/DIG1N*
X43180000Y90170000D03*
G04 #@! TO.P,U17,10*
G04 #@! TO.N,/sheet5D86B5D9/B*
X45720000Y90170000D03*
G04 #@! TO.P,U17,9*
G04 #@! TO.N,/sheet5D86B5D9/C*
X45720000Y77470000D03*
G04 #@! TO.P,U17,8*
G04 #@! TO.N,/sheet5D86B5D9/Dp*
X43180000Y77470000D03*
G04 #@! TO.P,U17,7*
G04 #@! TO.N,/sheet5D86B5D9/D*
X40640000Y77470000D03*
G04 #@! TO.P,U17,6*
G04 #@! TO.N,/sheet5D86B5D9/G2*
X38100000Y77470000D03*
G04 #@! TO.P,U17,5*
G04 #@! TO.N,/sheet5D86B5D9/L*
X35560000Y77470000D03*
G04 #@! TO.P,U17,4*
G04 #@! TO.N,/sheet5D86B5D9/M*
X33020000Y77470000D03*
G04 #@! TO.P,U17,3*
G04 #@! TO.N,Net-(U17-Pad3)*
X30480000Y77470000D03*
G04 #@! TO.P,U17,2*
G04 #@! TO.N,/sheet5D86B5D9/N*
X27940000Y77470000D03*
G04 #@! TO.P,U17,1*
G04 #@! TO.N,/sheet5D86B5D9/E*
X25400000Y77470000D03*
G04 #@! TD*
G04 #@! TO.P,U18,1*
G04 #@! TO.N,/sheet5D86B5D9/E*
X25400000Y49530000D03*
G04 #@! TO.P,U18,2*
G04 #@! TO.N,/sheet5D86B5D9/N*
X27940000Y49530000D03*
G04 #@! TO.P,U18,3*
G04 #@! TO.N,Net-(U18-Pad3)*
X30480000Y49530000D03*
G04 #@! TO.P,U18,4*
G04 #@! TO.N,/sheet5D86B5D9/M*
X33020000Y49530000D03*
G04 #@! TO.P,U18,5*
G04 #@! TO.N,/sheet5D86B5D9/L*
X35560000Y49530000D03*
G04 #@! TO.P,U18,6*
G04 #@! TO.N,/sheet5D86B5D9/G2*
X38100000Y49530000D03*
G04 #@! TO.P,U18,7*
G04 #@! TO.N,/sheet5D86B5D9/D*
X40640000Y49530000D03*
G04 #@! TO.P,U18,8*
G04 #@! TO.N,/sheet5D86B5D9/Dp*
X43180000Y49530000D03*
G04 #@! TO.P,U18,9*
G04 #@! TO.N,/sheet5D86B5D9/C*
X45720000Y49530000D03*
G04 #@! TO.P,U18,10*
G04 #@! TO.N,/sheet5D86B5D9/B*
X45720000Y62230000D03*
G04 #@! TO.P,U18,11*
G04 #@! TO.N,/DIG3N*
X43180000Y62230000D03*
G04 #@! TO.P,U18,12*
G04 #@! TO.N,/sheet5D86B5D9/A*
X40640000Y62230000D03*
G04 #@! TO.P,U18,13*
G04 #@! TO.N,/sheet5D86B5D9/G1*
X38100000Y62230000D03*
G04 #@! TO.P,U18,14*
G04 #@! TO.N,/sheet5D86B5D9/K*
X35560000Y62230000D03*
G04 #@! TO.P,U18,15*
G04 #@! TO.N,/sheet5D86B5D9/J*
X33020000Y62230000D03*
G04 #@! TO.P,U18,16*
G04 #@! TO.N,/DIG2N*
X30480000Y62230000D03*
G04 #@! TO.P,U18,17*
G04 #@! TO.N,/sheet5D86B5D9/H*
X27940000Y62230000D03*
G04 #@! TO.P,U18,18*
G04 #@! TO.N,/sheet5D86B5D9/F*
X25400000Y62230000D03*
G04 #@! TD*
D16*
G04 #@! TO.P,U19,1*
G04 #@! TO.N,GND*
X24828500Y114760000D03*
G04 #@! TO.P,U19,2*
G04 #@! TO.N,/sheet5D86B5F7/DI*
X25463500Y114760000D03*
G04 #@! TO.P,U19,3*
G04 #@! TO.N,/clk_north*
X26098500Y114760000D03*
G04 #@! TO.P,U19,4*
G04 #@! TO.N,/le*
X26733500Y114760000D03*
G04 #@! TO.P,U19,5*
G04 #@! TO.N,/sheet5D86B5F7/F*
X27368500Y114760000D03*
G04 #@! TO.P,U19,6*
G04 #@! TO.N,/sheet5D86B5F7/H*
X28003500Y114760000D03*
G04 #@! TO.P,U19,7*
G04 #@! TO.N,/sheet5D86B5F7/B*
X28638500Y114760000D03*
G04 #@! TO.P,U19,8*
G04 #@! TO.N,/sheet5D86B5F7/A*
X29273500Y114760000D03*
G04 #@! TO.P,U19,9*
G04 #@! TO.N,/sheet5D86B5F7/G1*
X29908500Y114760000D03*
G04 #@! TO.P,U19,10*
G04 #@! TO.N,/sheet5D86B5F7/J*
X30543500Y114760000D03*
G04 #@! TO.P,U19,11*
G04 #@! TO.N,/sheet5D86B5F7/K*
X31178500Y114760000D03*
G04 #@! TO.P,U19,12*
G04 #@! TO.N,Net-(U19-Pad12)*
X31813500Y114760000D03*
G04 #@! TO.P,U19,13*
G04 #@! TO.N,/sheet5D86B5F7/G2*
X31813500Y108760000D03*
G04 #@! TO.P,U19,14*
G04 #@! TO.N,/sheet5D86B5F7/D*
X31178500Y108760000D03*
G04 #@! TO.P,U19,15*
G04 #@! TO.N,/sheet5D86B5F7/Dp*
X30543500Y108760000D03*
G04 #@! TO.P,U19,16*
G04 #@! TO.N,/sheet5D86B5F7/L*
X29908500Y108760000D03*
G04 #@! TO.P,U19,17*
G04 #@! TO.N,/sheet5D86B5F7/M*
X29273500Y108760000D03*
G04 #@! TO.P,U19,18*
G04 #@! TO.N,/sheet5D86B5F7/N*
X28638500Y108760000D03*
G04 #@! TO.P,U19,19*
G04 #@! TO.N,/sheet5D86B5F7/C*
X28003500Y108760000D03*
G04 #@! TO.P,U19,20*
G04 #@! TO.N,/sheet5D86B5F7/E*
X27368500Y108760000D03*
G04 #@! TO.P,U19,21*
G04 #@! TO.N,/!oe*
X26733500Y108760000D03*
G04 #@! TO.P,U19,22*
G04 #@! TO.N,/sheet5D86B604/DI*
X26098500Y108760000D03*
G04 #@! TO.P,U19,23*
G04 #@! TO.N,Net-(R7-Pad2)*
X25463500Y108760000D03*
G04 #@! TO.P,U19,24*
G04 #@! TO.N,VCC*
X24828500Y108760000D03*
G04 #@! TD*
D10*
G04 #@! TO.P,U20,18*
G04 #@! TO.N,/sheet5D86B5F7/F*
X25400000Y146050000D03*
G04 #@! TO.P,U20,17*
G04 #@! TO.N,/sheet5D86B5F7/H*
X27940000Y146050000D03*
G04 #@! TO.P,U20,16*
G04 #@! TO.N,/DIG0N*
X30480000Y146050000D03*
G04 #@! TO.P,U20,15*
G04 #@! TO.N,/sheet5D86B5F7/J*
X33020000Y146050000D03*
G04 #@! TO.P,U20,14*
G04 #@! TO.N,/sheet5D86B5F7/K*
X35560000Y146050000D03*
G04 #@! TO.P,U20,13*
G04 #@! TO.N,/sheet5D86B5F7/G1*
X38100000Y146050000D03*
G04 #@! TO.P,U20,12*
G04 #@! TO.N,/sheet5D86B5F7/A*
X40640000Y146050000D03*
G04 #@! TO.P,U20,11*
G04 #@! TO.N,/DIG1N*
X43180000Y146050000D03*
G04 #@! TO.P,U20,10*
G04 #@! TO.N,/sheet5D86B5F7/B*
X45720000Y146050000D03*
G04 #@! TO.P,U20,9*
G04 #@! TO.N,/sheet5D86B5F7/C*
X45720000Y133350000D03*
G04 #@! TO.P,U20,8*
G04 #@! TO.N,/sheet5D86B5F7/Dp*
X43180000Y133350000D03*
G04 #@! TO.P,U20,7*
G04 #@! TO.N,/sheet5D86B5F7/D*
X40640000Y133350000D03*
G04 #@! TO.P,U20,6*
G04 #@! TO.N,/sheet5D86B5F7/G2*
X38100000Y133350000D03*
G04 #@! TO.P,U20,5*
G04 #@! TO.N,/sheet5D86B5F7/L*
X35560000Y133350000D03*
G04 #@! TO.P,U20,4*
G04 #@! TO.N,/sheet5D86B5F7/M*
X33020000Y133350000D03*
G04 #@! TO.P,U20,3*
G04 #@! TO.N,Net-(U20-Pad3)*
X30480000Y133350000D03*
G04 #@! TO.P,U20,2*
G04 #@! TO.N,/sheet5D86B5F7/N*
X27940000Y133350000D03*
G04 #@! TO.P,U20,1*
G04 #@! TO.N,/sheet5D86B5F7/E*
X25400000Y133350000D03*
G04 #@! TD*
G04 #@! TO.P,U21,18*
G04 #@! TO.N,/sheet5D86B5F7/F*
X25400000Y118110000D03*
G04 #@! TO.P,U21,17*
G04 #@! TO.N,/sheet5D86B5F7/H*
X27940000Y118110000D03*
G04 #@! TO.P,U21,16*
G04 #@! TO.N,/DIG2N*
X30480000Y118110000D03*
G04 #@! TO.P,U21,15*
G04 #@! TO.N,/sheet5D86B5F7/J*
X33020000Y118110000D03*
G04 #@! TO.P,U21,14*
G04 #@! TO.N,/sheet5D86B5F7/K*
X35560000Y118110000D03*
G04 #@! TO.P,U21,13*
G04 #@! TO.N,/sheet5D86B5F7/G1*
X38100000Y118110000D03*
G04 #@! TO.P,U21,12*
G04 #@! TO.N,/sheet5D86B5F7/A*
X40640000Y118110000D03*
G04 #@! TO.P,U21,11*
G04 #@! TO.N,/DIG3N*
X43180000Y118110000D03*
G04 #@! TO.P,U21,10*
G04 #@! TO.N,/sheet5D86B5F7/B*
X45720000Y118110000D03*
G04 #@! TO.P,U21,9*
G04 #@! TO.N,/sheet5D86B5F7/C*
X45720000Y105410000D03*
G04 #@! TO.P,U21,8*
G04 #@! TO.N,/sheet5D86B5F7/Dp*
X43180000Y105410000D03*
G04 #@! TO.P,U21,7*
G04 #@! TO.N,/sheet5D86B5F7/D*
X40640000Y105410000D03*
G04 #@! TO.P,U21,6*
G04 #@! TO.N,/sheet5D86B5F7/G2*
X38100000Y105410000D03*
G04 #@! TO.P,U21,5*
G04 #@! TO.N,/sheet5D86B5F7/L*
X35560000Y105410000D03*
G04 #@! TO.P,U21,4*
G04 #@! TO.N,/sheet5D86B5F7/M*
X33020000Y105410000D03*
G04 #@! TO.P,U21,3*
G04 #@! TO.N,Net-(U21-Pad3)*
X30480000Y105410000D03*
G04 #@! TO.P,U21,2*
G04 #@! TO.N,/sheet5D86B5F7/N*
X27940000Y105410000D03*
G04 #@! TO.P,U21,1*
G04 #@! TO.N,/sheet5D86B5F7/E*
X25400000Y105410000D03*
G04 #@! TD*
D16*
G04 #@! TO.P,U22,24*
G04 #@! TO.N,VCC*
X24828500Y164640000D03*
G04 #@! TO.P,U22,23*
G04 #@! TO.N,Net-(R8-Pad2)*
X25463500Y164640000D03*
G04 #@! TO.P,U22,22*
G04 #@! TO.N,/sheet5D86B604/DO*
X26098500Y164640000D03*
G04 #@! TO.P,U22,21*
G04 #@! TO.N,/!oe*
X26733500Y164640000D03*
G04 #@! TO.P,U22,20*
G04 #@! TO.N,/sheet5D86B604/E*
X27368500Y164640000D03*
G04 #@! TO.P,U22,19*
G04 #@! TO.N,/sheet5D86B604/C*
X28003500Y164640000D03*
G04 #@! TO.P,U22,18*
G04 #@! TO.N,/sheet5D86B604/N*
X28638500Y164640000D03*
G04 #@! TO.P,U22,17*
G04 #@! TO.N,/sheet5D86B604/M*
X29273500Y164640000D03*
G04 #@! TO.P,U22,16*
G04 #@! TO.N,/sheet5D86B604/L*
X29908500Y164640000D03*
G04 #@! TO.P,U22,15*
G04 #@! TO.N,/sheet5D86B604/Dp*
X30543500Y164640000D03*
G04 #@! TO.P,U22,14*
G04 #@! TO.N,/sheet5D86B604/D*
X31178500Y164640000D03*
G04 #@! TO.P,U22,13*
G04 #@! TO.N,/sheet5D86B604/G2*
X31813500Y164640000D03*
G04 #@! TO.P,U22,12*
G04 #@! TO.N,Net-(U22-Pad12)*
X31813500Y170640000D03*
G04 #@! TO.P,U22,11*
G04 #@! TO.N,/sheet5D86B604/K*
X31178500Y170640000D03*
G04 #@! TO.P,U22,10*
G04 #@! TO.N,/sheet5D86B604/J*
X30543500Y170640000D03*
G04 #@! TO.P,U22,9*
G04 #@! TO.N,/sheet5D86B604/G1*
X29908500Y170640000D03*
G04 #@! TO.P,U22,8*
G04 #@! TO.N,/sheet5D86B604/A*
X29273500Y170640000D03*
G04 #@! TO.P,U22,7*
G04 #@! TO.N,/sheet5D86B604/B*
X28638500Y170640000D03*
G04 #@! TO.P,U22,6*
G04 #@! TO.N,/sheet5D86B604/H*
X28003500Y170640000D03*
G04 #@! TO.P,U22,5*
G04 #@! TO.N,/sheet5D86B604/F*
X27368500Y170640000D03*
G04 #@! TO.P,U22,4*
G04 #@! TO.N,/le*
X26733500Y170640000D03*
G04 #@! TO.P,U22,3*
G04 #@! TO.N,/clk_north*
X26098500Y170640000D03*
G04 #@! TO.P,U22,2*
G04 #@! TO.N,/sheet5D86B604/DI*
X25463500Y170640000D03*
G04 #@! TO.P,U22,1*
G04 #@! TO.N,GND*
X24828500Y170640000D03*
G04 #@! TD*
D10*
G04 #@! TO.P,U24,1*
G04 #@! TO.N,/sheet5D86B604/E*
X25400000Y161290000D03*
G04 #@! TO.P,U24,2*
G04 #@! TO.N,/sheet5D86B604/N*
X27940000Y161290000D03*
G04 #@! TO.P,U24,3*
G04 #@! TO.N,Net-(U24-Pad3)*
X30480000Y161290000D03*
G04 #@! TO.P,U24,4*
G04 #@! TO.N,/sheet5D86B604/M*
X33020000Y161290000D03*
G04 #@! TO.P,U24,5*
G04 #@! TO.N,/sheet5D86B604/L*
X35560000Y161290000D03*
G04 #@! TO.P,U24,6*
G04 #@! TO.N,/sheet5D86B604/G2*
X38100000Y161290000D03*
G04 #@! TO.P,U24,7*
G04 #@! TO.N,/sheet5D86B604/D*
X40640000Y161290000D03*
G04 #@! TO.P,U24,8*
G04 #@! TO.N,/sheet5D86B604/Dp*
X43180000Y161290000D03*
G04 #@! TO.P,U24,9*
G04 #@! TO.N,/sheet5D86B604/C*
X45720000Y161290000D03*
G04 #@! TO.P,U24,10*
G04 #@! TO.N,/sheet5D86B604/B*
X45720000Y173990000D03*
G04 #@! TO.P,U24,11*
G04 #@! TO.N,/DIG3N*
X43180000Y173990000D03*
G04 #@! TO.P,U24,12*
G04 #@! TO.N,/sheet5D86B604/A*
X40640000Y173990000D03*
G04 #@! TO.P,U24,13*
G04 #@! TO.N,/sheet5D86B604/G1*
X38100000Y173990000D03*
G04 #@! TO.P,U24,14*
G04 #@! TO.N,/sheet5D86B604/K*
X35560000Y173990000D03*
G04 #@! TO.P,U24,15*
G04 #@! TO.N,/sheet5D86B604/J*
X33020000Y173990000D03*
G04 #@! TO.P,U24,16*
G04 #@! TO.N,/DIG2N*
X30480000Y173990000D03*
G04 #@! TO.P,U24,17*
G04 #@! TO.N,/sheet5D86B604/H*
X27940000Y173990000D03*
G04 #@! TO.P,U24,18*
G04 #@! TO.N,/sheet5D86B604/F*
X25400000Y173990000D03*
G04 #@! TD*
D19*
G04 #@! TO.P,IC1,1*
G04 #@! TO.N,GND*
X25498000Y-42803000D03*
G04 #@! TO.P,IC1,2*
G04 #@! TO.N,Net-(IC1-Pad2)*
X25498000Y-42153000D03*
G04 #@! TO.P,IC1,3*
G04 #@! TO.N,Net-(IC1-Pad3)*
X25498000Y-41503000D03*
G04 #@! TO.P,IC1,4*
G04 #@! TO.N,/3V3*
X25498000Y-40853000D03*
G04 #@! TO.P,IC1,5*
X25498000Y-40203000D03*
G04 #@! TO.P,IC1,6*
G04 #@! TO.N,/data_south*
X25498000Y-39553000D03*
G04 #@! TO.P,IC1,7*
G04 #@! TO.N,/clk_south*
X25498000Y-38903000D03*
G04 #@! TO.P,IC1,8*
G04 #@! TO.N,/clk_north*
X25498000Y-38253000D03*
G04 #@! TO.P,IC1,9*
G04 #@! TO.N,/uart_rx*
X25498000Y-37603000D03*
G04 #@! TO.P,IC1,10*
G04 #@! TO.N,/data_north*
X25498000Y-36953000D03*
G04 #@! TO.P,IC1,11*
G04 #@! TO.N,/ENH*
X31398000Y-36953000D03*
G04 #@! TO.P,IC1,12*
G04 #@! TO.N,/!oe*
X31398000Y-37603000D03*
G04 #@! TO.P,IC1,13*
G04 #@! TO.N,/le*
X31398000Y-38253000D03*
G04 #@! TO.P,IC1,14*
G04 #@! TO.N,/ENL*
X31398000Y-38903000D03*
G04 #@! TO.P,IC1,15*
G04 #@! TO.N,GND*
X31398000Y-39553000D03*
G04 #@! TO.P,IC1,16*
G04 #@! TO.N,/3V3*
X31398000Y-40203000D03*
G04 #@! TO.P,IC1,17*
G04 #@! TO.N,/B_select*
X31398000Y-40853000D03*
G04 #@! TO.P,IC1,18*
G04 #@! TO.N,/A_select*
X31398000Y-41503000D03*
G04 #@! TO.P,IC1,19*
G04 #@! TO.N,/swdio*
X31398000Y-42153000D03*
G04 #@! TO.P,IC1,20*
G04 #@! TO.N,/swdclk*
X31398000Y-42803000D03*
G04 #@! TD*
D15*
G04 #@! TO.P,J2,1*
G04 #@! TO.N,GND*
X25400000Y-209550000D03*
G04 #@! TO.P,J2,2*
X27940000Y-209550000D03*
G04 #@! TO.P,J2,3*
X30480000Y-209550000D03*
G04 #@! TO.P,J2,4*
X33020000Y-209550000D03*
G04 #@! TO.P,J2,5*
X35560000Y-209550000D03*
G04 #@! TO.P,J2,6*
X38100000Y-209550000D03*
G04 #@! TO.P,J2,7*
X40640000Y-209550000D03*
G04 #@! TO.P,J2,8*
X43180000Y-209550000D03*
G04 #@! TO.P,J2,9*
X45720000Y-209550000D03*
G04 #@! TD*
G04 #@! TO.P,J3,9*
G04 #@! TO.N,GND*
X45720000Y181610000D03*
G04 #@! TO.P,J3,8*
X43180000Y181610000D03*
G04 #@! TO.P,J3,7*
X40640000Y181610000D03*
G04 #@! TO.P,J3,6*
X38100000Y181610000D03*
G04 #@! TO.P,J3,5*
X35560000Y181610000D03*
G04 #@! TO.P,J3,4*
X33020000Y181610000D03*
G04 #@! TO.P,J3,3*
X30480000Y181610000D03*
G04 #@! TO.P,J3,2*
X27940000Y181610000D03*
G04 #@! TO.P,J3,1*
X25400000Y181610000D03*
G04 #@! TD*
D17*
G04 #@! TO.P,C9,1*
G04 #@! TO.N,VCC*
X44819000Y-44196000D03*
G04 #@! TO.P,C9,2*
G04 #@! TO.N,GND*
X43319000Y-44196000D03*
G04 #@! TD*
G04 #@! TO.P,C10,2*
G04 #@! TO.N,GND*
X45200000Y-39370000D03*
G04 #@! TO.P,C10,1*
G04 #@! TO.N,/3V3*
X43700000Y-39370000D03*
G04 #@! TD*
G04 #@! TO.P,C11,1*
G04 #@! TO.N,/3V3*
X30595000Y-44640500D03*
G04 #@! TO.P,C11,2*
G04 #@! TO.N,GND*
X29095000Y-44640500D03*
G04 #@! TD*
D18*
G04 #@! TO.P,R9,2*
G04 #@! TO.N,GND*
X28067000Y-232779000D03*
G04 #@! TO.P,R9,1*
G04 #@! TO.N,/clk_south*
X28067000Y-231279000D03*
G04 #@! TD*
G04 #@! TO.P,R10,1*
G04 #@! TO.N,/!oe*
X25400000Y175780000D03*
G04 #@! TO.P,R10,2*
G04 #@! TO.N,GND*
X25400000Y177280000D03*
G04 #@! TD*
G04 #@! TO.P,R11,1*
G04 #@! TO.N,/le*
X26670000Y175780000D03*
G04 #@! TO.P,R11,2*
G04 #@! TO.N,GND*
X26670000Y177280000D03*
G04 #@! TD*
G04 #@! TO.P,R12,2*
G04 #@! TO.N,GND*
X24130000Y177280000D03*
G04 #@! TO.P,R12,1*
G04 #@! TO.N,/clk_north*
X24130000Y175780000D03*
G04 #@! TD*
G04 #@! TO.P,R13,1*
G04 #@! TO.N,/!oe*
X26797000Y-231279000D03*
G04 #@! TO.P,R13,2*
G04 #@! TO.N,GND*
X26797000Y-232779000D03*
G04 #@! TD*
G04 #@! TO.P,R14,2*
G04 #@! TO.N,GND*
X29337000Y-232779000D03*
G04 #@! TO.P,R14,1*
G04 #@! TO.N,/le*
X29337000Y-231279000D03*
G04 #@! TD*
D14*
G04 #@! TO.N,GND*
G04 #@! TO.C,C14*
G36*
X29606504Y-16075204D02*
X29630773Y-16078804D01*
X29654571Y-16084765D01*
X29677671Y-16093030D01*
X29699849Y-16103520D01*
X29720893Y-16116133D01*
X29740598Y-16130747D01*
X29758777Y-16147223D01*
X29775253Y-16165402D01*
X29789867Y-16185107D01*
X29802480Y-16206151D01*
X29812970Y-16228329D01*
X29821235Y-16251429D01*
X29827196Y-16275227D01*
X29830796Y-16299496D01*
X29832000Y-16324000D01*
X29832000Y-18474000D01*
X29830796Y-18498504D01*
X29827196Y-18522773D01*
X29821235Y-18546571D01*
X29812970Y-18569671D01*
X29802480Y-18591849D01*
X29789867Y-18612893D01*
X29775253Y-18632598D01*
X29758777Y-18650777D01*
X29740598Y-18667253D01*
X29720893Y-18681867D01*
X29699849Y-18694480D01*
X29677671Y-18704970D01*
X29654571Y-18713235D01*
X29630773Y-18719196D01*
X29606504Y-18722796D01*
X29582000Y-18724000D01*
X28832000Y-18724000D01*
X28807496Y-18722796D01*
X28783227Y-18719196D01*
X28759429Y-18713235D01*
X28736329Y-18704970D01*
X28714151Y-18694480D01*
X28693107Y-18681867D01*
X28673402Y-18667253D01*
X28655223Y-18650777D01*
X28638747Y-18632598D01*
X28624133Y-18612893D01*
X28611520Y-18591849D01*
X28601030Y-18569671D01*
X28592765Y-18546571D01*
X28586804Y-18522773D01*
X28583204Y-18498504D01*
X28582000Y-18474000D01*
X28582000Y-16324000D01*
X28583204Y-16299496D01*
X28586804Y-16275227D01*
X28592765Y-16251429D01*
X28601030Y-16228329D01*
X28611520Y-16206151D01*
X28624133Y-16185107D01*
X28638747Y-16165402D01*
X28655223Y-16147223D01*
X28673402Y-16130747D01*
X28693107Y-16116133D01*
X28714151Y-16103520D01*
X28736329Y-16093030D01*
X28759429Y-16084765D01*
X28783227Y-16078804D01*
X28807496Y-16075204D01*
X28832000Y-16074000D01*
X29582000Y-16074000D01*
X29606504Y-16075204D01*
X29606504Y-16075204D01*
G37*
D20*
G04 #@! TD*
G04 #@! TO.P,C14,2*
G04 #@! TO.N,GND*
X29207000Y-17399000D03*
D14*
G04 #@! TO.N,VCC*
G04 #@! TO.C,C14*
G36*
X32406504Y-16075204D02*
X32430773Y-16078804D01*
X32454571Y-16084765D01*
X32477671Y-16093030D01*
X32499849Y-16103520D01*
X32520893Y-16116133D01*
X32540598Y-16130747D01*
X32558777Y-16147223D01*
X32575253Y-16165402D01*
X32589867Y-16185107D01*
X32602480Y-16206151D01*
X32612970Y-16228329D01*
X32621235Y-16251429D01*
X32627196Y-16275227D01*
X32630796Y-16299496D01*
X32632000Y-16324000D01*
X32632000Y-18474000D01*
X32630796Y-18498504D01*
X32627196Y-18522773D01*
X32621235Y-18546571D01*
X32612970Y-18569671D01*
X32602480Y-18591849D01*
X32589867Y-18612893D01*
X32575253Y-18632598D01*
X32558777Y-18650777D01*
X32540598Y-18667253D01*
X32520893Y-18681867D01*
X32499849Y-18694480D01*
X32477671Y-18704970D01*
X32454571Y-18713235D01*
X32430773Y-18719196D01*
X32406504Y-18722796D01*
X32382000Y-18724000D01*
X31632000Y-18724000D01*
X31607496Y-18722796D01*
X31583227Y-18719196D01*
X31559429Y-18713235D01*
X31536329Y-18704970D01*
X31514151Y-18694480D01*
X31493107Y-18681867D01*
X31473402Y-18667253D01*
X31455223Y-18650777D01*
X31438747Y-18632598D01*
X31424133Y-18612893D01*
X31411520Y-18591849D01*
X31401030Y-18569671D01*
X31392765Y-18546571D01*
X31386804Y-18522773D01*
X31383204Y-18498504D01*
X31382000Y-18474000D01*
X31382000Y-16324000D01*
X31383204Y-16299496D01*
X31386804Y-16275227D01*
X31392765Y-16251429D01*
X31401030Y-16228329D01*
X31411520Y-16206151D01*
X31424133Y-16185107D01*
X31438747Y-16165402D01*
X31455223Y-16147223D01*
X31473402Y-16130747D01*
X31493107Y-16116133D01*
X31514151Y-16103520D01*
X31536329Y-16093030D01*
X31559429Y-16084765D01*
X31583227Y-16078804D01*
X31607496Y-16075204D01*
X31632000Y-16074000D01*
X32382000Y-16074000D01*
X32406504Y-16075204D01*
X32406504Y-16075204D01*
G37*
D20*
G04 #@! TD*
G04 #@! TO.P,C14,1*
G04 #@! TO.N,VCC*
X32007000Y-17399000D03*
D14*
G04 #@! TO.N,VCC*
G04 #@! TO.C,C15*
G36*
X37226504Y-16075204D02*
X37250773Y-16078804D01*
X37274571Y-16084765D01*
X37297671Y-16093030D01*
X37319849Y-16103520D01*
X37340893Y-16116133D01*
X37360598Y-16130747D01*
X37378777Y-16147223D01*
X37395253Y-16165402D01*
X37409867Y-16185107D01*
X37422480Y-16206151D01*
X37432970Y-16228329D01*
X37441235Y-16251429D01*
X37447196Y-16275227D01*
X37450796Y-16299496D01*
X37452000Y-16324000D01*
X37452000Y-18474000D01*
X37450796Y-18498504D01*
X37447196Y-18522773D01*
X37441235Y-18546571D01*
X37432970Y-18569671D01*
X37422480Y-18591849D01*
X37409867Y-18612893D01*
X37395253Y-18632598D01*
X37378777Y-18650777D01*
X37360598Y-18667253D01*
X37340893Y-18681867D01*
X37319849Y-18694480D01*
X37297671Y-18704970D01*
X37274571Y-18713235D01*
X37250773Y-18719196D01*
X37226504Y-18722796D01*
X37202000Y-18724000D01*
X36452000Y-18724000D01*
X36427496Y-18722796D01*
X36403227Y-18719196D01*
X36379429Y-18713235D01*
X36356329Y-18704970D01*
X36334151Y-18694480D01*
X36313107Y-18681867D01*
X36293402Y-18667253D01*
X36275223Y-18650777D01*
X36258747Y-18632598D01*
X36244133Y-18612893D01*
X36231520Y-18591849D01*
X36221030Y-18569671D01*
X36212765Y-18546571D01*
X36206804Y-18522773D01*
X36203204Y-18498504D01*
X36202000Y-18474000D01*
X36202000Y-16324000D01*
X36203204Y-16299496D01*
X36206804Y-16275227D01*
X36212765Y-16251429D01*
X36221030Y-16228329D01*
X36231520Y-16206151D01*
X36244133Y-16185107D01*
X36258747Y-16165402D01*
X36275223Y-16147223D01*
X36293402Y-16130747D01*
X36313107Y-16116133D01*
X36334151Y-16103520D01*
X36356329Y-16093030D01*
X36379429Y-16084765D01*
X36403227Y-16078804D01*
X36427496Y-16075204D01*
X36452000Y-16074000D01*
X37202000Y-16074000D01*
X37226504Y-16075204D01*
X37226504Y-16075204D01*
G37*
D20*
G04 #@! TD*
G04 #@! TO.P,C15,1*
G04 #@! TO.N,VCC*
X36827000Y-17399000D03*
D14*
G04 #@! TO.N,GND*
G04 #@! TO.C,C15*
G36*
X40026504Y-16075204D02*
X40050773Y-16078804D01*
X40074571Y-16084765D01*
X40097671Y-16093030D01*
X40119849Y-16103520D01*
X40140893Y-16116133D01*
X40160598Y-16130747D01*
X40178777Y-16147223D01*
X40195253Y-16165402D01*
X40209867Y-16185107D01*
X40222480Y-16206151D01*
X40232970Y-16228329D01*
X40241235Y-16251429D01*
X40247196Y-16275227D01*
X40250796Y-16299496D01*
X40252000Y-16324000D01*
X40252000Y-18474000D01*
X40250796Y-18498504D01*
X40247196Y-18522773D01*
X40241235Y-18546571D01*
X40232970Y-18569671D01*
X40222480Y-18591849D01*
X40209867Y-18612893D01*
X40195253Y-18632598D01*
X40178777Y-18650777D01*
X40160598Y-18667253D01*
X40140893Y-18681867D01*
X40119849Y-18694480D01*
X40097671Y-18704970D01*
X40074571Y-18713235D01*
X40050773Y-18719196D01*
X40026504Y-18722796D01*
X40002000Y-18724000D01*
X39252000Y-18724000D01*
X39227496Y-18722796D01*
X39203227Y-18719196D01*
X39179429Y-18713235D01*
X39156329Y-18704970D01*
X39134151Y-18694480D01*
X39113107Y-18681867D01*
X39093402Y-18667253D01*
X39075223Y-18650777D01*
X39058747Y-18632598D01*
X39044133Y-18612893D01*
X39031520Y-18591849D01*
X39021030Y-18569671D01*
X39012765Y-18546571D01*
X39006804Y-18522773D01*
X39003204Y-18498504D01*
X39002000Y-18474000D01*
X39002000Y-16324000D01*
X39003204Y-16299496D01*
X39006804Y-16275227D01*
X39012765Y-16251429D01*
X39021030Y-16228329D01*
X39031520Y-16206151D01*
X39044133Y-16185107D01*
X39058747Y-16165402D01*
X39075223Y-16147223D01*
X39093402Y-16130747D01*
X39113107Y-16116133D01*
X39134151Y-16103520D01*
X39156329Y-16093030D01*
X39179429Y-16084765D01*
X39203227Y-16078804D01*
X39227496Y-16075204D01*
X39252000Y-16074000D01*
X40002000Y-16074000D01*
X40026504Y-16075204D01*
X40026504Y-16075204D01*
G37*
D20*
G04 #@! TD*
G04 #@! TO.P,C15,2*
G04 #@! TO.N,GND*
X39627000Y-17399000D03*
D17*
G04 #@! TO.P,C12,2*
G04 #@! TO.N,GND*
X35167000Y-19558000D03*
G04 #@! TO.P,C12,1*
G04 #@! TO.N,VCC*
X33667000Y-19558000D03*
G04 #@! TD*
G04 #@! TO.P,C13,1*
G04 #@! TO.N,VCC*
X45835000Y-18288000D03*
G04 #@! TO.P,C13,2*
G04 #@! TO.N,GND*
X44335000Y-18288000D03*
G04 #@! TD*
D18*
G04 #@! TO.P,R15,1*
G04 #@! TO.N,/ENL*
X33147000Y-37667500D03*
G04 #@! TO.P,R15,2*
G04 #@! TO.N,/3V3*
X33147000Y-39167500D03*
G04 #@! TD*
D21*
G04 #@! TO.N,GND*
X25336500Y-55626000D03*
X24892000Y-54356000D03*
X40703500Y-51054000D03*
X45085000Y-51435000D03*
X35496500Y-51054000D03*
X38036500Y-51054000D03*
X32664400Y-50888900D03*
X24638000Y-51562000D03*
X45085000Y-60325000D03*
X40576500Y-60769500D03*
X35369500Y-60769500D03*
X28067000Y-60452000D03*
X33210500Y-60134500D03*
X38036500Y-60769500D03*
X43116500Y-60769500D03*
X34226500Y-45275500D03*
X38989000Y-45148500D03*
X27305000Y-64262000D03*
X27432000Y-56515000D03*
X25336500Y-111506000D03*
X24892000Y-110236000D03*
X28765500Y-106743500D03*
X24638000Y-107442000D03*
X45085000Y-116205000D03*
X40576500Y-116649500D03*
X35369500Y-116649500D03*
X28067000Y-116332000D03*
X33210500Y-116014500D03*
X38036500Y-116649500D03*
X43116500Y-116649500D03*
X27178000Y-120078500D03*
X27432000Y-112395000D03*
X29972000Y-23876000D03*
X27051000Y-23495000D03*
X41529000Y-31115000D03*
X37465000Y-25400000D03*
X38481000Y-23495000D03*
X30480000Y-26352500D03*
X31051500Y-29210000D03*
X44577000Y-30734000D03*
X44640500Y-29400500D03*
X42862500Y-25908000D03*
X44005500Y-36703000D03*
X28321000Y-40894000D03*
X36639500Y-29578300D03*
X24511000Y-36322000D03*
X35814000Y-39497000D03*
X35814000Y-42926000D03*
X27876500Y-39306500D03*
X27940000Y-36893500D03*
X25273000Y-120332500D03*
X27940000Y-122872500D03*
X25019000Y-64516000D03*
X27940000Y-67500500D03*
X26733500Y-29718000D03*
X26670000Y-31623000D03*
X43815000Y-38100000D03*
X44069000Y-44196000D03*
X44069000Y-41910000D03*
X28384500Y-44640500D03*
X28765500Y-50609500D03*
X26543000Y-43942000D03*
X27813000Y-17399000D03*
X30607000Y-17399000D03*
X25400000Y-17272000D03*
X25400000Y-19304000D03*
X38227000Y-17399000D03*
X34760000Y-18640000D03*
X37338000Y-23812500D03*
X36830000Y-30607000D03*
X36360000Y-26640000D03*
X40640000Y-23050500D03*
X25400000Y56007000D03*
X24765000Y57277000D03*
X27686000Y63627000D03*
X24892000Y65278000D03*
X28765500Y60896500D03*
X45085000Y51435000D03*
X40576500Y50990500D03*
X35369500Y50990500D03*
X28067000Y51308000D03*
X33210500Y51625500D03*
X38036500Y50990500D03*
X43116500Y50990500D03*
X27305000Y47498000D03*
X24892000Y60325000D03*
X27432000Y55245000D03*
X25082500Y47307500D03*
X28257500Y44640500D03*
X25400000Y167767000D03*
X24765000Y169037000D03*
X27686000Y175387000D03*
X25400000Y178181000D03*
X28765500Y172656500D03*
X45085000Y163195000D03*
X40576500Y162750500D03*
X35369500Y162750500D03*
X28067000Y163068000D03*
X33210500Y163385500D03*
X38036500Y162750500D03*
X43116500Y162750500D03*
X27305000Y159258000D03*
X24892000Y172085000D03*
X27432000Y167005000D03*
X25082500Y159067500D03*
X28257500Y156400500D03*
X25400000Y111887000D03*
X24765000Y113157000D03*
X27686000Y119507000D03*
X24892000Y121158000D03*
X28765500Y116776500D03*
X45085000Y107315000D03*
X40576500Y106870500D03*
X35369500Y106870500D03*
X28067000Y107188000D03*
X33210500Y107505500D03*
X38036500Y106870500D03*
X43116500Y106870500D03*
X27305000Y103378000D03*
X24892000Y116205000D03*
X27432000Y111125000D03*
X25082500Y103187500D03*
X28257500Y100520500D03*
X25400000Y127000D03*
X24765000Y1397000D03*
X27686000Y7747000D03*
X24892000Y9398000D03*
X28765500Y5016500D03*
X45085000Y-4445000D03*
X40576500Y-4889500D03*
X35369500Y-4889500D03*
X28067000Y-4572000D03*
X33210500Y-4254500D03*
X38036500Y-4889500D03*
X43116500Y-4889500D03*
X27305000Y-8382000D03*
X24892000Y4445000D03*
X27432000Y-635000D03*
X25082500Y-8572500D03*
X27749500Y-12065000D03*
X33528000Y-12573000D03*
X27432000Y-222631000D03*
X24892000Y-221996000D03*
X28765500Y-218503500D03*
X24638000Y-219202000D03*
X45085000Y-227965000D03*
X40576500Y-228409500D03*
X35369500Y-228409500D03*
X28067000Y-228092000D03*
X33210500Y-227774500D03*
X38036500Y-228409500D03*
X43116500Y-228409500D03*
X25463500Y-224028000D03*
X27432000Y-224155000D03*
X25273000Y-232092500D03*
X30353000Y-232156000D03*
X25336500Y-167386000D03*
X24892000Y-166116000D03*
X28765500Y-162623500D03*
X24638000Y-163322000D03*
X45085000Y-172085000D03*
X40576500Y-172529500D03*
X35369500Y-172529500D03*
X28067000Y-172212000D03*
X33210500Y-171894500D03*
X38036500Y-172529500D03*
X43116500Y-172529500D03*
X27178000Y-175958500D03*
X27432000Y-168275000D03*
X25273000Y-176212500D03*
X27940000Y-178752500D03*
X45847000Y-19939000D03*
X43751500Y-18288000D03*
X42926000Y-8128000D03*
X38481000Y-7874000D03*
X30226000Y-31496000D03*
G04 #@! TO.N,/2x2digit 14 segment/E*
X27368500Y-57340500D03*
G04 #@! TO.N,/2x2digit 14 segment/J*
X33655000Y-44704000D03*
G04 #@! TO.N,/2x2digit 14 segment/K*
X34925000Y-44577000D03*
G04 #@! TO.N,/2x2digit 14 segment/F*
X27368500Y-51371500D03*
G04 #@! TO.N,/2x2digit 14 segment/G1*
X38735000Y-44323000D03*
G04 #@! TO.N,/2x2digit 14 segment/A*
X39624000Y-44323000D03*
G04 #@! TO.N,/sheet5D3BEBE4/F*
X27368500Y-107251500D03*
G04 #@! TO.N,/sheet5D3BEBE4/E*
X27368500Y-113220500D03*
G04 #@! TO.N,/sheet5D3BEDDC/E*
X27368500Y-169100500D03*
G04 #@! TO.N,/sheet5D3BEDDC/F*
X27368500Y-163131500D03*
G04 #@! TO.N,/sheet5D3BEDE9/F*
X27368500Y-219011500D03*
G04 #@! TO.N,/sheet5D3BEDE9/E*
X27368500Y-224980500D03*
G04 #@! TO.N,/sheet5D86B5D9/DI*
X24511000Y8636000D03*
X24701500Y-571500D03*
G04 #@! TO.N,/sheet5D86B5CC/E*
X27368500Y-1460500D03*
G04 #@! TO.N,/sheet5D86B5CC/F*
X27368500Y4508500D03*
G04 #@! TO.N,/sheet5D86B5D9/F*
X27368500Y60388500D03*
G04 #@! TO.N,/sheet5D86B5D9/E*
X27368500Y54419500D03*
G04 #@! TO.N,/sheet5D86B5F7/DI*
X24511000Y64516000D03*
X24701500Y55308500D03*
G04 #@! TO.N,/sheet5D86B5F7/F*
X27368500Y116268500D03*
G04 #@! TO.N,/sheet5D86B5F7/E*
X27368500Y110299500D03*
G04 #@! TO.N,/sheet5D86B604/DI*
X24511000Y120396000D03*
X24701500Y111188500D03*
G04 #@! TO.N,/sheet5D86B604/E*
X27368500Y166179500D03*
G04 #@! TO.N,/sheet5D86B604/F*
X27368500Y172148500D03*
G04 #@! TO.N,VCC*
X24892000Y-116459000D03*
X27940000Y-121920000D03*
X24638000Y-119507000D03*
X36703834Y-32070121D03*
X36703000Y-22796500D03*
X31305500Y-25844500D03*
X32131000Y-24257000D03*
X47117000Y-19939000D03*
X47117000Y-35814000D03*
X27940000Y-66548000D03*
X24892000Y-60579000D03*
X24638000Y-63627000D03*
X27813000Y45593000D03*
X24892000Y51181000D03*
X24638000Y48133000D03*
X27813000Y157353000D03*
X24892000Y162941000D03*
X24638000Y159893000D03*
X27813000Y101473000D03*
X24892000Y107061000D03*
X24638000Y104013000D03*
X24892000Y-4699000D03*
X24638000Y-7747000D03*
X24892000Y-172339000D03*
X27940000Y-177800000D03*
X24638000Y-175387000D03*
G04 #@! TO.N,/clk_south*
X24638000Y-223901000D03*
X27178000Y-232029000D03*
G04 #@! TO.N,/A_select*
X44704000Y-31750000D03*
X43878500Y-35814000D03*
D22*
G04 #@! TO.N,/DIG0N*
X41910000Y-12509500D03*
X42921346Y-17403654D03*
G04 #@! TO.N,/DIG1S*
X37846000Y-26924000D03*
X38227000Y-26035000D03*
G04 #@! TO.N,/DIG2N*
X41656000Y-27305000D03*
X42291000Y-26670000D03*
G04 #@! TO.N,/DIG3S*
X41910000Y-28575000D03*
X42545000Y-27940000D03*
G04 #@! TO.N,/DIG3N*
X30670500Y-28257500D03*
X30543500Y-27305000D03*
X41910000Y-7620000D03*
X31750000Y-12573000D03*
X32575500Y-12128500D03*
X41910000Y-8572500D03*
G04 #@! TO.N,/DIG2S*
X26797000Y-27305000D03*
X26797000Y-28321000D03*
G04 #@! TO.N,/DIG1N*
X29210000Y-12382500D03*
X26797000Y-25781000D03*
X26797000Y-24892000D03*
X36576000Y-8382000D03*
X28448000Y-11366500D03*
X37592000Y-8382000D03*
G04 #@! TO.N,/DIG0S*
X30988000Y-30480000D03*
X30353000Y-29845000D03*
D21*
G04 #@! TO.N,/!oe*
X26162000Y-106553000D03*
X26733500Y-111696500D03*
X26162000Y-50673000D03*
X26733500Y-55816500D03*
X26733500Y-167576500D03*
X26162000Y-162433000D03*
X28321000Y-37655500D03*
X27178000Y-38798500D03*
X26162000Y61087000D03*
X26733500Y55943500D03*
X26162000Y5207000D03*
X26733500Y63500D03*
X25400000Y176403000D03*
X26733500Y167703500D03*
X26733500Y111823500D03*
X26162000Y116967000D03*
X26162000Y-218313000D03*
X26733500Y-223456500D03*
G04 #@! TO.N,/le*
X27051000Y-65024000D03*
X26098500Y-56959500D03*
X27051000Y-120904000D03*
X26098500Y-112839500D03*
X27051000Y102616000D03*
X26098500Y110680500D03*
X26098500Y54800500D03*
X27051000Y46736000D03*
X27051000Y158496000D03*
X26098500Y166560500D03*
X26098500Y-1079500D03*
X27051000Y-9144000D03*
X27051000Y-176784000D03*
X26098500Y-168719500D03*
X26098500Y-224599500D03*
X29337000Y-232029000D03*
G04 #@! TO.N,/uart_rx*
X24257000Y-37338000D03*
G04 #@! TO.N,/swdio*
X43586400Y-32715200D03*
X35433000Y-42164000D03*
X35433000Y-40830500D03*
G04 #@! TO.N,/swdclk*
X42862500Y-32321500D03*
X34925000Y-40132000D03*
X34925000Y-42862500D03*
G04 #@! TO.N,/3V3*
X28321000Y-43815000D03*
X26543000Y-40195500D03*
X26543000Y-44894500D03*
G04 #@! TD*
D23*
G04 #@! TO.N,GND*
X24828500Y-52880000D02*
X24828500Y-54292500D01*
X24828500Y-54292500D02*
X24892000Y-54356000D01*
X24638000Y-51562000D02*
X24828500Y-51752500D01*
X24828500Y-51752500D02*
X24828500Y-52880000D01*
X27483500Y-60579000D02*
X27940000Y-60579000D01*
X27940000Y-60579000D02*
X28067000Y-60452000D01*
X24828500Y-108760000D02*
X24828500Y-110172500D01*
X24828500Y-110172500D02*
X24892000Y-110236000D01*
X24638000Y-107442000D02*
X24828500Y-107632500D01*
X24828500Y-107632500D02*
X24828500Y-108760000D01*
X27483500Y-116459000D02*
X27940000Y-116459000D01*
X27940000Y-116459000D02*
X28067000Y-116332000D01*
X28650000Y-23495000D02*
X29845000Y-23495000D01*
X29845000Y-23495000D02*
X29972000Y-23876000D01*
X28650000Y-23495000D02*
X27559000Y-23495000D01*
X27559000Y-23495000D02*
X27051000Y-23495000D01*
D24*
X40080000Y-31115000D02*
X41529000Y-31115000D01*
X40080000Y-23495000D02*
X38481000Y-23495000D01*
D23*
X31398000Y-39553000D02*
X30170000Y-39553000D01*
X30170000Y-39553000D02*
X28321000Y-40894000D01*
X40080000Y-31115000D02*
X38760400Y-31115000D01*
X38760400Y-31115000D02*
X38112700Y-30467300D01*
X37223700Y-29578300D02*
X38112700Y-30467300D01*
X37223700Y-29578300D02*
X36639500Y-29578300D01*
X25273000Y-120332500D02*
X25527000Y-120586500D01*
X25527000Y-120586500D02*
X25527000Y-121019000D01*
X25019000Y-64516000D02*
X25400000Y-64516000D01*
X25527000Y-64643000D02*
X25400000Y-64516000D01*
X25527000Y-64643000D02*
X25527000Y-65139000D01*
X26733500Y-30480000D02*
X26733500Y-29718000D01*
X27368500Y-31115000D02*
X26733500Y-30480000D01*
X28650000Y-31115000D02*
X27368500Y-31115000D01*
X28650000Y-31115000D02*
X27178000Y-31115000D01*
X27178000Y-31115000D02*
X26670000Y-31623000D01*
X38112700Y-30467300D02*
X38007307Y-30467300D01*
X45200000Y-39370000D02*
X45085000Y-39370000D01*
X45085000Y-39370000D02*
X43815000Y-38100000D01*
X44069000Y-44196000D02*
X44069000Y-44323000D01*
X43942000Y-44196000D02*
X44069000Y-44323000D01*
X43942000Y-44196000D02*
X43319000Y-44196000D01*
X45550000Y-41910000D02*
X44450000Y-41910000D01*
X44450000Y-41910000D02*
X44069000Y-41910000D01*
X29095000Y-44640500D02*
X28384500Y-44640500D01*
X25027000Y-43751500D02*
X25027000Y-43274000D01*
X25027000Y-43274000D02*
X25498000Y-42803000D01*
X26543000Y-43942000D02*
X26027000Y-43942000D01*
X26543000Y-43942000D02*
X26027000Y-43942000D01*
X25027000Y-43942000D02*
X26027000Y-43942000D01*
X30607000Y-17399000D02*
X27813000Y-17399000D01*
D25*
X29207000Y-17399000D02*
X27940000Y-17399000D01*
D23*
X27940000Y-17399000D02*
X27813000Y-17526000D01*
D25*
X39627000Y-17399000D02*
X38227000Y-17399000D01*
D23*
X44335000Y-18288000D02*
X44335000Y-15710000D01*
X44335000Y-15355000D02*
X45720000Y-13970000D01*
X44335000Y-15710000D02*
X44335000Y-15355000D01*
X35167000Y-19558000D02*
X35167000Y-18784000D01*
X35167000Y-18784000D02*
X34760000Y-18640000D01*
D24*
X40080000Y-23495000D02*
X41275000Y-23495000D01*
X41021000Y-18923000D02*
X39627000Y-17399000D01*
X41910000Y-19812000D02*
X41021000Y-18923000D01*
X41910000Y-22860000D02*
X41910000Y-19812000D01*
X41275000Y-23495000D02*
X41910000Y-22860000D01*
X38481000Y-23495000D02*
X37338000Y-23812500D01*
D23*
X36969700Y-30467300D02*
X36830000Y-30607000D01*
X38007307Y-30467300D02*
X36969700Y-30467300D01*
X37223700Y-29578300D02*
X37223700Y-28714700D01*
X38481000Y-23495000D02*
X40195500Y-23495000D01*
X40195500Y-23495000D02*
X40640000Y-23050500D01*
X24701500Y57340500D02*
X24765000Y57277000D01*
X27483500Y51181000D02*
X27940000Y51181000D01*
X27940000Y51181000D02*
X28067000Y51308000D01*
X24828500Y58880000D02*
X24828500Y60134500D01*
X24828500Y60134500D02*
X24892000Y60325000D01*
X24828500Y58880000D02*
X24828500Y57340500D01*
X24828500Y57340500D02*
X24765000Y57277000D01*
X25527000Y46621000D02*
X25527000Y46863000D01*
X25527000Y46863000D02*
X25082500Y47307500D01*
X24701500Y169100500D02*
X24765000Y169037000D01*
X25400000Y178181000D02*
X25400000Y177280000D01*
X27483500Y162941000D02*
X27940000Y162941000D01*
X27940000Y162941000D02*
X28067000Y163068000D01*
X24828500Y170640000D02*
X24828500Y171894500D01*
X24828500Y171894500D02*
X24892000Y172085000D01*
X24828500Y170640000D02*
X24828500Y169100500D01*
X24828500Y169100500D02*
X24765000Y169037000D01*
X25527000Y158381000D02*
X25527000Y158623000D01*
X25527000Y158623000D02*
X25082500Y159067500D01*
X26670000Y177280000D02*
X25400000Y177280000D01*
X25400000Y177280000D02*
X24130000Y177280000D01*
X24701500Y113220500D02*
X24765000Y113157000D01*
X27483500Y107061000D02*
X27940000Y107061000D01*
X27940000Y107061000D02*
X28067000Y107188000D01*
X24828500Y114760000D02*
X24828500Y116014500D01*
X24828500Y116014500D02*
X24892000Y116205000D01*
X24828500Y114760000D02*
X24828500Y113220500D01*
X24828500Y113220500D02*
X24765000Y113157000D01*
X25527000Y102501000D02*
X25527000Y102743000D01*
X25527000Y102743000D02*
X25082500Y103187500D01*
X24701500Y1460500D02*
X24765000Y1397000D01*
X27483500Y-4699000D02*
X27940000Y-4699000D01*
X27940000Y-4699000D02*
X28067000Y-4572000D01*
X24828500Y3000000D02*
X24828500Y4254500D01*
X24828500Y4254500D02*
X24892000Y4445000D01*
X24828500Y3000000D02*
X24828500Y1460500D01*
X24828500Y1460500D02*
X24765000Y1397000D01*
X25527000Y-9259000D02*
X25527000Y-9017000D01*
X25527000Y-9017000D02*
X25082500Y-8572500D01*
X24828500Y-220520000D02*
X24828500Y-221932500D01*
X24828500Y-221932500D02*
X24892000Y-221996000D01*
X24638000Y-219202000D02*
X24828500Y-219392500D01*
X24828500Y-219392500D02*
X24828500Y-220520000D01*
X27483500Y-228219000D02*
X27940000Y-228219000D01*
X27940000Y-228219000D02*
X28067000Y-228092000D01*
X25273000Y-232092500D02*
X25527000Y-232346500D01*
X25527000Y-232346500D02*
X25527000Y-232779000D01*
X24828500Y-164640000D02*
X24828500Y-166052500D01*
X24828500Y-166052500D02*
X24892000Y-166116000D01*
X24638000Y-163322000D02*
X24828500Y-163512500D01*
X24828500Y-163512500D02*
X24828500Y-164640000D01*
X27483500Y-172339000D02*
X27940000Y-172339000D01*
X27940000Y-172339000D02*
X28067000Y-172212000D01*
X25273000Y-176212500D02*
X25527000Y-176466500D01*
X25527000Y-176466500D02*
X25527000Y-176899000D01*
X27051000Y-232664000D02*
X26924000Y-232791000D01*
X25527000Y-232779000D02*
X26797000Y-232779000D01*
X26797000Y-232779000D02*
X28067000Y-232779000D01*
X28067000Y-232779000D02*
X29337000Y-232779000D01*
X29337000Y-232779000D02*
X29349000Y-232791000D01*
X29349000Y-232791000D02*
X30226000Y-232791000D01*
X30226000Y-232791000D02*
X30353000Y-232664000D01*
X30353000Y-232664000D02*
X30353000Y-232156000D01*
X43816397Y-18352897D02*
X43751500Y-18288000D01*
X43816397Y-18352897D02*
X44335000Y-18288000D01*
X30226000Y-31496000D02*
X30226000Y-31242000D01*
X30226000Y-31242000D02*
X30099000Y-31115000D01*
X30099000Y-31115000D02*
X28650000Y-31115000D01*
G04 #@! TO.N,/sheet5D3BEBE4/DI*
X26098500Y-57848500D02*
X25781000Y-57531000D01*
X24003000Y-66548000D02*
X24003000Y-73152000D01*
X24003000Y-105912498D02*
X25463500Y-107372998D01*
X24003000Y-94488000D02*
X24003000Y-73152000D01*
X24003000Y-101092000D02*
X24003000Y-105912498D01*
X24003000Y-101092000D02*
X24003000Y-94488000D01*
X25463500Y-108760000D02*
X25463500Y-107372998D01*
X24003000Y-58039000D02*
X24003000Y-66548000D01*
X24511000Y-57531000D02*
X24003000Y-58039000D01*
X26098500Y-57848500D02*
X26098500Y-58880000D01*
X25781000Y-57531000D02*
X24511000Y-57531000D01*
G04 #@! TO.N,/sheet5D3BEDDC/DI*
X24003000Y-156972000D02*
X24003000Y-150368000D01*
X24003000Y-122428000D02*
X24003000Y-129032000D01*
X24003000Y-113919000D02*
X24003000Y-122428000D01*
X24511000Y-113411000D02*
X24003000Y-113919000D01*
X26098500Y-114760000D02*
X26098500Y-113728500D01*
X25781000Y-113411000D02*
X24511000Y-113411000D01*
X26098500Y-113728500D02*
X25781000Y-113411000D01*
X25463500Y-163252998D02*
X25463500Y-164640000D01*
X24003000Y-161792498D02*
X25463500Y-163252998D01*
X24003000Y-150368000D02*
X24003000Y-129032000D01*
X24003000Y-156972000D02*
X24003000Y-161792498D01*
G04 #@! TO.N,/sheet5D3BEDE9/DI*
X26098500Y-169608500D02*
X25781000Y-169291000D01*
X24003000Y-184912000D02*
X24003000Y-178308000D01*
X26098500Y-170640000D02*
X26098500Y-169608500D01*
X24003000Y-217672498D02*
X25463500Y-219132998D01*
X24003000Y-206248000D02*
X24003000Y-184912000D01*
X24003000Y-212852000D02*
X24003000Y-217672498D01*
X24003000Y-212852000D02*
X24003000Y-206248000D01*
X25463500Y-219132998D02*
X25463500Y-220520000D01*
X24003000Y-169799000D02*
X24003000Y-178308000D01*
X24511000Y-169291000D02*
X24003000Y-169799000D01*
X25781000Y-169291000D02*
X24511000Y-169291000D01*
G04 #@! TO.N,/2x2digit 14 segment/E*
X27368500Y-58880000D02*
X27368500Y-57340500D01*
G04 #@! TO.N,/2x2digit 14 segment/N*
X27940000Y-62230000D02*
X27940000Y-61722000D01*
X28638500Y-60071000D02*
X28638500Y-58880000D01*
X28702000Y-60134500D02*
X28638500Y-60071000D01*
X28702000Y-60960000D02*
X28702000Y-60134500D01*
X27940000Y-61722000D02*
X28702000Y-60960000D01*
G04 #@! TO.N,/2x2digit 14 segment/H*
X28003500Y-52880000D02*
X28003500Y-49593500D01*
G04 #@! TO.N,/2x2digit 14 segment/J*
X32004000Y-50038000D02*
X31940500Y-50101500D01*
X32004000Y-47498000D02*
X32004000Y-50038000D01*
X33655000Y-44704000D02*
X32004000Y-46355000D01*
X32004000Y-46355000D02*
X32004000Y-47498000D01*
X30543500Y-51498500D02*
X31940500Y-50101500D01*
X30543500Y-51498500D02*
X30543500Y-52880000D01*
X33020000Y-49530000D02*
X32512000Y-49530000D01*
X32512000Y-49530000D02*
X32004000Y-50038000D01*
G04 #@! TO.N,/2x2digit 14 segment/K*
X34925000Y-45593000D02*
X34925000Y-44577000D01*
X34544000Y-45974000D02*
X34925000Y-45593000D01*
X34544000Y-50546000D02*
X34544000Y-45974000D01*
X31178500Y-51828700D02*
X31178500Y-52880000D01*
X31178500Y-51828700D02*
X31457900Y-51549300D01*
X31457900Y-51549300D02*
X33540700Y-51549300D01*
X33540700Y-51549300D02*
X34544000Y-50546000D01*
X34544000Y-50546000D02*
X35560000Y-49530000D01*
G04 #@! TO.N,/2x2digit 14 segment/G2*
X31813500Y-58880000D02*
X33226000Y-58880000D01*
X35941000Y-60071000D02*
X38100000Y-62230000D01*
X34417000Y-60071000D02*
X35941000Y-60071000D01*
X33226000Y-58880000D02*
X34417000Y-60071000D01*
G04 #@! TO.N,/2x2digit 14 segment/L*
X29908500Y-58880000D02*
X29908500Y-60255998D01*
X34798000Y-62230000D02*
X35560000Y-62230000D01*
X33528000Y-60960000D02*
X34798000Y-62230000D01*
X30104502Y-60452000D02*
X31178500Y-60452000D01*
X29908500Y-60255998D02*
X30104502Y-60452000D01*
X31178500Y-60452000D02*
X31496000Y-60452000D01*
X32004000Y-60960000D02*
X33528000Y-60960000D01*
X31496000Y-60452000D02*
X32004000Y-60960000D01*
G04 #@! TO.N,/2x2digit 14 segment/M*
X33020000Y-62230000D02*
X32131000Y-62230000D01*
X29273500Y-60706000D02*
X29273500Y-58880000D01*
X29527500Y-60960000D02*
X29273500Y-60706000D01*
X30861000Y-60960000D02*
X29527500Y-60960000D01*
X32131000Y-62230000D02*
X30861000Y-60960000D01*
G04 #@! TO.N,/2x2digit 14 segment/F*
X27368500Y-51371500D02*
X27368500Y-52880000D01*
G04 #@! TO.N,/2x2digit 14 segment/G1*
X29908500Y-52880000D02*
X29908500Y-54229000D01*
X37084000Y-50546000D02*
X38100000Y-49530000D01*
X37084000Y-50609500D02*
X37084000Y-50546000D01*
X37084000Y-50609500D02*
X33274000Y-54419500D01*
X33274000Y-54419500D02*
X30099000Y-54419500D01*
X30099000Y-54419500D02*
X29908500Y-54229000D01*
X37084000Y-45974000D02*
X38100000Y-44958000D01*
X37084000Y-45974000D02*
X37084000Y-50546000D01*
X38735000Y-44323000D02*
X38100000Y-44958000D01*
G04 #@! TO.N,/2x2digit 14 segment/A*
X39624000Y-44323000D02*
X39624000Y-50546000D01*
X29273500Y-52880000D02*
X29273500Y-54356000D01*
X39624000Y-50546000D02*
X40640000Y-49530000D01*
X35242500Y-54927500D02*
X39624000Y-50546000D01*
X29845000Y-54927500D02*
X35242500Y-54927500D01*
X29273500Y-54356000D02*
X29845000Y-54927500D01*
G04 #@! TO.N,/2x2digit 14 segment/B*
X28638500Y-52880000D02*
X28638500Y-54610000D01*
X28638500Y-54610000D02*
X29591000Y-55562500D01*
X29591000Y-55562500D02*
X39687500Y-55562500D01*
X39687500Y-55562500D02*
X45720000Y-49530000D01*
G04 #@! TO.N,/2x2digit 14 segment/C*
X28003500Y-58880000D02*
X28003500Y-57785000D01*
X40005000Y-56515000D02*
X45720000Y-62230000D01*
X29273500Y-56515000D02*
X40005000Y-56515000D01*
X28003500Y-57785000D02*
X29273500Y-56515000D01*
G04 #@! TO.N,/2x2digit 14 segment/Dp*
X30543500Y-58880000D02*
X30543500Y-57594500D01*
X37973000Y-57023000D02*
X43180000Y-62230000D01*
X31115000Y-57023000D02*
X37973000Y-57023000D01*
X30543500Y-57594500D02*
X31115000Y-57023000D01*
G04 #@! TO.N,/2x2digit 14 segment/D*
X31178500Y-58880000D02*
X31178500Y-57848500D01*
X37528500Y-59118500D02*
X40640000Y-62230000D01*
X34798000Y-59118500D02*
X37528500Y-59118500D01*
X33210500Y-57531000D02*
X34798000Y-59118500D01*
X31496000Y-57531000D02*
X33210500Y-57531000D01*
X31178500Y-57848500D02*
X31496000Y-57531000D01*
G04 #@! TO.N,/sheet5D3BEBE4/F*
X27368500Y-108760000D02*
X27368500Y-107251500D01*
G04 #@! TO.N,/sheet5D3BEBE4/M*
X33020000Y-118110000D02*
X32131000Y-118110000D01*
X29273500Y-116586000D02*
X29273500Y-114760000D01*
X29527500Y-116840000D02*
X29273500Y-116586000D01*
X30861000Y-116840000D02*
X29527500Y-116840000D01*
X32131000Y-118110000D02*
X30861000Y-116840000D01*
G04 #@! TO.N,/sheet5D3BEBE4/L*
X29908500Y-114760000D02*
X29908500Y-116135998D01*
X34798000Y-118110000D02*
X35560000Y-118110000D01*
X33528000Y-116840000D02*
X34798000Y-118110000D01*
X30104502Y-116332000D02*
X31178500Y-116332000D01*
X29908500Y-116135998D02*
X30104502Y-116332000D01*
X31178500Y-116332000D02*
X31496000Y-116332000D01*
X32004000Y-116840000D02*
X33528000Y-116840000D01*
X31496000Y-116332000D02*
X32004000Y-116840000D01*
G04 #@! TO.N,/sheet5D3BEBE4/G2*
X31813500Y-114760000D02*
X33226000Y-114760000D01*
X35941000Y-115951000D02*
X38100000Y-118110000D01*
X34417000Y-115951000D02*
X35941000Y-115951000D01*
X33226000Y-114760000D02*
X34417000Y-115951000D01*
G04 #@! TO.N,/sheet5D3BEBE4/K*
X33540700Y-107429300D02*
X34544000Y-106426000D01*
X34544000Y-106426000D02*
X35560000Y-105410000D01*
X31457900Y-107429300D02*
X33540700Y-107429300D01*
X31178500Y-107708700D02*
X31457900Y-107429300D01*
X31178500Y-108760000D02*
X31178500Y-107708700D01*
X34544000Y-106426000D02*
X34544000Y-101092000D01*
X34544000Y-101092000D02*
X34544000Y-94488000D01*
X34544000Y-78486000D02*
X35560000Y-77470000D01*
X34544000Y-94488000D02*
X34544000Y-78486000D01*
G04 #@! TO.N,/sheet5D3BEBE4/J*
X30543500Y-108760000D02*
X30543500Y-107378500D01*
X30543500Y-107378500D02*
X32004000Y-105918000D01*
X32004000Y-105918000D02*
X32512000Y-105410000D01*
X32512000Y-105410000D02*
X33020000Y-105410000D01*
X33020000Y-77470000D02*
X33020000Y-77539002D01*
X34036000Y-94488000D02*
X34036000Y-101092000D01*
X33020000Y-77539002D02*
X34036000Y-78555002D01*
X34036000Y-101092000D02*
X34036000Y-102743000D01*
X34036000Y-78555002D02*
X34036000Y-94488000D01*
X34036000Y-102743000D02*
X32004000Y-104775000D01*
X32004000Y-104775000D02*
X32004000Y-105918000D01*
G04 #@! TO.N,/sheet5D3BEBE4/H*
X28003500Y-108760000D02*
X28003500Y-105473500D01*
X28003500Y-105473500D02*
X27940000Y-105410000D01*
X27940000Y-105410000D02*
X28956000Y-104394000D01*
X28956000Y-94488000D02*
X28956000Y-101092000D01*
X28956000Y-94488000D02*
X28956000Y-78486000D01*
X28956000Y-104394000D02*
X28956000Y-101092000D01*
X28956000Y-78486000D02*
X27940000Y-77470000D01*
G04 #@! TO.N,/sheet5D3BEBE4/N*
X27940000Y-118110000D02*
X27940000Y-117602000D01*
X28638500Y-115951000D02*
X28638500Y-114760000D01*
X28702000Y-116014500D02*
X28638500Y-115951000D01*
X28702000Y-116840000D02*
X28702000Y-116014500D01*
X27940000Y-117602000D02*
X28702000Y-116840000D01*
G04 #@! TO.N,/sheet5D3BEBE4/E*
X27368500Y-114760000D02*
X27368500Y-113220500D01*
G04 #@! TO.N,/sheet5D3BEBE4/G1*
X38735000Y-102743000D02*
X38100000Y-103378000D01*
X39116000Y-94488000D02*
X39116000Y-101092000D01*
X37084000Y-104394000D02*
X38100000Y-103378000D01*
X37084000Y-106489500D02*
X37084000Y-104394000D01*
X38100000Y-77470000D02*
X39116000Y-78486000D01*
X39116000Y-102362000D02*
X38735000Y-102743000D01*
X39116000Y-101092000D02*
X39116000Y-102362000D01*
X39116000Y-78486000D02*
X39116000Y-94488000D01*
X38100000Y-105410000D02*
X38100000Y-105473500D01*
X29908500Y-110109000D02*
X29908500Y-108760000D01*
X30099000Y-110299500D02*
X29908500Y-110109000D01*
X33274000Y-110299500D02*
X30099000Y-110299500D01*
X38100000Y-105473500D02*
X37084000Y-106489500D01*
X37084000Y-106489500D02*
X33274000Y-110299500D01*
G04 #@! TO.N,/sheet5D3BEBE4/A*
X29273500Y-108760000D02*
X29273500Y-110236000D01*
X29273500Y-110236000D02*
X29845000Y-110807500D01*
X29845000Y-110807500D02*
X35242500Y-110807500D01*
X35242500Y-110807500D02*
X39624000Y-106426000D01*
X39624000Y-106426000D02*
X40640000Y-105410000D01*
X40640000Y-77470000D02*
X39624000Y-78486000D01*
X39624000Y-101092000D02*
X39624000Y-94488000D01*
X39624000Y-102743000D02*
X39624000Y-106426000D01*
X39624000Y-101092000D02*
X39624000Y-102743000D01*
X39624000Y-78486000D02*
X39624000Y-94488000D01*
G04 #@! TO.N,/sheet5D3BEBE4/B*
X28638500Y-108760000D02*
X28638500Y-110490000D01*
X39687500Y-111442500D02*
X45720000Y-105410000D01*
X29591000Y-111442500D02*
X39687500Y-111442500D01*
X28638500Y-110490000D02*
X29591000Y-111442500D01*
X45720000Y-105410000D02*
X44704000Y-104394000D01*
X44704000Y-94488000D02*
X44704000Y-101092000D01*
X44704000Y-94488000D02*
X44704000Y-78486000D01*
X44704000Y-104394000D02*
X44704000Y-101092000D01*
X44704000Y-78486000D02*
X45720000Y-77470000D01*
G04 #@! TO.N,/sheet5D3BEBE4/C*
X28003500Y-114760000D02*
X28003500Y-113665000D01*
X40005000Y-112395000D02*
X45720000Y-118110000D01*
X29273500Y-112395000D02*
X40005000Y-112395000D01*
X28003500Y-113665000D02*
X29273500Y-112395000D01*
G04 #@! TO.N,/sheet5D3BEBE4/Dp*
X30543500Y-114760000D02*
X30543500Y-113474500D01*
X37973000Y-112903000D02*
X43180000Y-118110000D01*
X31115000Y-112903000D02*
X37973000Y-112903000D01*
X30543500Y-113474500D02*
X31115000Y-112903000D01*
G04 #@! TO.N,/sheet5D3BEBE4/D*
X31178500Y-114760000D02*
X31178500Y-113728500D01*
X37528500Y-114998500D02*
X40640000Y-118110000D01*
X34798000Y-114998500D02*
X37528500Y-114998500D01*
X33210500Y-113411000D02*
X34798000Y-114998500D01*
X31496000Y-113411000D02*
X33210500Y-113411000D01*
X31178500Y-113728500D02*
X31496000Y-113411000D01*
G04 #@! TO.N,/sheet5D3BEDDC/E*
X27368500Y-170640000D02*
X27368500Y-169100500D01*
G04 #@! TO.N,/sheet5D3BEDDC/N*
X28702000Y-171894500D02*
X28638500Y-171831000D01*
X28702000Y-172720000D02*
X28702000Y-171894500D01*
X27940000Y-173990000D02*
X27940000Y-173482000D01*
X28638500Y-171831000D02*
X28638500Y-170640000D01*
X27940000Y-173482000D02*
X28702000Y-172720000D01*
G04 #@! TO.N,/sheet5D3BEDDC/H*
X28956000Y-150368000D02*
X28956000Y-156972000D01*
X28956000Y-150368000D02*
X28956000Y-134366000D01*
X28956000Y-160274000D02*
X28956000Y-156972000D01*
X28003500Y-164640000D02*
X28003500Y-161353500D01*
X28003500Y-161353500D02*
X27940000Y-161290000D01*
X27940000Y-161290000D02*
X28956000Y-160274000D01*
X28956000Y-134366000D02*
X27940000Y-133350000D01*
G04 #@! TO.N,/sheet5D3BEDDC/J*
X30543500Y-163258500D02*
X32004000Y-161798000D01*
X34036000Y-150368000D02*
X34036000Y-156972000D01*
X34036000Y-156972000D02*
X34036000Y-158623000D01*
X34036000Y-134435002D02*
X34036000Y-150368000D01*
X34036000Y-158623000D02*
X32004000Y-160655000D01*
X32004000Y-160655000D02*
X32004000Y-161798000D01*
X30543500Y-164640000D02*
X30543500Y-163258500D01*
X32004000Y-161798000D02*
X32512000Y-161290000D01*
X32512000Y-161290000D02*
X33020000Y-161290000D01*
X33020000Y-133350000D02*
X33020000Y-133419002D01*
X33020000Y-133419002D02*
X34036000Y-134435002D01*
G04 #@! TO.N,/sheet5D3BEDDC/K*
X33540700Y-163309300D02*
X34544000Y-162306000D01*
X31457900Y-163309300D02*
X33540700Y-163309300D01*
X31178500Y-163588700D02*
X31457900Y-163309300D01*
X34544000Y-162306000D02*
X34544000Y-156972000D01*
X34544000Y-156972000D02*
X34544000Y-150368000D01*
X34544000Y-150368000D02*
X34544000Y-134366000D01*
X34544000Y-162306000D02*
X35560000Y-161290000D01*
X31178500Y-164640000D02*
X31178500Y-163588700D01*
X34544000Y-134366000D02*
X35560000Y-133350000D01*
G04 #@! TO.N,/sheet5D3BEDDC/G2*
X34417000Y-171831000D02*
X35941000Y-171831000D01*
X33226000Y-170640000D02*
X34417000Y-171831000D01*
X31813500Y-170640000D02*
X33226000Y-170640000D01*
X35941000Y-171831000D02*
X38100000Y-173990000D01*
G04 #@! TO.N,/sheet5D3BEDDC/L*
X33528000Y-172720000D02*
X34798000Y-173990000D01*
X30104502Y-172212000D02*
X31178500Y-172212000D01*
X29908500Y-172015998D02*
X30104502Y-172212000D01*
X31178500Y-172212000D02*
X31496000Y-172212000D01*
X32004000Y-172720000D02*
X33528000Y-172720000D01*
X31496000Y-172212000D02*
X32004000Y-172720000D01*
X29908500Y-170640000D02*
X29908500Y-172015998D01*
X34798000Y-173990000D02*
X35560000Y-173990000D01*
G04 #@! TO.N,/sheet5D3BEDDC/M*
X29527500Y-172720000D02*
X29273500Y-172466000D01*
X30861000Y-172720000D02*
X29527500Y-172720000D01*
X32131000Y-173990000D02*
X30861000Y-172720000D01*
X33020000Y-173990000D02*
X32131000Y-173990000D01*
X29273500Y-172466000D02*
X29273500Y-170640000D01*
G04 #@! TO.N,/sheet5D3BEDDC/F*
X27368500Y-164640000D02*
X27368500Y-163131500D01*
G04 #@! TO.N,/sheet5D3BEDDC/G1*
X38735000Y-158623000D02*
X38100000Y-159258000D01*
X39116000Y-150368000D02*
X39116000Y-156972000D01*
X37084000Y-160274000D02*
X38100000Y-159258000D01*
X37084000Y-162369500D02*
X37084000Y-160274000D01*
X39116000Y-158242000D02*
X38735000Y-158623000D01*
X39116000Y-156972000D02*
X39116000Y-158242000D01*
X39116000Y-134366000D02*
X39116000Y-150368000D01*
X30099000Y-166179500D02*
X29908500Y-165989000D01*
X33274000Y-166179500D02*
X30099000Y-166179500D01*
X37084000Y-162369500D02*
X33274000Y-166179500D01*
X38100000Y-133350000D02*
X39116000Y-134366000D01*
X38100000Y-161290000D02*
X38100000Y-161353500D01*
X29908500Y-165989000D02*
X29908500Y-164640000D01*
X38100000Y-161353500D02*
X37084000Y-162369500D01*
G04 #@! TO.N,/sheet5D3BEDDC/A*
X29273500Y-166116000D02*
X29845000Y-166687500D01*
X29845000Y-166687500D02*
X35242500Y-166687500D01*
X35242500Y-166687500D02*
X39624000Y-162306000D01*
X39624000Y-156972000D02*
X39624000Y-150368000D01*
X39624000Y-158623000D02*
X39624000Y-162306000D01*
X39624000Y-156972000D02*
X39624000Y-158623000D01*
X39624000Y-134366000D02*
X39624000Y-150368000D01*
X29273500Y-164640000D02*
X29273500Y-166116000D01*
X39624000Y-162306000D02*
X40640000Y-161290000D01*
X40640000Y-133350000D02*
X39624000Y-134366000D01*
G04 #@! TO.N,/sheet5D3BEDDC/B*
X29591000Y-167322500D02*
X39687500Y-167322500D01*
X28638500Y-166370000D02*
X29591000Y-167322500D01*
X44704000Y-150368000D02*
X44704000Y-156972000D01*
X44704000Y-150368000D02*
X44704000Y-134366000D01*
X44704000Y-160274000D02*
X44704000Y-156972000D01*
X28638500Y-164640000D02*
X28638500Y-166370000D01*
X39687500Y-167322500D02*
X45720000Y-161290000D01*
X45720000Y-161290000D02*
X44704000Y-160274000D01*
X44704000Y-134366000D02*
X45720000Y-133350000D01*
G04 #@! TO.N,/sheet5D3BEDDC/C*
X29273500Y-168275000D02*
X40005000Y-168275000D01*
X28003500Y-169545000D02*
X29273500Y-168275000D01*
X28003500Y-170640000D02*
X28003500Y-169545000D01*
X40005000Y-168275000D02*
X45720000Y-173990000D01*
G04 #@! TO.N,/sheet5D3BEDDC/Dp*
X31115000Y-168783000D02*
X37973000Y-168783000D01*
X30543500Y-169354500D02*
X31115000Y-168783000D01*
X30543500Y-170640000D02*
X30543500Y-169354500D01*
X37973000Y-168783000D02*
X43180000Y-173990000D01*
G04 #@! TO.N,/sheet5D3BEDDC/D*
X34798000Y-170878500D02*
X37528500Y-170878500D01*
X33210500Y-169291000D02*
X34798000Y-170878500D01*
X31496000Y-169291000D02*
X33210500Y-169291000D01*
X31178500Y-169608500D02*
X31496000Y-169291000D01*
X31178500Y-170640000D02*
X31178500Y-169608500D01*
X37528500Y-170878500D02*
X40640000Y-173990000D01*
G04 #@! TO.N,/sheet5D3BEDE9/F*
X27368500Y-220520000D02*
X27368500Y-219011500D01*
G04 #@! TO.N,/sheet5D3BEDE9/M*
X33020000Y-229870000D02*
X32131000Y-229870000D01*
X29273500Y-228346000D02*
X29273500Y-226520000D01*
X29527500Y-228600000D02*
X29273500Y-228346000D01*
X30861000Y-228600000D02*
X29527500Y-228600000D01*
X32131000Y-229870000D02*
X30861000Y-228600000D01*
G04 #@! TO.N,/sheet5D3BEDE9/L*
X29908500Y-226520000D02*
X29908500Y-227895998D01*
X34798000Y-229870000D02*
X35560000Y-229870000D01*
X33528000Y-228600000D02*
X34798000Y-229870000D01*
X30104502Y-228092000D02*
X31178500Y-228092000D01*
X29908500Y-227895998D02*
X30104502Y-228092000D01*
X31178500Y-228092000D02*
X31496000Y-228092000D01*
X32004000Y-228600000D02*
X33528000Y-228600000D01*
X31496000Y-228092000D02*
X32004000Y-228600000D01*
G04 #@! TO.N,/sheet5D3BEDE9/G2*
X31813500Y-226520000D02*
X33226000Y-226520000D01*
X35941000Y-227711000D02*
X38100000Y-229870000D01*
X34417000Y-227711000D02*
X35941000Y-227711000D01*
X33226000Y-226520000D02*
X34417000Y-227711000D01*
G04 #@! TO.N,/sheet5D3BEDE9/K*
X33540700Y-219189300D02*
X34544000Y-218186000D01*
X34544000Y-218186000D02*
X35560000Y-217170000D01*
X31457900Y-219189300D02*
X33540700Y-219189300D01*
X31178500Y-219468700D02*
X31457900Y-219189300D01*
X31178500Y-220520000D02*
X31178500Y-219468700D01*
X34544000Y-218186000D02*
X34544000Y-212852000D01*
X34544000Y-212852000D02*
X34544000Y-206248000D01*
X34544000Y-190246000D02*
X35560000Y-189230000D01*
X34544000Y-206248000D02*
X34544000Y-190246000D01*
G04 #@! TO.N,/sheet5D3BEDE9/J*
X30543500Y-220520000D02*
X30543500Y-219138500D01*
X30543500Y-219138500D02*
X32004000Y-217678000D01*
X32004000Y-217678000D02*
X32512000Y-217170000D01*
X32512000Y-217170000D02*
X33020000Y-217170000D01*
X33020000Y-189230000D02*
X33020000Y-189299002D01*
X34036000Y-206248000D02*
X34036000Y-212852000D01*
X33020000Y-189299002D02*
X34036000Y-190315002D01*
X34036000Y-212852000D02*
X34036000Y-214503000D01*
X34036000Y-190315002D02*
X34036000Y-206248000D01*
X34036000Y-214503000D02*
X32004000Y-216535000D01*
X32004000Y-216535000D02*
X32004000Y-217678000D01*
G04 #@! TO.N,/sheet5D3BEDE9/H*
X28003500Y-220520000D02*
X28003500Y-217233500D01*
X28003500Y-217233500D02*
X27940000Y-217170000D01*
X27940000Y-217170000D02*
X28956000Y-216154000D01*
X28956000Y-206248000D02*
X28956000Y-212852000D01*
X28956000Y-206248000D02*
X28956000Y-190246000D01*
X28956000Y-216154000D02*
X28956000Y-212852000D01*
X28956000Y-190246000D02*
X27940000Y-189230000D01*
G04 #@! TO.N,/sheet5D3BEDE9/N*
X27940000Y-229870000D02*
X27940000Y-229362000D01*
X28638500Y-227711000D02*
X28638500Y-226520000D01*
X28702000Y-227774500D02*
X28638500Y-227711000D01*
X28702000Y-228600000D02*
X28702000Y-227774500D01*
X27940000Y-229362000D02*
X28702000Y-228600000D01*
G04 #@! TO.N,/sheet5D3BEDE9/E*
X27368500Y-226520000D02*
X27368500Y-224980500D01*
G04 #@! TO.N,/sheet5D3BEDE9/G1*
X38735000Y-214503000D02*
X38100000Y-215138000D01*
X39116000Y-206248000D02*
X39116000Y-212852000D01*
X37084000Y-216154000D02*
X38100000Y-215138000D01*
X37084000Y-218249500D02*
X37084000Y-216154000D01*
X38100000Y-189230000D02*
X39116000Y-190246000D01*
X39116000Y-214122000D02*
X38735000Y-214503000D01*
X39116000Y-212852000D02*
X39116000Y-214122000D01*
X39116000Y-190246000D02*
X39116000Y-206248000D01*
X38100000Y-217170000D02*
X38100000Y-217233500D01*
X29908500Y-221869000D02*
X29908500Y-220520000D01*
X30099000Y-222059500D02*
X29908500Y-221869000D01*
X33274000Y-222059500D02*
X30099000Y-222059500D01*
X38100000Y-217233500D02*
X37084000Y-218249500D01*
X37084000Y-218249500D02*
X33274000Y-222059500D01*
G04 #@! TO.N,/sheet5D3BEDE9/A*
X29273500Y-220520000D02*
X29273500Y-221996000D01*
X29273500Y-221996000D02*
X29845000Y-222567500D01*
X29845000Y-222567500D02*
X35242500Y-222567500D01*
X35242500Y-222567500D02*
X39624000Y-218186000D01*
X39624000Y-218186000D02*
X40640000Y-217170000D01*
X40640000Y-189230000D02*
X39624000Y-190246000D01*
X39624000Y-212852000D02*
X39624000Y-206248000D01*
X39624000Y-214503000D02*
X39624000Y-218186000D01*
X39624000Y-212852000D02*
X39624000Y-214503000D01*
X39624000Y-190246000D02*
X39624000Y-206248000D01*
G04 #@! TO.N,/sheet5D3BEDE9/B*
X28638500Y-220520000D02*
X28638500Y-222250000D01*
X39687500Y-223202500D02*
X45720000Y-217170000D01*
X29591000Y-223202500D02*
X39687500Y-223202500D01*
X28638500Y-222250000D02*
X29591000Y-223202500D01*
X45720000Y-217170000D02*
X44704000Y-216154000D01*
X44704000Y-206248000D02*
X44704000Y-212852000D01*
X44704000Y-206248000D02*
X44704000Y-190246000D01*
X44704000Y-216154000D02*
X44704000Y-212852000D01*
X44704000Y-190246000D02*
X45720000Y-189230000D01*
G04 #@! TO.N,/sheet5D3BEDE9/C*
X28003500Y-226520000D02*
X28003500Y-225425000D01*
X40005000Y-224155000D02*
X45720000Y-229870000D01*
X29273500Y-224155000D02*
X40005000Y-224155000D01*
X28003500Y-225425000D02*
X29273500Y-224155000D01*
G04 #@! TO.N,/sheet5D3BEDE9/Dp*
X30543500Y-226520000D02*
X30543500Y-225234500D01*
X37973000Y-224663000D02*
X43180000Y-229870000D01*
X31115000Y-224663000D02*
X37973000Y-224663000D01*
X30543500Y-225234500D02*
X31115000Y-224663000D01*
G04 #@! TO.N,/sheet5D3BEDE9/D*
X31178500Y-226520000D02*
X31178500Y-225488500D01*
X37528500Y-226758500D02*
X40640000Y-229870000D01*
X34798000Y-226758500D02*
X37528500Y-226758500D01*
X33210500Y-225171000D02*
X34798000Y-226758500D01*
X31496000Y-225171000D02*
X33210500Y-225171000D01*
X31178500Y-225488500D02*
X31496000Y-225171000D01*
G04 #@! TO.N,Net-(R1-Pad2)*
X25983500Y-60579000D02*
X25908000Y-60579000D01*
X25463500Y-60134500D02*
X25463500Y-58880000D01*
X25908000Y-60579000D02*
X25463500Y-60134500D01*
G04 #@! TO.N,Net-(R2-Pad2)*
X25983500Y-116459000D02*
X25908000Y-116459000D01*
X25463500Y-116014500D02*
X25463500Y-114760000D01*
X25908000Y-116459000D02*
X25463500Y-116014500D01*
G04 #@! TO.N,Net-(R3-Pad2)*
X25983500Y-172339000D02*
X25908000Y-172339000D01*
X25463500Y-171894500D02*
X25463500Y-170640000D01*
X25908000Y-172339000D02*
X25463500Y-171894500D01*
G04 #@! TO.N,Net-(R4-Pad2)*
X25983500Y-228219000D02*
X25908000Y-228219000D01*
X25463500Y-227774500D02*
X25463500Y-226520000D01*
X25908000Y-228219000D02*
X25463500Y-227774500D01*
G04 #@! TO.N,Net-(R5-Pad2)*
X25983500Y-4699000D02*
X25908000Y-4699000D01*
X25463500Y-4254500D02*
X25463500Y-3000000D01*
X25908000Y-4699000D02*
X25463500Y-4254500D01*
G04 #@! TO.N,Net-(R6-Pad2)*
X25983500Y51181000D02*
X25908000Y51181000D01*
X25463500Y51625500D02*
X25463500Y52880000D01*
X25908000Y51181000D02*
X25463500Y51625500D01*
G04 #@! TO.N,Net-(R7-Pad2)*
X25983500Y107061000D02*
X25908000Y107061000D01*
X25463500Y107505500D02*
X25463500Y108760000D01*
X25908000Y107061000D02*
X25463500Y107505500D01*
G04 #@! TO.N,Net-(R8-Pad2)*
X25983500Y162941000D02*
X25908000Y162941000D01*
X25463500Y163385500D02*
X25463500Y164640000D01*
X25908000Y162941000D02*
X25463500Y163385500D01*
G04 #@! TO.N,/sheet5D86B5D9/DI*
X25463500Y56959500D02*
X24003000Y55499000D01*
X24003000Y45212000D02*
X24003000Y38608000D01*
X26098500Y-3000000D02*
X26098500Y-1968500D01*
X25781000Y-1651000D02*
X24701500Y-571500D01*
X26098500Y-1968500D02*
X25781000Y-1651000D01*
X24003000Y10668000D02*
X24003000Y9144000D01*
X24003000Y9144000D02*
X24511000Y8636000D01*
X24003000Y10668000D02*
X24003000Y17272000D01*
X24003000Y38608000D02*
X24003000Y17272000D01*
X24003000Y45212000D02*
X24003000Y55499000D01*
X25463500Y56959500D02*
X25463500Y58880000D01*
G04 #@! TO.N,/sheet5D86B5CC/E*
X27368500Y-3000000D02*
X27368500Y-1460500D01*
G04 #@! TO.N,/sheet5D86B5CC/C*
X28003500Y-3000000D02*
X28003500Y-1905000D01*
X40005000Y-635000D02*
X45720000Y-6350000D01*
X29273500Y-635000D02*
X40005000Y-635000D01*
X28003500Y-1905000D02*
X29273500Y-635000D01*
G04 #@! TO.N,/sheet5D86B5CC/N*
X27940000Y-6350000D02*
X27940000Y-5842000D01*
X28638500Y-4191000D02*
X28638500Y-3000000D01*
X28702000Y-4254500D02*
X28638500Y-4191000D01*
X28702000Y-5080000D02*
X28702000Y-4254500D01*
X27940000Y-5842000D02*
X28702000Y-5080000D01*
G04 #@! TO.N,/sheet5D86B5CC/M*
X33020000Y-6350000D02*
X32131000Y-6350000D01*
X29273500Y-4826000D02*
X29273500Y-3000000D01*
X29527500Y-5080000D02*
X29273500Y-4826000D01*
X30861000Y-5080000D02*
X29527500Y-5080000D01*
X32131000Y-6350000D02*
X30861000Y-5080000D01*
G04 #@! TO.N,/sheet5D86B5CC/L*
X29908500Y-3000000D02*
X29908500Y-4375998D01*
X34798000Y-6350000D02*
X35560000Y-6350000D01*
X33528000Y-5080000D02*
X34798000Y-6350000D01*
X30104502Y-4572000D02*
X31178500Y-4572000D01*
X29908500Y-4375998D02*
X30104502Y-4572000D01*
X31178500Y-4572000D02*
X31496000Y-4572000D01*
X32004000Y-5080000D02*
X33528000Y-5080000D01*
X31496000Y-4572000D02*
X32004000Y-5080000D01*
G04 #@! TO.N,/sheet5D86B5CC/Dp*
X30543500Y-3000000D02*
X30543500Y-1714500D01*
X37973000Y-1143000D02*
X43180000Y-6350000D01*
X31115000Y-1143000D02*
X37973000Y-1143000D01*
X30543500Y-1714500D02*
X31115000Y-1143000D01*
G04 #@! TO.N,/sheet5D86B5CC/D*
X31178500Y-3000000D02*
X31178500Y-1968500D01*
X37528500Y-3238500D02*
X40640000Y-6350000D01*
X34798000Y-3238500D02*
X37528500Y-3238500D01*
X33210500Y-1651000D02*
X34798000Y-3238500D01*
X31496000Y-1651000D02*
X33210500Y-1651000D01*
X31178500Y-1968500D02*
X31496000Y-1651000D01*
G04 #@! TO.N,/sheet5D86B5CC/G2*
X31813500Y-3000000D02*
X33226000Y-3000000D01*
X35941000Y-4191000D02*
X38100000Y-6350000D01*
X34417000Y-4191000D02*
X35941000Y-4191000D01*
X33226000Y-3000000D02*
X34417000Y-4191000D01*
G04 #@! TO.N,/sheet5D86B5CC/K*
X35560000Y34290000D02*
X34544000Y33274000D01*
X34544000Y10668000D02*
X34544000Y17272000D01*
X34544000Y9144000D02*
X34544000Y5334000D01*
X34544000Y10668000D02*
X34544000Y9144000D01*
X34544000Y33274000D02*
X34544000Y17272000D01*
X33540700Y4330700D02*
X34544000Y5334000D01*
X31178500Y3000000D02*
X31178500Y4051300D01*
X31178500Y4051300D02*
X31457900Y4330700D01*
X31457900Y4330700D02*
X33540700Y4330700D01*
X34544000Y5334000D02*
X35560000Y6350000D01*
G04 #@! TO.N,/sheet5D86B5CC/J*
X34036000Y17272000D02*
X34036000Y33274000D01*
X34036000Y17272000D02*
X34036000Y10668000D01*
X34036000Y9271000D02*
X34036000Y10668000D01*
X33020000Y8255000D02*
X34036000Y9271000D01*
X34036000Y33274000D02*
X33020000Y34290000D01*
X33782000Y9017000D02*
X33020000Y8255000D01*
X30543500Y3000000D02*
X30543500Y4381500D01*
X30543500Y4381500D02*
X32004000Y5842000D01*
X32004000Y5842000D02*
X32512000Y6350000D01*
X32512000Y6350000D02*
X33020000Y6350000D01*
X33020000Y8255000D02*
X32004000Y7239000D01*
X32004000Y7239000D02*
X32004000Y5842000D01*
G04 #@! TO.N,/sheet5D86B5CC/G1*
X39116000Y17272000D02*
X39116000Y33274000D01*
X39116000Y17272000D02*
X39116000Y10668000D01*
X37115750Y7397750D02*
X38100000Y8382000D01*
X37115750Y5302250D02*
X37115750Y7397750D01*
X39116000Y9398000D02*
X39116000Y10668000D01*
X38100000Y8382000D02*
X39116000Y9398000D01*
X39116000Y33274000D02*
X38100000Y34290000D01*
X38100000Y6350000D02*
X38100000Y6286500D01*
X29908500Y1651000D02*
X29908500Y3000000D01*
X30099000Y1460500D02*
X29908500Y1651000D01*
X33274000Y1460500D02*
X30099000Y1460500D01*
X38100000Y6286500D02*
X37115750Y5302250D01*
X37115750Y5302250D02*
X33274000Y1460500D01*
G04 #@! TO.N,/sheet5D86B5CC/A*
X40640000Y34290000D02*
X39624000Y33274000D01*
X39624000Y10668000D02*
X39624000Y17272000D01*
X39624000Y9340002D02*
X39624000Y5334000D01*
X39624000Y10668000D02*
X39624000Y9340002D01*
X39624000Y33274000D02*
X39624000Y17272000D01*
X29273500Y3000000D02*
X29273500Y1524000D01*
X29273500Y1524000D02*
X29845000Y952500D01*
X29845000Y952500D02*
X35242500Y952500D01*
X35242500Y952500D02*
X39624000Y5334000D01*
X39624000Y5334000D02*
X40640000Y6350000D01*
G04 #@! TO.N,/sheet5D86B5CC/B*
X45720000Y34290000D02*
X44704000Y33274000D01*
X44704000Y17272000D02*
X44704000Y10668000D01*
X44704000Y7366000D02*
X44704000Y5334000D01*
X44704000Y7366000D02*
X44704000Y10668000D01*
X44704000Y17272000D02*
X44704000Y33274000D01*
X28638500Y3000000D02*
X28638500Y1270000D01*
X28638500Y1270000D02*
X29591000Y317500D01*
X29591000Y317500D02*
X39687500Y317500D01*
X39687500Y317500D02*
X44704000Y5334000D01*
X44704000Y5334000D02*
X45720000Y6350000D01*
G04 #@! TO.N,/sheet5D86B5CC/H*
X28003500Y3000000D02*
X28003500Y6286500D01*
X28003500Y6286500D02*
X27940000Y6350000D01*
G04 #@! TO.N,/sheet5D86B5CC/F*
X27368500Y3000000D02*
X27368500Y4508500D01*
G04 #@! TO.N,/sheet5D86B5D9/F*
X27368500Y58880000D02*
X27368500Y60388500D01*
G04 #@! TO.N,/sheet5D86B5D9/H*
X28003500Y58880000D02*
X28003500Y62166500D01*
X28003500Y62166500D02*
X27940000Y62230000D01*
G04 #@! TO.N,/sheet5D86B5D9/B*
X45720000Y90170000D02*
X44704000Y89154000D01*
X44704000Y73152000D02*
X44704000Y66548000D01*
X44704000Y63246000D02*
X44704000Y61214000D01*
X44704000Y63246000D02*
X44704000Y66548000D01*
X44704000Y73152000D02*
X44704000Y89154000D01*
X28638500Y58880000D02*
X28638500Y57150000D01*
X28638500Y57150000D02*
X29591000Y56197500D01*
X29591000Y56197500D02*
X39687500Y56197500D01*
X39687500Y56197500D02*
X44704000Y61214000D01*
X44704000Y61214000D02*
X45720000Y62230000D01*
G04 #@! TO.N,/sheet5D86B5D9/A*
X40640000Y90170000D02*
X39624000Y89154000D01*
X39624000Y66548000D02*
X39624000Y73152000D01*
X39624000Y65220002D02*
X39624000Y61214000D01*
X39624000Y66548000D02*
X39624000Y65220002D01*
X39624000Y89154000D02*
X39624000Y73152000D01*
X29273500Y58880000D02*
X29273500Y57404000D01*
X29273500Y57404000D02*
X29845000Y56832500D01*
X29845000Y56832500D02*
X35242500Y56832500D01*
X35242500Y56832500D02*
X39624000Y61214000D01*
X39624000Y61214000D02*
X40640000Y62230000D01*
G04 #@! TO.N,/sheet5D86B5D9/G1*
X39116000Y73152000D02*
X39116000Y89154000D01*
X39116000Y73152000D02*
X39116000Y66548000D01*
X37115750Y63277750D02*
X38100000Y64262000D01*
X37115750Y61182250D02*
X37115750Y63277750D01*
X39116000Y65278000D02*
X39116000Y66548000D01*
X38100000Y64262000D02*
X39116000Y65278000D01*
X39116000Y89154000D02*
X38100000Y90170000D01*
X38100000Y62230000D02*
X38100000Y62166500D01*
X29908500Y57531000D02*
X29908500Y58880000D01*
X30099000Y57340500D02*
X29908500Y57531000D01*
X33274000Y57340500D02*
X30099000Y57340500D01*
X38100000Y62166500D02*
X37115750Y61182250D01*
X37115750Y61182250D02*
X33274000Y57340500D01*
G04 #@! TO.N,/sheet5D86B5D9/J*
X34036000Y73152000D02*
X34036000Y89154000D01*
X34036000Y73152000D02*
X34036000Y66548000D01*
X34036000Y65151000D02*
X34036000Y66548000D01*
X33020000Y64135000D02*
X34036000Y65151000D01*
X34036000Y89154000D02*
X33020000Y90170000D01*
X33782000Y64897000D02*
X33020000Y64135000D01*
X30543500Y58880000D02*
X30543500Y60261500D01*
X30543500Y60261500D02*
X32004000Y61722000D01*
X32004000Y61722000D02*
X32512000Y62230000D01*
X32512000Y62230000D02*
X33020000Y62230000D01*
X33020000Y64135000D02*
X32004000Y63119000D01*
X32004000Y63119000D02*
X32004000Y61722000D01*
G04 #@! TO.N,/sheet5D86B5D9/K*
X35560000Y90170000D02*
X34544000Y89154000D01*
X34544000Y66548000D02*
X34544000Y73152000D01*
X34544000Y65024000D02*
X34544000Y61214000D01*
X34544000Y66548000D02*
X34544000Y65024000D01*
X34544000Y89154000D02*
X34544000Y73152000D01*
X33540700Y60210700D02*
X34544000Y61214000D01*
X31178500Y58880000D02*
X31178500Y59931300D01*
X31178500Y59931300D02*
X31457900Y60210700D01*
X31457900Y60210700D02*
X33540700Y60210700D01*
X34544000Y61214000D02*
X35560000Y62230000D01*
G04 #@! TO.N,/sheet5D86B5D9/G2*
X31813500Y52880000D02*
X33226000Y52880000D01*
X35941000Y51689000D02*
X38100000Y49530000D01*
X34417000Y51689000D02*
X35941000Y51689000D01*
X33226000Y52880000D02*
X34417000Y51689000D01*
G04 #@! TO.N,/sheet5D86B5D9/D*
X31178500Y52880000D02*
X31178500Y53911500D01*
X37528500Y52641500D02*
X40640000Y49530000D01*
X34798000Y52641500D02*
X37528500Y52641500D01*
X33210500Y54229000D02*
X34798000Y52641500D01*
X31496000Y54229000D02*
X33210500Y54229000D01*
X31178500Y53911500D02*
X31496000Y54229000D01*
G04 #@! TO.N,/sheet5D86B5D9/Dp*
X30543500Y52880000D02*
X30543500Y54165500D01*
X37973000Y54737000D02*
X43180000Y49530000D01*
X31115000Y54737000D02*
X37973000Y54737000D01*
X30543500Y54165500D02*
X31115000Y54737000D01*
G04 #@! TO.N,/sheet5D86B5D9/L*
X29908500Y52880000D02*
X29908500Y51504002D01*
X34798000Y49530000D02*
X35560000Y49530000D01*
X33528000Y50800000D02*
X34798000Y49530000D01*
X30104502Y51308000D02*
X31178500Y51308000D01*
X29908500Y51504002D02*
X30104502Y51308000D01*
X31178500Y51308000D02*
X31496000Y51308000D01*
X32004000Y50800000D02*
X33528000Y50800000D01*
X31496000Y51308000D02*
X32004000Y50800000D01*
G04 #@! TO.N,/sheet5D86B5D9/M*
X33020000Y49530000D02*
X32131000Y49530000D01*
X29273500Y51054000D02*
X29273500Y52880000D01*
X29527500Y50800000D02*
X29273500Y51054000D01*
X30861000Y50800000D02*
X29527500Y50800000D01*
X32131000Y49530000D02*
X30861000Y50800000D01*
G04 #@! TO.N,/sheet5D86B5D9/N*
X27940000Y49530000D02*
X27940000Y50038000D01*
X28638500Y51689000D02*
X28638500Y52880000D01*
X28702000Y51625500D02*
X28638500Y51689000D01*
X28702000Y50800000D02*
X28702000Y51625500D01*
X27940000Y50038000D02*
X28702000Y50800000D01*
G04 #@! TO.N,/sheet5D86B5D9/C*
X28003500Y52880000D02*
X28003500Y53975000D01*
X40005000Y55245000D02*
X45720000Y49530000D01*
X29273500Y55245000D02*
X40005000Y55245000D01*
X28003500Y53975000D02*
X29273500Y55245000D01*
G04 #@! TO.N,/sheet5D86B5D9/E*
X27368500Y52880000D02*
X27368500Y54419500D01*
G04 #@! TO.N,/sheet5D86B5F7/DI*
X24003000Y94488000D02*
X24003000Y73152000D01*
X24003000Y94488000D02*
X24003000Y101092000D01*
X24003000Y101092000D02*
X24003000Y111379000D01*
X25463500Y114760000D02*
X25463500Y112839500D01*
X25463500Y112839500D02*
X24003000Y111379000D01*
X26098500Y53911500D02*
X26098500Y52880000D01*
X25781000Y54229000D02*
X24701500Y55308500D01*
X26098500Y53911500D02*
X25781000Y54229000D01*
X24003000Y66548000D02*
X24003000Y65024000D01*
X24003000Y65024000D02*
X24511000Y64516000D01*
X24003000Y66548000D02*
X24003000Y73152000D01*
G04 #@! TO.N,/sheet5D86B5F7/F*
X27368500Y114760000D02*
X27368500Y116268500D01*
G04 #@! TO.N,/sheet5D86B5F7/H*
X28003500Y114760000D02*
X28003500Y118046500D01*
X28003500Y118046500D02*
X27940000Y118110000D01*
G04 #@! TO.N,/sheet5D86B5F7/B*
X45720000Y146050000D02*
X44704000Y145034000D01*
X44704000Y129032000D02*
X44704000Y122428000D01*
X44704000Y119126000D02*
X44704000Y117094000D01*
X44704000Y119126000D02*
X44704000Y122428000D01*
X44704000Y129032000D02*
X44704000Y145034000D01*
X28638500Y114760000D02*
X28638500Y113030000D01*
X28638500Y113030000D02*
X29591000Y112077500D01*
X29591000Y112077500D02*
X39687500Y112077500D01*
X39687500Y112077500D02*
X44704000Y117094000D01*
X44704000Y117094000D02*
X45720000Y118110000D01*
G04 #@! TO.N,/sheet5D86B5F7/A*
X40640000Y146050000D02*
X39624000Y145034000D01*
X39624000Y122428000D02*
X39624000Y129032000D01*
X39624000Y121100002D02*
X39624000Y117094000D01*
X39624000Y122428000D02*
X39624000Y121100002D01*
X39624000Y145034000D02*
X39624000Y129032000D01*
X29273500Y114760000D02*
X29273500Y113284000D01*
X29273500Y113284000D02*
X29845000Y112712500D01*
X29845000Y112712500D02*
X35242500Y112712500D01*
X35242500Y112712500D02*
X39624000Y117094000D01*
X39624000Y117094000D02*
X40640000Y118110000D01*
G04 #@! TO.N,/sheet5D86B5F7/G1*
X39116000Y129032000D02*
X39116000Y145034000D01*
X39116000Y129032000D02*
X39116000Y122428000D01*
X37115750Y119157750D02*
X38100000Y120142000D01*
X37115750Y117062250D02*
X37115750Y119157750D01*
X39116000Y121158000D02*
X39116000Y122428000D01*
X38100000Y120142000D02*
X39116000Y121158000D01*
X39116000Y145034000D02*
X38100000Y146050000D01*
X38100000Y118110000D02*
X38100000Y118046500D01*
X29908500Y113411000D02*
X29908500Y114760000D01*
X30099000Y113220500D02*
X29908500Y113411000D01*
X33274000Y113220500D02*
X30099000Y113220500D01*
X38100000Y118046500D02*
X37115750Y117062250D01*
X37115750Y117062250D02*
X33274000Y113220500D01*
G04 #@! TO.N,/sheet5D86B5F7/J*
X34036000Y129032000D02*
X34036000Y145034000D01*
X34036000Y129032000D02*
X34036000Y122428000D01*
X34036000Y121031000D02*
X34036000Y122428000D01*
X33020000Y120015000D02*
X34036000Y121031000D01*
X34036000Y145034000D02*
X33020000Y146050000D01*
X33782000Y120777000D02*
X33020000Y120015000D01*
X30543500Y114760000D02*
X30543500Y116141500D01*
X30543500Y116141500D02*
X32004000Y117602000D01*
X32004000Y117602000D02*
X32512000Y118110000D01*
X32512000Y118110000D02*
X33020000Y118110000D01*
X33020000Y120015000D02*
X32004000Y118999000D01*
X32004000Y118999000D02*
X32004000Y117602000D01*
G04 #@! TO.N,/sheet5D86B5F7/K*
X35560000Y146050000D02*
X34544000Y145034000D01*
X34544000Y122428000D02*
X34544000Y129032000D01*
X34544000Y120904000D02*
X34544000Y117094000D01*
X34544000Y122428000D02*
X34544000Y120904000D01*
X34544000Y145034000D02*
X34544000Y129032000D01*
X33540700Y116090700D02*
X34544000Y117094000D01*
X31178500Y114760000D02*
X31178500Y115811300D01*
X31178500Y115811300D02*
X31457900Y116090700D01*
X31457900Y116090700D02*
X33540700Y116090700D01*
X34544000Y117094000D02*
X35560000Y118110000D01*
G04 #@! TO.N,/sheet5D86B5F7/G2*
X31813500Y108760000D02*
X33226000Y108760000D01*
X35941000Y107569000D02*
X38100000Y105410000D01*
X34417000Y107569000D02*
X35941000Y107569000D01*
X33226000Y108760000D02*
X34417000Y107569000D01*
G04 #@! TO.N,/sheet5D86B5F7/D*
X31178500Y108760000D02*
X31178500Y109791500D01*
X37528500Y108521500D02*
X40640000Y105410000D01*
X34798000Y108521500D02*
X37528500Y108521500D01*
X33210500Y110109000D02*
X34798000Y108521500D01*
X31496000Y110109000D02*
X33210500Y110109000D01*
X31178500Y109791500D02*
X31496000Y110109000D01*
G04 #@! TO.N,/sheet5D86B5F7/Dp*
X30543500Y108760000D02*
X30543500Y110045500D01*
X37973000Y110617000D02*
X43180000Y105410000D01*
X31115000Y110617000D02*
X37973000Y110617000D01*
X30543500Y110045500D02*
X31115000Y110617000D01*
G04 #@! TO.N,/sheet5D86B5F7/L*
X29908500Y108760000D02*
X29908500Y107384002D01*
X34798000Y105410000D02*
X35560000Y105410000D01*
X33528000Y106680000D02*
X34798000Y105410000D01*
X30104502Y107188000D02*
X31178500Y107188000D01*
X29908500Y107384002D02*
X30104502Y107188000D01*
X31178500Y107188000D02*
X31496000Y107188000D01*
X32004000Y106680000D02*
X33528000Y106680000D01*
X31496000Y107188000D02*
X32004000Y106680000D01*
G04 #@! TO.N,/sheet5D86B5F7/M*
X33020000Y105410000D02*
X32131000Y105410000D01*
X29273500Y106934000D02*
X29273500Y108760000D01*
X29527500Y106680000D02*
X29273500Y106934000D01*
X30861000Y106680000D02*
X29527500Y106680000D01*
X32131000Y105410000D02*
X30861000Y106680000D01*
G04 #@! TO.N,/sheet5D86B5F7/N*
X27940000Y105410000D02*
X27940000Y105918000D01*
X28638500Y107569000D02*
X28638500Y108760000D01*
X28702000Y107505500D02*
X28638500Y107569000D01*
X28702000Y106680000D02*
X28702000Y107505500D01*
X27940000Y105918000D02*
X28702000Y106680000D01*
G04 #@! TO.N,/sheet5D86B5F7/C*
X28003500Y108760000D02*
X28003500Y109855000D01*
X40005000Y111125000D02*
X45720000Y105410000D01*
X29273500Y111125000D02*
X40005000Y111125000D01*
X28003500Y109855000D02*
X29273500Y111125000D01*
G04 #@! TO.N,/sheet5D86B5F7/E*
X27368500Y108760000D02*
X27368500Y110299500D01*
G04 #@! TO.N,/sheet5D86B604/DI*
X25463500Y168719500D02*
X24003000Y167259000D01*
X24003000Y150368000D02*
X24003000Y156972000D01*
X26098500Y108760000D02*
X26098500Y109791500D01*
X25781000Y110109000D02*
X24701500Y111188500D01*
X26098500Y109791500D02*
X25781000Y110109000D01*
X24003000Y122428000D02*
X24003000Y120904000D01*
X24003000Y120904000D02*
X24511000Y120396000D01*
X24003000Y122428000D02*
X24003000Y129032000D01*
X24003000Y150368000D02*
X24003000Y129032000D01*
X25463500Y168719500D02*
X25463500Y170640000D01*
X24003000Y156972000D02*
X24003000Y167259000D01*
G04 #@! TO.N,/sheet5D86B604/E*
X27368500Y164640000D02*
X27368500Y166179500D01*
G04 #@! TO.N,/sheet5D86B604/C*
X29273500Y167005000D02*
X40005000Y167005000D01*
X28003500Y165735000D02*
X29273500Y167005000D01*
X28003500Y164640000D02*
X28003500Y165735000D01*
X40005000Y167005000D02*
X45720000Y161290000D01*
G04 #@! TO.N,/sheet5D86B604/N*
X28702000Y163385500D02*
X28638500Y163449000D01*
X28702000Y162560000D02*
X28702000Y163385500D01*
X27940000Y161290000D02*
X27940000Y161798000D01*
X28638500Y163449000D02*
X28638500Y164640000D01*
X27940000Y161798000D02*
X28702000Y162560000D01*
G04 #@! TO.N,/sheet5D86B604/M*
X29527500Y162560000D02*
X29273500Y162814000D01*
X30861000Y162560000D02*
X29527500Y162560000D01*
X32131000Y161290000D02*
X30861000Y162560000D01*
X33020000Y161290000D02*
X32131000Y161290000D01*
X29273500Y162814000D02*
X29273500Y164640000D01*
G04 #@! TO.N,/sheet5D86B604/L*
X33528000Y162560000D02*
X34798000Y161290000D01*
X30104502Y163068000D02*
X31178500Y163068000D01*
X29908500Y163264002D02*
X30104502Y163068000D01*
X31178500Y163068000D02*
X31496000Y163068000D01*
X32004000Y162560000D02*
X33528000Y162560000D01*
X31496000Y163068000D02*
X32004000Y162560000D01*
X29908500Y164640000D02*
X29908500Y163264002D01*
X34798000Y161290000D02*
X35560000Y161290000D01*
G04 #@! TO.N,/sheet5D86B604/Dp*
X31115000Y166497000D02*
X37973000Y166497000D01*
X30543500Y165925500D02*
X31115000Y166497000D01*
X30543500Y164640000D02*
X30543500Y165925500D01*
X37973000Y166497000D02*
X43180000Y161290000D01*
G04 #@! TO.N,/sheet5D86B604/D*
X34798000Y164401500D02*
X37528500Y164401500D01*
X33210500Y165989000D02*
X34798000Y164401500D01*
X31496000Y165989000D02*
X33210500Y165989000D01*
X31178500Y165671500D02*
X31496000Y165989000D01*
X31178500Y164640000D02*
X31178500Y165671500D01*
X37528500Y164401500D02*
X40640000Y161290000D01*
G04 #@! TO.N,/sheet5D86B604/G2*
X34417000Y163449000D02*
X35941000Y163449000D01*
X33226000Y164640000D02*
X34417000Y163449000D01*
X31813500Y164640000D02*
X33226000Y164640000D01*
X35941000Y163449000D02*
X38100000Y161290000D01*
G04 #@! TO.N,/sheet5D86B604/K*
X34544000Y178308000D02*
X34544000Y184912000D01*
X34544000Y176784000D02*
X34544000Y172974000D01*
X34544000Y178308000D02*
X34544000Y176784000D01*
X34544000Y200914000D02*
X34544000Y184912000D01*
X33540700Y171970700D02*
X34544000Y172974000D01*
X31178500Y171691300D02*
X31457900Y171970700D01*
X31457900Y171970700D02*
X33540700Y171970700D01*
X35560000Y201930000D02*
X34544000Y200914000D01*
X31178500Y170640000D02*
X31178500Y171691300D01*
X34544000Y172974000D02*
X35560000Y173990000D01*
G04 #@! TO.N,/sheet5D86B604/J*
X34036000Y184912000D02*
X34036000Y200914000D01*
X34036000Y184912000D02*
X34036000Y178308000D01*
X34036000Y176911000D02*
X34036000Y178308000D01*
X33020000Y175895000D02*
X34036000Y176911000D01*
X33782000Y176657000D02*
X33020000Y175895000D01*
X30543500Y172021500D02*
X32004000Y173482000D01*
X33020000Y175895000D02*
X32004000Y174879000D01*
X32004000Y174879000D02*
X32004000Y173482000D01*
X34036000Y200914000D02*
X33020000Y201930000D01*
X30543500Y170640000D02*
X30543500Y172021500D01*
X32004000Y173482000D02*
X32512000Y173990000D01*
X32512000Y173990000D02*
X33020000Y173990000D01*
G04 #@! TO.N,/sheet5D86B604/G1*
X39116000Y184912000D02*
X39116000Y200914000D01*
X39116000Y184912000D02*
X39116000Y178308000D01*
X37115750Y175037750D02*
X38100000Y176022000D01*
X37115750Y172942250D02*
X37115750Y175037750D01*
X39116000Y177038000D02*
X39116000Y178308000D01*
X38100000Y176022000D02*
X39116000Y177038000D01*
X30099000Y169100500D02*
X29908500Y169291000D01*
X33274000Y169100500D02*
X30099000Y169100500D01*
X37115750Y172942250D02*
X33274000Y169100500D01*
X39116000Y200914000D02*
X38100000Y201930000D01*
X38100000Y173990000D02*
X38100000Y173926500D01*
X29908500Y169291000D02*
X29908500Y170640000D01*
X38100000Y173926500D02*
X37115750Y172942250D01*
G04 #@! TO.N,/sheet5D86B604/A*
X39624000Y178308000D02*
X39624000Y184912000D01*
X39624000Y176980002D02*
X39624000Y172974000D01*
X39624000Y178308000D02*
X39624000Y176980002D01*
X39624000Y200914000D02*
X39624000Y184912000D01*
X29273500Y169164000D02*
X29845000Y168592500D01*
X29845000Y168592500D02*
X35242500Y168592500D01*
X35242500Y168592500D02*
X39624000Y172974000D01*
X40640000Y201930000D02*
X39624000Y200914000D01*
X29273500Y170640000D02*
X29273500Y169164000D01*
X39624000Y172974000D02*
X40640000Y173990000D01*
G04 #@! TO.N,/sheet5D86B604/B*
X44704000Y184912000D02*
X44704000Y178308000D01*
X44704000Y175006000D02*
X44704000Y172974000D01*
X44704000Y175006000D02*
X44704000Y178308000D01*
X44704000Y184912000D02*
X44704000Y200914000D01*
X28638500Y168910000D02*
X29591000Y167957500D01*
X29591000Y167957500D02*
X39687500Y167957500D01*
X39687500Y167957500D02*
X44704000Y172974000D01*
X45720000Y201930000D02*
X44704000Y200914000D01*
X28638500Y170640000D02*
X28638500Y168910000D01*
X44704000Y172974000D02*
X45720000Y173990000D01*
G04 #@! TO.N,/sheet5D86B604/H*
X28003500Y170640000D02*
X28003500Y173926500D01*
X28003500Y173926500D02*
X27940000Y173990000D01*
G04 #@! TO.N,/sheet5D86B604/F*
X27368500Y170640000D02*
X27368500Y172148500D01*
G04 #@! TO.N,VCC*
X24828500Y-114760000D02*
X24828500Y-116395500D01*
D25*
X47117000Y-73152000D02*
X47117000Y-65024000D01*
D23*
X24828500Y-116395500D02*
X24892000Y-116459000D01*
D25*
X47117000Y-94488000D02*
X47117000Y-73152000D01*
X47117000Y-101092000D02*
X47117000Y-120523000D01*
X47117000Y-120523000D02*
X45720000Y-121920000D01*
X27940000Y-121920000D02*
X45720000Y-121920000D01*
X47117000Y-94488000D02*
X47117000Y-101092000D01*
D23*
X24701500Y-119570500D02*
X24638000Y-119507000D01*
D24*
X40080000Y-32385000D02*
X37655500Y-32385000D01*
D25*
X37338000Y-32067500D02*
X36703834Y-32070121D01*
D24*
X37655500Y-32385000D02*
X37338000Y-32067500D01*
X34850000Y-23495000D02*
X36004500Y-23495000D01*
X36004500Y-23495000D02*
X36703000Y-22796500D01*
X28650000Y-32385000D02*
X30861000Y-32385000D01*
D25*
X32004000Y-31242000D02*
X32004000Y-28575000D01*
D24*
X30861000Y-32385000D02*
X32004000Y-31242000D01*
D25*
X32004000Y-28575000D02*
X32004000Y-26543000D01*
X32004000Y-26543000D02*
X31305500Y-25844500D01*
X32131000Y-24257000D02*
X31750000Y-23876000D01*
X31750000Y-23876000D02*
X31750000Y-22288500D01*
D24*
X34850000Y-23495000D02*
X32956500Y-23495000D01*
X32956500Y-23495000D02*
X31750000Y-22288500D01*
X34850000Y-23495000D02*
X34850000Y-23483500D01*
D25*
X34226500Y-22860000D02*
X34226500Y-22860000D01*
D24*
X34850000Y-23483500D02*
X34226500Y-22860000D01*
D25*
X31750000Y-22288500D02*
X31750000Y-17335500D01*
X30480000Y-15240000D02*
X30480000Y-13970000D01*
X31750000Y-17335500D02*
X31750000Y-16510000D01*
X31750000Y-16510000D02*
X30480000Y-15240000D01*
X47117000Y-22658000D02*
X46280000Y-23495000D01*
X47117000Y-19939000D02*
X47117000Y-22658000D01*
X47117000Y-35814000D02*
X47117000Y-40960000D01*
X47117000Y-40960000D02*
X47117000Y-42860000D01*
X45593000Y-66548000D02*
X47117000Y-65024000D01*
X47117000Y-47371000D02*
X47117000Y-44831000D01*
X47117000Y-47371000D02*
X47117000Y-65024000D01*
X47117000Y-42860000D02*
X47117000Y-44831000D01*
X45593000Y-66548000D02*
X27940000Y-66548000D01*
X27940000Y-66548000D02*
X27940000Y-66548000D01*
D23*
X24828500Y-60515500D02*
X24892000Y-60579000D01*
D26*
X24828500Y-60515500D02*
X24828500Y-58880000D01*
D23*
X25527000Y-119519000D02*
X24650000Y-119519000D01*
X24650000Y-119519000D02*
X24638000Y-119507000D01*
X24650000Y-63639000D02*
X24638000Y-63627000D01*
X24650000Y-63639000D02*
X25527000Y-63639000D01*
X45550000Y-42860000D02*
X47117000Y-42860000D01*
X44819000Y-44196000D02*
X45466000Y-44196000D01*
X45550000Y-44112000D02*
X45550000Y-42860000D01*
X45466000Y-44196000D02*
X45550000Y-44112000D01*
X45550000Y-40960000D02*
X47117000Y-40960000D01*
D25*
X36824000Y-22675500D02*
X36824000Y-15869000D01*
X36703000Y-22796500D02*
X36824000Y-22675500D01*
X36824000Y-15869000D02*
X35560000Y-14605000D01*
D26*
X45835000Y-18288000D02*
X47117000Y-18288000D01*
D25*
X47117000Y-18288000D02*
X47117000Y-19939000D01*
X34290000Y-20447000D02*
X34290000Y-22796500D01*
X34290000Y-22796500D02*
X34226500Y-22860000D01*
X33667000Y-19824000D02*
X34290000Y-20447000D01*
X33667000Y-19824000D02*
X33667000Y-18300000D01*
X33020000Y-15240000D02*
X33020000Y-13970000D01*
X47117000Y94488000D02*
X47117000Y73152000D01*
X47117000Y100330000D02*
X47117000Y94488000D01*
X47117000Y44450000D02*
X47117000Y66548000D01*
X45974000Y45593000D02*
X27813000Y45593000D01*
X47117000Y44450000D02*
X45974000Y45593000D01*
X47117000Y66548000D02*
X47117000Y73152000D01*
D23*
X24828500Y52880000D02*
X24828500Y51244500D01*
X24828500Y51244500D02*
X24892000Y51181000D01*
X25527000Y48121000D02*
X24650000Y48121000D01*
X24650000Y48121000D02*
X24638000Y48133000D01*
D25*
X47117000Y156210000D02*
X45974000Y157353000D01*
X47117000Y150368000D02*
X47117000Y156210000D01*
X47117000Y100330000D02*
X47117000Y122428000D01*
X47117000Y122428000D02*
X47117000Y129032000D01*
X47117000Y150368000D02*
X47117000Y129032000D01*
X45974000Y157353000D02*
X27813000Y157353000D01*
D23*
X24828500Y164640000D02*
X24828500Y163004500D01*
X24828500Y163004500D02*
X24892000Y162941000D01*
X25527000Y159881000D02*
X24650000Y159881000D01*
X24650000Y159881000D02*
X24638000Y159893000D01*
D25*
X47117000Y100330000D02*
X45974000Y101473000D01*
X45974000Y101473000D02*
X27813000Y101473000D01*
D23*
X24828500Y108760000D02*
X24828500Y107124500D01*
X24828500Y107124500D02*
X24892000Y107061000D01*
X25527000Y104001000D02*
X24650000Y104001000D01*
X24650000Y104001000D02*
X24638000Y104013000D01*
D25*
X47117000Y38608000D02*
X47117000Y17272000D01*
X47117000Y-12827000D02*
X47117000Y-11430000D01*
X47117000Y-11430000D02*
X47117000Y10668000D01*
X47117000Y10668000D02*
X47117000Y17272000D01*
X47117000Y44450000D02*
X47117000Y38608000D01*
X47117000Y-14478000D02*
X47117000Y-18288000D01*
X47117000Y-14478000D02*
X47117000Y-12827000D01*
D23*
X24828500Y-3000000D02*
X24828500Y-4635500D01*
X24828500Y-4635500D02*
X24892000Y-4699000D01*
X25527000Y-7759000D02*
X24650000Y-7759000D01*
X24650000Y-7759000D02*
X24638000Y-7747000D01*
D25*
X30480000Y-13970000D02*
X33020000Y-13970000D01*
X33020000Y-13970000D02*
X35560000Y-13970000D01*
D23*
X24828500Y-226520000D02*
X24828500Y-228155500D01*
D25*
X24130000Y-229108000D02*
X24130000Y-231267000D01*
X24828500Y-228409500D02*
X24130000Y-229108000D01*
X24828500Y-228155500D02*
X24828500Y-228409500D01*
X47117000Y-184912000D02*
X47117000Y-176403000D01*
X47117000Y-206248000D02*
X47117000Y-184912000D01*
X47117000Y-212852000D02*
X47117000Y-232283000D01*
X47117000Y-232283000D02*
X45720000Y-233680000D01*
X27940000Y-233680000D02*
X45720000Y-233680000D01*
X47117000Y-206248000D02*
X47117000Y-212852000D01*
D23*
X24181500Y-231318500D02*
X24118000Y-231255000D01*
X25527000Y-231279000D02*
X24130000Y-231267000D01*
X24130000Y-231267000D02*
X24118000Y-231255000D01*
X24828500Y-170640000D02*
X24828500Y-172275500D01*
D25*
X47117000Y-129032000D02*
X47117000Y-120523000D01*
D23*
X24828500Y-172275500D02*
X24892000Y-172339000D01*
D25*
X47117000Y-150368000D02*
X47117000Y-129032000D01*
X47117000Y-156972000D02*
X47117000Y-176403000D01*
X47117000Y-176403000D02*
X45720000Y-177800000D01*
X27940000Y-177800000D02*
X45720000Y-177800000D01*
X47117000Y-150368000D02*
X47117000Y-156972000D01*
D23*
X24701500Y-175450500D02*
X24638000Y-175387000D01*
X25527000Y-175399000D02*
X24650000Y-175399000D01*
X24650000Y-175399000D02*
X24638000Y-175387000D01*
D25*
X35560000Y-13970000D02*
X35560000Y-12700000D01*
X45720000Y-11430000D02*
X47117000Y-12827000D01*
X36830000Y-11430000D02*
X45720000Y-11430000D01*
X35560000Y-12700000D02*
X36830000Y-11430000D01*
X33667000Y-19558000D02*
X33667000Y-15887000D01*
X33667000Y-15887000D02*
X33020000Y-15240000D01*
X27940000Y-233680000D02*
X24765000Y-233680000D01*
X24130000Y-233045000D02*
X24130000Y-231267000D01*
X24765000Y-233680000D02*
X24130000Y-233045000D01*
D23*
G04 #@! TO.N,/data_north*
X25498000Y-36953000D02*
X25658000Y-36953000D01*
X25498000Y-36953000D02*
X25498000Y-36039000D01*
X24003000Y-11430000D02*
X24003000Y-10668000D01*
X24003000Y-10668000D02*
X24003000Y-381000D01*
X25463500Y1079500D02*
X25463500Y3000000D01*
X25463500Y1079500D02*
X24003000Y-381000D01*
X24003000Y-34544000D02*
X25498000Y-36039000D01*
X24003000Y-11430000D02*
X24003000Y-34544000D01*
G04 #@! TO.N,/clk_north*
X25498000Y-38253000D02*
X24283000Y-38253000D01*
X23495000Y156972000D02*
X23495000Y150368000D01*
X23495000Y171577000D02*
X24638000Y172720000D01*
X23495000Y166116000D02*
X23495000Y156972000D01*
X23495000Y166116000D02*
X23495000Y168402000D01*
X23495000Y171577000D02*
X23495000Y168402000D01*
X23495000Y38608000D02*
X23495000Y45212000D01*
X23495000Y10668000D02*
X23495000Y762000D01*
X23495000Y17272000D02*
X23495000Y10668000D01*
X23495000Y38608000D02*
X23495000Y17272000D01*
X23495000Y54356000D02*
X23495000Y45212000D01*
X23495000Y54356000D02*
X23495000Y56642000D01*
X23495000Y66548000D02*
X23495000Y56642000D01*
X23495000Y73152000D02*
X23495000Y66548000D01*
X23495000Y73152000D02*
X23495000Y94488000D01*
X24283000Y-38253000D02*
X23495000Y-37465000D01*
X23495000Y-37465000D02*
X23495000Y-11430000D01*
X23495000Y-11430000D02*
X23495000Y-11303000D01*
X23495000Y-1524000D02*
X23495000Y762000D01*
X23495000Y-1524000D02*
X23495000Y-10668000D01*
X23495000Y-11303000D02*
X23495000Y-10668000D01*
X23495000Y129032000D02*
X23495000Y150368000D01*
X23495000Y129032000D02*
X23495000Y122428000D01*
X23495000Y122428000D02*
X23495000Y112522000D01*
X23495000Y110236000D02*
X23495000Y112522000D01*
X23495000Y110236000D02*
X23495000Y101092000D01*
X23495000Y101092000D02*
X23495000Y94488000D01*
X26098500Y58880000D02*
X26098500Y60134500D01*
X26098500Y60134500D02*
X25273000Y60960000D01*
X25273000Y60960000D02*
X25019000Y60960000D01*
X25019000Y60960000D02*
X23495000Y62484000D01*
X26098500Y170640000D02*
X26098500Y171894500D01*
X26098500Y171894500D02*
X25273000Y172720000D01*
X25273000Y172720000D02*
X25019000Y172720000D01*
X25019000Y172720000D02*
X24638000Y172720000D01*
X24130000Y175780000D02*
X24130000Y173228000D01*
X24130000Y173228000D02*
X24638000Y172720000D01*
X26098500Y114760000D02*
X26098500Y116014500D01*
X26098500Y116014500D02*
X25273000Y116840000D01*
X25273000Y116840000D02*
X25019000Y116840000D01*
X25019000Y116840000D02*
X23495000Y118364000D01*
X26098500Y3000000D02*
X26098500Y4254500D01*
X26098500Y4254500D02*
X25273000Y5080000D01*
X25273000Y5080000D02*
X25019000Y5080000D01*
X25019000Y5080000D02*
X23495000Y6604000D01*
G04 #@! TO.N,/data_south*
X25463500Y-52880000D02*
X25463500Y-51498500D01*
X23945002Y-49980002D02*
X23945002Y-47440002D01*
X24587502Y-39553000D02*
X23945002Y-40195500D01*
X23945002Y-40195500D02*
X23945002Y-47440002D01*
X23945002Y-49980002D02*
X25463500Y-51498500D01*
X24587502Y-39553000D02*
X25498000Y-39553000D01*
G04 #@! TO.N,/clk_south*
X26098500Y-52880000D02*
X26098500Y-54165500D01*
X25273000Y-54991000D02*
X24638000Y-54991000D01*
X26098500Y-54165500D02*
X25273000Y-54991000D01*
X26098500Y-108760000D02*
X26098500Y-110045500D01*
X23749000Y-109982000D02*
X23495000Y-109728000D01*
X24638000Y-110871000D02*
X23749000Y-109982000D01*
X25273000Y-110871000D02*
X24638000Y-110871000D01*
X26098500Y-110045500D02*
X25273000Y-110871000D01*
X23495000Y-109728000D02*
X23495000Y-122428000D01*
X23495000Y-129032000D02*
X23495000Y-122428000D01*
X23495000Y-156972000D02*
X23495000Y-165608000D01*
X23495000Y-150368000D02*
X23495000Y-156972000D01*
X23495000Y-129032000D02*
X23495000Y-150368000D01*
X25498000Y-38903000D02*
X24343000Y-38903000D01*
X24343000Y-38903000D02*
X23495000Y-39751000D01*
X23495000Y-39751000D02*
X23495000Y-39751000D01*
X23495000Y-53848000D02*
X23495000Y-42291000D01*
X23495000Y-40195500D02*
X23495000Y-39751000D01*
X23495000Y-42291000D02*
X23495000Y-40195500D01*
X23495000Y-53848000D02*
X23495000Y-66548000D01*
X23495000Y-73152000D02*
X23495000Y-66548000D01*
X23495000Y-101092000D02*
X23495000Y-109728000D01*
X23495000Y-94488000D02*
X23495000Y-101092000D01*
X23495000Y-73152000D02*
X23495000Y-94488000D01*
X24638000Y-54991000D02*
X23495000Y-53848000D01*
X26098500Y-220520000D02*
X26098500Y-221805500D01*
X23749000Y-221742000D02*
X23495000Y-221488000D01*
X24638000Y-222631000D02*
X23749000Y-221742000D01*
X25273000Y-222631000D02*
X24638000Y-222631000D01*
X26098500Y-221805500D02*
X25273000Y-222631000D01*
X23495000Y-184912000D02*
X23495000Y-206248000D01*
X23495000Y-178308000D02*
X23495000Y-184912000D01*
X23495000Y-165608000D02*
X23495000Y-178308000D01*
X23495000Y-212852000D02*
X23495000Y-221488000D01*
X23495000Y-206248000D02*
X23495000Y-212852000D01*
X26098500Y-164640000D02*
X26098500Y-165925500D01*
X23749000Y-165862000D02*
X23495000Y-165608000D01*
X24638000Y-166751000D02*
X23749000Y-165862000D01*
X25273000Y-166751000D02*
X24638000Y-166751000D01*
X26098500Y-165925500D02*
X25273000Y-166751000D01*
X28067000Y-231279000D02*
X28067000Y-231775000D01*
X24638000Y-223901000D02*
X24638000Y-222631000D01*
X27813000Y-232029000D02*
X27178000Y-232029000D01*
X28067000Y-231775000D02*
X27813000Y-232029000D01*
G04 #@! TO.N,/A_select*
X46280000Y-31115000D02*
X45339000Y-31115000D01*
X44640500Y-31750000D02*
X43878500Y-30988000D01*
X44704000Y-31750000D02*
X44640500Y-31750000D01*
X36385500Y-31242000D02*
X36258500Y-31115000D01*
X37655500Y-31242000D02*
X36385500Y-31242000D01*
X38163500Y-31750000D02*
X37655500Y-31242000D01*
X41656000Y-31750000D02*
X38163500Y-31750000D01*
X41656000Y-31750000D02*
X41783000Y-31750000D01*
X42545000Y-30988000D02*
X43878500Y-30988000D01*
X41783000Y-31750000D02*
X42545000Y-30988000D01*
X36258500Y-31115000D02*
X34850000Y-31115000D01*
X45339000Y-31115000D02*
X44704000Y-31750000D01*
X32919000Y-41503000D02*
X31398000Y-41503000D01*
X31398000Y-41503000D02*
X38189500Y-41503000D01*
X43878500Y-35814000D02*
X38189500Y-41503000D01*
G04 #@! TO.N,/B_select*
X34850000Y-32385000D02*
X34850000Y-32841000D01*
X34036000Y-33655000D02*
X34036000Y-39751000D01*
X34850000Y-32841000D02*
X34036000Y-33655000D01*
X31398000Y-40853000D02*
X32934000Y-40853000D01*
X32934000Y-40853000D02*
X34036000Y-39751000D01*
X41529000Y-32702500D02*
X41529000Y-32893000D01*
X35485000Y-33020000D02*
X34850000Y-32385000D01*
X41402000Y-33020000D02*
X35485000Y-33020000D01*
X41529000Y-32893000D02*
X41402000Y-33020000D01*
X46280000Y-32385000D02*
X44450000Y-32385000D01*
X42608500Y-31623000D02*
X41529000Y-32702500D01*
X43688000Y-31623000D02*
X42608500Y-31623000D01*
X44450000Y-32385000D02*
X43688000Y-31623000D01*
D24*
G04 #@! TO.N,/DIG0N*
X42100500Y-29845000D02*
X43815000Y-28130500D01*
D25*
X42418000Y-18288000D02*
X42799000Y-18669000D01*
X42799000Y-18669000D02*
X44450000Y-20320000D01*
D24*
X42100500Y-29845000D02*
X40080000Y-29845000D01*
D25*
X44450000Y-24130000D02*
X44450000Y-20320000D01*
X43815000Y-24765000D02*
X44450000Y-24130000D01*
X43815000Y-28130500D02*
X43815000Y-24765000D01*
X41910000Y-17780000D02*
X41910000Y-12509500D01*
X41910000Y-17780000D02*
X42418000Y-18288000D01*
X41910000Y-16392308D02*
X41910000Y-12509500D01*
X42921346Y-17403654D02*
X41910000Y-16392308D01*
X42921346Y-17403654D02*
X42921346Y-17784654D01*
X42921346Y-17784654D02*
X42418000Y-18288000D01*
X42921346Y-17403654D02*
X42286346Y-17403654D01*
X42286346Y-17403654D02*
X41910000Y-17780000D01*
X42799000Y-18669000D02*
X42799000Y-17526000D01*
X42799000Y-17526000D02*
X42921346Y-17403654D01*
D24*
G04 #@! TO.N,/DIG1S*
X40080000Y-26035000D02*
X41275000Y-26035000D01*
D25*
X41275000Y-26035000D02*
X42545000Y-24765000D01*
X42545000Y-24765000D02*
X42545000Y-24257000D01*
D24*
X40080000Y-26035000D02*
X38735000Y-26035000D01*
D25*
X43180000Y-21590000D02*
X43180000Y-23622000D01*
X43180000Y-23622000D02*
X42545000Y-24257000D01*
X37846000Y-26924000D02*
X38354000Y-26924000D01*
X38354000Y-26924000D02*
X38354000Y-26162000D01*
X38354000Y-26162000D02*
X38227000Y-26035000D01*
X38735000Y-26035000D02*
X38190002Y-26035000D01*
X37809002Y-26924000D02*
X37809002Y-26960998D01*
X37809002Y-26416000D02*
X37809002Y-26924000D01*
X38190002Y-26035000D02*
X37809002Y-26416000D01*
X37846000Y-26924000D02*
X37809002Y-26960998D01*
X38735000Y-26035000D02*
X37846000Y-26924000D01*
D24*
G04 #@! TO.N,/DIG2N*
X40080000Y-27305000D02*
X41656000Y-27305000D01*
D25*
X42291000Y-26670000D02*
X41656000Y-27305000D01*
X42291000Y-26670000D02*
X42164000Y-26670000D01*
X42164000Y-26670000D02*
X41656000Y-27178000D01*
X41656000Y-27178000D02*
X41656000Y-27305000D01*
D24*
G04 #@! TO.N,/DIG3S*
X40080000Y-28575000D02*
X41910000Y-28575000D01*
D25*
X42545000Y-27940000D02*
X41910000Y-28575000D01*
D24*
G04 #@! TO.N,/DIG3N*
X28650000Y-28575000D02*
X30353000Y-28575000D01*
D25*
X30353000Y-28575000D02*
X30670500Y-28257500D01*
X30543500Y-27305000D02*
X30670500Y-28257500D01*
X39878000Y-9652000D02*
X41910000Y-7620000D01*
X33147000Y-9652000D02*
X39878000Y-9652000D01*
X31750000Y-11049000D02*
X33147000Y-9652000D01*
X31750000Y-11049000D02*
X31750000Y-12573000D01*
X40259000Y-10223500D02*
X41910000Y-8572500D01*
X33528000Y-10223500D02*
X40259000Y-10223500D01*
X32512000Y-11239500D02*
X33528000Y-10223500D01*
X32512000Y-12065000D02*
X32512000Y-11239500D01*
X32575500Y-12128500D02*
X32512000Y-12065000D01*
X41910000Y-7620000D02*
X41910000Y-8572500D01*
X30353000Y-28575000D02*
X30353000Y-27495500D01*
X30353000Y-27495500D02*
X30543500Y-27305000D01*
D24*
G04 #@! TO.N,/DIG2S*
X28650000Y-27305000D02*
X27432000Y-27305000D01*
X27432000Y-27305000D02*
X26797000Y-27305000D01*
D25*
X26797000Y-28321000D02*
X26797000Y-27305000D01*
X26797000Y-28321000D02*
X26543000Y-28321000D01*
X26543000Y-28321000D02*
X26289000Y-28067000D01*
X26289000Y-28067000D02*
X26289000Y-27543002D01*
X26289000Y-27543002D02*
X26527002Y-27305000D01*
X26527002Y-27305000D02*
X28650000Y-27305000D01*
X27432000Y-27305000D02*
X27066998Y-27305000D01*
X27066998Y-27305000D02*
X26797000Y-27035002D01*
X26797000Y-27035002D02*
X26289000Y-27543002D01*
G04 #@! TO.N,/DIG1N*
X29210000Y-12065000D02*
X29210000Y-12382500D01*
X27051000Y-26035000D02*
X26797000Y-25781000D01*
D24*
X28650000Y-26035000D02*
X27051000Y-26035000D01*
D25*
X26797000Y-24892000D02*
X26797000Y-25781000D01*
X30734000Y-8382000D02*
X36576000Y-8382000D01*
X29210000Y-12382500D02*
X29210000Y-9906000D01*
X29210000Y-9906000D02*
X30734000Y-8382000D01*
X29210000Y-12382500D02*
X29210000Y-12128500D01*
X29210000Y-12128500D02*
X28448000Y-11366500D01*
X37592000Y-8382000D02*
X36576000Y-8382000D01*
X28448000Y-11366500D02*
X28448000Y-9652000D01*
X37084000Y-7874000D02*
X37592000Y-8382000D01*
X30226000Y-7874000D02*
X37084000Y-7874000D01*
X28448000Y-9652000D02*
X30226000Y-7874000D01*
X27051000Y-26035000D02*
X26670000Y-26035000D01*
X26670000Y-26035000D02*
X26289000Y-25654000D01*
X26289000Y-25654000D02*
X26289000Y-25400000D01*
X26289000Y-25400000D02*
X26797000Y-24892000D01*
D24*
G04 #@! TO.N,/DIG0S*
X28650000Y-29845000D02*
X30353000Y-29845000D01*
D25*
X30353000Y-29845000D02*
X30988000Y-30480000D01*
X30988000Y-30480000D02*
X30480000Y-30480000D01*
X30480000Y-30480000D02*
X30353000Y-30353000D01*
X30353000Y-30353000D02*
X30353000Y-29845000D01*
D23*
G04 #@! TO.N,/ENL*
X34850000Y-24765000D02*
X33909000Y-24765000D01*
X32217000Y-38903000D02*
X31398000Y-38903000D01*
X32512000Y-38608000D02*
X32217000Y-38903000D01*
X32512000Y-36195000D02*
X32004000Y-35687000D01*
X32004000Y-33655000D02*
X32004000Y-35687000D01*
X33274000Y-32385000D02*
X32004000Y-33655000D01*
X33274000Y-25400000D02*
X33274000Y-32385000D01*
X33909000Y-24765000D02*
X33274000Y-25400000D01*
X46280000Y-24765000D02*
X44958000Y-24765000D01*
X44577000Y-28511500D02*
X42608500Y-30480000D01*
X44577000Y-25146000D02*
X44577000Y-28511500D01*
X44958000Y-24765000D02*
X44577000Y-25146000D01*
X34850000Y-24765000D02*
X35941000Y-24765000D01*
X35941000Y-24765000D02*
X37084000Y-25908000D01*
X37084000Y-25908000D02*
X37084000Y-27559000D01*
X38798500Y-30480000D02*
X41402000Y-30480000D01*
X38385750Y-30067250D02*
X38798500Y-30480000D01*
X41402000Y-30480000D02*
X42608500Y-30480000D01*
X38385750Y-30067250D02*
X38385750Y-28860750D01*
X38385750Y-28860750D02*
X37084000Y-27559000D01*
X33147000Y-37667500D02*
X33147000Y-36830000D01*
X33147000Y-36830000D02*
X32004000Y-35687000D01*
X33147000Y-37667500D02*
X33147000Y-38290500D01*
X32575500Y-38544500D02*
X32217000Y-38903000D01*
X32893000Y-38544500D02*
X32575500Y-38544500D01*
X33147000Y-38290500D02*
X32893000Y-38544500D01*
G04 #@! TO.N,/ENH*
X31496000Y-33401000D02*
X31496000Y-36449000D01*
X31398000Y-36953000D02*
X31496000Y-36855000D01*
X31496000Y-36449000D02*
X31496000Y-36855000D01*
X32766000Y-32131000D02*
X32766000Y-26416000D01*
X32766000Y-32131000D02*
X31496000Y-33401000D01*
X32766000Y-26416000D02*
X32766000Y-26225500D01*
X32766000Y-26225500D02*
X32766000Y-24892000D01*
X40080000Y-24765000D02*
X36957000Y-24765000D01*
X32766000Y-24892000D02*
X33528000Y-24130000D01*
X36322000Y-24130000D02*
X33528000Y-24130000D01*
X36957000Y-24765000D02*
X36322000Y-24130000D01*
X28650000Y-24765000D02*
X31051500Y-24765000D01*
X31051500Y-24765000D02*
X31305500Y-24765000D01*
X31305500Y-24765000D02*
X32766000Y-26225500D01*
G04 #@! TO.N,/!oe*
X26733500Y-58880000D02*
X26733500Y-61023500D01*
X26416000Y-73025000D02*
X26416000Y-73152000D01*
X26162000Y-106489500D02*
X26416000Y-106235500D01*
X26162000Y-106553000D02*
X26162000Y-106489500D01*
X26733500Y-111696500D02*
X26733500Y-114760000D01*
X26416000Y-101092000D02*
X26416000Y-106235500D01*
X26416000Y-94488000D02*
X26416000Y-101092000D01*
X26416000Y-73152000D02*
X26416000Y-94488000D01*
X26733500Y-61023500D02*
X26416000Y-61341000D01*
X26416000Y-61341000D02*
X26416000Y-66294000D01*
X26416000Y-66548000D02*
X26416000Y-66294000D01*
X26416000Y-66548000D02*
X26416000Y-73025000D01*
X27178000Y-39751000D02*
X27178000Y-38798500D01*
X27178000Y-39751000D02*
X27178000Y-43307000D01*
X27178000Y-43307000D02*
X27178000Y-45275500D01*
X27178000Y-45275500D02*
X26447750Y-46005750D01*
X26447750Y-46005750D02*
X26416000Y-46037500D01*
X26733500Y-58880000D02*
X26733500Y-55816500D01*
X26447750Y-50387250D02*
X26162000Y-50673000D01*
X26447750Y-50387250D02*
X26447750Y-46005750D01*
X26416000Y-36322000D02*
X26828750Y-36734750D01*
X26416000Y-11430000D02*
X26416000Y-5461000D01*
X26416000Y-11430000D02*
X26416000Y-12954000D01*
X26733500Y-3000000D02*
X26733500Y-5143500D01*
X26733500Y-5143500D02*
X26416000Y-5461000D01*
X27178000Y-37846000D02*
X26828750Y-37496750D01*
X27178000Y-37846000D02*
X27178000Y-38798500D01*
X26416000Y-36195000D02*
X26416000Y-36322000D01*
X24765000Y-31877000D02*
X24765000Y-24003000D01*
X24765000Y-24003000D02*
X26416000Y-22352000D01*
X26416000Y-33528000D02*
X24765000Y-31877000D01*
X26416000Y-33528000D02*
X26416000Y-36195000D01*
X26416000Y-12954000D02*
X26416000Y-22352000D01*
X26828750Y-36734750D02*
X26828750Y-37496750D01*
X26733500Y-114760000D02*
X26733500Y-116903500D01*
X26416000Y-122428000D02*
X26416000Y-122174000D01*
X26733500Y-116903500D02*
X26416000Y-117221000D01*
X26416000Y-117221000D02*
X26416000Y-122174000D01*
X26416000Y-129032000D02*
X26416000Y-150368000D01*
X26416000Y-150368000D02*
X26416000Y-156972000D01*
X26416000Y-156972000D02*
X26416000Y-162115500D01*
X26733500Y-167576500D02*
X26733500Y-170640000D01*
X26162000Y-162433000D02*
X26162000Y-162369500D01*
X26162000Y-162369500D02*
X26416000Y-162115500D01*
X26416000Y-122428000D02*
X26416000Y-129032000D01*
X28373500Y-37603000D02*
X28321000Y-37655500D01*
X28373500Y-37603000D02*
X31398000Y-37603000D01*
X26416000Y94488000D02*
X26416000Y73152000D01*
X26416000Y101092000D02*
X26416000Y94488000D01*
X26733500Y108760000D02*
X26733500Y106616500D01*
X26733500Y106616500D02*
X26416000Y106299000D01*
X26416000Y106299000D02*
X26416000Y101346000D01*
X26416000Y101092000D02*
X26416000Y101346000D01*
X26416000Y66548000D02*
X26416000Y73152000D01*
X26162000Y61150500D02*
X26416000Y61404500D01*
X26162000Y61087000D02*
X26162000Y61150500D01*
X26733500Y55943500D02*
X26733500Y52880000D01*
X26416000Y66548000D02*
X26416000Y61404500D01*
X26416000Y45212000D02*
X26416000Y45466000D01*
X26416000Y50419000D02*
X26416000Y45466000D01*
X26733500Y50736500D02*
X26416000Y50419000D01*
X26733500Y50736500D02*
X26733500Y52880000D01*
X26416000Y38608000D02*
X26416000Y17272000D01*
X26416000Y10668000D02*
X26416000Y17272000D01*
X26162000Y5270500D02*
X26416000Y5524500D01*
X26162000Y5207000D02*
X26162000Y5270500D01*
X26733500Y-3000000D02*
X26733500Y63500D01*
X26416000Y10668000D02*
X26416000Y5524500D01*
X26416000Y38608000D02*
X26416000Y45212000D01*
X25400000Y176403000D02*
X25400000Y175780000D01*
X26733500Y167703500D02*
X26733500Y164640000D01*
X26416000Y156972000D02*
X26416000Y157226000D01*
X26416000Y156972000D02*
X26416000Y150368000D01*
X26416000Y122428000D02*
X26416000Y117284500D01*
X26733500Y108760000D02*
X26733500Y111823500D01*
X26162000Y116967000D02*
X26162000Y117030500D01*
X26162000Y117030500D02*
X26416000Y117284500D01*
X26416000Y122428000D02*
X26416000Y129032000D01*
X26416000Y150368000D02*
X26416000Y129032000D01*
X26733500Y162496500D02*
X26733500Y164640000D01*
X26733500Y162496500D02*
X26416000Y162179000D01*
X26416000Y162179000D02*
X26416000Y157226000D01*
X26416000Y-184912000D02*
X26416000Y-206248000D01*
X26416000Y-178308000D02*
X26416000Y-184912000D01*
X26416000Y-178308000D02*
X26416000Y-178054000D01*
X26733500Y-172783500D02*
X26416000Y-173101000D01*
X26416000Y-173101000D02*
X26416000Y-178054000D01*
X26733500Y-170640000D02*
X26733500Y-172783500D01*
X26162000Y-218249500D02*
X26416000Y-217995500D01*
X26162000Y-218313000D02*
X26162000Y-218249500D01*
X26733500Y-223456500D02*
X26733500Y-226520000D01*
X26416000Y-212852000D02*
X26416000Y-217995500D01*
X26416000Y-206248000D02*
X26416000Y-212852000D01*
X26733500Y-226520000D02*
X26733500Y-231215500D01*
X26733500Y-231215500D02*
X26797000Y-231279000D01*
G04 #@! TO.N,/le*
X26733500Y-52880000D02*
X26733500Y-54229000D01*
X26924000Y-66548000D02*
X26924000Y-73152000D01*
X26924000Y-101092000D02*
X26924000Y-105029000D01*
X26733500Y-106934000D02*
X26733500Y-108760000D01*
X26924000Y-106743500D02*
X26924000Y-105029000D01*
X26733500Y-106934000D02*
X26924000Y-106743500D01*
X26924000Y-101092000D02*
X26924000Y-94488000D01*
X26924000Y-73152000D02*
X26924000Y-94488000D01*
X26924000Y-65151000D02*
X26924000Y-66548000D01*
X27051000Y-65024000D02*
X26924000Y-65151000D01*
X26098500Y-54864000D02*
X26098500Y-56959500D01*
X26733500Y-54229000D02*
X26098500Y-54864000D01*
X26733500Y-52880000D02*
X26733500Y-51054000D01*
X26924000Y-46291500D02*
X26924000Y-50863500D01*
X27628002Y-40570998D02*
X28860750Y-39338250D01*
X27628002Y-40576500D02*
X27628002Y-40570998D01*
X27628002Y-45587498D02*
X26924000Y-46291500D01*
X27628002Y-43243500D02*
X27628002Y-45587498D01*
X27628002Y-40576500D02*
X27628002Y-43243500D01*
X26733500Y-51054000D02*
X26924000Y-50863500D01*
X28860750Y-39338250D02*
X29559250Y-38639750D01*
X26733500Y-108760000D02*
X26733500Y-110109000D01*
X26924000Y-129032000D02*
X26924000Y-122936000D01*
X26924000Y-156972000D02*
X26924000Y-160909000D01*
X26733500Y-162814000D02*
X26733500Y-164640000D01*
X26924000Y-162623500D02*
X26924000Y-160909000D01*
X26733500Y-162814000D02*
X26924000Y-162623500D01*
X26924000Y-156972000D02*
X26924000Y-150368000D01*
X26924000Y-129032000D02*
X26924000Y-150368000D01*
X26924000Y-121031000D02*
X26924000Y-122428000D01*
X26924000Y-122428000D02*
X26924000Y-122936000D01*
X27051000Y-120904000D02*
X26924000Y-121031000D01*
X26098500Y-110744000D02*
X26098500Y-112839500D01*
X26733500Y-110109000D02*
X26098500Y-110744000D01*
X26924000Y-13716000D02*
X26924000Y-22606000D01*
X26924000Y-33274000D02*
X26924000Y-35814000D01*
X26924000Y-11811000D02*
X26924000Y-13716000D01*
X26924000Y-22606000D02*
X25273000Y-24257000D01*
X25273000Y-31623000D02*
X26924000Y-33274000D01*
X25273000Y-24257000D02*
X25273000Y-31623000D01*
X26924000Y-35814000D02*
X26924000Y-36068000D01*
X26924000Y-36068000D02*
X27305000Y-36449000D01*
X27305000Y-36449000D02*
X27305000Y-37211000D01*
X27686000Y-38163500D02*
X28162250Y-38639750D01*
X27305000Y-37211000D02*
X27686000Y-37592000D01*
X27686000Y-37592000D02*
X27686000Y-38163500D01*
X28162250Y-38639750D02*
X29559250Y-38639750D01*
X26924000Y-9271000D02*
X26924000Y-11811000D01*
X31398000Y-38253000D02*
X29946000Y-38253000D01*
X29559250Y-38639750D02*
X29946000Y-38253000D01*
X26924000Y94488000D02*
X26924000Y73152000D01*
X26924000Y94488000D02*
X26924000Y101092000D01*
X26924000Y102489000D02*
X26924000Y101092000D01*
X27051000Y102616000D02*
X26924000Y102489000D01*
X26733500Y114760000D02*
X26733500Y113411000D01*
X26098500Y112776000D02*
X26098500Y110680500D01*
X26733500Y113411000D02*
X26098500Y112776000D01*
X26924000Y73152000D02*
X26924000Y66548000D01*
X26924000Y66548000D02*
X26924000Y62611000D01*
X26924000Y60896500D02*
X26924000Y62611000D01*
X26733500Y60706000D02*
X26924000Y60896500D01*
X26733500Y60706000D02*
X26733500Y58880000D01*
X26733500Y57531000D02*
X26098500Y56896000D01*
X26098500Y56896000D02*
X26098500Y54800500D01*
X26733500Y57531000D02*
X26733500Y58880000D01*
X27051000Y46736000D02*
X26924000Y46609000D01*
X26924000Y46609000D02*
X26924000Y45212000D01*
X26924000Y38608000D02*
X26924000Y17272000D01*
X26924000Y17272000D02*
X26924000Y10668000D01*
X26924000Y10668000D02*
X26924000Y6731000D01*
X26924000Y5016500D02*
X26924000Y6731000D01*
X26733500Y4826000D02*
X26924000Y5016500D01*
X26733500Y3000000D02*
X26733500Y4826000D01*
X26924000Y45212000D02*
X26924000Y38608000D01*
X26733500Y169291000D02*
X26098500Y168656000D01*
X26924000Y150368000D02*
X26924000Y156972000D01*
X26733500Y114760000D02*
X26733500Y116586000D01*
X26733500Y116586000D02*
X26924000Y116776500D01*
X26924000Y116776500D02*
X26924000Y118491000D01*
X26924000Y122428000D02*
X26924000Y118491000D01*
X26924000Y129032000D02*
X26924000Y122428000D01*
X26924000Y150368000D02*
X26924000Y129032000D01*
X26924000Y158369000D02*
X26924000Y156972000D01*
X27051000Y158496000D02*
X26924000Y158369000D01*
X26733500Y169291000D02*
X26733500Y170640000D01*
X26098500Y168656000D02*
X26098500Y166560500D01*
X26733500Y170640000D02*
X26733500Y172021500D01*
X26733500Y172021500D02*
X26670000Y172085000D01*
X26670000Y172085000D02*
X26670000Y175780000D01*
X26733500Y1651000D02*
X26098500Y1016000D01*
X26098500Y1016000D02*
X26098500Y-1079500D01*
X26733500Y1651000D02*
X26733500Y3000000D01*
X27051000Y-9144000D02*
X26924000Y-9271000D01*
X26924000Y-9271000D02*
X27051000Y-9144000D01*
X26924000Y-184912000D02*
X26924000Y-206248000D01*
X26924000Y-184912000D02*
X26924000Y-178816000D01*
X26924000Y-176911000D02*
X26924000Y-178308000D01*
X26924000Y-178308000D02*
X26924000Y-178816000D01*
X27051000Y-176784000D02*
X26924000Y-176911000D01*
X26098500Y-166624000D02*
X26098500Y-168719500D01*
X26733500Y-165989000D02*
X26098500Y-166624000D01*
X26733500Y-164640000D02*
X26733500Y-165989000D01*
X26924000Y-212852000D02*
X26924000Y-216789000D01*
X26733500Y-218694000D02*
X26733500Y-220520000D01*
X26924000Y-218503500D02*
X26924000Y-216789000D01*
X26733500Y-218694000D02*
X26924000Y-218503500D01*
X26924000Y-212852000D02*
X26924000Y-206248000D01*
X26733500Y-220520000D02*
X26733500Y-221869000D01*
X26733500Y-221869000D02*
X26098500Y-222504000D01*
X26098500Y-222504000D02*
X26098500Y-224599500D01*
X29337000Y-231279000D02*
X29337000Y-232029000D01*
G04 #@! TO.N,/uart_rx*
X25498000Y-37603000D02*
X24522000Y-37603000D01*
X24522000Y-37603000D02*
X24257000Y-37338000D01*
G04 #@! TO.N,/swdio*
X31398000Y-42153000D02*
X35422000Y-42153000D01*
X35422000Y-42153000D02*
X35433000Y-42164000D01*
X35433000Y-40830500D02*
X40005000Y-36258500D01*
X40005000Y-36258500D02*
X40576500Y-36258500D01*
X40576500Y-36258500D02*
X41148000Y-36258500D01*
X41148000Y-36258500D02*
X42189400Y-35217100D01*
X42189400Y-35217100D02*
X42189400Y-33642300D01*
X42189400Y-33642300D02*
X42875200Y-32956500D01*
X42875200Y-32956500D02*
X43345100Y-32956500D01*
X43345100Y-32956500D02*
X43586400Y-32715200D01*
G04 #@! TO.N,/swdclk*
X34925000Y-39497000D02*
X38798500Y-35623500D01*
X38798500Y-35623500D02*
X41021000Y-35623500D01*
X34925000Y-40132000D02*
X34925000Y-39497000D01*
X42481500Y-32702500D02*
X42862500Y-32321500D01*
X41656000Y-33528000D02*
X42481500Y-32702500D01*
X41656000Y-33528000D02*
X41656000Y-34988500D01*
X41656000Y-34988500D02*
X41021000Y-35623500D01*
X34865500Y-42803000D02*
X31398000Y-42803000D01*
X34865500Y-42803000D02*
X34925000Y-42862500D01*
D26*
G04 #@! TO.N,/3V3*
X43350000Y-40960000D02*
X39939000Y-40960000D01*
X30536000Y-40203000D02*
X31398000Y-40203000D01*
X30226000Y-40513000D02*
X30536000Y-40203000D01*
X30226000Y-43307000D02*
X30226000Y-40513000D01*
X30734000Y-43815000D02*
X30226000Y-43307000D01*
X37084000Y-43815000D02*
X30734000Y-43815000D01*
X39939000Y-40960000D02*
X37084000Y-43815000D01*
X28321000Y-43815000D02*
X29591000Y-43815000D01*
X25498000Y-40203000D02*
X26535500Y-40203000D01*
X26535500Y-40203000D02*
X26543000Y-40195500D01*
X29591000Y-43815000D02*
X30734000Y-43815000D01*
X43700000Y-39370000D02*
X43700000Y-40056500D01*
X43350000Y-40406500D02*
X43350000Y-40960000D01*
X43700000Y-40056500D02*
X43350000Y-40406500D01*
X30595000Y-44640500D02*
X29972000Y-44640500D01*
X29718000Y-43942000D02*
X29591000Y-43815000D01*
X29718000Y-44386500D02*
X29718000Y-43942000D01*
X29972000Y-44640500D02*
X29718000Y-44386500D01*
D23*
X25498000Y-40853000D02*
X24690004Y-40853000D01*
X24828500Y-45085000D02*
X25289000Y-45085000D01*
X24395004Y-44651504D02*
X24828500Y-45085000D01*
X24395004Y-43254504D02*
X24395004Y-44651504D01*
X24690004Y-40853000D02*
X24395004Y-41148000D01*
X24395004Y-41148000D02*
X24395004Y-43254504D01*
D27*
X25027000Y-45085000D02*
X26027000Y-45085000D01*
D26*
X26027000Y-44894500D02*
X26543000Y-44894500D01*
X33147000Y-39167500D02*
X33147000Y-39751000D01*
X32695000Y-40203000D02*
X31398000Y-40203000D01*
X33147000Y-39751000D02*
X32695000Y-40203000D01*
G04 #@! TD*
D28*
G04 #@! TO.N,GND*
G36*
X25757653Y-28598347D02*
X25819190Y-28639465D01*
X25970535Y-28790809D01*
X26011653Y-28852347D01*
X26255437Y-29015238D01*
X26470415Y-29058000D01*
X26470420Y-29058000D01*
X26542999Y-29072437D01*
X26615578Y-29058000D01*
X26724415Y-29058000D01*
X26797000Y-29072438D01*
X26869584Y-29058000D01*
X26943598Y-29058000D01*
X27011979Y-29029676D01*
X27084563Y-29015238D01*
X27146096Y-28974123D01*
X27214477Y-28945799D01*
X27219485Y-28940791D01*
X27232553Y-29006491D01*
X27307037Y-29117963D01*
X27418509Y-29192447D01*
X27506755Y-29210000D01*
X27418509Y-29227553D01*
X27307037Y-29302037D01*
X27232553Y-29413509D01*
X27206398Y-29545000D01*
X27206398Y-30145000D01*
X27232553Y-30276491D01*
X27307037Y-30387963D01*
X27418509Y-30462447D01*
X27550000Y-30488602D01*
X29628535Y-30488602D01*
X29658762Y-30640562D01*
X29821653Y-30884347D01*
X29883190Y-30925465D01*
X29907535Y-30949809D01*
X29948653Y-31011347D01*
X30192437Y-31174238D01*
X30407415Y-31217000D01*
X30479999Y-31231438D01*
X30552584Y-31217000D01*
X30915415Y-31217000D01*
X30988000Y-31231438D01*
X31060584Y-31217000D01*
X31128146Y-31217000D01*
X30597147Y-31748000D01*
X29783191Y-31748000D01*
X29750000Y-31741398D01*
X27550000Y-31741398D01*
X27418509Y-31767553D01*
X27307037Y-31842037D01*
X27232553Y-31953509D01*
X27206398Y-32085000D01*
X27206398Y-32685000D01*
X27232553Y-32816491D01*
X27307037Y-32927963D01*
X27418509Y-33002447D01*
X27550000Y-33028602D01*
X29750000Y-33028602D01*
X29783191Y-33022000D01*
X30798268Y-33022000D01*
X30861000Y-33034478D01*
X30923732Y-33022000D01*
X30923736Y-33022000D01*
X31109545Y-32985040D01*
X31320251Y-32844251D01*
X31355790Y-32791063D01*
X32190516Y-31956337D01*
X32291562Y-31936238D01*
X32304000Y-31927927D01*
X32304000Y-31939634D01*
X31201492Y-33042142D01*
X31162917Y-33067917D01*
X31060806Y-33220738D01*
X31056354Y-33243120D01*
X30855353Y-33108816D01*
X30480000Y-33034154D01*
X30104646Y-33108816D01*
X29786437Y-33321437D01*
X29573816Y-33639647D01*
X29518000Y-33920255D01*
X29518000Y-34659746D01*
X29573816Y-34940354D01*
X29689175Y-35113000D01*
X28730825Y-35113000D01*
X28846184Y-34940354D01*
X28902000Y-34659745D01*
X28902000Y-33920254D01*
X28846184Y-33639646D01*
X28633563Y-33321437D01*
X28315353Y-33108816D01*
X27940000Y-33034154D01*
X27564646Y-33108816D01*
X27385945Y-33228221D01*
X27364971Y-33122781D01*
X27359194Y-33093736D01*
X27282858Y-32979491D01*
X27282856Y-32979489D01*
X27257083Y-32940917D01*
X27218511Y-32915145D01*
X25735000Y-31431634D01*
X25735000Y-28564444D01*
X25757653Y-28598347D01*
X25757653Y-28598347D01*
G37*
X25757653Y-28598347D02*
X25819190Y-28639465D01*
X25970535Y-28790809D01*
X26011653Y-28852347D01*
X26255437Y-29015238D01*
X26470415Y-29058000D01*
X26470420Y-29058000D01*
X26542999Y-29072437D01*
X26615578Y-29058000D01*
X26724415Y-29058000D01*
X26797000Y-29072438D01*
X26869584Y-29058000D01*
X26943598Y-29058000D01*
X27011979Y-29029676D01*
X27084563Y-29015238D01*
X27146096Y-28974123D01*
X27214477Y-28945799D01*
X27219485Y-28940791D01*
X27232553Y-29006491D01*
X27307037Y-29117963D01*
X27418509Y-29192447D01*
X27506755Y-29210000D01*
X27418509Y-29227553D01*
X27307037Y-29302037D01*
X27232553Y-29413509D01*
X27206398Y-29545000D01*
X27206398Y-30145000D01*
X27232553Y-30276491D01*
X27307037Y-30387963D01*
X27418509Y-30462447D01*
X27550000Y-30488602D01*
X29628535Y-30488602D01*
X29658762Y-30640562D01*
X29821653Y-30884347D01*
X29883190Y-30925465D01*
X29907535Y-30949809D01*
X29948653Y-31011347D01*
X30192437Y-31174238D01*
X30407415Y-31217000D01*
X30479999Y-31231438D01*
X30552584Y-31217000D01*
X30915415Y-31217000D01*
X30988000Y-31231438D01*
X31060584Y-31217000D01*
X31128146Y-31217000D01*
X30597147Y-31748000D01*
X29783191Y-31748000D01*
X29750000Y-31741398D01*
X27550000Y-31741398D01*
X27418509Y-31767553D01*
X27307037Y-31842037D01*
X27232553Y-31953509D01*
X27206398Y-32085000D01*
X27206398Y-32685000D01*
X27232553Y-32816491D01*
X27307037Y-32927963D01*
X27418509Y-33002447D01*
X27550000Y-33028602D01*
X29750000Y-33028602D01*
X29783191Y-33022000D01*
X30798268Y-33022000D01*
X30861000Y-33034478D01*
X30923732Y-33022000D01*
X30923736Y-33022000D01*
X31109545Y-32985040D01*
X31320251Y-32844251D01*
X31355790Y-32791063D01*
X32190516Y-31956337D01*
X32291562Y-31936238D01*
X32304000Y-31927927D01*
X32304000Y-31939634D01*
X31201492Y-33042142D01*
X31162917Y-33067917D01*
X31060806Y-33220738D01*
X31056354Y-33243120D01*
X30855353Y-33108816D01*
X30480000Y-33034154D01*
X30104646Y-33108816D01*
X29786437Y-33321437D01*
X29573816Y-33639647D01*
X29518000Y-33920255D01*
X29518000Y-34659746D01*
X29573816Y-34940354D01*
X29689175Y-35113000D01*
X28730825Y-35113000D01*
X28846184Y-34940354D01*
X28902000Y-34659745D01*
X28902000Y-33920254D01*
X28846184Y-33639646D01*
X28633563Y-33321437D01*
X28315353Y-33108816D01*
X27940000Y-33034154D01*
X27564646Y-33108816D01*
X27385945Y-33228221D01*
X27364971Y-33122781D01*
X27359194Y-33093736D01*
X27282858Y-32979491D01*
X27282856Y-32979489D01*
X27257083Y-32940917D01*
X27218511Y-32915145D01*
X25735000Y-31431634D01*
X25735000Y-28564444D01*
X25757653Y-28598347D01*
G36*
X36622000Y-26099367D02*
X36622001Y-27513498D01*
X36612950Y-27559000D01*
X36648807Y-27739263D01*
X36725142Y-27853508D01*
X36725145Y-27853511D01*
X36750918Y-27892083D01*
X36789490Y-27917856D01*
X37923751Y-29052118D01*
X37923750Y-30021753D01*
X37914700Y-30067250D01*
X37923750Y-30112747D01*
X37923750Y-30112751D01*
X37950556Y-30247512D01*
X38052667Y-30400333D01*
X38091242Y-30426108D01*
X38439644Y-30774511D01*
X38465417Y-30813083D01*
X38503989Y-30838856D01*
X38503991Y-30838858D01*
X38618236Y-30915194D01*
X38647281Y-30920971D01*
X38752998Y-30942000D01*
X38753002Y-30942000D01*
X38798500Y-30951050D01*
X38843998Y-30942000D01*
X41937633Y-30942000D01*
X41591634Y-31288000D01*
X38354866Y-31288000D01*
X38014358Y-30947492D01*
X37988583Y-30908917D01*
X37835763Y-30806806D01*
X37701002Y-30780000D01*
X37700997Y-30780000D01*
X37655500Y-30770950D01*
X37610003Y-30780000D01*
X36588714Y-30780000D01*
X36438763Y-30679806D01*
X36304002Y-30653000D01*
X36303997Y-30653000D01*
X36258500Y-30643950D01*
X36243066Y-30647020D01*
X36192963Y-30572037D01*
X36081491Y-30497553D01*
X35993245Y-30480000D01*
X36081491Y-30462447D01*
X36192963Y-30387963D01*
X36267447Y-30276491D01*
X36293602Y-30145000D01*
X36293602Y-29545000D01*
X36267447Y-29413509D01*
X36192963Y-29302037D01*
X36081491Y-29227553D01*
X35993245Y-29210000D01*
X36081491Y-29192447D01*
X36192963Y-29117963D01*
X36267447Y-29006491D01*
X36293602Y-28875000D01*
X36293602Y-28275000D01*
X36267447Y-28143509D01*
X36192963Y-28032037D01*
X36081491Y-27957553D01*
X35993245Y-27940000D01*
X36081491Y-27922447D01*
X36192963Y-27847963D01*
X36267447Y-27736491D01*
X36293602Y-27605000D01*
X36293602Y-27005000D01*
X36267447Y-26873509D01*
X36192963Y-26762037D01*
X36081491Y-26687553D01*
X35993245Y-26670000D01*
X36081491Y-26652447D01*
X36192963Y-26577963D01*
X36267447Y-26466491D01*
X36293602Y-26335000D01*
X36293602Y-25770969D01*
X36622000Y-26099367D01*
X36622000Y-26099367D01*
G37*
X36622000Y-26099367D02*
X36622001Y-27513498D01*
X36612950Y-27559000D01*
X36648807Y-27739263D01*
X36725142Y-27853508D01*
X36725145Y-27853511D01*
X36750918Y-27892083D01*
X36789490Y-27917856D01*
X37923751Y-29052118D01*
X37923750Y-30021753D01*
X37914700Y-30067250D01*
X37923750Y-30112747D01*
X37923750Y-30112751D01*
X37950556Y-30247512D01*
X38052667Y-30400333D01*
X38091242Y-30426108D01*
X38439644Y-30774511D01*
X38465417Y-30813083D01*
X38503989Y-30838856D01*
X38503991Y-30838858D01*
X38618236Y-30915194D01*
X38647281Y-30920971D01*
X38752998Y-30942000D01*
X38753002Y-30942000D01*
X38798500Y-30951050D01*
X38843998Y-30942000D01*
X41937633Y-30942000D01*
X41591634Y-31288000D01*
X38354866Y-31288000D01*
X38014358Y-30947492D01*
X37988583Y-30908917D01*
X37835763Y-30806806D01*
X37701002Y-30780000D01*
X37700997Y-30780000D01*
X37655500Y-30770950D01*
X37610003Y-30780000D01*
X36588714Y-30780000D01*
X36438763Y-30679806D01*
X36304002Y-30653000D01*
X36303997Y-30653000D01*
X36258500Y-30643950D01*
X36243066Y-30647020D01*
X36192963Y-30572037D01*
X36081491Y-30497553D01*
X35993245Y-30480000D01*
X36081491Y-30462447D01*
X36192963Y-30387963D01*
X36267447Y-30276491D01*
X36293602Y-30145000D01*
X36293602Y-29545000D01*
X36267447Y-29413509D01*
X36192963Y-29302037D01*
X36081491Y-29227553D01*
X35993245Y-29210000D01*
X36081491Y-29192447D01*
X36192963Y-29117963D01*
X36267447Y-29006491D01*
X36293602Y-28875000D01*
X36293602Y-28275000D01*
X36267447Y-28143509D01*
X36192963Y-28032037D01*
X36081491Y-27957553D01*
X35993245Y-27940000D01*
X36081491Y-27922447D01*
X36192963Y-27847963D01*
X36267447Y-27736491D01*
X36293602Y-27605000D01*
X36293602Y-27005000D01*
X36267447Y-26873509D01*
X36192963Y-26762037D01*
X36081491Y-26687553D01*
X35993245Y-26670000D01*
X36081491Y-26652447D01*
X36192963Y-26577963D01*
X36267447Y-26466491D01*
X36293602Y-26335000D01*
X36293602Y-25770969D01*
X36622000Y-26099367D01*
G36*
X44862553Y-29006491D02*
X44937037Y-29117963D01*
X45048509Y-29192447D01*
X45136755Y-29210000D01*
X45048509Y-29227553D01*
X44937037Y-29302037D01*
X44862553Y-29413509D01*
X44836398Y-29545000D01*
X44836398Y-30145000D01*
X44862553Y-30276491D01*
X44937037Y-30387963D01*
X45048509Y-30462447D01*
X45136755Y-30480000D01*
X45048509Y-30497553D01*
X44937037Y-30572037D01*
X44862553Y-30683509D01*
X44836398Y-30815000D01*
X44836398Y-30964235D01*
X44687634Y-31113000D01*
X44656867Y-31113000D01*
X44237358Y-30693492D01*
X44211583Y-30654917D01*
X44058763Y-30552806D01*
X43924002Y-30526000D01*
X43923997Y-30526000D01*
X43878500Y-30516950D01*
X43833003Y-30526000D01*
X43215866Y-30526000D01*
X44841453Y-28900413D01*
X44862553Y-29006491D01*
X44862553Y-29006491D01*
G37*
X44862553Y-29006491D02*
X44937037Y-29117963D01*
X45048509Y-29192447D01*
X45136755Y-29210000D01*
X45048509Y-29227553D01*
X44937037Y-29302037D01*
X44862553Y-29413509D01*
X44836398Y-29545000D01*
X44836398Y-30145000D01*
X44862553Y-30276491D01*
X44937037Y-30387963D01*
X45048509Y-30462447D01*
X45136755Y-30480000D01*
X45048509Y-30497553D01*
X44937037Y-30572037D01*
X44862553Y-30683509D01*
X44836398Y-30815000D01*
X44836398Y-30964235D01*
X44687634Y-31113000D01*
X44656867Y-31113000D01*
X44237358Y-30693492D01*
X44211583Y-30654917D01*
X44058763Y-30552806D01*
X43924002Y-30526000D01*
X43923997Y-30526000D01*
X43878500Y-30516950D01*
X43833003Y-30526000D01*
X43215866Y-30526000D01*
X44841453Y-28900413D01*
X44862553Y-29006491D01*
G36*
X31267001Y-29716725D02*
X30925462Y-29375186D01*
X30884347Y-29313653D01*
X30822814Y-29272538D01*
X30770477Y-29220201D01*
X30735583Y-29205747D01*
X30884347Y-29106347D01*
X30925464Y-29044811D01*
X31087975Y-28882300D01*
X31087977Y-28882299D01*
X31175033Y-28795243D01*
X31267001Y-28714320D01*
X31267001Y-29716725D01*
X31267001Y-29716725D01*
G37*
X31267001Y-29716725D02*
X30925462Y-29375186D01*
X30884347Y-29313653D01*
X30822814Y-29272538D01*
X30770477Y-29220201D01*
X30735583Y-29205747D01*
X30884347Y-29106347D01*
X30925464Y-29044811D01*
X31087975Y-28882300D01*
X31087977Y-28882299D01*
X31175033Y-28795243D01*
X31267001Y-28714320D01*
X31267001Y-29716725D01*
G36*
X43078000Y-27411127D02*
X43076347Y-27408653D01*
X43014815Y-27367539D01*
X42962477Y-27315201D01*
X42894094Y-27286876D01*
X42832562Y-27245762D01*
X42773467Y-27234007D01*
X42822347Y-27201347D01*
X42863463Y-27139813D01*
X42915799Y-27087477D01*
X42944123Y-27019096D01*
X42985238Y-26957563D01*
X42999676Y-26884979D01*
X43028000Y-26816598D01*
X43028000Y-26742585D01*
X43042438Y-26670000D01*
X43028000Y-26597416D01*
X43028000Y-26523402D01*
X42999676Y-26455021D01*
X42985238Y-26382437D01*
X42944123Y-26320904D01*
X42915799Y-26252523D01*
X42863462Y-26200186D01*
X42822347Y-26138653D01*
X42760814Y-26097538D01*
X42708477Y-26045201D01*
X42640096Y-26016877D01*
X42578563Y-25975762D01*
X42505979Y-25961324D01*
X42437598Y-25933000D01*
X42419275Y-25933000D01*
X43014812Y-25337463D01*
X43076347Y-25296347D01*
X43078001Y-25293872D01*
X43078000Y-27411127D01*
X43078000Y-27411127D01*
G37*
X43078000Y-27411127D02*
X43076347Y-27408653D01*
X43014815Y-27367539D01*
X42962477Y-27315201D01*
X42894094Y-27286876D01*
X42832562Y-27245762D01*
X42773467Y-27234007D01*
X42822347Y-27201347D01*
X42863463Y-27139813D01*
X42915799Y-27087477D01*
X42944123Y-27019096D01*
X42985238Y-26957563D01*
X42999676Y-26884979D01*
X43028000Y-26816598D01*
X43028000Y-26742585D01*
X43042438Y-26670000D01*
X43028000Y-26597416D01*
X43028000Y-26523402D01*
X42999676Y-26455021D01*
X42985238Y-26382437D01*
X42944123Y-26320904D01*
X42915799Y-26252523D01*
X42863462Y-26200186D01*
X42822347Y-26138653D01*
X42760814Y-26097538D01*
X42708477Y-26045201D01*
X42640096Y-26016877D01*
X42578563Y-25975762D01*
X42505979Y-25961324D01*
X42437598Y-25933000D01*
X42419275Y-25933000D01*
X43014812Y-25337463D01*
X43076347Y-25296347D01*
X43078001Y-25293872D01*
X43078000Y-27411127D01*
G36*
X30774154Y-25313154D02*
X30611262Y-25556938D01*
X30554062Y-25844500D01*
X30611262Y-26132062D01*
X30733037Y-26314312D01*
X31267001Y-26848276D01*
X31267001Y-27125812D01*
X31252176Y-27090021D01*
X31237738Y-27017438D01*
X31209853Y-26975705D01*
X31193642Y-26928207D01*
X31177598Y-26909973D01*
X31168299Y-26887523D01*
X31115961Y-26835185D01*
X31074847Y-26773653D01*
X31033114Y-26745768D01*
X30999961Y-26708090D01*
X30978159Y-26697383D01*
X30960977Y-26680201D01*
X30892594Y-26651876D01*
X30831062Y-26610762D01*
X30781836Y-26600970D01*
X30736787Y-26578847D01*
X30712546Y-26577298D01*
X30690098Y-26568000D01*
X30616084Y-26568000D01*
X30543500Y-26553562D01*
X30494274Y-26563354D01*
X30444188Y-26560154D01*
X30421199Y-26568000D01*
X30396902Y-26568000D01*
X30328521Y-26596324D01*
X30255938Y-26610762D01*
X30214205Y-26638647D01*
X30166707Y-26654858D01*
X30148473Y-26670902D01*
X30126023Y-26680201D01*
X30038972Y-26767252D01*
X30012192Y-26790815D01*
X29992963Y-26762037D01*
X29881491Y-26687553D01*
X29793245Y-26670000D01*
X29881491Y-26652447D01*
X29992963Y-26577963D01*
X30067447Y-26466491D01*
X30093602Y-26335000D01*
X30093602Y-25735000D01*
X30067447Y-25603509D01*
X29992963Y-25492037D01*
X29881491Y-25417553D01*
X29793245Y-25400000D01*
X29881491Y-25382447D01*
X29992963Y-25307963D01*
X30047061Y-25227000D01*
X30903092Y-25227000D01*
X30774154Y-25313154D01*
X30774154Y-25313154D01*
G37*
X30774154Y-25313154D02*
X30611262Y-25556938D01*
X30554062Y-25844500D01*
X30611262Y-26132062D01*
X30733037Y-26314312D01*
X31267001Y-26848276D01*
X31267001Y-27125812D01*
X31252176Y-27090021D01*
X31237738Y-27017438D01*
X31209853Y-26975705D01*
X31193642Y-26928207D01*
X31177598Y-26909973D01*
X31168299Y-26887523D01*
X31115961Y-26835185D01*
X31074847Y-26773653D01*
X31033114Y-26745768D01*
X30999961Y-26708090D01*
X30978159Y-26697383D01*
X30960977Y-26680201D01*
X30892594Y-26651876D01*
X30831062Y-26610762D01*
X30781836Y-26600970D01*
X30736787Y-26578847D01*
X30712546Y-26577298D01*
X30690098Y-26568000D01*
X30616084Y-26568000D01*
X30543500Y-26553562D01*
X30494274Y-26563354D01*
X30444188Y-26560154D01*
X30421199Y-26568000D01*
X30396902Y-26568000D01*
X30328521Y-26596324D01*
X30255938Y-26610762D01*
X30214205Y-26638647D01*
X30166707Y-26654858D01*
X30148473Y-26670902D01*
X30126023Y-26680201D01*
X30038972Y-26767252D01*
X30012192Y-26790815D01*
X29992963Y-26762037D01*
X29881491Y-26687553D01*
X29793245Y-26670000D01*
X29881491Y-26652447D01*
X29992963Y-26577963D01*
X30067447Y-26466491D01*
X30093602Y-26335000D01*
X30093602Y-25735000D01*
X30067447Y-25603509D01*
X29992963Y-25492037D01*
X29881491Y-25417553D01*
X29793245Y-25400000D01*
X29881491Y-25382447D01*
X29992963Y-25307963D01*
X30047061Y-25227000D01*
X30903092Y-25227000D01*
X30774154Y-25313154D01*
G36*
X38722406Y-25286067D02*
X38662415Y-25298000D01*
X38299584Y-25298000D01*
X38227000Y-25283562D01*
X38208498Y-25287242D01*
X38190001Y-25283563D01*
X38117422Y-25298000D01*
X38080402Y-25298000D01*
X38046204Y-25312165D01*
X37902439Y-25340762D01*
X37658655Y-25503653D01*
X37617536Y-25565191D01*
X37493478Y-25689250D01*
X37454325Y-25630653D01*
X37442858Y-25613491D01*
X37442856Y-25613489D01*
X37417083Y-25574917D01*
X37378511Y-25549144D01*
X37056367Y-25227000D01*
X38682939Y-25227000D01*
X38722406Y-25286067D01*
X38722406Y-25286067D01*
G37*
X38722406Y-25286067D02*
X38662415Y-25298000D01*
X38299584Y-25298000D01*
X38227000Y-25283562D01*
X38208498Y-25287242D01*
X38190001Y-25283563D01*
X38117422Y-25298000D01*
X38080402Y-25298000D01*
X38046204Y-25312165D01*
X37902439Y-25340762D01*
X37658655Y-25503653D01*
X37617536Y-25565191D01*
X37493478Y-25689250D01*
X37454325Y-25630653D01*
X37442858Y-25613491D01*
X37442856Y-25613489D01*
X37417083Y-25574917D01*
X37378511Y-25549144D01*
X37056367Y-25227000D01*
X38682939Y-25227000D01*
X38722406Y-25286067D01*
G36*
X28473000Y-12433776D02*
X28473000Y-12529098D01*
X28501324Y-12597479D01*
X28515762Y-12670063D01*
X28556877Y-12731596D01*
X28585201Y-12799977D01*
X28637539Y-12852315D01*
X28678653Y-12913847D01*
X28740186Y-12954962D01*
X28792523Y-13007299D01*
X28860904Y-13035623D01*
X28922437Y-13076738D01*
X28995021Y-13091176D01*
X29063402Y-13119500D01*
X29137415Y-13119500D01*
X29210000Y-13133938D01*
X29282585Y-13119500D01*
X29356598Y-13119500D01*
X29424979Y-13091176D01*
X29497563Y-13076738D01*
X29559096Y-13035623D01*
X29627477Y-13007299D01*
X29679814Y-12954962D01*
X29741347Y-12913847D01*
X29782462Y-12852314D01*
X29834799Y-12799977D01*
X29863123Y-12731596D01*
X29904238Y-12670063D01*
X29918676Y-12597479D01*
X29947000Y-12529098D01*
X29947000Y-12367000D01*
X31013001Y-12367000D01*
X31013001Y-12426400D01*
X31013000Y-12426402D01*
X31013000Y-12719598D01*
X31041326Y-12787983D01*
X31045223Y-12807575D01*
X30870960Y-12691137D01*
X30480000Y-12613370D01*
X30089039Y-12691137D01*
X29757598Y-12912598D01*
X29536137Y-13244040D01*
X29478000Y-13536314D01*
X29478000Y-14403687D01*
X29536138Y-14695961D01*
X29743000Y-15005553D01*
X29743000Y-15167415D01*
X29728562Y-15240000D01*
X29743000Y-15312584D01*
X29785762Y-15527562D01*
X29948653Y-15771347D01*
X30010189Y-15812464D01*
X31013000Y-16815275D01*
X31013000Y-17408084D01*
X31013001Y-17408089D01*
X31013000Y-20514153D01*
X30855353Y-20408816D01*
X30480000Y-20334154D01*
X30104646Y-20408816D01*
X29786437Y-20621437D01*
X29573816Y-20939647D01*
X29518000Y-21220255D01*
X29518000Y-21959746D01*
X29573816Y-22240354D01*
X29786438Y-22558563D01*
X30104647Y-22771184D01*
X30480000Y-22845846D01*
X30855354Y-22771184D01*
X31013001Y-22665848D01*
X31013000Y-23803415D01*
X30998562Y-23876000D01*
X31013000Y-23948584D01*
X31055762Y-24163562D01*
X31148931Y-24303000D01*
X30047061Y-24303000D01*
X29992963Y-24222037D01*
X29881491Y-24147553D01*
X29750000Y-24121398D01*
X27550000Y-24121398D01*
X27418509Y-24147553D01*
X27307037Y-24222037D01*
X27251872Y-24304596D01*
X27214477Y-24267201D01*
X27146094Y-24238876D01*
X27084562Y-24197762D01*
X27011979Y-24183324D01*
X26943598Y-24155000D01*
X26869584Y-24155000D01*
X26797000Y-24140562D01*
X26724415Y-24155000D01*
X26650402Y-24155000D01*
X26582021Y-24183324D01*
X26509437Y-24197762D01*
X26447904Y-24238877D01*
X26379523Y-24267201D01*
X26327186Y-24319538D01*
X26265653Y-24360653D01*
X26224539Y-24422185D01*
X26172201Y-24474523D01*
X26172200Y-24474525D01*
X25819188Y-24827537D01*
X25757653Y-24868653D01*
X25735000Y-24902556D01*
X25735000Y-24448366D01*
X27218511Y-22964856D01*
X27257083Y-22939083D01*
X27282856Y-22900511D01*
X27282858Y-22900509D01*
X27359194Y-22786264D01*
X27381226Y-22675500D01*
X27385945Y-22651779D01*
X27564647Y-22771184D01*
X27940000Y-22845846D01*
X28315354Y-22771184D01*
X28633563Y-22558563D01*
X28846184Y-22240354D01*
X28902000Y-21959745D01*
X28902000Y-21220254D01*
X28846184Y-20939646D01*
X28633563Y-20621437D01*
X28315353Y-20408816D01*
X27940000Y-20334154D01*
X27564646Y-20408816D01*
X27386000Y-20528184D01*
X27386000Y-12367000D01*
X28406224Y-12367000D01*
X28473000Y-12433776D01*
X28473000Y-12433776D01*
G37*
X28473000Y-12433776D02*
X28473000Y-12529098D01*
X28501324Y-12597479D01*
X28515762Y-12670063D01*
X28556877Y-12731596D01*
X28585201Y-12799977D01*
X28637539Y-12852315D01*
X28678653Y-12913847D01*
X28740186Y-12954962D01*
X28792523Y-13007299D01*
X28860904Y-13035623D01*
X28922437Y-13076738D01*
X28995021Y-13091176D01*
X29063402Y-13119500D01*
X29137415Y-13119500D01*
X29210000Y-13133938D01*
X29282585Y-13119500D01*
X29356598Y-13119500D01*
X29424979Y-13091176D01*
X29497563Y-13076738D01*
X29559096Y-13035623D01*
X29627477Y-13007299D01*
X29679814Y-12954962D01*
X29741347Y-12913847D01*
X29782462Y-12852314D01*
X29834799Y-12799977D01*
X29863123Y-12731596D01*
X29904238Y-12670063D01*
X29918676Y-12597479D01*
X29947000Y-12529098D01*
X29947000Y-12367000D01*
X31013001Y-12367000D01*
X31013001Y-12426400D01*
X31013000Y-12426402D01*
X31013000Y-12719598D01*
X31041326Y-12787983D01*
X31045223Y-12807575D01*
X30870960Y-12691137D01*
X30480000Y-12613370D01*
X30089039Y-12691137D01*
X29757598Y-12912598D01*
X29536137Y-13244040D01*
X29478000Y-13536314D01*
X29478000Y-14403687D01*
X29536138Y-14695961D01*
X29743000Y-15005553D01*
X29743000Y-15167415D01*
X29728562Y-15240000D01*
X29743000Y-15312584D01*
X29785762Y-15527562D01*
X29948653Y-15771347D01*
X30010189Y-15812464D01*
X31013000Y-16815275D01*
X31013000Y-17408084D01*
X31013001Y-17408089D01*
X31013000Y-20514153D01*
X30855353Y-20408816D01*
X30480000Y-20334154D01*
X30104646Y-20408816D01*
X29786437Y-20621437D01*
X29573816Y-20939647D01*
X29518000Y-21220255D01*
X29518000Y-21959746D01*
X29573816Y-22240354D01*
X29786438Y-22558563D01*
X30104647Y-22771184D01*
X30480000Y-22845846D01*
X30855354Y-22771184D01*
X31013001Y-22665848D01*
X31013000Y-23803415D01*
X30998562Y-23876000D01*
X31013000Y-23948584D01*
X31055762Y-24163562D01*
X31148931Y-24303000D01*
X30047061Y-24303000D01*
X29992963Y-24222037D01*
X29881491Y-24147553D01*
X29750000Y-24121398D01*
X27550000Y-24121398D01*
X27418509Y-24147553D01*
X27307037Y-24222037D01*
X27251872Y-24304596D01*
X27214477Y-24267201D01*
X27146094Y-24238876D01*
X27084562Y-24197762D01*
X27011979Y-24183324D01*
X26943598Y-24155000D01*
X26869584Y-24155000D01*
X26797000Y-24140562D01*
X26724415Y-24155000D01*
X26650402Y-24155000D01*
X26582021Y-24183324D01*
X26509437Y-24197762D01*
X26447904Y-24238877D01*
X26379523Y-24267201D01*
X26327186Y-24319538D01*
X26265653Y-24360653D01*
X26224539Y-24422185D01*
X26172201Y-24474523D01*
X26172200Y-24474525D01*
X25819188Y-24827537D01*
X25757653Y-24868653D01*
X25735000Y-24902556D01*
X25735000Y-24448366D01*
X27218511Y-22964856D01*
X27257083Y-22939083D01*
X27282856Y-22900511D01*
X27282858Y-22900509D01*
X27359194Y-22786264D01*
X27381226Y-22675500D01*
X27385945Y-22651779D01*
X27564647Y-22771184D01*
X27940000Y-22845846D01*
X28315354Y-22771184D01*
X28633563Y-22558563D01*
X28846184Y-22240354D01*
X28902000Y-21959745D01*
X28902000Y-21220254D01*
X28846184Y-20939646D01*
X28633563Y-20621437D01*
X28315353Y-20408816D01*
X27940000Y-20334154D01*
X27564646Y-20408816D01*
X27386000Y-20528184D01*
X27386000Y-12367000D01*
X28406224Y-12367000D01*
X28473000Y-12433776D01*
G36*
X41173000Y-12656098D02*
X41173001Y-12656100D01*
X41173001Y-12786045D01*
X41030960Y-12691137D01*
X40640000Y-12613370D01*
X40249039Y-12691137D01*
X39917598Y-12912598D01*
X39696137Y-13244040D01*
X39638000Y-13536314D01*
X39638000Y-14403687D01*
X39696138Y-14695961D01*
X39917599Y-15027402D01*
X40249040Y-15248863D01*
X40640000Y-15326630D01*
X41030961Y-15248863D01*
X41173000Y-15153956D01*
X41173000Y-16319722D01*
X41158562Y-16392308D01*
X41173000Y-16464892D01*
X41173000Y-17707416D01*
X41158562Y-17780000D01*
X41173000Y-17852584D01*
X41215762Y-18067562D01*
X41378653Y-18311347D01*
X41440188Y-18352463D01*
X41845540Y-18757815D01*
X41886654Y-18819346D01*
X41948185Y-18860460D01*
X42226535Y-19138809D01*
X42267653Y-19200347D01*
X42329189Y-19241464D01*
X43481937Y-20394213D01*
X43180000Y-20334154D01*
X42804646Y-20408816D01*
X42486437Y-20621437D01*
X42273816Y-20939647D01*
X42218000Y-21220255D01*
X42218000Y-21959746D01*
X42273816Y-22240354D01*
X42443000Y-22493555D01*
X42443001Y-23316724D01*
X42075186Y-23684538D01*
X42013654Y-23725653D01*
X41972538Y-23787187D01*
X41972537Y-23787188D01*
X41949406Y-23821806D01*
X41850762Y-23969437D01*
X41820535Y-24121398D01*
X41793562Y-24257000D01*
X41808000Y-24329584D01*
X41808000Y-24459725D01*
X41523602Y-24744123D01*
X41523602Y-24465000D01*
X41497447Y-24333509D01*
X41422963Y-24222037D01*
X41311491Y-24147553D01*
X41180000Y-24121398D01*
X38980000Y-24121398D01*
X38848509Y-24147553D01*
X38737037Y-24222037D01*
X38682939Y-24303000D01*
X37148367Y-24303000D01*
X36680858Y-23835492D01*
X36655083Y-23796917D01*
X36624123Y-23776230D01*
X36889516Y-23510837D01*
X36990562Y-23490738D01*
X37172812Y-23368963D01*
X37293812Y-23247963D01*
X37355347Y-23206847D01*
X37518238Y-22963063D01*
X37561000Y-22748085D01*
X37561000Y-22748084D01*
X37575438Y-22675500D01*
X37574517Y-22670870D01*
X37724647Y-22771184D01*
X38100000Y-22845846D01*
X38475354Y-22771184D01*
X38793563Y-22558563D01*
X39006184Y-22240354D01*
X39062000Y-21959745D01*
X39062000Y-21220255D01*
X39678000Y-21220255D01*
X39678000Y-21959746D01*
X39733816Y-22240354D01*
X39946438Y-22558563D01*
X40264647Y-22771184D01*
X40640000Y-22845846D01*
X41015354Y-22771184D01*
X41333563Y-22558563D01*
X41546184Y-22240354D01*
X41602000Y-21959745D01*
X41602000Y-21220254D01*
X41546184Y-20939646D01*
X41333563Y-20621437D01*
X41015353Y-20408816D01*
X40640000Y-20334154D01*
X40264646Y-20408816D01*
X39946437Y-20621437D01*
X39733816Y-20939647D01*
X39678000Y-21220255D01*
X39062000Y-21220255D01*
X39062000Y-21220254D01*
X39006184Y-20939646D01*
X38793563Y-20621437D01*
X38475353Y-20408816D01*
X38100000Y-20334154D01*
X37724646Y-20408816D01*
X37561000Y-20518161D01*
X37561000Y-18934325D01*
X37621740Y-18893740D01*
X37750417Y-18701162D01*
X37795602Y-18474000D01*
X37795602Y-16324000D01*
X37750417Y-16096838D01*
X37621740Y-15904260D01*
X37574679Y-15872815D01*
X37575438Y-15869000D01*
X37553471Y-15758562D01*
X37518238Y-15581437D01*
X37355347Y-15337653D01*
X37293814Y-15296538D01*
X36535282Y-14538007D01*
X36562000Y-14403686D01*
X36562000Y-13536313D01*
X36503863Y-13244039D01*
X36325370Y-12976905D01*
X36935275Y-12367000D01*
X41173000Y-12367000D01*
X41173000Y-12656098D01*
X41173000Y-12656098D01*
G37*
X41173000Y-12656098D02*
X41173001Y-12656100D01*
X41173001Y-12786045D01*
X41030960Y-12691137D01*
X40640000Y-12613370D01*
X40249039Y-12691137D01*
X39917598Y-12912598D01*
X39696137Y-13244040D01*
X39638000Y-13536314D01*
X39638000Y-14403687D01*
X39696138Y-14695961D01*
X39917599Y-15027402D01*
X40249040Y-15248863D01*
X40640000Y-15326630D01*
X41030961Y-15248863D01*
X41173000Y-15153956D01*
X41173000Y-16319722D01*
X41158562Y-16392308D01*
X41173000Y-16464892D01*
X41173000Y-17707416D01*
X41158562Y-17780000D01*
X41173000Y-17852584D01*
X41215762Y-18067562D01*
X41378653Y-18311347D01*
X41440188Y-18352463D01*
X41845540Y-18757815D01*
X41886654Y-18819346D01*
X41948185Y-18860460D01*
X42226535Y-19138809D01*
X42267653Y-19200347D01*
X42329189Y-19241464D01*
X43481937Y-20394213D01*
X43180000Y-20334154D01*
X42804646Y-20408816D01*
X42486437Y-20621437D01*
X42273816Y-20939647D01*
X42218000Y-21220255D01*
X42218000Y-21959746D01*
X42273816Y-22240354D01*
X42443000Y-22493555D01*
X42443001Y-23316724D01*
X42075186Y-23684538D01*
X42013654Y-23725653D01*
X41972538Y-23787187D01*
X41972537Y-23787188D01*
X41949406Y-23821806D01*
X41850762Y-23969437D01*
X41820535Y-24121398D01*
X41793562Y-24257000D01*
X41808000Y-24329584D01*
X41808000Y-24459725D01*
X41523602Y-24744123D01*
X41523602Y-24465000D01*
X41497447Y-24333509D01*
X41422963Y-24222037D01*
X41311491Y-24147553D01*
X41180000Y-24121398D01*
X38980000Y-24121398D01*
X38848509Y-24147553D01*
X38737037Y-24222037D01*
X38682939Y-24303000D01*
X37148367Y-24303000D01*
X36680858Y-23835492D01*
X36655083Y-23796917D01*
X36624123Y-23776230D01*
X36889516Y-23510837D01*
X36990562Y-23490738D01*
X37172812Y-23368963D01*
X37293812Y-23247963D01*
X37355347Y-23206847D01*
X37518238Y-22963063D01*
X37561000Y-22748085D01*
X37561000Y-22748084D01*
X37575438Y-22675500D01*
X37574517Y-22670870D01*
X37724647Y-22771184D01*
X38100000Y-22845846D01*
X38475354Y-22771184D01*
X38793563Y-22558563D01*
X39006184Y-22240354D01*
X39062000Y-21959745D01*
X39062000Y-21220255D01*
X39678000Y-21220255D01*
X39678000Y-21959746D01*
X39733816Y-22240354D01*
X39946438Y-22558563D01*
X40264647Y-22771184D01*
X40640000Y-22845846D01*
X41015354Y-22771184D01*
X41333563Y-22558563D01*
X41546184Y-22240354D01*
X41602000Y-21959745D01*
X41602000Y-21220254D01*
X41546184Y-20939646D01*
X41333563Y-20621437D01*
X41015353Y-20408816D01*
X40640000Y-20334154D01*
X40264646Y-20408816D01*
X39946437Y-20621437D01*
X39733816Y-20939647D01*
X39678000Y-21220255D01*
X39062000Y-21220255D01*
X39062000Y-21220254D01*
X39006184Y-20939646D01*
X38793563Y-20621437D01*
X38475353Y-20408816D01*
X38100000Y-20334154D01*
X37724646Y-20408816D01*
X37561000Y-20518161D01*
X37561000Y-18934325D01*
X37621740Y-18893740D01*
X37750417Y-18701162D01*
X37795602Y-18474000D01*
X37795602Y-16324000D01*
X37750417Y-16096838D01*
X37621740Y-15904260D01*
X37574679Y-15872815D01*
X37575438Y-15869000D01*
X37553471Y-15758562D01*
X37518238Y-15581437D01*
X37355347Y-15337653D01*
X37293814Y-15296538D01*
X36535282Y-14538007D01*
X36562000Y-14403686D01*
X36562000Y-13536313D01*
X36503863Y-13244039D01*
X36325370Y-12976905D01*
X36935275Y-12367000D01*
X41173000Y-12367000D01*
X41173000Y-12656098D01*
G36*
X24677599Y-15027402D02*
X25009040Y-15248863D01*
X25400000Y-15326630D01*
X25790961Y-15248863D01*
X25954000Y-15139924D01*
X25954001Y-20528185D01*
X25775353Y-20408816D01*
X25400000Y-20334154D01*
X25024646Y-20408816D01*
X24706437Y-20621437D01*
X24493816Y-20939647D01*
X24465000Y-21084516D01*
X24465000Y-14709224D01*
X24677599Y-15027402D01*
X24677599Y-15027402D01*
G37*
X24677599Y-15027402D02*
X25009040Y-15248863D01*
X25400000Y-15326630D01*
X25790961Y-15248863D01*
X25954000Y-15139924D01*
X25954001Y-20528185D01*
X25775353Y-20408816D01*
X25400000Y-20334154D01*
X25024646Y-20408816D01*
X24706437Y-20621437D01*
X24493816Y-20939647D01*
X24465000Y-21084516D01*
X24465000Y-14709224D01*
X24677599Y-15027402D01*
G36*
X46380001Y-13132276D02*
X46380000Y-14405415D01*
X46380000Y-14405416D01*
X46380001Y-17672916D01*
X46327963Y-17595037D01*
X46216491Y-17520553D01*
X46085000Y-17494398D01*
X45585000Y-17494398D01*
X45453509Y-17520553D01*
X45342037Y-17595037D01*
X45267553Y-17706509D01*
X45241398Y-17838000D01*
X45241398Y-18738000D01*
X45267553Y-18869491D01*
X45342037Y-18980963D01*
X45453509Y-19055447D01*
X45585000Y-19081602D01*
X46085000Y-19081602D01*
X46216491Y-19055447D01*
X46327963Y-18980963D01*
X46380000Y-18903084D01*
X46380001Y-19866411D01*
X46380000Y-19866416D01*
X46380000Y-20599011D01*
X46095353Y-20408816D01*
X45720000Y-20334154D01*
X45344646Y-20408816D01*
X45187000Y-20514152D01*
X45187000Y-20392584D01*
X45201438Y-20320000D01*
X45144238Y-20032437D01*
X45022463Y-19850187D01*
X45022462Y-19850186D01*
X44981347Y-19788653D01*
X44919814Y-19747538D01*
X43536000Y-18363725D01*
X43536000Y-18191323D01*
X43615584Y-18072217D01*
X43672784Y-17784654D01*
X43658346Y-17712070D01*
X43658346Y-17476239D01*
X43672784Y-17403654D01*
X43658346Y-17331069D01*
X43658346Y-17257056D01*
X43630022Y-17188675D01*
X43615584Y-17116091D01*
X43574469Y-17054558D01*
X43546145Y-16986177D01*
X43493808Y-16933840D01*
X43452693Y-16872307D01*
X43391160Y-16831192D01*
X43338823Y-16778855D01*
X43338821Y-16778854D01*
X42647000Y-16087033D01*
X42647000Y-15153955D01*
X42789040Y-15248863D01*
X43180000Y-15326630D01*
X43570961Y-15248863D01*
X43902402Y-15027402D01*
X44123863Y-14695961D01*
X44182000Y-14403686D01*
X44182000Y-13536313D01*
X44123863Y-13244039D01*
X43902402Y-12912598D01*
X43570960Y-12691137D01*
X43180000Y-12613370D01*
X42789039Y-12691137D01*
X42647000Y-12786044D01*
X42647000Y-12367000D01*
X45614725Y-12367000D01*
X46380001Y-13132276D01*
X46380001Y-13132276D01*
G37*
X46380001Y-13132276D02*
X46380000Y-14405415D01*
X46380000Y-14405416D01*
X46380001Y-17672916D01*
X46327963Y-17595037D01*
X46216491Y-17520553D01*
X46085000Y-17494398D01*
X45585000Y-17494398D01*
X45453509Y-17520553D01*
X45342037Y-17595037D01*
X45267553Y-17706509D01*
X45241398Y-17838000D01*
X45241398Y-18738000D01*
X45267553Y-18869491D01*
X45342037Y-18980963D01*
X45453509Y-19055447D01*
X45585000Y-19081602D01*
X46085000Y-19081602D01*
X46216491Y-19055447D01*
X46327963Y-18980963D01*
X46380000Y-18903084D01*
X46380001Y-19866411D01*
X46380000Y-19866416D01*
X46380000Y-20599011D01*
X46095353Y-20408816D01*
X45720000Y-20334154D01*
X45344646Y-20408816D01*
X45187000Y-20514152D01*
X45187000Y-20392584D01*
X45201438Y-20320000D01*
X45144238Y-20032437D01*
X45022463Y-19850187D01*
X45022462Y-19850186D01*
X44981347Y-19788653D01*
X44919814Y-19747538D01*
X43536000Y-18363725D01*
X43536000Y-18191323D01*
X43615584Y-18072217D01*
X43672784Y-17784654D01*
X43658346Y-17712070D01*
X43658346Y-17476239D01*
X43672784Y-17403654D01*
X43658346Y-17331069D01*
X43658346Y-17257056D01*
X43630022Y-17188675D01*
X43615584Y-17116091D01*
X43574469Y-17054558D01*
X43546145Y-16986177D01*
X43493808Y-16933840D01*
X43452693Y-16872307D01*
X43391160Y-16831192D01*
X43338823Y-16778855D01*
X43338821Y-16778854D01*
X42647000Y-16087033D01*
X42647000Y-15153955D01*
X42789040Y-15248863D01*
X43180000Y-15326630D01*
X43570961Y-15248863D01*
X43902402Y-15027402D01*
X44123863Y-14695961D01*
X44182000Y-14403686D01*
X44182000Y-13536313D01*
X44123863Y-13244039D01*
X43902402Y-12912598D01*
X43570960Y-12691137D01*
X43180000Y-12613370D01*
X42789039Y-12691137D01*
X42647000Y-12786044D01*
X42647000Y-12367000D01*
X45614725Y-12367000D01*
X46380001Y-13132276D01*
G36*
X34837599Y-15027402D02*
X35146582Y-15233857D01*
X35946032Y-16033308D01*
X35903583Y-16096838D01*
X35858398Y-16324000D01*
X35858398Y-18474000D01*
X35903583Y-18701162D01*
X36032260Y-18893740D01*
X36087001Y-18930317D01*
X36087000Y-20510143D01*
X35935353Y-20408816D01*
X35560000Y-20334154D01*
X35184646Y-20408816D01*
X35028246Y-20513319D01*
X35041438Y-20446999D01*
X34984238Y-20159437D01*
X34862463Y-19977187D01*
X34862462Y-19977186D01*
X34821347Y-19915653D01*
X34759814Y-19874538D01*
X34404000Y-19518725D01*
X34404000Y-15959584D01*
X34418438Y-15886999D01*
X34361238Y-15599437D01*
X34313213Y-15527563D01*
X34198347Y-15355653D01*
X34136811Y-15314536D01*
X33785370Y-14963095D01*
X33956487Y-14707000D01*
X34623514Y-14707000D01*
X34837599Y-15027402D01*
X34837599Y-15027402D01*
G37*
X34837599Y-15027402D02*
X35146582Y-15233857D01*
X35946032Y-16033308D01*
X35903583Y-16096838D01*
X35858398Y-16324000D01*
X35858398Y-18474000D01*
X35903583Y-18701162D01*
X36032260Y-18893740D01*
X36087001Y-18930317D01*
X36087000Y-20510143D01*
X35935353Y-20408816D01*
X35560000Y-20334154D01*
X35184646Y-20408816D01*
X35028246Y-20513319D01*
X35041438Y-20446999D01*
X34984238Y-20159437D01*
X34862463Y-19977187D01*
X34862462Y-19977186D01*
X34821347Y-19915653D01*
X34759814Y-19874538D01*
X34404000Y-19518725D01*
X34404000Y-15959584D01*
X34418438Y-15886999D01*
X34361238Y-15599437D01*
X34313213Y-15527563D01*
X34198347Y-15355653D01*
X34136811Y-15314536D01*
X33785370Y-14963095D01*
X33956487Y-14707000D01*
X34623514Y-14707000D01*
X34837599Y-15027402D01*
G36*
X34865762Y-12412438D02*
X34808562Y-12700000D01*
X34823001Y-12772589D01*
X34823001Y-12934444D01*
X34623514Y-13233000D01*
X33956487Y-13233000D01*
X33742402Y-12912598D01*
X33410960Y-12691137D01*
X33124070Y-12634071D01*
X33147961Y-12598315D01*
X33200299Y-12545977D01*
X33228624Y-12477594D01*
X33269738Y-12416062D01*
X33279497Y-12367000D01*
X34896123Y-12367000D01*
X34865762Y-12412438D01*
X34865762Y-12412438D01*
G37*
X34865762Y-12412438D02*
X34808562Y-12700000D01*
X34823001Y-12772589D01*
X34823001Y-12934444D01*
X34623514Y-13233000D01*
X33956487Y-13233000D01*
X33742402Y-12912598D01*
X33410960Y-12691137D01*
X33124070Y-12634071D01*
X33147961Y-12598315D01*
X33200299Y-12545977D01*
X33228624Y-12477594D01*
X33269738Y-12416062D01*
X33279497Y-12367000D01*
X34896123Y-12367000D01*
X34865762Y-12412438D01*
G04 #@! TD*
M02*
