G04 #@! TF.GenerationSoftware,KiCad,Pcbnew,5.0.2+dfsg1-1*
G04 #@! TF.CreationDate,2019-11-01T21:15:43+01:00*
G04 #@! TF.ProjectId,hexdump,68657864-756d-4702-9e6b-696361645f70,rev?*
G04 #@! TF.SameCoordinates,Original*
G04 #@! TF.FileFunction,Profile,NP*
%FSLAX46Y46*%
G04 Gerber Fmt 4.6, Leading zero omitted, Abs format (unit mm)*
G04 Created by KiCad (PCBNEW 5.0.2+dfsg1-1) date Fri Nov  1 21:15:43 2019*
%MOMM*%
%LPD*%
G01*
G04 APERTURE LIST*
%ADD10C,0.149802*%
G04 APERTURE END LIST*
D10*
X138114053Y166170219D02*
X129697512Y166170219D01*
X138125159Y166095853D02*
X138114053Y166170219D01*
X138139575Y166022729D02*
X138125159Y166095853D01*
X138157218Y165950922D02*
X138139575Y166022729D01*
X138178005Y165880503D02*
X138157218Y165950922D01*
X138201853Y165811546D02*
X138178005Y165880503D01*
X138228680Y165744124D02*
X138201853Y165811546D01*
X138258401Y165678311D02*
X138228680Y165744124D01*
X138290935Y165614180D02*
X138258401Y165678311D01*
X138326199Y165551803D02*
X138290935Y165614180D01*
X138364109Y165491255D02*
X138326199Y165551803D01*
X138404584Y165432607D02*
X138364109Y165491255D01*
X138447539Y165375934D02*
X138404584Y165432607D01*
X138492892Y165321309D02*
X138447539Y165375934D01*
X138540561Y165268804D02*
X138492892Y165321309D01*
X138590461Y165218493D02*
X138540561Y165268804D01*
X138642511Y165170449D02*
X138590461Y165218493D01*
X138696628Y165124746D02*
X138642511Y165170449D01*
X138752728Y165081456D02*
X138696628Y165124746D01*
X138810730Y165040652D02*
X138752728Y165081456D01*
X138870549Y165002408D02*
X138810730Y165040652D01*
X138932103Y164966798D02*
X138870549Y165002408D01*
X138995309Y164933893D02*
X138932103Y164966798D01*
X139060084Y164903768D02*
X138995309Y164933893D01*
X139126346Y164876495D02*
X139060084Y164903768D01*
X139194011Y164852148D02*
X139126346Y164876495D01*
X139262997Y164830800D02*
X139194011Y164852148D01*
X139333220Y164812524D02*
X139262997Y164830800D01*
X139404598Y164797394D02*
X139333220Y164812524D01*
X139477049Y164785482D02*
X139404598Y164797394D01*
X139550488Y164776861D02*
X139477049Y164785482D01*
X139624834Y164771605D02*
X139550488Y164776861D01*
X139700002Y164769787D02*
X139624834Y164771605D01*
X139775153Y164771628D02*
X139700002Y164769787D01*
X139849479Y164776904D02*
X139775153Y164771628D01*
X139922899Y164785544D02*
X139849479Y164776904D01*
X139995329Y164797473D02*
X139922899Y164785544D01*
X140066687Y164812620D02*
X139995329Y164797473D01*
X140136890Y164830910D02*
X140066687Y164812620D01*
X140205855Y164852270D02*
X140136890Y164830910D01*
X140273500Y164876628D02*
X140205855Y164852270D01*
X140339741Y164903910D02*
X140273500Y164876628D01*
X140404495Y164934043D02*
X140339741Y164903910D01*
X140467681Y164966954D02*
X140404495Y164934043D01*
X140529214Y165002569D02*
X140467681Y164966954D01*
X140589013Y165040816D02*
X140529214Y165002569D01*
X140646994Y165081622D02*
X140589013Y165040816D01*
X140703074Y165124913D02*
X140646994Y165081622D01*
X140757172Y165170616D02*
X140703074Y165124913D01*
X140809203Y165218658D02*
X140757172Y165170616D01*
X140859086Y165268965D02*
X140809203Y165218658D01*
X140906737Y165321466D02*
X140859086Y165268965D01*
X140952073Y165376086D02*
X140906737Y165321466D01*
X140995012Y165432752D02*
X140952073Y165376086D01*
X141035471Y165491391D02*
X140995012Y165432752D01*
X141073367Y165551931D02*
X141035471Y165491391D01*
X141108618Y165614297D02*
X141073367Y165551931D01*
X141141140Y165678417D02*
X141108618Y165614297D01*
X141170850Y165744218D02*
X141141140Y165678417D01*
X141197666Y165811626D02*
X141170850Y165744218D01*
X141221505Y165880569D02*
X141197666Y165811626D01*
X141242285Y165950972D02*
X141221505Y165880569D01*
X141259922Y166022764D02*
X141242285Y165950972D01*
X141274333Y166095871D02*
X141259922Y166022764D01*
X141285436Y166170219D02*
X141274333Y166095871D01*
X265114051Y166170219D02*
X141285436Y166170219D01*
X265125158Y166095853D02*
X265114051Y166170219D01*
X265139574Y166022729D02*
X265125158Y166095853D01*
X265157217Y165950922D02*
X265139574Y166022729D01*
X265178004Y165880503D02*
X265157217Y165950922D01*
X265201852Y165811546D02*
X265178004Y165880503D01*
X265228678Y165744124D02*
X265201852Y165811546D01*
X265258400Y165678311D02*
X265228678Y165744124D01*
X265290934Y165614180D02*
X265258400Y165678311D01*
X265326197Y165551803D02*
X265290934Y165614180D01*
X265364108Y165491255D02*
X265326197Y165551803D01*
X265404582Y165432607D02*
X265364108Y165491255D01*
X265447537Y165375934D02*
X265404582Y165432607D01*
X265492891Y165321309D02*
X265447537Y165375934D01*
X265540559Y165268804D02*
X265492891Y165321309D01*
X265590460Y165218493D02*
X265540559Y165268804D01*
X265642510Y165170449D02*
X265590460Y165218493D01*
X265696627Y165124746D02*
X265642510Y165170449D01*
X265752727Y165081456D02*
X265696627Y165124746D01*
X265810728Y165040652D02*
X265752727Y165081456D01*
X265870547Y165002408D02*
X265810728Y165040652D01*
X265932101Y164966798D02*
X265870547Y165002408D01*
X265995307Y164933893D02*
X265932101Y164966798D01*
X266060082Y164903768D02*
X265995307Y164933893D01*
X266126344Y164876495D02*
X266060082Y164903768D01*
X266194009Y164852148D02*
X266126344Y164876495D01*
X266262995Y164830800D02*
X266194009Y164852148D01*
X266333219Y164812524D02*
X266262995Y164830800D01*
X266404597Y164797394D02*
X266333219Y164812524D01*
X266477047Y164785482D02*
X266404597Y164797394D01*
X266550486Y164776861D02*
X266477047Y164785482D01*
X266624832Y164771605D02*
X266550486Y164776861D01*
X266700001Y164769787D02*
X266624832Y164771605D01*
X266775151Y164771628D02*
X266700001Y164769787D01*
X266849477Y164776904D02*
X266775151Y164771628D01*
X266922897Y164785544D02*
X266849477Y164776904D01*
X266995327Y164797473D02*
X266922897Y164785544D01*
X267066686Y164812620D02*
X266995327Y164797473D01*
X267136889Y164830910D02*
X267066686Y164812620D01*
X267205854Y164852270D02*
X267136889Y164830910D01*
X267273498Y164876628D02*
X267205854Y164852270D01*
X267339739Y164903910D02*
X267273498Y164876628D01*
X267404493Y164934043D02*
X267339739Y164903910D01*
X267467679Y164966954D02*
X267404493Y164934043D01*
X267529212Y165002569D02*
X267467679Y164966954D01*
X267589011Y165040816D02*
X267529212Y165002569D01*
X267646992Y165081622D02*
X267589011Y165040816D01*
X267703073Y165124913D02*
X267646992Y165081622D01*
X267757170Y165170616D02*
X267703073Y165124913D01*
X267809202Y165218658D02*
X267757170Y165170616D01*
X267859084Y165268965D02*
X267809202Y165218658D01*
X267906735Y165321466D02*
X267859084Y165268965D01*
X267952072Y165376086D02*
X267906735Y165321466D01*
X267995011Y165432752D02*
X267952072Y165376086D01*
X268035470Y165491391D02*
X267995011Y165432752D01*
X268073366Y165551931D02*
X268035470Y165491391D01*
X268108616Y165614297D02*
X268073366Y165551931D01*
X268141138Y165678417D02*
X268108616Y165614297D01*
X268170848Y165744218D02*
X268141138Y165678417D01*
X268197665Y165811626D02*
X268170848Y165744218D01*
X268221504Y165880569D02*
X268197665Y165811626D01*
X268242283Y165950972D02*
X268221504Y165880569D01*
X268259920Y166022764D02*
X268242283Y165950972D01*
X268274331Y166095871D02*
X268259920Y166022764D01*
X268285434Y166170219D02*
X268274331Y166095871D01*
X392114050Y166170219D02*
X268285434Y166170219D01*
X392125156Y166095853D02*
X392114050Y166170219D01*
X392139572Y166022729D02*
X392125156Y166095853D01*
X392157215Y165950922D02*
X392139572Y166022729D01*
X392178002Y165880503D02*
X392157215Y165950922D01*
X392201850Y165811546D02*
X392178002Y165880503D01*
X392228676Y165744124D02*
X392201850Y165811546D01*
X392258398Y165678311D02*
X392228676Y165744124D01*
X392290932Y165614180D02*
X392258398Y165678311D01*
X392326196Y165551803D02*
X392290932Y165614180D01*
X392364106Y165491255D02*
X392326196Y165551803D01*
X392404580Y165432607D02*
X392364106Y165491255D01*
X392447536Y165375934D02*
X392404580Y165432607D01*
X392492889Y165321309D02*
X392447536Y165375934D01*
X392540557Y165268804D02*
X392492889Y165321309D01*
X392590458Y165218493D02*
X392540557Y165268804D01*
X392642508Y165170449D02*
X392590458Y165218493D01*
X392696625Y165124746D02*
X392642508Y165170449D01*
X392752725Y165081456D02*
X392696625Y165124746D01*
X392810726Y165040652D02*
X392752725Y165081456D01*
X392870545Y165002408D02*
X392810726Y165040652D01*
X392932099Y164966798D02*
X392870545Y165002408D01*
X392995305Y164933893D02*
X392932099Y164966798D01*
X393060081Y164903768D02*
X392995305Y164933893D01*
X393126342Y164876495D02*
X393060081Y164903768D01*
X393194008Y164852148D02*
X393126342Y164876495D01*
X393262993Y164830800D02*
X393194008Y164852148D01*
X393333217Y164812524D02*
X393262993Y164830800D01*
X393404595Y164797394D02*
X393333217Y164812524D01*
X393477046Y164785482D02*
X393404595Y164797394D01*
X393550485Y164776861D02*
X393477046Y164785482D01*
X393624830Y164771605D02*
X393550485Y164776861D01*
X393699999Y164769787D02*
X393624830Y164771605D01*
X393775149Y164771628D02*
X393699999Y164769787D01*
X393849476Y164776904D02*
X393775149Y164771628D01*
X393922896Y164785544D02*
X393849476Y164776904D01*
X393995326Y164797473D02*
X393922896Y164785544D01*
X394066684Y164812620D02*
X393995326Y164797473D01*
X394136887Y164830910D02*
X394066684Y164812620D01*
X394205852Y164852270D02*
X394136887Y164830910D01*
X394273496Y164876628D02*
X394205852Y164852270D01*
X394339737Y164903910D02*
X394273496Y164876628D01*
X394404492Y164934043D02*
X394339737Y164903910D01*
X394467677Y164966954D02*
X394404492Y164934043D01*
X394529211Y165002569D02*
X394467677Y164966954D01*
X394589009Y165040816D02*
X394529211Y165002569D01*
X394646991Y165081622D02*
X394589009Y165040816D01*
X394703071Y165124913D02*
X394646991Y165081622D01*
X394757169Y165170616D02*
X394703071Y165124913D01*
X394809200Y165218658D02*
X394757169Y165170616D01*
X394859083Y165268965D02*
X394809200Y165218658D01*
X394906734Y165321466D02*
X394859083Y165268965D01*
X394952070Y165376086D02*
X394906734Y165321466D01*
X394995009Y165432752D02*
X394952070Y165376086D01*
X395035468Y165491391D02*
X394995009Y165432752D01*
X395073364Y165551931D02*
X395035468Y165491391D01*
X395108615Y165614297D02*
X395073364Y165551931D01*
X395141136Y165678417D02*
X395108615Y165614297D01*
X395170847Y165744218D02*
X395141136Y165678417D01*
X395197663Y165811626D02*
X395170847Y165744218D01*
X395221502Y165880569D02*
X395197663Y165811626D01*
X395242282Y165950972D02*
X395221502Y165880569D01*
X395259918Y166022764D02*
X395242282Y165950972D01*
X395274330Y166095871D02*
X395259918Y166022764D01*
X395285433Y166170219D02*
X395274330Y166095871D01*
X519114048Y166170219D02*
X395285433Y166170219D01*
X519125154Y166095853D02*
X519114048Y166170219D01*
X519139570Y166022729D02*
X519125154Y166095853D01*
X519157213Y165950922D02*
X519139570Y166022729D01*
X519178000Y165880503D02*
X519157213Y165950922D01*
X519201848Y165811546D02*
X519178000Y165880503D01*
X519228675Y165744124D02*
X519201848Y165811546D01*
X519258396Y165678311D02*
X519228675Y165744124D01*
X519290931Y165614180D02*
X519258396Y165678311D01*
X519326194Y165551803D02*
X519290931Y165614180D01*
X519364105Y165491255D02*
X519326194Y165551803D01*
X519404579Y165432607D02*
X519364105Y165491255D01*
X519447534Y165375934D02*
X519404579Y165432607D01*
X519492887Y165321309D02*
X519447534Y165375934D01*
X519540556Y165268804D02*
X519492887Y165321309D01*
X519590457Y165218493D02*
X519540556Y165268804D01*
X519642507Y165170449D02*
X519590457Y165218493D01*
X519696623Y165124746D02*
X519642507Y165170449D01*
X519752724Y165081456D02*
X519696623Y165124746D01*
X519810725Y165040652D02*
X519752724Y165081456D01*
X519870544Y165002408D02*
X519810725Y165040652D01*
X519932098Y164966798D02*
X519870544Y165002408D01*
X519995304Y164933893D02*
X519932098Y164966798D01*
X520060079Y164903768D02*
X519995304Y164933893D01*
X520126341Y164876495D02*
X520060079Y164903768D01*
X520194006Y164852148D02*
X520126341Y164876495D01*
X520262992Y164830800D02*
X520194006Y164852148D01*
X520333215Y164812524D02*
X520262992Y164830800D01*
X520404594Y164797394D02*
X520333215Y164812524D01*
X520477044Y164785482D02*
X520404594Y164797394D01*
X520550483Y164776861D02*
X520477044Y164785482D01*
X520624829Y164771605D02*
X520550483Y164776861D01*
X520699998Y164769787D02*
X520624829Y164771605D01*
X520775148Y164771628D02*
X520699998Y164769787D01*
X520849474Y164776904D02*
X520775148Y164771628D01*
X520922894Y164785544D02*
X520849474Y164776904D01*
X520995324Y164797473D02*
X520922894Y164785544D01*
X521066682Y164812620D02*
X520995324Y164797473D01*
X521136885Y164830910D02*
X521066682Y164812620D01*
X521205850Y164852270D02*
X521136885Y164830910D01*
X521273495Y164876628D02*
X521205850Y164852270D01*
X521339736Y164903910D02*
X521273495Y164876628D01*
X521404490Y164934043D02*
X521339736Y164903910D01*
X521467676Y164966954D02*
X521404490Y164934043D01*
X521529209Y165002569D02*
X521467676Y164966954D01*
X521589008Y165040816D02*
X521529209Y165002569D01*
X521646989Y165081622D02*
X521589008Y165040816D01*
X521703070Y165124913D02*
X521646989Y165081622D01*
X521757167Y165170616D02*
X521703070Y165124913D01*
X521809199Y165218658D02*
X521757167Y165170616D01*
X521859081Y165268965D02*
X521809199Y165218658D01*
X521906732Y165321466D02*
X521859081Y165268965D01*
X521952068Y165376086D02*
X521906732Y165321466D01*
X521995008Y165432752D02*
X521952068Y165376086D01*
X522035467Y165491391D02*
X521995008Y165432752D01*
X522073363Y165551931D02*
X522035467Y165491391D01*
X522108613Y165614297D02*
X522073363Y165551931D01*
X522141135Y165678417D02*
X522108613Y165614297D01*
X522170845Y165744218D02*
X522141135Y165678417D01*
X522197661Y165811626D02*
X522170845Y165744218D01*
X522221501Y165880569D02*
X522197661Y165811626D01*
X522242280Y165950972D02*
X522221501Y165880569D01*
X522259917Y166022764D02*
X522242280Y165950972D01*
X522274328Y166095871D02*
X522259917Y166022764D01*
X522285431Y166170219D02*
X522274328Y166095871D01*
X530702488Y166170219D02*
X522285431Y166170219D01*
X530831388Y166166981D02*
X530702488Y166170219D01*
X530958553Y166157372D02*
X530831388Y166166981D01*
X531083828Y166141544D02*
X530958553Y166157372D01*
X531207059Y166119654D02*
X531083828Y166141544D01*
X531328090Y166091856D02*
X531207059Y166119654D01*
X531446769Y166058303D02*
X531328090Y166091856D01*
X531562939Y166019151D02*
X531446769Y166058303D01*
X531676447Y165974555D02*
X531562939Y166019151D01*
X531787138Y165924668D02*
X531676447Y165974555D01*
X531894858Y165869646D02*
X531787138Y165924668D01*
X531999451Y165809643D02*
X531894858Y165869646D01*
X532100763Y165744813D02*
X531999451Y165809643D01*
X532198640Y165675312D02*
X532100763Y165744813D01*
X532292927Y165601293D02*
X532198640Y165675312D01*
X532383469Y165522911D02*
X532292927Y165601293D01*
X532470112Y165440322D02*
X532383469Y165522911D01*
X532552702Y165353678D02*
X532470112Y165440322D01*
X532631084Y165263136D02*
X532552702Y165353678D01*
X532705103Y165168849D02*
X532631084Y165263136D01*
X532774604Y165070972D02*
X532705103Y165168849D01*
X532839434Y164969660D02*
X532774604Y165070972D01*
X532899437Y164865067D02*
X532839434Y164969660D01*
X532954459Y164757347D02*
X532899437Y164865067D01*
X533004346Y164646656D02*
X532954459Y164757347D01*
X533048942Y164533148D02*
X533004346Y164646656D01*
X533088094Y164416978D02*
X533048942Y164533148D01*
X533121646Y164298299D02*
X533088094Y164416978D01*
X533149445Y164177267D02*
X533121646Y164298299D01*
X533171335Y164054037D02*
X533149445Y164177267D01*
X533187162Y163928762D02*
X533171335Y164054037D01*
X533196772Y163801597D02*
X533187162Y163928762D01*
X533200009Y163672697D02*
X533196772Y163801597D01*
X533200009Y141127303D02*
X533200009Y163672697D01*
X533196772Y140998403D02*
X533200009Y141127303D01*
X533187162Y140871238D02*
X533196772Y140998403D01*
X533171335Y140745963D02*
X533187162Y140871238D01*
X533149445Y140622733D02*
X533171335Y140745963D01*
X533121646Y140501701D02*
X533149445Y140622733D01*
X533088094Y140383022D02*
X533121646Y140501701D01*
X533048942Y140266852D02*
X533088094Y140383022D01*
X533004346Y140153344D02*
X533048942Y140266852D01*
X532954459Y140042653D02*
X533004346Y140153344D01*
X532899437Y139934933D02*
X532954459Y140042653D01*
X532839434Y139830340D02*
X532899437Y139934933D01*
X532774604Y139729028D02*
X532839434Y139830340D01*
X532705103Y139631151D02*
X532774604Y139729028D01*
X532631084Y139536864D02*
X532705103Y139631151D01*
X532552702Y139446322D02*
X532631084Y139536864D01*
X532470112Y139359678D02*
X532552702Y139446322D01*
X532383469Y139277089D02*
X532470112Y139359678D01*
X532292927Y139198707D02*
X532383469Y139277089D01*
X532198640Y139124688D02*
X532292927Y139198707D01*
X532100763Y139055187D02*
X532198640Y139124688D01*
X531999451Y138990357D02*
X532100763Y139055187D01*
X531894858Y138930354D02*
X531999451Y138990357D01*
X531787138Y138875332D02*
X531894858Y138930354D01*
X531676447Y138825445D02*
X531787138Y138875332D01*
X531562939Y138780849D02*
X531676447Y138825445D01*
X531446769Y138741697D02*
X531562939Y138780849D01*
X531328090Y138708144D02*
X531446769Y138741697D01*
X531207059Y138680346D02*
X531328090Y138708144D01*
X531083828Y138658456D02*
X531207059Y138680346D01*
X530958553Y138642628D02*
X531083828Y138658456D01*
X530831388Y138633019D02*
X530958553Y138642628D01*
X530702488Y138629781D02*
X530831388Y138633019D01*
X522285947Y138629781D02*
X530702488Y138629781D01*
X522274841Y138704147D02*
X522285947Y138629781D01*
X522260425Y138777271D02*
X522274841Y138704147D01*
X522242782Y138849078D02*
X522260425Y138777271D01*
X522221995Y138919497D02*
X522242782Y138849078D01*
X522198147Y138988454D02*
X522221995Y138919497D01*
X522171320Y139055876D02*
X522198147Y138988454D01*
X522141599Y139121689D02*
X522171320Y139055876D01*
X522109065Y139185820D02*
X522141599Y139121689D01*
X522073801Y139248197D02*
X522109065Y139185820D01*
X522035891Y139308745D02*
X522073801Y139248197D01*
X521995416Y139367393D02*
X522035891Y139308745D01*
X521952461Y139424066D02*
X521995416Y139367393D01*
X521907108Y139478691D02*
X521952461Y139424066D01*
X521859439Y139531196D02*
X521907108Y139478691D01*
X521809539Y139581507D02*
X521859439Y139531196D01*
X521757489Y139629551D02*
X521809539Y139581507D01*
X521703372Y139675254D02*
X521757489Y139629551D01*
X521647272Y139718544D02*
X521703372Y139675254D01*
X521589270Y139759348D02*
X521647272Y139718544D01*
X521529451Y139797592D02*
X521589270Y139759348D01*
X521467897Y139833202D02*
X521529451Y139797592D01*
X521404691Y139866107D02*
X521467897Y139833202D01*
X521339916Y139896232D02*
X521404691Y139866107D01*
X521273654Y139923505D02*
X521339916Y139896232D01*
X521205989Y139947852D02*
X521273654Y139923505D01*
X521137003Y139969200D02*
X521205989Y139947852D01*
X521066780Y139987476D02*
X521137003Y139969200D01*
X520995402Y140002606D02*
X521066780Y139987476D01*
X520922951Y140014518D02*
X520995402Y140002606D01*
X520849512Y140023139D02*
X520922951Y140014518D01*
X520775166Y140028395D02*
X520849512Y140023139D01*
X520699998Y140030213D02*
X520775166Y140028395D01*
X520624847Y140028372D02*
X520699998Y140030213D01*
X520550521Y140023096D02*
X520624847Y140028372D01*
X520477101Y140014456D02*
X520550521Y140023096D01*
X520404671Y140002527D02*
X520477101Y140014456D01*
X520333313Y139987380D02*
X520404671Y140002527D01*
X520263110Y139969090D02*
X520333313Y139987380D01*
X520194145Y139947730D02*
X520263110Y139969090D01*
X520126500Y139923372D02*
X520194145Y139947730D01*
X520060259Y139896090D02*
X520126500Y139923372D01*
X519995505Y139865957D02*
X520060259Y139896090D01*
X519932319Y139833046D02*
X519995505Y139865957D01*
X519870786Y139797431D02*
X519932319Y139833046D01*
X519810987Y139759184D02*
X519870786Y139797431D01*
X519753006Y139718378D02*
X519810987Y139759184D01*
X519696926Y139675087D02*
X519753006Y139718378D01*
X519642828Y139629384D02*
X519696926Y139675087D01*
X519590797Y139581342D02*
X519642828Y139629384D01*
X519540914Y139531035D02*
X519590797Y139581342D01*
X519493263Y139478534D02*
X519540914Y139531035D01*
X519447927Y139423914D02*
X519493263Y139478534D01*
X519404988Y139367248D02*
X519447927Y139423914D01*
X519364529Y139308609D02*
X519404988Y139367248D01*
X519326633Y139248069D02*
X519364529Y139308609D01*
X519291382Y139185703D02*
X519326633Y139248069D01*
X519258860Y139121583D02*
X519291382Y139185703D01*
X519229150Y139055782D02*
X519258860Y139121583D01*
X519202334Y138988374D02*
X519229150Y139055782D01*
X519178495Y138919431D02*
X519202334Y138988374D01*
X519157715Y138849028D02*
X519178495Y138919431D01*
X519140078Y138777236D02*
X519157715Y138849028D01*
X519125667Y138704129D02*
X519140078Y138777236D01*
X519114564Y138629781D02*
X519125667Y138704129D01*
X395285949Y138629781D02*
X519114564Y138629781D01*
X395274842Y138704147D02*
X395285949Y138629781D01*
X395260426Y138777271D02*
X395274842Y138704147D01*
X395242783Y138849078D02*
X395260426Y138777271D01*
X395221996Y138919497D02*
X395242783Y138849078D01*
X395198148Y138988454D02*
X395221996Y138919497D01*
X395171322Y139055876D02*
X395198148Y138988454D01*
X395141600Y139121689D02*
X395171322Y139055876D01*
X395109066Y139185820D02*
X395141600Y139121689D01*
X395073803Y139248197D02*
X395109066Y139185820D01*
X395035892Y139308745D02*
X395073803Y139248197D01*
X394995418Y139367393D02*
X395035892Y139308745D01*
X394952463Y139424066D02*
X394995418Y139367393D01*
X394907109Y139478691D02*
X394952463Y139424066D01*
X394859441Y139531196D02*
X394907109Y139478691D01*
X394809540Y139581507D02*
X394859441Y139531196D01*
X394757490Y139629551D02*
X394809540Y139581507D01*
X394703373Y139675254D02*
X394757490Y139629551D01*
X394647273Y139718544D02*
X394703373Y139675254D01*
X394589272Y139759348D02*
X394647273Y139718544D01*
X394529453Y139797592D02*
X394589272Y139759348D01*
X394467899Y139833202D02*
X394529453Y139797592D01*
X394404693Y139866107D02*
X394467899Y139833202D01*
X394339918Y139896232D02*
X394404693Y139866107D01*
X394273656Y139923505D02*
X394339918Y139896232D01*
X394205991Y139947852D02*
X394273656Y139923505D01*
X394137005Y139969200D02*
X394205991Y139947852D01*
X394066781Y139987476D02*
X394137005Y139969200D01*
X393995403Y140002606D02*
X394066781Y139987476D01*
X393922953Y140014518D02*
X393995403Y140002606D01*
X393849514Y140023139D02*
X393922953Y140014518D01*
X393775168Y140028395D02*
X393849514Y140023139D01*
X393699999Y140030213D02*
X393775168Y140028395D01*
X393624849Y140028372D02*
X393699999Y140030213D01*
X393550523Y140023096D02*
X393624849Y140028372D01*
X393477103Y140014456D02*
X393550523Y140023096D01*
X393404673Y140002527D02*
X393477103Y140014456D01*
X393333314Y139987380D02*
X393404673Y140002527D01*
X393263111Y139969090D02*
X393333314Y139987380D01*
X393194146Y139947730D02*
X393263111Y139969090D01*
X393126502Y139923372D02*
X393194146Y139947730D01*
X393060261Y139896090D02*
X393126502Y139923372D01*
X392995507Y139865957D02*
X393060261Y139896090D01*
X392932321Y139833046D02*
X392995507Y139865957D01*
X392870788Y139797431D02*
X392932321Y139833046D01*
X392810989Y139759184D02*
X392870788Y139797431D01*
X392753008Y139718378D02*
X392810989Y139759184D01*
X392696927Y139675087D02*
X392753008Y139718378D01*
X392642830Y139629384D02*
X392696927Y139675087D01*
X392590798Y139581342D02*
X392642830Y139629384D01*
X392540916Y139531035D02*
X392590798Y139581342D01*
X392493265Y139478534D02*
X392540916Y139531035D01*
X392447928Y139423914D02*
X392493265Y139478534D01*
X392404989Y139367248D02*
X392447928Y139423914D01*
X392364530Y139308609D02*
X392404989Y139367248D01*
X392326634Y139248069D02*
X392364530Y139308609D01*
X392291384Y139185703D02*
X392326634Y139248069D01*
X392258862Y139121583D02*
X392291384Y139185703D01*
X392229152Y139055782D02*
X392258862Y139121583D01*
X392202335Y138988374D02*
X392229152Y139055782D01*
X392178496Y138919431D02*
X392202335Y138988374D01*
X392157717Y138849028D02*
X392178496Y138919431D01*
X392140080Y138777236D02*
X392157717Y138849028D01*
X392125669Y138704129D02*
X392140080Y138777236D01*
X392114566Y138629781D02*
X392125669Y138704129D01*
X268285950Y138629781D02*
X392114566Y138629781D01*
X268274844Y138704147D02*
X268285950Y138629781D01*
X268260428Y138777271D02*
X268274844Y138704147D01*
X268242785Y138849078D02*
X268260428Y138777271D01*
X268221998Y138919497D02*
X268242785Y138849078D01*
X268198150Y138988454D02*
X268221998Y138919497D01*
X268171324Y139055876D02*
X268198150Y138988454D01*
X268141602Y139121689D02*
X268171324Y139055876D01*
X268109068Y139185820D02*
X268141602Y139121689D01*
X268073804Y139248197D02*
X268109068Y139185820D01*
X268035894Y139308745D02*
X268073804Y139248197D01*
X267995420Y139367393D02*
X268035894Y139308745D01*
X267952464Y139424066D02*
X267995420Y139367393D01*
X267907111Y139478691D02*
X267952464Y139424066D01*
X267859443Y139531196D02*
X267907111Y139478691D01*
X267809542Y139581507D02*
X267859443Y139531196D01*
X267757492Y139629551D02*
X267809542Y139581507D01*
X267703375Y139675254D02*
X267757492Y139629551D01*
X267647275Y139718544D02*
X267703375Y139675254D01*
X267589274Y139759348D02*
X267647275Y139718544D01*
X267529455Y139797592D02*
X267589274Y139759348D01*
X267467901Y139833202D02*
X267529455Y139797592D01*
X267404695Y139866107D02*
X267467901Y139833202D01*
X267339919Y139896232D02*
X267404695Y139866107D01*
X267273658Y139923505D02*
X267339919Y139896232D01*
X267205992Y139947852D02*
X267273658Y139923505D01*
X267137007Y139969200D02*
X267205992Y139947852D01*
X267066783Y139987476D02*
X267137007Y139969200D01*
X266995405Y140002606D02*
X267066783Y139987476D01*
X266922954Y140014518D02*
X266995405Y140002606D01*
X266849515Y140023139D02*
X266922954Y140014518D01*
X266775170Y140028395D02*
X266849515Y140023139D01*
X266700001Y140030213D02*
X266775170Y140028395D01*
X266624851Y140028372D02*
X266700001Y140030213D01*
X266550524Y140023096D02*
X266624851Y140028372D01*
X266477104Y140014456D02*
X266550524Y140023096D01*
X266404674Y140002527D02*
X266477104Y140014456D01*
X266333316Y139987380D02*
X266404674Y140002527D01*
X266263113Y139969090D02*
X266333316Y139987380D01*
X266194148Y139947730D02*
X266263113Y139969090D01*
X266126504Y139923372D02*
X266194148Y139947730D01*
X266060263Y139896090D02*
X266126504Y139923372D01*
X265995508Y139865957D02*
X266060263Y139896090D01*
X265932323Y139833046D02*
X265995508Y139865957D01*
X265870789Y139797431D02*
X265932323Y139833046D01*
X265810991Y139759184D02*
X265870789Y139797431D01*
X265753009Y139718378D02*
X265810991Y139759184D01*
X265696929Y139675087D02*
X265753009Y139718378D01*
X265642831Y139629384D02*
X265696929Y139675087D01*
X265590800Y139581342D02*
X265642831Y139629384D01*
X265540917Y139531035D02*
X265590800Y139581342D01*
X265493266Y139478534D02*
X265540917Y139531035D01*
X265447930Y139423914D02*
X265493266Y139478534D01*
X265404991Y139367248D02*
X265447930Y139423914D01*
X265364532Y139308609D02*
X265404991Y139367248D01*
X265326636Y139248069D02*
X265364532Y139308609D01*
X265291385Y139185703D02*
X265326636Y139248069D01*
X265258864Y139121583D02*
X265291385Y139185703D01*
X265229153Y139055782D02*
X265258864Y139121583D01*
X265202337Y138988374D02*
X265229153Y139055782D01*
X265178498Y138919431D02*
X265202337Y138988374D01*
X265157718Y138849028D02*
X265178498Y138919431D01*
X265140082Y138777236D02*
X265157718Y138849028D01*
X265125670Y138704129D02*
X265140082Y138777236D01*
X265114567Y138629781D02*
X265125670Y138704129D01*
X141285952Y138629781D02*
X265114567Y138629781D01*
X141274846Y138704147D02*
X141285952Y138629781D01*
X141260430Y138777271D02*
X141274846Y138704147D01*
X141242787Y138849078D02*
X141260430Y138777271D01*
X141222000Y138919497D02*
X141242787Y138849078D01*
X141198152Y138988454D02*
X141222000Y138919497D01*
X141171325Y139055876D02*
X141198152Y138988454D01*
X141141604Y139121689D02*
X141171325Y139055876D01*
X141109069Y139185820D02*
X141141604Y139121689D01*
X141073806Y139248197D02*
X141109069Y139185820D01*
X141035895Y139308745D02*
X141073806Y139248197D01*
X140995421Y139367393D02*
X141035895Y139308745D01*
X140952466Y139424066D02*
X140995421Y139367393D01*
X140907113Y139478691D02*
X140952466Y139424066D01*
X140859444Y139531196D02*
X140907113Y139478691D01*
X140809543Y139581507D02*
X140859444Y139531196D01*
X140757493Y139629551D02*
X140809543Y139581507D01*
X140703377Y139675254D02*
X140757493Y139629551D01*
X140647276Y139718544D02*
X140703377Y139675254D01*
X140589275Y139759348D02*
X140647276Y139718544D01*
X140529456Y139797592D02*
X140589275Y139759348D01*
X140467902Y139833202D02*
X140529456Y139797592D01*
X140404696Y139866107D02*
X140467902Y139833202D01*
X140339921Y139896232D02*
X140404696Y139866107D01*
X140273659Y139923505D02*
X140339921Y139896232D01*
X140205994Y139947852D02*
X140273659Y139923505D01*
X140137008Y139969200D02*
X140205994Y139947852D01*
X140066785Y139987476D02*
X140137008Y139969200D01*
X139995406Y140002606D02*
X140066785Y139987476D01*
X139922956Y140014518D02*
X139995406Y140002606D01*
X139849517Y140023139D02*
X139922956Y140014518D01*
X139775171Y140028395D02*
X139849517Y140023139D01*
X139700002Y140030213D02*
X139775171Y140028395D01*
X139624852Y140028372D02*
X139700002Y140030213D01*
X139550526Y140023096D02*
X139624852Y140028372D01*
X139477106Y140014456D02*
X139550526Y140023096D01*
X139404676Y140002527D02*
X139477106Y140014456D01*
X139333318Y139987380D02*
X139404676Y140002527D01*
X139263115Y139969090D02*
X139333318Y139987380D01*
X139194150Y139947730D02*
X139263115Y139969090D01*
X139126505Y139923372D02*
X139194150Y139947730D01*
X139060264Y139896090D02*
X139126505Y139923372D01*
X138995510Y139865957D02*
X139060264Y139896090D01*
X138932324Y139833046D02*
X138995510Y139865957D01*
X138870791Y139797431D02*
X138932324Y139833046D01*
X138810992Y139759184D02*
X138870791Y139797431D01*
X138753011Y139718378D02*
X138810992Y139759184D01*
X138696930Y139675087D02*
X138753011Y139718378D01*
X138642833Y139629384D02*
X138696930Y139675087D01*
X138590801Y139581342D02*
X138642833Y139629384D01*
X138540919Y139531035D02*
X138590801Y139581342D01*
X138493268Y139478534D02*
X138540919Y139531035D01*
X138447932Y139423914D02*
X138493268Y139478534D01*
X138404992Y139367248D02*
X138447932Y139423914D01*
X138364533Y139308609D02*
X138404992Y139367248D01*
X138326637Y139248069D02*
X138364533Y139308609D01*
X138291387Y139185703D02*
X138326637Y139248069D01*
X138258865Y139121583D02*
X138291387Y139185703D01*
X138229155Y139055782D02*
X138258865Y139121583D01*
X138202339Y138988374D02*
X138229155Y139055782D01*
X138178499Y138919431D02*
X138202339Y138988374D01*
X138157720Y138849028D02*
X138178499Y138919431D01*
X138140083Y138777236D02*
X138157720Y138849028D01*
X138125672Y138704129D02*
X138140083Y138777236D01*
X138114569Y138629781D02*
X138125672Y138704129D01*
X129697512Y138629781D02*
X138114569Y138629781D01*
X129568612Y138633019D02*
X129697512Y138629781D01*
X129441447Y138642628D02*
X129568612Y138633019D01*
X129316172Y138658456D02*
X129441447Y138642628D01*
X129192941Y138680346D02*
X129316172Y138658456D01*
X129071910Y138708144D02*
X129192941Y138680346D01*
X128953231Y138741697D02*
X129071910Y138708144D01*
X128837061Y138780849D02*
X128953231Y138741697D01*
X128723553Y138825445D02*
X128837061Y138780849D01*
X128612862Y138875332D02*
X128723553Y138825445D01*
X128505142Y138930354D02*
X128612862Y138875332D01*
X128400549Y138990357D02*
X128505142Y138930354D01*
X128299237Y139055187D02*
X128400549Y138990357D01*
X128201360Y139124688D02*
X128299237Y139055187D01*
X128107073Y139198707D02*
X128201360Y139124688D01*
X128016531Y139277089D02*
X128107073Y139198707D01*
X127929888Y139359678D02*
X128016531Y139277089D01*
X127847298Y139446322D02*
X127929888Y139359678D01*
X127768916Y139536864D02*
X127847298Y139446322D01*
X127694897Y139631151D02*
X127768916Y139536864D01*
X127625396Y139729028D02*
X127694897Y139631151D01*
X127560566Y139830340D02*
X127625396Y139729028D01*
X127500563Y139934933D02*
X127560566Y139830340D01*
X127445541Y140042653D02*
X127500563Y139934933D01*
X127395654Y140153344D02*
X127445541Y140042653D01*
X127351058Y140266852D02*
X127395654Y140153344D01*
X127311906Y140383022D02*
X127351058Y140266852D01*
X127278354Y140501701D02*
X127311906Y140383022D01*
X127250555Y140622733D02*
X127278354Y140501701D01*
X127228665Y140745963D02*
X127250555Y140622733D01*
X127212838Y140871238D02*
X127228665Y140745963D01*
X127203228Y140998403D02*
X127212838Y140871238D01*
X127199991Y141127303D02*
X127203228Y140998403D01*
X127199991Y163672697D02*
X127199991Y141127303D01*
X127203228Y163801597D02*
X127199991Y163672697D01*
X127212838Y163928762D02*
X127203228Y163801597D01*
X127228665Y164054037D02*
X127212838Y163928762D01*
X127250555Y164177267D02*
X127228665Y164054037D01*
X127278354Y164298299D02*
X127250555Y164177267D01*
X127311906Y164416978D02*
X127278354Y164298299D01*
X127351058Y164533148D02*
X127311906Y164416978D01*
X127395654Y164646656D02*
X127351058Y164533148D01*
X127445541Y164757347D02*
X127395654Y164646656D01*
X127500563Y164865067D02*
X127445541Y164757347D01*
X127560566Y164969660D02*
X127500563Y164865067D01*
X127625396Y165070972D02*
X127560566Y164969660D01*
X127694897Y165168849D02*
X127625396Y165070972D01*
X127768916Y165263136D02*
X127694897Y165168849D01*
X127847298Y165353678D02*
X127768916Y165263136D01*
X127929888Y165440322D02*
X127847298Y165353678D01*
X128016531Y165522911D02*
X127929888Y165440322D01*
X128107073Y165601293D02*
X128016531Y165522911D01*
X128201360Y165675312D02*
X128107073Y165601293D01*
X128299237Y165744813D02*
X128201360Y165675312D01*
X128400549Y165809643D02*
X128299237Y165744813D01*
X128505142Y165869646D02*
X128400549Y165809643D01*
X128612862Y165924668D02*
X128505142Y165869646D01*
X128723553Y165974555D02*
X128612862Y165924668D01*
X128837061Y166019151D02*
X128723553Y165974555D01*
X128953231Y166058303D02*
X128837061Y166019151D01*
X129071910Y166091856D02*
X128953231Y166058303D01*
X129192941Y166119654D02*
X129071910Y166091856D01*
X129316172Y166141544D02*
X129192941Y166119654D01*
X129441447Y166157372D02*
X129316172Y166141544D01*
X129568612Y166166981D02*
X129441447Y166157372D01*
X129697512Y166170219D02*
X129568612Y166166981D01*
M02*
