G04 #@! TF.GenerationSoftware,KiCad,Pcbnew,5.0.2+dfsg1-1*
G04 #@! TF.CreationDate,2019-11-01T21:15:42+01:00*
G04 #@! TF.ProjectId,hexdump,68657864-756d-4702-9e6b-696361645f70,rev?*
G04 #@! TF.SameCoordinates,Original*
G04 #@! TF.FileFunction,Legend,Bot*
G04 #@! TF.FilePolarity,Positive*
%FSLAX46Y46*%
G04 Gerber Fmt 4.6, Leading zero omitted, Abs format (unit mm)*
G04 Created by KiCad (PCBNEW 5.0.2+dfsg1-1) date Fri Nov  1 21:15:42 2019*
%MOMM*%
%LPD*%
G01*
G04 APERTURE LIST*
%ADD10C,0.150000*%
G04 APERTURE END LIST*
D10*
G04 #@! TO.C,J1*
X330454000Y140970000D02*
X330962000Y140462000D01*
X328041000Y140970000D02*
X330454000Y140970000D01*
X327660000Y141351000D02*
X328041000Y140970000D01*
X327279000Y140970000D02*
X327660000Y141351000D01*
X324866000Y140970000D02*
X327279000Y140970000D01*
X324485000Y140589000D02*
X324866000Y140970000D01*
G04 #@! TO.C,U22*
X131063264Y151695000D02*
G75*
G03X131063264Y151695000I-424264J0D01*
G01*
X138714000Y152570000D02*
X138714000Y148420000D01*
X129764000Y152570000D02*
X129764000Y148420000D01*
X138714000Y152570000D02*
X138156500Y152570000D01*
X138714000Y148420000D02*
X138156500Y148420000D01*
X129764000Y148420000D02*
X130321500Y148420000D01*
X129764000Y152570000D02*
X130239000Y152570000D01*
G04 #@! TO.C,U25*
X346630000Y149765000D02*
X347030000Y149765000D01*
X347030000Y153765000D02*
X347030000Y149765000D01*
X347030000Y153765000D02*
X346630000Y153765000D01*
X336730000Y153765000D02*
X336330000Y153765000D01*
X336330000Y153765000D02*
X336330000Y149765000D01*
X336330000Y149765000D02*
X336730000Y149765000D01*
X337430000Y152765000D02*
G75*
G03X337430000Y152765000I-300000J0D01*
G01*
G04 #@! TO.C,U26*
X323770000Y149765000D02*
X324170000Y149765000D01*
X324170000Y153765000D02*
X324170000Y149765000D01*
X324170000Y153765000D02*
X323770000Y153765000D01*
X313870000Y153765000D02*
X313470000Y153765000D01*
X313470000Y153765000D02*
X313470000Y149765000D01*
X313470000Y149765000D02*
X313870000Y149765000D01*
X314570000Y152765000D02*
G75*
G03X314570000Y152765000I-300000J0D01*
G01*
G04 #@! TO.C,U1*
X358364000Y152570000D02*
X358839000Y152570000D01*
X358364000Y148420000D02*
X358921500Y148420000D01*
X367314000Y148420000D02*
X366756500Y148420000D01*
X367314000Y152570000D02*
X366756500Y152570000D01*
X358364000Y152570000D02*
X358364000Y148420000D01*
X367314000Y152570000D02*
X367314000Y148420000D01*
X359663264Y151695000D02*
G75*
G03X359663264Y151695000I-424264J0D01*
G01*
G04 #@! TO.C,U4*
X410463264Y151695000D02*
G75*
G03X410463264Y151695000I-424264J0D01*
G01*
X418114000Y152570000D02*
X418114000Y148420000D01*
X409164000Y152570000D02*
X409164000Y148420000D01*
X418114000Y152570000D02*
X417556500Y152570000D01*
X418114000Y148420000D02*
X417556500Y148420000D01*
X409164000Y148420000D02*
X409721500Y148420000D01*
X409164000Y152570000D02*
X409639000Y152570000D01*
G04 #@! TO.C,U7*
X459964000Y152570000D02*
X460439000Y152570000D01*
X459964000Y148420000D02*
X460521500Y148420000D01*
X468914000Y148420000D02*
X468356500Y148420000D01*
X468914000Y152570000D02*
X468356500Y152570000D01*
X459964000Y152570000D02*
X459964000Y148420000D01*
X468914000Y152570000D02*
X468914000Y148420000D01*
X461263264Y151695000D02*
G75*
G03X461263264Y151695000I-424264J0D01*
G01*
G04 #@! TO.C,U10*
X512063264Y151695000D02*
G75*
G03X512063264Y151695000I-424264J0D01*
G01*
X519714000Y152570000D02*
X519714000Y148420000D01*
X510764000Y152570000D02*
X510764000Y148420000D01*
X519714000Y152570000D02*
X519156500Y152570000D01*
X519714000Y148420000D02*
X519156500Y148420000D01*
X510764000Y148420000D02*
X511321500Y148420000D01*
X510764000Y152570000D02*
X511239000Y152570000D01*
G04 #@! TO.C,U13*
X283463264Y151695000D02*
G75*
G03X283463264Y151695000I-424264J0D01*
G01*
X291114000Y152570000D02*
X291114000Y148420000D01*
X282164000Y152570000D02*
X282164000Y148420000D01*
X291114000Y152570000D02*
X290556500Y152570000D01*
X291114000Y148420000D02*
X290556500Y148420000D01*
X282164000Y148420000D02*
X282721500Y148420000D01*
X282164000Y152570000D02*
X282639000Y152570000D01*
G04 #@! TO.C,U19*
X180564000Y152570000D02*
X181039000Y152570000D01*
X180564000Y148420000D02*
X181121500Y148420000D01*
X189514000Y148420000D02*
X188956500Y148420000D01*
X189514000Y152570000D02*
X188956500Y152570000D01*
X180564000Y152570000D02*
X180564000Y148420000D01*
X189514000Y152570000D02*
X189514000Y148420000D01*
X181863264Y151695000D02*
G75*
G03X181863264Y151695000I-424264J0D01*
G01*
G04 #@! TO.C,IC1*
X329216228Y149700000D02*
G75*
G03X329216228Y149700000I-316228J0D01*
G01*
X332900000Y155800000D02*
X332900000Y156100000D01*
X332900000Y156100000D02*
X327700000Y156100000D01*
X327700000Y156100000D02*
X327700000Y155800000D01*
X332800000Y149000000D02*
X332800000Y148700000D01*
X332800000Y148700000D02*
X327600000Y148700000D01*
X327600000Y148700000D02*
X327600000Y149000000D01*
G04 #@! TO.C,U16*
X231364000Y152570000D02*
X231839000Y152570000D01*
X231364000Y148420000D02*
X231921500Y148420000D01*
X240314000Y148420000D02*
X239756500Y148420000D01*
X240314000Y152570000D02*
X239756500Y152570000D01*
X231364000Y152570000D02*
X231364000Y148420000D01*
X240314000Y152570000D02*
X240314000Y148420000D01*
X232663264Y151695000D02*
G75*
G03X232663264Y151695000I-424264J0D01*
G01*
G04 #@! TO.C,J1*
X319891778Y141675267D02*
X319420374Y141203862D01*
X320194824Y141372221D02*
X319824435Y141001832D01*
X319723419Y140968160D01*
X319622404Y141001832D01*
X319521389Y141102847D01*
X319487717Y141203862D01*
X319487717Y141271206D01*
X318780610Y141843625D02*
X319151000Y142214015D01*
X319252015Y142247687D01*
X319353030Y142214015D01*
X319487717Y142079328D01*
X319521389Y141978312D01*
X318814282Y141877297D02*
X318847954Y141776282D01*
X319016312Y141607923D01*
X319117328Y141574251D01*
X319218343Y141607923D01*
X319285687Y141675267D01*
X319319358Y141776282D01*
X319285687Y141877297D01*
X319117328Y142045656D01*
X319083656Y142146671D01*
X318443893Y142180343D02*
X318915297Y142651748D01*
X318780610Y142517061D02*
X318814282Y142618076D01*
X318814282Y142685419D01*
X318780610Y142786435D01*
X318713267Y142853778D01*
X318578580Y142988465D02*
X318309206Y143257839D01*
X318713267Y143325183D02*
X318107175Y142719091D01*
X318006160Y142685419D01*
X317905145Y142719091D01*
X317837801Y142786435D01*
X327850476Y142914619D02*
X328326666Y142914619D01*
X328374285Y142438428D01*
X328326666Y142486047D01*
X328231428Y142533666D01*
X327993333Y142533666D01*
X327898095Y142486047D01*
X327850476Y142438428D01*
X327802857Y142343190D01*
X327802857Y142105095D01*
X327850476Y142009857D01*
X327898095Y141962238D01*
X327993333Y141914619D01*
X328231428Y141914619D01*
X328326666Y141962238D01*
X328374285Y142009857D01*
X327517142Y142914619D02*
X327183809Y141914619D01*
X326850476Y142914619D01*
X337593824Y140623755D02*
X337492809Y140657427D01*
X337358122Y140792114D01*
X337324450Y140893129D01*
X337358122Y140994145D01*
X337391793Y141027816D01*
X337492809Y141061488D01*
X337593824Y141027816D01*
X337694839Y140926801D01*
X337795854Y140893129D01*
X337896870Y140926801D01*
X337930541Y140960473D01*
X337964213Y141061488D01*
X337930541Y141162503D01*
X337829526Y141263519D01*
X337728511Y141297190D01*
X337492809Y141600236D02*
X336886717Y141263519D01*
X337088748Y141734923D01*
X336617343Y141532893D01*
X336954061Y142138984D01*
X335910236Y142240000D02*
X336617343Y142947106D01*
X335943908Y142273671D02*
X335977580Y142172656D01*
X336112267Y142037969D01*
X336213282Y142004297D01*
X336280625Y142004297D01*
X336381641Y142037969D01*
X336583671Y142240000D01*
X336617343Y142341015D01*
X336617343Y142408358D01*
X336583671Y142509374D01*
X336448984Y142644061D01*
X336347969Y142677732D01*
X335573519Y142576717D02*
X336044923Y143048122D01*
X336280625Y143283824D02*
X336280625Y143216480D01*
X336213282Y143216480D01*
X336213282Y143283824D01*
X336280625Y143283824D01*
X336213282Y143216480D01*
X335135786Y143014450D02*
X335236801Y142980778D01*
X335304145Y142980778D01*
X335405160Y143014450D01*
X335607190Y143216480D01*
X335640862Y143317496D01*
X335640862Y143384839D01*
X335607190Y143485854D01*
X335506175Y143586870D01*
X335405160Y143620541D01*
X335337816Y143620541D01*
X335236801Y143586870D01*
X335034771Y143384839D01*
X335001099Y143283824D01*
X335001099Y143216480D01*
X335034771Y143115465D01*
X335135786Y143014450D01*
X334324034Y140337546D02*
X334223018Y140371217D01*
X334088331Y140505904D01*
X334054660Y140606920D01*
X334088331Y140707935D01*
X334122003Y140741607D01*
X334223018Y140775278D01*
X334324034Y140741607D01*
X334425049Y140640591D01*
X334526064Y140606920D01*
X334627079Y140640591D01*
X334660751Y140674263D01*
X334694423Y140775278D01*
X334660751Y140876294D01*
X334559736Y140977309D01*
X334458721Y141010981D01*
X334223018Y141314026D02*
X333616927Y140977309D01*
X333818957Y141448713D01*
X333347553Y141246683D01*
X333684270Y141852774D01*
X332640446Y141953790D02*
X333347553Y142660896D01*
X332674118Y141987461D02*
X332707790Y141886446D01*
X332842477Y141751759D01*
X332943492Y141718087D01*
X333010835Y141718087D01*
X333111851Y141751759D01*
X333313881Y141953790D01*
X333347553Y142054805D01*
X333347553Y142122148D01*
X333313881Y142223164D01*
X333179194Y142357851D01*
X333078179Y142391522D01*
X332034355Y142627225D02*
X332068026Y142526209D01*
X332202713Y142391522D01*
X332303729Y142357851D01*
X332371072Y142357851D01*
X332472087Y142391522D01*
X332674118Y142593553D01*
X332707790Y142694568D01*
X332707790Y142761912D01*
X332674118Y142862927D01*
X332539431Y142997614D01*
X332438416Y143031286D01*
X331596622Y142997614D02*
X331697637Y142963942D01*
X331798652Y142997614D01*
X332404744Y143603705D01*
X331327248Y143266988D02*
X332034355Y143974095D01*
X331529278Y143603705D02*
X331057874Y143536362D01*
X331529278Y144007766D02*
X331529278Y143469018D01*
X322330763Y141522282D02*
X321758343Y140949862D01*
X321724671Y140848847D01*
X321724671Y140781503D01*
X321758343Y140680488D01*
X321859358Y140579473D01*
X321960374Y140545801D01*
X321893030Y141084549D02*
X321926702Y140983534D01*
X322061389Y140848847D01*
X322162404Y140815175D01*
X322229748Y140815175D01*
X322330763Y140848847D01*
X322532793Y141050877D01*
X322566465Y141151893D01*
X322566465Y141219236D01*
X322532793Y141320251D01*
X322398106Y141454938D01*
X322297091Y141488610D01*
X321994045Y141858999D02*
X321522641Y141387595D01*
X321926702Y141791656D02*
X321926702Y141858999D01*
X321893030Y141960015D01*
X321792015Y142061030D01*
X321691000Y142094702D01*
X321589984Y142061030D01*
X321219595Y141690641D01*
X320579832Y142330404D02*
X321286938Y143037511D01*
X320613503Y142364076D02*
X320647175Y142263061D01*
X320781862Y142128374D01*
X320882877Y142094702D01*
X320950221Y142094702D01*
X321051236Y142128374D01*
X321253267Y142330404D01*
X321286938Y142431419D01*
X321286938Y142498763D01*
X321253267Y142599778D01*
X321118580Y142734465D01*
X321017564Y142768137D01*
X339983763Y141522282D02*
X339411343Y140949862D01*
X339377671Y140848847D01*
X339377671Y140781503D01*
X339411343Y140680488D01*
X339512358Y140579473D01*
X339613374Y140545801D01*
X339546030Y141084549D02*
X339579702Y140983534D01*
X339714389Y140848847D01*
X339815404Y140815175D01*
X339882748Y140815175D01*
X339983763Y140848847D01*
X340185793Y141050877D01*
X340219465Y141151893D01*
X340219465Y141219236D01*
X340185793Y141320251D01*
X340051106Y141454938D01*
X339950091Y141488610D01*
X339647045Y141858999D02*
X339175641Y141387595D01*
X339579702Y141791656D02*
X339579702Y141858999D01*
X339546030Y141960015D01*
X339445015Y142061030D01*
X339344000Y142094702D01*
X339242984Y142061030D01*
X338872595Y141690641D01*
X338232832Y142330404D02*
X338939938Y143037511D01*
X338266503Y142364076D02*
X338300175Y142263061D01*
X338434862Y142128374D01*
X338535877Y142094702D01*
X338603221Y142094702D01*
X338704236Y142128374D01*
X338906267Y142330404D01*
X338939938Y142431419D01*
X338939938Y142498763D01*
X338906267Y142599778D01*
X338771580Y142734465D01*
X338670564Y142768137D01*
X331815866Y140904118D02*
X331277118Y141442866D01*
G04 #@! TO.C,C17*
X277185428Y150748952D02*
X277185428Y149987047D01*
X277566380Y150368000D02*
X276804476Y150368000D01*
G04 #@! TO.C,C14*
X348233952Y151439571D02*
X347472047Y151439571D01*
X347853000Y151058619D02*
X347853000Y151820523D01*
G04 #@! TO.C,C15*
X312927952Y156900571D02*
X312166047Y156900571D01*
X312547000Y156519619D02*
X312547000Y157281523D01*
G04 #@! TO.C,C16*
X329382428Y157733952D02*
X329382428Y156972047D01*
X329763380Y157353000D02*
X329001476Y157353000D01*
G04 #@! TO.C,C18*
X226258428Y150748952D02*
X226258428Y149987047D01*
X226639380Y150368000D02*
X225877476Y150368000D01*
G04 #@! TO.C,C19*
X404185428Y150875952D02*
X404185428Y150114047D01*
X404566380Y150495000D02*
X403804476Y150495000D01*
G04 #@! TO.C,C20*
X175585428Y150748952D02*
X175585428Y149987047D01*
X175966380Y150368000D02*
X175204476Y150368000D01*
G04 #@! TO.C,C21*
X354147428Y150113952D02*
X354147428Y149352047D01*
X354528380Y149733000D02*
X353766476Y149733000D01*
G04 #@! TO.C,C22*
X505658428Y150748952D02*
X505658428Y149987047D01*
X506039380Y150368000D02*
X505277476Y150368000D01*
G04 #@! TO.C,C23*
X128341428Y152780952D02*
X128341428Y152019047D01*
X128722380Y152400000D02*
X127960476Y152400000D01*
G04 #@! TO.C,C24*
X454985428Y150748952D02*
X454985428Y149987047D01*
X455366380Y150368000D02*
X454604476Y150368000D01*
G04 #@! TO.C,U16*
X229891380Y151733095D02*
X230700904Y151733095D01*
X230796142Y151685476D01*
X230843761Y151637857D01*
X230891380Y151542619D01*
X230891380Y151352142D01*
X230843761Y151256904D01*
X230796142Y151209285D01*
X230700904Y151161666D01*
X229891380Y151161666D01*
X230891380Y150161666D02*
X230891380Y150733095D01*
X230891380Y150447380D02*
X229891380Y150447380D01*
X230034238Y150542619D01*
X230129476Y150637857D01*
X230177095Y150733095D01*
X229891380Y149304523D02*
X229891380Y149495000D01*
X229939000Y149590238D01*
X229986619Y149637857D01*
X230129476Y149733095D01*
X230319952Y149780714D01*
X230700904Y149780714D01*
X230796142Y149733095D01*
X230843761Y149685476D01*
X230891380Y149590238D01*
X230891380Y149399761D01*
X230843761Y149304523D01*
X230796142Y149256904D01*
X230700904Y149209285D01*
X230462809Y149209285D01*
X230367571Y149256904D01*
X230319952Y149304523D01*
X230272333Y149399761D01*
X230272333Y149590238D01*
X230319952Y149685476D01*
X230367571Y149733095D01*
X230462809Y149780714D01*
G04 #@! TD*
M02*
