M48
METRIC,TZ
T1C0.300
T2C0.400
T3C0.800
%
G90
G05
T1
X127.635Y145.542
X128.524Y142.621
X129.921Y152.146
X130.175Y150.749
X130.302Y154.94
X131.064Y155.067
X131.826Y151.003
X132.03Y151.842
X132.08Y149.352
X132.969Y149.479
X133.288Y151.447
X134.239Y151.511
X135.89Y160.02
X145.415Y156.337
X148.59Y160.02
X158.75Y160.02
X173.99Y160.02
X176.657Y143.383
X177.673Y147.955
X179.832Y152.527
X180.594Y153.035
X183.388Y149.479
X184.15Y151.511
X184.277Y149.479
X185.039Y151.511
X186.69Y160.02
X199.39Y160.02
X222.25Y160.02
X227.33Y144.272
X228.346Y147.955
X231.14Y152.781
X231.648Y152.019
X234.061Y149.479
X234.95Y149.479
X235.077Y151.511
X235.966Y151.511
X237.49Y160.02
X250.19Y160.02
X273.05Y160.02
X278.13Y143.383
X279.146Y147.955
X281.943Y153.165
X282.448Y152.781
X284.734Y149.606
X285.496Y151.638
X285.623Y149.606
X286.385Y151.638
X288.29Y160.02
X300.355Y151.384
X300.99Y160.02
X301.244Y152.019
X302.369Y153.039
X303.149Y152.862
X305.054Y142.367
X305.562Y141.732
X306.07Y142.367
X306.705Y141.732
X307.34Y142.367
X310.896Y154.559
X311.404Y153.797
X313.563Y153.797
X315.595Y153.543
X323.215Y156.345
X323.342Y147.066
X324.231Y156.337
X324.231Y155.448
X324.231Y148.59
X325.12Y147.447
X326.009Y149.733
X327.152Y157.861
X328.676Y154.051
X328.676Y143.612
X328.676Y142.494
X329.387Y149.86
X330.2Y160.147
X330.2Y157.597
X330.2Y144.033
X330.581Y151.956
X330.899Y151.13
X331.216Y152.654
X331.724Y153.289
X331.724Y149.352
X332.867Y157.099
X333.375Y146.939
X333.669Y143.727
X334.327Y143.066
X335.28Y147.32
X335.661Y151.638
X336.169Y155.067
X336.262Y150.842
X336.423Y155.956
X336.55Y151.765
X337.439Y156.845
X338.074Y156.845
X345.694Y156.718
X346.075Y150.114
X346.837Y149.098
X346.837Y147.828
X348.615Y154.813
X349.25Y155.448
X349.25Y150.114
X351.282Y143.662
X351.841Y144.424
X352.044Y152.273
X352.45Y143.408
X352.679Y151.638
X353.695Y151.511
X353.695Y148.971
X356.743Y145.796
X358.14Y151.765
X359.41Y144.78
X361.376Y149.291
X361.696Y151.511
X362.204Y149.479
X362.585Y151.511
X381.Y145.415
X402.082Y143.662
X402.641Y144.424
X403.25Y143.408
X407.416Y146.177
X408.559Y152.146
X409.321Y152.146
X410.21Y144.78
X412.369Y149.352
X412.496Y151.511
X413.131Y149.606
X413.385Y151.511
X431.8Y146.05
X452.882Y143.662
X453.441Y144.424
X454.05Y143.408
X457.2Y147.447
X459.359Y152.146
X460.248Y152.146
X461.01Y144.78
X463.296Y151.511
X463.296Y149.479
X464.185Y151.511
X464.185Y149.479
X482.6Y145.415
X503.682Y143.662
X504.241Y144.424
X504.85Y143.408
X509.143Y146.304
X510.159Y152.4
X511.048Y152.4
X511.81Y144.78
X513.588Y148.844
X513.715Y152.019
X514.223Y149.352
X514.477Y151.638
X528.066Y149.352
X528.828Y149.86
X528.828Y148.971
X531.368Y149.86
T2
X147.447Y156.337
X198.12Y154.178
X215.265Y164.465
X248.92Y154.178
X265.303Y163.703
X298.45Y144.78
X299.72Y154.178
X300.99Y144.78
X315.062Y164.465
X315.443Y161.544
X315.991Y156.679
X316.688Y157.125
X317.881Y157.125
X318.643Y156.591
X319.151Y157.607
X320.04Y157.607
X321.31Y157.607
X321.31Y156.718
X339.09Y156.845
X339.725Y157.48
X340.725Y156.591
X340.741Y157.48
X341.996Y157.15
X342.535Y156.53
X343.535Y157.136
X344.17Y156.718
X373.507Y153.416
X385.191Y164.973
X424.561Y153.416
X435.61Y164.719
X474.853Y153.416
X484.251Y164.846
T3
X408.94Y160.02
X408.94Y144.78
X411.48Y160.02
X411.48Y144.78
X414.02Y160.02
X414.02Y144.78
X416.56Y160.02
X416.56Y144.78
X419.1Y160.02
X419.1Y144.78
X421.64Y160.02
X421.64Y144.78
X424.18Y160.02
X424.18Y144.78
X426.72Y160.02
X426.72Y144.78
X429.26Y160.02
X429.26Y144.78
X358.14Y160.02
X358.14Y144.78
X360.68Y160.02
X360.68Y144.78
X363.22Y160.02
X363.22Y144.78
X365.76Y160.02
X365.76Y144.78
X368.3Y160.02
X368.3Y144.78
X370.84Y160.02
X370.84Y144.78
X373.38Y160.02
X373.38Y144.78
X375.92Y160.02
X375.92Y144.78
X378.46Y160.02
X378.46Y144.78
X281.94Y160.02
X281.94Y144.78
X284.48Y160.02
X284.48Y144.78
X287.02Y160.02
X287.02Y144.78
X289.56Y160.02
X289.56Y144.78
X292.1Y160.02
X292.1Y144.78
X294.64Y160.02
X294.64Y144.78
X297.18Y160.02
X297.18Y144.78
X299.72Y160.02
X299.72Y144.78
X302.26Y160.02
X302.26Y144.78
X205.74Y160.02
X205.74Y144.78
X208.28Y160.02
X208.28Y144.78
X210.82Y160.02
X210.82Y144.78
X213.36Y160.02
X213.36Y144.78
X215.9Y160.02
X215.9Y144.78
X218.44Y160.02
X218.44Y144.78
X220.98Y160.02
X220.98Y144.78
X223.52Y160.02
X223.52Y144.78
X226.06Y160.02
X226.06Y144.78
X231.14Y160.02
X231.14Y144.78
X233.68Y160.02
X233.68Y144.78
X236.22Y160.02
X236.22Y144.78
X238.76Y160.02
X238.76Y144.78
X241.3Y160.02
X241.3Y144.78
X243.84Y160.02
X243.84Y144.78
X246.38Y160.02
X246.38Y144.78
X248.92Y160.02
X248.92Y144.78
X251.46Y160.02
X251.46Y144.78
X510.54Y160.02
X510.54Y144.78
X513.08Y160.02
X513.08Y144.78
X515.62Y160.02
X515.62Y144.78
X518.16Y160.02
X518.16Y144.78
X520.7Y160.02
X520.7Y144.78
X523.24Y160.02
X523.24Y144.78
X525.78Y160.02
X525.78Y144.78
X528.32Y160.02
X528.32Y144.78
X530.86Y160.02
X530.86Y144.78
X383.54Y160.02
X383.54Y144.78
X386.08Y160.02
X386.08Y144.78
X388.62Y160.02
X388.62Y144.78
X391.16Y160.02
X391.16Y144.78
X393.7Y160.02
X393.7Y144.78
X396.24Y160.02
X396.24Y144.78
X398.78Y160.02
X398.78Y144.78
X401.32Y160.02
X401.32Y144.78
X403.86Y160.02
X403.86Y144.78
X332.74Y160.02
X332.74Y144.78
X335.28Y160.02
X335.28Y144.78
X337.82Y160.02
X337.82Y144.78
X340.36Y160.02
X340.36Y144.78
X342.9Y160.02
X342.9Y144.78
X345.44Y160.02
X345.44Y144.78
X347.98Y160.02
X347.98Y144.78
X350.52Y160.02
X350.52Y144.78
X353.06Y160.02
X353.06Y144.78
X307.34Y160.02
X307.34Y144.78
X309.88Y160.02
X309.88Y144.78
X312.42Y160.02
X312.42Y144.78
X314.96Y160.02
X314.96Y144.78
X317.5Y160.02
X317.5Y144.78
X320.04Y160.02
X320.04Y144.78
X322.58Y160.02
X322.58Y144.78
X325.12Y160.02
X325.12Y144.78
X327.66Y160.02
X327.66Y144.78
X434.34Y160.02
X434.34Y144.78
X436.88Y160.02
X436.88Y144.78
X439.42Y160.02
X439.42Y144.78
X441.96Y160.02
X441.96Y144.78
X444.5Y160.02
X444.5Y144.78
X447.04Y160.02
X447.04Y144.78
X449.58Y160.02
X449.58Y144.78
X452.12Y160.02
X452.12Y144.78
X454.66Y160.02
X454.66Y144.78
X320.04Y139.7
X322.58Y139.7
X325.12Y139.7
X327.66Y139.7
X330.2Y139.7
X332.74Y139.7
X335.28Y139.7
X337.82Y139.7
X340.36Y139.7
X180.34Y160.02
X180.34Y144.78
X182.88Y160.02
X182.88Y144.78
X185.42Y160.02
X185.42Y144.78
X187.96Y160.02
X187.96Y144.78
X190.5Y160.02
X190.5Y144.78
X193.04Y160.02
X193.04Y144.78
X195.58Y160.02
X195.58Y144.78
X198.12Y160.02
X198.12Y144.78
X200.66Y160.02
X200.66Y144.78
X256.54Y160.02
X256.54Y144.78
X259.08Y160.02
X259.08Y144.78
X261.62Y160.02
X261.62Y144.78
X264.16Y160.02
X264.16Y144.78
X266.7Y160.02
X266.7Y144.78
X269.24Y160.02
X269.24Y144.78
X271.78Y160.02
X271.78Y144.78
X274.32Y160.02
X274.32Y144.78
X276.86Y160.02
X276.86Y144.78
X154.94Y160.02
X154.94Y144.78
X157.48Y160.02
X157.48Y144.78
X160.02Y160.02
X160.02Y144.78
X162.56Y160.02
X162.56Y144.78
X165.1Y160.02
X165.1Y144.78
X167.64Y160.02
X167.64Y144.78
X170.18Y160.02
X170.18Y144.78
X172.72Y160.02
X172.72Y144.78
X175.26Y160.02
X175.26Y144.78
X485.14Y160.02
X485.14Y144.78
X487.68Y160.02
X487.68Y144.78
X490.22Y160.02
X490.22Y144.78
X492.76Y160.02
X492.76Y144.78
X495.3Y160.02
X495.3Y144.78
X497.84Y160.02
X497.84Y144.78
X500.38Y160.02
X500.38Y144.78
X502.92Y160.02
X502.92Y144.78
X505.46Y160.02
X505.46Y144.78
X459.74Y160.02
X459.74Y144.78
X462.28Y160.02
X462.28Y144.78
X464.82Y160.02
X464.82Y144.78
X467.36Y160.02
X467.36Y144.78
X469.9Y160.02
X469.9Y144.78
X472.44Y160.02
X472.44Y144.78
X474.98Y160.02
X474.98Y144.78
X477.52Y160.02
X477.52Y144.78
X480.06Y160.02
X480.06Y144.78
X129.54Y160.02
X129.54Y144.78
X132.08Y160.02
X132.08Y144.78
X134.62Y160.02
X134.62Y144.78
X137.16Y160.02
X137.16Y144.78
X139.7Y160.02
X139.7Y144.78
X142.24Y160.02
X142.24Y144.78
X144.78Y160.02
X144.78Y144.78
X147.32Y160.02
X147.32Y144.78
X149.86Y160.02
X149.86Y144.78
T0
M30
